<svg width="25" height="24" viewBox="0 0 25 24" fill="none" xmlns="http://www.w3.org/2000/svg">
<path d="M21.3401 4.60987C20.8294 4.09888 20.2229 3.69352 19.5555 3.41696C18.888 3.14039 18.1726 2.99805 17.4501 2.99805C16.7276 2.99805 16.0122 3.14039 15.3448 3.41696C14.6773 3.69352 14.0709 4.09888 13.5601 4.60987L12.5001 5.66987L11.4401 4.60987C10.4084 3.57818 9.00915 2.99858 7.55012 2.99858C6.09109 2.99858 4.69181 3.57818 3.66012 4.60987C2.62843 5.64156 2.04883 7.04084 2.04883 8.49987C2.04883 9.95891 2.62843 11.3582 3.66012 12.3899L4.72012 13.4499L12.5001 21.2299L20.2801 13.4499L21.3401 12.3899C21.8511 11.8791 22.2565 11.2727 22.533 10.6052C22.8096 9.93777 22.9519 9.22236 22.9519 8.49987C22.9519 7.77738 22.8096 7.06198 22.533 6.39452C22.2565 5.72706 21.8511 5.12063 21.3401 4.60987V4.60987Z" stroke="#8A8B8E" stroke-linecap="round" stroke-linejoin="round"/>
</svg>
