<svg width="314" height="91" viewBox="0 0 314 91" fill="none" xmlns="http://www.w3.org/2000/svg">
<path d="M0.166667 5.86914C0.166667 8.81466 2.55448 11.2025 5.5 11.2025C8.44552 11.2025 10.8333 8.81466 10.8333 5.86914C10.8333 2.92362 8.44552 0.535807 5.5 0.535807C2.55448 0.535807 0.166667 2.92362 0.166667 5.86914ZM302.667 5.86914C302.667 8.81466 305.054 11.2025 308 11.2025C310.946 11.2025 313.333 8.81466 313.333 5.86914C313.333 2.92362 310.946 0.535807 308 0.535807C305.054 0.535807 302.667 2.92362 302.667 5.86914ZM4.56083 6.2126C4.79377 6.84956 5.0328 7.48304 5.27784 8.11305L7.14181 7.38804C6.90167 6.77067 6.66744 6.14988 6.43917 5.52568L4.56083 6.2126ZM6.8198 11.8513C7.35748 13.0835 7.91867 14.3016 8.50281 15.5058L10.3023 14.6329C9.72976 13.4527 9.17978 12.2589 8.65286 11.0514L6.8198 11.8513ZM10.3383 19.104C10.9743 20.2913 11.633 21.4643 12.314 22.623L14.0382 21.6096C13.3706 20.4736 12.7248 19.3236 12.1014 18.1597L10.3383 19.104ZM14.4235 26.0566C15.1496 27.1885 15.8975 28.306 16.6665 29.409L18.3071 28.2651C17.5527 27.183 16.8191 26.0868 16.1069 24.9766L14.4235 26.0566ZM19.0362 32.6742C19.8451 33.7458 20.6744 34.8029 21.5235 35.8455L23.0742 34.5825C22.2405 33.5588 21.4264 32.521 20.6325 31.4693L19.0362 32.6742ZM24.1235 38.9223C25.0095 39.9334 25.9147 40.9301 26.8384 41.9122L28.2952 40.5419C27.3874 39.5767 26.498 38.5975 25.6277 37.6042L24.1235 38.9223ZM29.6433 44.7936C30.5944 45.738 31.5631 46.6681 32.5489 47.5838L33.9101 46.1185C32.9403 45.2177 31.9876 44.303 31.0525 43.3744L29.6433 44.7936ZM35.5534 50.2851C36.5599 51.161 37.5825 52.023 38.6207 52.871L39.8859 51.322C38.8636 50.487 37.857 49.6385 36.8664 48.7764L35.5534 50.2851ZM41.7814 55.373C42.8446 56.1887 43.9227 56.9905 45.0151 57.7785L46.1851 56.1564C45.1084 55.3798 44.0462 54.5898 42.9989 53.7862L41.7814 55.373ZM48.3031 60.0791C49.4128 60.8324 50.5361 61.572 51.6725 62.298L52.7492 60.6126C51.6283 59.8965 50.5205 59.167 49.4263 58.4243L48.3031 60.0791ZM55.0888 64.416C56.2325 65.104 57.3884 65.7788 58.5559 66.4403L59.5418 64.7002C58.3892 64.0472 57.2484 63.3811 56.1198 62.7022L55.0888 64.416ZM62.0932 68.3851C63.2696 69.0125 64.457 69.627 65.6548 70.2285L66.5523 68.4412C65.369 67.847 64.1962 67.24 63.0345 66.6204L62.0932 68.3851ZM69.2655 71.9876C70.4792 72.5611 71.7028 73.1216 72.9359 73.6692L73.7476 71.8413C72.5287 71.3 71.3193 70.746 70.1199 70.1793L69.2655 71.9876ZM76.6134 75.2525C77.8463 75.7669 79.0879 76.2687 80.3379 76.7579L81.0668 74.8955C79.8305 74.4116 78.6026 73.9153 77.3835 73.4067L76.6134 75.2525ZM84.1123 78.1877C85.3616 78.6456 86.6186 79.0912 87.8829 79.5245L88.5313 77.6325C87.2802 77.2037 86.0365 76.7628 84.8005 76.3099L84.1123 78.1877ZM91.6964 80.7872C92.9739 81.1956 94.2582 81.5917 95.5489 81.9755L96.119 80.0585C94.8412 79.6785 93.5699 79.2864 92.3054 78.8822L91.6964 80.7872ZM99.396 83.0779C100.684 83.4333 101.979 83.7766 103.278 84.1078L103.772 82.1698C102.485 81.8418 101.204 81.5018 99.9278 81.1499L99.396 83.0779ZM107.191 85.0648C108.488 85.3689 109.79 85.6612 111.097 85.9415L111.517 83.986C110.222 83.7083 108.932 83.4188 107.647 83.1176L107.191 85.0648ZM115.031 86.7469C116.346 87.0034 117.666 87.2479 118.989 87.4806L119.335 85.5108C118.024 85.2803 116.717 85.038 115.414 84.7839L115.031 86.7469ZM122.94 88.1384C124.261 88.3459 125.584 88.5416 126.911 88.7255L127.186 86.7445C125.871 86.5622 124.559 86.3682 123.25 86.1626L122.94 88.1384ZM130.9 89.2419C132.225 89.4015 133.553 89.5493 134.883 89.6855L135.087 87.6958C133.769 87.5609 132.453 87.4144 131.139 87.2563L130.9 89.2419ZM138.88 90.0587C140.214 90.1715 141.55 90.2724 142.887 90.3617L143.02 88.3661C141.695 88.2777 140.37 88.1776 139.048 88.0658L138.88 90.0587ZM146.891 90.5936C148.227 90.6593 149.564 90.7132 150.902 90.7554L150.965 88.7564C149.639 88.7145 148.314 88.6611 146.99 88.596L146.891 90.5936ZM154.916 90.8467C156.254 90.8655 157.592 90.8725 158.93 90.8677L158.923 88.8677C157.597 88.8724 156.27 88.8655 154.944 88.8469L154.916 90.8467ZM162.944 90.8181C164.281 90.7898 165.618 90.7497 166.954 90.6978L166.877 88.6993C165.552 88.7507 164.227 88.7905 162.902 88.8185L162.944 90.8181ZM170.967 90.5063C172.304 90.4306 173.639 90.343 174.973 90.2435L174.824 88.2491C173.502 88.3477 172.179 88.4345 170.854 88.5095L170.967 90.5063ZM178.969 89.9094C180.304 89.7857 181.637 89.6499 182.967 89.5022L182.747 87.5144C181.428 87.6608 180.108 87.7953 178.785 87.9179L178.969 89.9094ZM186.955 89.0224C188.281 88.8504 189.605 88.6663 190.925 88.4702L190.631 86.4919C189.323 86.6862 188.012 86.8686 186.698 87.039L186.955 89.0224ZM194.896 87.8421C196.219 87.6201 197.538 87.3859 198.852 87.1393L198.484 85.1736C197.181 85.4178 195.875 85.6498 194.565 85.8697L194.896 87.8421ZM202.784 86.3628C204.098 86.09 205.409 85.8046 206.714 85.5067L206.269 83.5568C204.977 83.8518 203.679 84.1343 202.377 84.4046L202.784 86.3628ZM210.623 84.5733C211.921 84.2497 213.214 83.9134 214.501 83.5645L213.978 81.6341C212.704 81.9795 211.424 82.3123 210.139 82.6328L210.623 84.5733ZM218.374 82.4713C219.662 82.093 220.945 81.7019 222.22 81.2979L221.616 79.3913C220.354 79.791 219.086 80.178 217.811 80.5522L218.374 82.4713ZM226.026 80.0469C227.299 79.613 228.565 79.166 229.824 78.7057L229.137 76.8274C227.892 77.2826 226.64 77.7247 225.381 78.1538L226.026 80.0469ZM233.585 77.2816C234.831 76.7936 236.068 76.2922 237.297 75.7775L236.525 73.9327C235.31 74.4414 234.087 74.9369 232.855 75.4194L233.585 77.2816ZM240.997 74.1762C242.224 73.6278 243.441 73.0657 244.649 72.4898L243.788 70.6846C242.595 71.2533 241.393 71.8086 240.181 72.3504L240.997 74.1762ZM248.243 70.721C249.445 70.1105 250.637 69.4858 251.818 68.8469L250.866 67.0878C249.701 67.7183 248.524 68.335 247.337 68.9378L248.243 70.721ZM255.33 66.8871C256.491 66.2188 257.641 65.5363 258.779 64.8396L257.735 63.1339C256.612 63.8211 255.478 64.4943 254.332 65.1537L255.33 66.8871ZM262.192 62.6838C263.317 61.9507 264.43 61.203 265.53 60.4406L264.391 58.7969C263.307 59.5482 262.21 60.2853 261.1 61.0081L262.192 62.6838ZM268.799 58.1032C269.883 57.3036 270.953 56.4892 272.009 55.6598L270.774 54.087C269.734 54.9038 268.68 55.706 267.612 56.4936L268.799 58.1032ZM275.134 53.1266C276.164 52.2644 277.179 51.387 278.18 50.4945L276.848 49.0023C275.864 49.8805 274.864 50.744 273.85 51.5928L275.134 53.1266ZM281.144 47.7618C282.116 46.8356 283.072 45.8942 284.012 44.9374L282.585 43.536C281.661 44.4768 280.72 45.4027 279.764 46.3137L281.144 47.7618ZM286.786 42.0158C287.694 41.0258 288.586 40.0204 289.459 38.9995L287.94 37.6991C287.081 38.7022 286.205 39.6904 285.312 40.6636L286.786 42.0158ZM292.027 35.8906C292.862 34.8418 293.68 33.7777 294.479 32.6981L292.871 31.5085C292.086 32.5688 291.283 33.6141 290.463 34.6445L292.027 35.8906ZM296.818 29.4139C297.578 28.3055 298.319 27.1818 299.04 26.0427L297.35 24.9729C296.642 26.0913 295.915 27.1947 295.169 28.2831L296.818 29.4139ZM301.127 22.6081C301.803 21.4481 302.46 20.273 303.096 19.0827L301.332 18.14C300.707 19.3085 300.063 20.4621 299.399 21.6009L301.127 22.6081ZM304.932 15.4894C305.517 14.2904 306.081 13.0769 306.626 11.8487L304.797 11.0383C304.263 12.2441 303.708 13.4355 303.134 14.6125L304.932 15.4894ZM308.197 8.1202C308.448 7.49156 308.694 6.85925 308.935 6.22328L307.065 5.515C306.828 6.13949 306.587 6.76036 306.34 7.37761L308.197 8.1202Z" fill="#6282B2"/>
</svg>
