<svg width="67" height="52" viewBox="0 0 67 52" fill="#082553" xmlns="http://www.w3.org/2000/svg">
<path d="M23.2549 33.1021C22.7826 32.7338 22.3493 32.3959 21.9625 32.1116L64.2875 17.7962C61.4875 19.9888 57.775 22.7738 45.025 32.1116C44.6251 32.4058 44.1836 32.7492 43.7068 33.1201C41.0385 35.1958 37.2648 38.1314 33.5 38.11C29.7177 38.142 25.8816 35.1505 23.2549 33.1021ZM63.9792 17.4025L63.9797 17.4021C64.8111 16.7526 66 17.3458 66 18.3884V44.1461C66 47.7579 63.0925 50.6949 59.5 50.6949H7.5C3.90755 50.6949 1 47.7579 1 44.1461V18.3758C1 17.3576 2.19428 16.7306 3.02274 17.3914C5.81535 19.5783 9.51054 22.3723 22.2579 31.7082L22.2586 31.7087C22.6648 32.0073 23.1094 32.3541 23.5889 32.7281C24.6582 33.5621 25.9008 34.5314 27.2767 35.4018C29.262 36.6578 31.4111 37.6277 33.4958 37.61V37.6099L33.5028 37.61C35.5767 37.6218 37.6988 36.6695 39.6707 35.4251C41.041 34.5604 42.2864 33.5914 43.3743 32.7449C43.8578 32.3687 44.3102 32.0168 44.7287 31.7089L44.7296 31.7082C57.4809 22.3694 61.1867 19.5893 63.9792 17.4025ZM64.6622 13.02L64.6593 13.0223C64.3798 13.2424 64.1139 13.4522 63.8548 13.6566C60.5616 16.2547 58.3501 17.9994 42.9704 29.2512C42.6326 29.4985 42.2238 29.8168 41.7662 30.1731C40.8649 30.875 39.7746 31.724 38.6659 32.4671C37.8187 33.0348 36.9324 33.5617 36.0633 33.9447C35.2022 34.3242 34.3245 34.5774 33.5 34.5649C32.6755 34.5774 31.7978 34.3242 30.9367 33.9447C30.0676 33.5617 29.1813 33.0348 28.3341 32.4671C27.2254 31.724 26.1351 30.875 25.2338 30.1731C24.7763 29.8169 24.3675 29.4986 24.0298 29.2513C8.3658 17.7916 6.36118 16.2047 2.96051 13.5128C2.7599 13.354 2.55442 13.1913 2.341 13.0226C1.49316 12.3589 1 11.3308 1 10.2478V7.85347C1 4.24172 3.90755 1.30469 7.5 1.30469H59.5C63.0925 1.30469 66 4.24172 66 7.85347V10.2478C66 11.3344 65.5042 12.3468 64.6622 13.02Z" fill="#082553" stroke="#ffffff"/>
</svg>
