<svg width="284" height="70" viewBox="0 0 284 70" fill="none" xmlns="http://www.w3.org/2000/svg">
<path d="M46.6326 39.575V39.7277H47.057C46.9212 39.6768 46.7854 39.6259 46.6326 39.575ZM46.6326 39.575V39.7277H47.057C46.9212 39.6768 46.7854 39.6259 46.6326 39.575ZM50.9105 27.7768C50.7747 27.7259 50.6559 27.6919 50.5201 27.641H50.0447C49.7392 27.641 49.5015 27.8786 49.5015 28.1842V28.7104C49.5015 29.016 49.2638 29.2537 48.9583 29.2537H48.432C48.1265 29.2537 47.8888 29.016 47.8888 28.7104V28.1502C47.8888 27.8447 47.6511 27.607 47.3456 27.607H46.2252V26.2829C45.9366 26.198 45.631 26.0962 45.3424 26.0113C45.3085 25.9943 45.2576 25.9943 45.2236 25.9773C45.0878 25.9434 44.969 25.8925 44.8501 25.8585C44.8332 25.8585 44.8162 25.8415 44.7992 25.8415C44.3918 25.7227 43.9844 25.6039 43.5939 25.485C43.3732 25.4171 43.1695 25.3492 42.9489 25.2983V28.4219C42.9489 28.8972 42.5754 29.2707 42.1001 29.2707H41.3871C41.421 29.2876 41.472 29.2876 41.5059 29.3046C41.7096 29.3725 41.9303 29.4234 42.134 29.4913C42.3547 29.5592 42.5754 29.6271 42.7961 29.695C43.2205 29.8309 43.6449 29.9497 44.0693 30.0855C44.8501 30.3231 45.631 30.5778 46.4289 30.8154C46.4968 30.8324 46.5647 30.8494 46.6156 30.8834C46.6835 30.9003 46.7514 30.9343 46.8193 30.9513H48.9413C49.2469 30.9513 49.4845 30.7136 49.4845 30.408V29.8309C49.4845 29.5253 49.7222 29.2876 50.0278 29.2876H50.554C50.8596 29.2876 51.0972 29.05 51.0972 28.7444V28.2351C51.0972 28.0314 51.0293 27.8786 50.9105 27.7768ZM46.2252 28.7274C46.2252 28.999 46.0045 29.2197 45.7329 29.2197H45.1218C44.8501 29.2197 44.6295 28.999 44.6295 28.7274V28.1163C44.6295 27.8447 44.8501 27.624 45.1218 27.624H46.2252V28.7274ZM75.3217 37.3851C72.4698 36.027 69.2953 34.635 65.8831 33.243V35.2461C65.8831 35.5517 65.6455 35.7894 65.3399 35.7894H60.7904C61.3846 36.01 61.9617 36.2477 62.5559 36.4684C67.0035 38.2169 71.0947 39.9993 74.5917 41.7139C74.6087 41.7309 74.6427 41.7309 74.6596 41.7479C74.6936 41.7648 74.7275 41.7818 74.7615 41.7988C75.1349 40.3898 75.4066 38.9468 75.5424 37.453C75.4575 37.453 75.3896 37.419 75.3217 37.3851ZM63.167 32.513H63.7102C63.7781 32.513 63.8461 32.4961 63.914 32.4791C63.4896 32.3093 63.0652 32.1396 62.6238 31.9698C62.6238 32.2754 62.8615 32.513 63.167 32.513ZM60.9262 33.1072C60.9262 32.8016 60.6886 32.564 60.383 32.564H59.8737C59.5682 32.564 59.3305 32.8016 59.3305 33.1072V33.6334C59.3305 33.939 59.0928 34.1767 58.7873 34.1767H58.244C57.9724 34.1767 57.7348 34.3804 57.7008 34.652C58.1252 34.8048 58.5326 34.9575 58.957 35.1103C59.0759 35.1613 59.1947 35.1952 59.3135 35.2461V34.7029C59.3135 34.3973 59.5512 34.1597 59.8567 34.1597H60.383C60.6886 34.1597 60.9262 33.922 60.9262 33.6165V33.1072V33.1072ZM58.244 30.9343H59.8737C59.7209 30.8833 59.5682 30.8154 59.4154 30.7645C58.5836 30.459 57.7348 30.1534 56.869 29.8478C56.3258 29.6441 55.7825 29.4574 55.2223 29.2707C55.0526 29.2027 54.8828 29.1518 54.7131 29.1009C54.5603 29.05 54.4245 28.999 54.2717 28.9481C53.8643 28.8123 53.4569 28.6595 53.0494 28.5237C52.9646 28.4898 52.8627 28.4558 52.7778 28.4388V30.3571C52.7778 30.6627 53.0155 30.9003 53.3211 30.9003H53.8643C54.1698 30.9003 54.4075 31.138 54.4075 31.4436V33.4637C54.798 33.5995 55.1884 33.7353 55.5788 33.8881C55.6807 33.922 55.7656 33.956 55.8674 33.9899C55.9693 33.8881 56.0372 33.7523 56.0372 33.5995V33.0563C56.0372 32.7507 56.2748 32.513 56.5804 32.513H57.1236C57.4292 32.513 57.6669 32.2754 57.6669 31.9698V31.4775C57.7008 31.1719 57.9554 30.9343 58.244 30.9343ZM39.6386 24.3307V25.2134C39.6386 25.6209 39.316 25.9434 38.9086 25.9434H35.5304C35.123 25.9434 34.8005 25.6209 34.8005 25.2134V23.0405C34.7665 23.0405 34.7326 23.0236 34.6986 23.0066C34.1724 22.8708 33.6631 22.7519 33.1538 22.6161V26.7243C33.1538 26.8261 33.1708 26.911 33.2047 26.9959C33.9347 27.1826 34.6647 27.3694 35.4116 27.5561H40.4364C40.9118 27.5561 41.2852 27.1826 41.2852 26.7073V24.7721C40.725 24.6363 40.1818 24.4835 39.6386 24.3307ZM25.5317 20.9525C24.7678 22.2087 24.1227 23.5328 23.5625 24.9079C23.8002 24.9418 24.0548 24.9928 24.2925 25.0437C26.5333 25.4681 28.9269 25.9773 31.4732 26.5885V22.2257C29.4022 21.7504 27.416 21.309 25.5317 20.9525ZM46.6326 39.575V39.7277H47.057C46.9212 39.6768 46.7854 39.6259 46.6326 39.575ZM46.6326 39.575V39.7277H47.057C46.9212 39.6768 46.7854 39.6259 46.6326 39.575Z" fill="#092C64"/>
<path d="M80.8892 24.5854C82.8112 24.5854 84.3693 23.0273 84.3693 21.1053C84.3693 19.1834 82.8112 17.6253 80.8892 17.6253C78.9672 17.6253 77.4092 19.1834 77.4092 21.1053C77.4092 23.0273 78.9672 24.5854 80.8892 24.5854Z" fill="#092C64"/>
<path d="M46.2246 49.7095C46.2246 50.1509 46.5811 50.5244 47.0394 50.5244H47.0734C47.5148 50.5244 47.8882 50.1679 47.8882 49.7095V47.299C47.345 47.1292 46.7848 46.9425 46.2416 46.7727V49.7095H46.2246Z" fill="#092C64"/>
<path d="M35.4454 44.0396H38.2974C38.0088 43.9377 37.7372 43.8359 37.4486 43.734C37.0072 43.5643 36.5658 43.4115 36.1414 43.2587C35.717 43.1059 35.3096 42.9531 34.8852 42.7834C34.5457 42.6646 34.2232 42.5287 33.9006 42.4099C33.4593 42.4948 33.1367 42.8852 33.1367 43.3436V49.5567C33.1367 50.083 33.5611 50.5243 34.0874 50.5243H40.3005C40.8268 50.5243 41.2681 50.0999 41.2681 49.5567V45.0921C40.7079 44.8884 40.1477 44.7016 39.5875 44.4979C39.6045 44.5658 39.6215 44.6337 39.6215 44.7016V48.1987C39.6215 48.5721 39.3159 48.8777 38.9424 48.8777H35.4285C35.055 48.8777 34.7494 48.5721 34.7494 48.1987V44.7016C34.7834 44.3452 35.0889 44.0396 35.4454 44.0396Z" fill="#092C64"/>
<path d="M62.6066 51.5089C62.6066 51.8824 62.3011 52.1879 61.9276 52.1879H61.656C61.2825 52.1879 60.977 51.8824 60.977 51.5089V51.2882C60.977 51.2203 60.977 51.1694 60.9939 51.1185C58.855 50.5752 56.6651 49.9641 54.4073 49.3021C54.4073 49.9981 54.4073 50.6941 54.4073 51.3731C54.4073 51.8315 54.0339 52.1879 53.5925 52.1879C53.3718 52.1879 53.1681 52.1031 53.0153 51.9503C52.8625 51.7975 52.7777 51.5938 52.7777 51.3731C52.7777 50.8299 52.7777 50.2867 52.7777 49.7434C52.7777 49.3869 52.9983 49.0984 53.3039 48.9795C53.0832 48.9116 52.8456 48.8437 52.6249 48.7758C52.523 48.8777 52.3872 48.9286 52.2514 48.9286H51.6912C51.3856 48.9286 51.148 48.6909 51.148 48.3854V48.3344C50.6217 48.1817 50.0955 48.0119 49.5692 47.8421C49.5353 47.927 49.5183 48.0119 49.5183 48.1138V51.4071C49.5183 51.8484 49.1618 52.2219 48.7035 52.2219H45.4102C44.9688 52.2219 44.5953 51.8654 44.5953 51.4071V46.4841C44.5953 46.3992 44.6123 46.3313 44.6293 46.2634C44.0691 46.0767 43.5089 45.8899 42.9656 45.7032V51.2373C42.9656 51.7635 42.5412 52.1879 42.015 52.1879H32.4746C31.9484 52.1879 31.507 51.7635 31.507 51.2373V41.6969C31.507 41.612 31.507 41.5441 31.5409 41.4762C30.2678 40.9669 29.0115 40.4577 27.8063 39.9484C24.9543 38.7601 22.0854 41.5441 23.1719 44.43C23.3756 44.9732 23.5963 45.5165 23.8339 46.0427C24.1225 45.8729 24.462 45.7711 24.8185 45.7711C25.9219 45.7711 26.8047 46.6538 26.8047 47.7573C26.8047 48.5381 26.3633 49.2002 25.7182 49.5227C30.5054 57.026 38.9084 62 48.4658 62C56.4953 62 63.7101 58.486 68.667 52.9179C66.6978 52.4935 64.6947 52.0352 62.6066 51.5089ZM57.6837 51.6277C57.6837 51.9333 57.429 52.1879 57.1235 52.1879H56.6142C56.3086 52.1879 56.054 51.9333 56.054 51.6277V51.1524C56.054 50.8469 56.3086 50.5922 56.6142 50.5922H57.1235C57.429 50.5922 57.6837 50.8469 57.6837 51.1524V51.6277Z" fill="#092C64"/>
<path d="M59.3472 42.359C59.3303 42.342 59.3303 42.342 59.3472 42.359L56.6651 42.342C56.3256 42.342 56.0539 42.0704 56.0539 41.7309C56.0539 41.3914 56.0539 41.0688 56.0539 40.7293H56.037V40.7123H54.9675C54.6619 40.7123 54.4243 40.95 54.4243 41.2556V41.7818C54.4243 41.9346 54.3564 42.0704 54.2715 42.1723C56.02 42.6985 57.7345 43.1908 59.4152 43.6492C59.3812 43.5643 59.3472 43.4794 59.3472 43.3775C59.3472 43.038 59.3472 42.6985 59.3472 42.359Z" fill="#092C64"/>
<path d="M47.3286 39.1166H46.7854C46.4968 39.1166 46.2761 39.3373 46.2422 39.6089C46.2931 39.6259 46.361 39.6429 46.4119 39.6599V39.8126H46.8533C46.9382 39.8466 47.04 39.8636 47.1249 39.8975C47.3796 39.9824 47.6342 40.0673 47.8719 40.1522V39.6599C47.8719 39.3713 47.6342 39.1166 47.3286 39.1166Z" fill="#092C64"/>
<path d="M40.4197 19.4586H33.9689C33.4936 19.4586 33.1201 19.8321 33.1201 20.3074V26.7582C33.1201 26.8601 33.1371 26.9449 33.171 27.0298C33.2899 27.3693 33.5954 27.59 33.9689 27.59H40.4197C40.895 27.59 41.2685 27.2166 41.2685 26.7412V20.2904C41.2685 19.8321 40.895 19.4586 40.4197 19.4586ZM39.6388 25.2134C39.6388 25.6208 39.3163 25.9434 38.9089 25.9434H35.5307C35.1233 25.9434 34.8007 25.6208 34.8007 25.2134V21.8352C34.8007 21.4278 35.1233 21.1053 35.5307 21.1053H38.9089C39.3163 21.1053 39.6388 21.4278 39.6388 21.8352V25.2134Z" fill="#092C64"/>
<path d="M63.3879 19.4756H56.9031C56.4448 19.4756 56.0713 19.8491 56.0713 20.3074V26.7922C56.0713 27.2505 56.4448 27.624 56.9031 27.624H63.3879C63.8462 27.624 64.2197 27.2505 64.2197 26.7922V20.3074C64.2027 19.8321 63.8462 19.4756 63.3879 19.4756ZM62.573 25.1964C62.573 25.6038 62.2335 25.9434 61.8261 25.9434H58.4649C58.0575 25.9434 57.7179 25.6038 57.7179 25.1964V21.8352C57.7179 21.4278 58.0575 21.0883 58.4649 21.0883H61.8261C62.2335 21.0883 62.573 21.4278 62.573 21.8352V25.1964Z" fill="#092C64"/>
<path d="M67.6824 16.0805C67.4617 16.2163 67.1901 16.2502 66.9354 16.1484C66.4771 15.9786 66.2394 15.4693 66.3922 15.011C66.4092 14.9771 66.4262 14.9261 66.4431 14.8922C61.6729 10.6143 55.358 8 48.4318 8C39.6214 8 31.7956 12.227 26.8556 18.7627C26.3293 19.4587 25.837 20.1886 25.3787 20.9356C25.3617 20.9695 25.3278 21.0204 25.3108 21.0544C24.5808 22.2766 23.9358 23.5498 23.3925 24.8739C23.3756 24.9079 23.3586 24.9588 23.3416 24.9928C22.7475 26.4697 22.2891 28.0145 21.9666 29.6102C21.9496 29.6781 21.9326 29.729 21.9326 29.7969C22.1024 29.8818 22.2721 29.9667 22.4419 30.0516C25.5824 31.5964 29.2152 33.1921 33.1536 34.7878V34.5332C33.1536 34.3125 33.3234 34.1427 33.5441 34.1427H34.3759C34.5966 34.1427 34.7663 34.3125 34.7663 34.5332V35.4159C34.7663 35.4159 34.7663 35.4159 34.7663 35.4329C35.0719 35.5517 35.3774 35.6705 35.7 35.7894H35.8358C35.9207 35.7894 35.9886 35.7724 36.0565 35.7384C36.2432 35.6536 36.379 35.4668 36.379 35.2461V34.7029C36.379 34.3974 36.1414 34.1597 35.8358 34.1597H35.3095C35.004 34.1597 34.7663 33.922 34.7663 33.6165V33.0732C34.7663 32.7677 34.5287 32.53 34.2231 32.53H32.0502C31.7446 32.53 31.507 32.2924 31.507 31.9868V31.4436C31.507 31.138 31.7446 30.9003 32.0502 30.9003H37.4824C37.788 30.9003 38.0257 31.138 38.0257 31.4436V33.5995C38.0257 33.9051 38.2633 34.1427 38.5689 34.1427H39.1121C39.4177 34.1427 39.6553 34.3804 39.6553 34.6859V35.2461C39.6553 35.5517 39.4177 35.7894 39.1121 35.7894H38.6368C38.3312 35.7894 38.0936 36.027 38.0936 36.3326V36.7061C38.5689 36.8758 39.0442 37.0626 39.5365 37.2323C39.7063 37.3002 39.876 37.3511 40.0458 37.419C40.4872 37.5888 40.9455 37.7416 41.4039 37.9113C41.4208 37.8604 41.4378 37.8095 41.4548 37.7586C41.5566 37.5718 41.7434 37.453 41.981 37.453H42.9826V37.436H42.9996C42.9996 36.8928 42.9996 36.3496 42.9996 35.8233H42.9826V35.8063H41.998C41.6585 35.8063 41.3869 35.5347 41.3869 35.1952V34.8217C41.3869 34.4822 41.6585 34.2106 41.998 34.2106H42.3715C42.711 34.2106 42.9826 34.4822 42.9826 34.8217V35.8063H42.9996V35.8233H43.9842C44.3237 35.8233 44.6123 36.0949 44.6123 36.4514C44.6123 36.7909 44.6123 37.1305 44.6123 37.47H44.6293V37.4869H45.6987C46.0043 37.4869 46.242 37.2323 46.242 36.9437V34.7199C46.242 34.4143 46.4966 34.1767 46.7852 34.1767C46.9719 34.1767 47.1756 34.1767 47.3624 34.1767C47.6679 34.1767 47.9056 34.4143 47.9056 34.7199V35.2461C47.9056 35.5517 48.1432 35.7894 48.4488 35.7894H48.9581C49.2636 35.7894 49.5013 35.5517 49.5013 35.2461V34.7369C49.5013 34.4313 49.2636 34.1936 48.9581 34.1936H48.4318C48.1263 34.1936 47.8886 33.956 47.8886 33.6504V33.1242C47.8886 32.8186 47.6509 32.5809 47.3454 32.5809H46.8022C46.4966 32.5809 46.2589 32.8186 46.2589 33.1242V33.6334C46.2589 33.939 46.0213 34.1767 45.7157 34.1767H45.2064C44.9009 34.1767 44.6632 33.939 44.6632 33.6334V31.4775C44.6632 31.172 44.9009 30.9343 45.2064 30.9343H48.9411C49.2467 30.9343 49.4843 30.6966 49.4843 30.3911V29.8139C49.4843 29.5083 49.722 29.2707 50.0276 29.2707H50.5538C50.8594 29.2707 51.097 29.033 51.097 28.7274V28.2182C51.097 28.0484 51.0291 27.8956 50.9103 27.8107C50.8084 27.7259 50.6896 27.6749 50.5538 27.6749H50.0445C49.739 27.6749 49.5013 27.9126 49.5013 28.2182V28.7444C49.5013 29.05 49.2636 29.2876 48.9581 29.2876H48.4318C48.1263 29.2876 47.8886 29.05 47.8886 28.7444V28.1503C47.8886 27.8447 47.6509 27.607 47.3454 27.607H46.225V27.624V28.7274C46.225 28.9991 46.0043 29.2197 45.7327 29.2197H45.1216C44.8499 29.2197 44.6293 28.9991 44.6293 28.7274V28.1163C44.6293 27.8447 44.8499 27.624 45.1216 27.624H46.225V27.607H46.242V25.9943H46.225V25.9774H45.1555C45.0197 25.9774 44.9009 25.9264 44.816 25.8416C44.6972 25.7397 44.6293 25.6039 44.6293 25.4511V21.5976C44.6293 21.309 44.8669 21.0714 45.1555 21.0714C46.0552 21.0714 46.9549 21.0714 47.8547 21.0714V21.0544H47.8716C47.8716 20.1886 47.8716 19.3229 47.8716 18.4571C47.8716 18.0836 48.1602 17.795 48.5337 17.795H52.1156C52.489 17.795 52.7776 18.1006 52.7776 18.4571V18.7627C52.7776 19.1191 52.489 19.4247 52.1156 19.4247H51.81C51.4535 19.4247 51.148 19.7303 51.148 20.0868V22.056C51.148 22.4294 50.8594 22.718 50.4859 22.718H50.1464C49.7899 22.718 49.4843 22.4294 49.4843 22.056V21.7164C49.4843 21.3599 49.1957 21.0544 48.8223 21.0544H47.8716V21.0714H47.8547V23.8214C47.8547 24.11 47.617 24.3477 47.3284 24.3477H46.7512C46.4626 24.3477 46.225 24.5853 46.225 24.8739V25.9604H46.242V25.9774H48.9751C49.2806 25.9774 49.5183 25.7397 49.5183 25.4341V24.8739C49.5183 24.5684 49.7559 24.3307 50.0615 24.3307H50.6047C50.9103 24.3307 51.148 24.5684 51.148 24.8739V25.4511C51.148 25.7567 51.3856 25.9943 51.6912 25.9943H52.2514C52.5569 25.9943 52.7946 26.232 52.7946 26.5376V30.3571C52.7946 30.6627 53.0323 30.9003 53.3378 30.9003H53.8811C54.1866 30.9003 54.4243 31.138 54.4243 31.4436V33.5995C54.4243 33.9051 54.6619 34.1427 54.9675 34.1427H55.5107C55.6635 34.1427 55.7993 34.0748 55.8842 33.9899C55.9861 33.8881 56.054 33.7523 56.054 33.5995V33.0563C56.054 32.7507 56.2916 32.513 56.5972 32.513H57.1404C57.446 32.513 57.6836 32.2754 57.6836 31.9698V31.4775C57.6836 31.172 57.9213 30.9343 58.2269 30.9343H62.0464C62.352 30.9343 62.5896 31.172 62.5896 31.4775V31.9698C62.5896 32.2754 62.8443 32.513 63.1329 32.513H63.6761C63.744 32.513 63.8119 32.4961 63.8798 32.4791C64.0835 32.3942 64.2193 32.2075 64.2193 31.9698V31.4436C64.2193 31.138 64.457 30.9003 64.7625 30.9003H65.3058C65.6113 30.9003 65.849 31.138 65.849 31.4436V35.2631C65.849 35.5687 65.6113 35.8063 65.3058 35.8063H59.8396C59.534 35.8063 59.2963 35.5687 59.2963 35.2631V34.7199C59.2963 34.4143 59.534 34.1767 59.8396 34.1767H60.3658C60.6714 34.1767 60.909 33.939 60.909 33.6334V33.1242C60.909 32.8186 60.6714 32.5809 60.3658 32.5809H59.8565C59.551 32.5809 59.3133 32.8186 59.3133 33.1242V33.6504C59.3133 33.956 59.0756 34.1936 58.7701 34.1936H58.2269C57.9553 34.1936 57.7176 34.3974 57.6836 34.669C57.6836 34.6859 57.6836 34.7199 57.6836 34.7369V35.2461C57.6836 35.5517 57.446 35.7894 57.1404 35.7894H53.3378C53.0323 35.7894 52.7946 35.5517 52.7946 35.2461V34.7538C52.7946 34.4483 52.5569 34.2106 52.2514 34.2106H51.7082C51.4026 34.2106 51.1649 34.4483 51.1649 34.7538V36.9267C51.1649 37.2323 50.9273 37.47 50.6217 37.47H50.0955C49.7899 37.47 49.5522 37.7076 49.5522 38.0132V38.5225C49.5522 38.828 49.7899 39.0657 50.0955 39.0657H50.6047C50.9103 39.0657 51.148 39.3034 51.148 39.6089V40.1352C51.148 40.4407 51.3856 40.6784 51.6912 40.6784H52.2005C52.506 40.6784 52.7437 40.4407 52.7437 40.1352V39.6259C52.7437 39.3203 52.506 39.0827 52.2005 39.0827H51.6912C51.3856 39.0827 51.148 38.828 51.148 38.5395V37.9962C51.148 37.6907 51.4026 37.453 51.6912 37.453H55.4938C55.7993 37.453 56.037 37.6907 56.037 37.9962V40.7123H56.054V40.7293H57.0555C57.395 40.7293 57.6667 40.4577 57.6667 40.1182V38.0811C57.6667 37.7416 57.9383 37.47 58.2778 37.47H58.7022C59.0417 37.47 59.3133 37.7416 59.3133 38.0811V38.4546C59.3133 38.7941 59.5849 39.0657 59.9244 39.0657H60.3319C60.6714 39.0657 60.943 39.3373 60.943 39.6768V40.1012C60.943 40.4407 60.6714 40.7123 60.3319 40.7123H59.9584C59.6189 40.7123 59.3473 40.984 59.3473 41.3235C59.3473 41.663 59.3473 42.0025 59.3473 42.342H59.3642V42.359H63.5912C63.9307 42.359 64.2193 42.6306 64.2193 42.9871V43.3606C64.2193 43.7001 63.9307 43.9887 63.5912 43.9887H63.2517C62.9971 43.9887 62.7764 44.1415 62.6745 44.3791C62.6575 44.43 62.6406 44.464 62.6406 44.5149C66.2564 45.4486 69.6516 46.2295 72.7242 46.8067C72.7412 46.7727 72.7581 46.7218 72.7751 46.6878C73.1316 45.9579 73.4541 45.194 73.7427 44.4131C73.7427 44.4131 73.7427 44.4131 73.7427 44.3961C74.0483 43.5982 74.3029 42.7834 74.5236 41.9346C74.5406 41.8667 74.5576 41.8158 74.5745 41.7479C74.931 40.3898 75.1687 39.0148 75.3045 37.5888C75.3045 37.5209 75.3215 37.453 75.3215 37.4021C75.3894 36.6042 75.4233 35.8063 75.4233 34.9915V34.8217C75.3724 27.5222 72.4356 20.9016 67.6824 16.0805ZM32.3218 29.2537C31.8465 29.2537 31.473 28.8802 31.473 28.4049V18.6268C31.473 18.1515 31.8465 17.7781 32.3218 17.7781H42.0999C42.5752 17.7781 42.9487 18.1515 42.9487 18.6268V28.4049C42.9487 28.8802 42.5752 29.2537 42.0999 29.2537H32.3218ZM42.8977 31.9868C42.8977 32.2754 42.677 32.4961 42.3884 32.4961H41.8452C41.5566 32.4961 41.336 32.2754 41.336 31.9868V31.4266C41.336 31.138 41.5566 30.9173 41.8452 30.9173H42.3884C42.677 30.9173 42.8977 31.138 42.8977 31.4266V31.9868ZM46.225 19.0343C46.225 19.238 46.0722 19.3908 45.8685 19.3908H44.9518C44.7481 19.3908 44.5953 19.221 44.5953 19.0343V18.1515C44.5953 17.9478 44.7651 17.795 44.9518 17.795H45.8685C46.0722 17.795 46.225 17.9478 46.225 18.1515V19.0343ZM52.7437 23.9572C52.7437 24.1779 52.5739 24.3477 52.3532 24.3477H51.5384C51.3177 24.3477 51.148 24.1779 51.148 23.9572V23.1085C51.148 22.8878 51.3347 22.718 51.5384 22.718H52.3532C52.5739 22.718 52.7437 22.8878 52.7437 23.1085V23.9572ZM63.6082 40.7123H63.2517C62.9122 40.7123 62.6575 40.4407 62.6575 40.1182V39.7278C62.6575 39.3882 62.9292 39.1336 63.2517 39.1336H63.6082C63.9477 39.1336 64.2023 39.4052 64.2023 39.7278V40.1182C64.2023 40.4407 63.9307 40.7123 63.6082 40.7123ZM65.0511 29.2537H55.2391C55.0524 29.2537 54.8657 29.1858 54.7298 29.0839C54.5431 28.9312 54.4073 28.6935 54.4073 28.4389V18.6268C54.4073 18.1685 54.7808 17.795 55.2391 17.795H65.0511C65.5095 17.795 65.8829 18.1685 65.8829 18.6268V28.4389C65.8829 28.8802 65.5095 29.2537 65.0511 29.2537Z" fill="#092C64"/>
<path d="M44.5613 37.47C44.5613 37.47 44.5783 37.453 44.5613 37.47C44.5783 37.453 44.5613 37.47 44.5613 37.47V37.453C44.0181 37.453 43.4918 37.436 42.9486 37.436V37.453L42.9316 37.436L42.9486 37.453H42.9316V38.4716C43.0165 38.5055 43.1014 38.5225 43.1693 38.5564C43.39 38.6413 43.6107 38.7092 43.8483 38.7941C44.086 38.879 44.3237 38.9639 44.5613 39.0487C44.5783 38.5225 44.5783 37.9962 44.5613 37.47Z" fill="#092C64"/>
<path d="M52.2179 41.5441C51.9802 41.4762 51.7595 41.4083 51.5219 41.3234C51.0975 41.1876 50.6731 41.0518 50.2487 40.916C49.8243 40.7802 49.3829 40.6444 48.9585 40.5086C48.602 40.3898 48.2286 40.2709 47.8721 40.1521V41.7818C47.8721 42.0873 48.1097 42.325 48.4153 42.325H53.8645C54.0173 42.325 54.1531 42.2571 54.255 42.1552C54.0003 42.0704 53.7457 42.0025 53.4741 41.9176C53.0667 41.8157 52.6423 41.6799 52.2179 41.5441Z" fill="#092C64"/>
<path d="M44.5781 39.0487C44.5781 39.4222 44.5781 39.7787 44.5781 40.1521C44.5781 40.4577 44.8158 40.6954 45.1214 40.6954H45.6816C45.9871 40.6954 46.2248 40.4577 46.2248 40.1521V39.6768C46.2248 39.6598 46.2248 39.6429 46.2248 39.6259C45.8683 39.5071 45.5118 39.3882 45.1553 39.2694C44.9686 39.1845 44.7818 39.1166 44.5781 39.0487Z" fill="#092C64"/>
<path d="M51.1482 45.6353H51.1309V45.6526H51.1482V45.6353Z" fill="#092C64"/>
<path d="M62.6241 45.6183C62.6071 45.6183 62.6071 45.6183 62.6241 45.6183C62.6071 45.6353 62.6241 45.6183 62.6241 45.6183Z" fill="#092C64"/>
<path d="M60.8071 44.0396C60.3487 43.9208 59.8904 43.785 59.415 43.6661C59.5169 43.8698 59.7376 44.0226 59.9752 44.0226H60.3657C60.7052 44.0226 60.9938 44.3112 60.9938 44.6507V44.9903C60.9938 45.3298 61.2824 45.6184 61.6219 45.6184H62.6235C62.6235 45.2958 62.6235 44.9563 62.6235 44.6168C62.6235 44.5828 62.6235 44.5489 62.6404 44.5149C62.4877 44.481 62.3349 44.4301 62.1821 44.3961C61.7068 44.2773 61.2654 44.1584 60.8071 44.0396Z" fill="#092C64"/>
<path d="M41.3525 38.0471V38.5224C41.3525 38.811 41.5902 39.0487 41.8788 39.0487H42.422C42.7106 39.0487 42.9483 38.811 42.9483 38.5224V38.4715C42.422 38.2848 41.8958 38.098 41.3695 37.9113C41.3525 37.9622 41.3525 37.9962 41.3525 38.0471Z" fill="#092C64"/>
<path d="M62.6238 45.6183C62.6238 45.6183 62.6068 45.6353 62.6238 45.6183C62.6238 45.6353 62.6238 45.6353 62.6238 45.6183Z" fill="#092C64"/>
<path d="M64.2022 47.265C64.2022 46.7048 64.2022 46.1785 64.2022 45.6183C63.6589 45.6183 63.1327 45.6183 62.6234 45.6183C62.6234 46.1616 62.6064 46.7048 62.6064 47.265C63.1497 47.265 63.6759 47.265 64.2022 47.265Z" fill="#092C64"/>
<path d="M46.2419 45.6353H46.2246V45.6526H46.2419V45.6353Z" fill="#092C64"/>
<path d="M47.8718 45.6353H47.8545V45.6526H47.8718V45.6353Z" fill="#092C64"/>
<path d="M33.1533 35.4328C33.1533 35.6535 33.3231 35.8233 33.5438 35.8233H34.3756C34.5793 35.8233 34.749 35.6535 34.766 35.4498C34.2228 35.2291 33.6965 35.0254 33.1533 34.8047V35.4328Z" fill="#092C64"/>
<path d="M74.7443 41.8327C80.8386 44.8375 83.3511 46.7557 84.3696 47.7573C82.9606 47.944 79.7522 47.978 72.9958 46.7218C72.9789 46.7218 72.9449 46.7218 72.9279 46.7048C72.877 46.6878 72.8261 46.6878 72.7751 46.6708C69.7025 46.0937 66.2904 45.3128 62.6745 44.3791C62.5897 44.3621 62.4878 44.3282 62.386 44.3112C61.9276 44.1924 61.4862 44.0736 61.0279 43.9547C60.4847 43.8019 59.9245 43.6492 59.3643 43.4964C57.7346 43.038 56.054 42.5627 54.3734 42.0534C54.1527 41.9855 53.949 41.9176 53.7283 41.8497C53.3039 41.7139 52.8795 41.5951 52.4551 41.4593C52.2175 41.3914 51.9968 41.3235 51.7591 41.2386C51.3347 41.1028 50.9103 40.967 50.4859 40.8312C50.0615 40.6954 49.6202 40.5596 49.1958 40.4238C48.7544 40.2879 48.33 40.1352 47.8886 39.9994C47.7019 39.9484 47.5321 39.8805 47.3454 39.8296C47.2605 39.7956 47.1587 39.7617 47.0738 39.7447H46.6324V39.5919C46.5136 39.558 46.3948 39.5071 46.2759 39.4731C45.9704 39.3713 45.6818 39.2694 45.3762 39.1675C45.1046 39.0827 44.833 38.9808 44.5614 38.8959C44.3916 38.845 44.2219 38.7771 44.0521 38.7262C43.8314 38.6413 43.6107 38.5734 43.3731 38.4885C43.2203 38.4376 43.0675 38.3867 42.9147 38.3188C42.4055 38.132 41.8962 37.9623 41.3869 37.7755C40.9965 37.6397 40.589 37.4869 40.1986 37.3511C40.0288 37.2832 39.8591 37.2323 39.6893 37.1644C39.1291 36.9607 38.5859 36.757 38.0257 36.5533C37.3467 36.2986 36.6676 36.044 35.9886 35.7724C35.5642 35.6026 35.1398 35.4329 34.7154 35.2801C34.1722 35.0594 33.629 34.8557 33.1027 34.635C29.2492 33.0732 25.7013 31.5115 22.6117 29.9836C22.4419 29.8988 22.2722 29.8139 22.1024 29.729C22.0345 29.6951 21.9836 29.6611 21.9157 29.6441C16.2458 26.8092 13.8692 24.9758 12.8846 24.0082C14.2426 23.8384 17.2134 23.7875 23.3586 24.8909C23.4095 24.8909 23.4774 24.9079 23.5284 24.9249C24.0716 23.5498 24.7337 22.2257 25.4976 20.9695C25.4466 20.9695 25.3957 20.9525 25.3448 20.9355C24.6148 20.7997 23.9018 20.6639 23.1889 20.5451C19.3354 19.9 16.2118 19.5945 13.9031 19.6624C12.579 19.6963 9.03105 19.8151 8.16529 22.4294C7.29952 25.0437 10.0666 27.2505 11.1021 28.0824C12.9185 29.5253 15.5837 31.155 19.0637 32.9374C19.8786 33.3618 20.7274 33.7862 21.6101 34.2106C24.5469 35.6366 27.8572 37.0795 31.4221 38.5225C31.8974 38.7092 32.3558 38.8959 32.8311 39.0827C33.9855 39.541 35.1738 39.9994 36.379 40.4577C36.7865 40.6105 37.2109 40.7633 37.6183 40.9161C37.6862 40.95 37.7541 40.967 37.839 41.0009C38.1785 41.1367 38.535 41.2556 38.8745 41.3744C40.5551 41.9855 42.2696 42.5967 44.0182 43.1908C44.4426 43.3266 44.8669 43.4794 45.2913 43.6152C45.512 43.6831 45.7157 43.768 45.9364 43.8359C46.5815 44.0396 47.2096 44.2603 47.8547 44.464L48.9751 44.8205C56.767 47.3159 64.2363 49.2851 70.5683 50.5583C71.7566 50.796 72.911 51.0166 74.0144 51.2034C77.4944 51.7975 80.3803 52.0861 82.6041 52.0861C82.8418 52.0861 83.0625 52.0861 83.2832 52.0691C84.6073 52.0352 88.1552 51.9164 89.021 49.3021C89.8867 46.6878 87.1197 44.481 86.0842 43.6492C84.2847 42.2062 81.6026 40.5765 78.1225 38.7941C77.2737 38.3527 76.374 37.9113 75.4573 37.47L74.7443 41.8327Z" fill="#092C64"/>
<path d="M107.267 46.4C105.427 46.4 103.8 45.96 102.387 45.08C100.973 44.2 99.8665 43 99.0665 41.48C98.2665 39.9333 97.8665 38.16 97.8665 36.16C97.8665 34.16 98.2665 32.3867 99.0665 30.84C99.8665 29.2933 100.973 28.0933 102.387 27.24C103.8 26.36 105.427 25.92 107.267 25.92C108.413 25.92 109.467 26.12 110.427 26.52C111.413 26.8933 112.227 27.4267 112.867 28.12C113.533 28.8133 113.96 29.6133 114.147 30.52V41.8C113.96 42.7067 113.533 43.5067 112.867 44.2C112.227 44.8933 111.413 45.44 110.427 45.84C109.467 46.2133 108.413 46.4 107.267 46.4ZM109.027 39.52C110.013 39.52 110.8 39.2133 111.387 38.6C112 37.96 112.307 37.1467 112.307 36.16C112.307 35.4933 112.173 34.92 111.907 34.44C111.64 33.9333 111.253 33.5333 110.747 33.24C110.267 32.9467 109.707 32.8 109.067 32.8C108.427 32.8 107.853 32.9467 107.347 33.24C106.867 33.5333 106.48 33.9333 106.187 34.44C105.893 34.9467 105.747 35.52 105.747 36.16C105.747 36.8 105.88 37.3733 106.147 37.88C106.44 38.3867 106.84 38.7867 107.347 39.08C107.853 39.3733 108.413 39.52 109.027 39.52ZM112.067 54.4V40.72L113.147 35.92L112.067 31.16V26.32H119.707V54.4H112.067ZM123.481 46V26.32H131.321V46H123.481ZM131.321 35.36L127.681 32.12C128.694 29.9867 129.867 28.4267 131.201 27.44C132.561 26.4267 134.254 25.92 136.281 25.92C137.187 25.92 137.961 26.0267 138.601 26.24C139.267 26.4533 139.801 26.76 140.201 27.16L135.801 33.4C135.614 33.1867 135.334 33.0133 134.961 32.88C134.614 32.72 134.201 32.64 133.721 32.64C132.921 32.64 132.321 32.88 131.921 33.36C131.521 33.8133 131.321 34.48 131.321 35.36Z" fill="#D0DFF6"/>
<path d="M161.265 46.4C160.091 46.4 158.985 46.2133 157.945 45.84C156.905 45.44 156.025 44.8933 155.305 44.2C154.585 43.5067 154.118 42.7067 153.905 41.8V30.92C154.118 30.0133 154.585 29.1867 155.305 28.44C156.025 27.6667 156.905 27.0533 157.945 26.6C158.985 26.1467 160.091 25.92 161.265 25.92C163.211 25.92 164.905 26.36 166.345 27.24C167.811 28.0933 168.945 29.2933 169.745 30.84C170.571 32.3867 170.985 34.16 170.985 36.16C170.985 38.16 170.571 39.9333 169.745 41.48C168.945 43 167.811 44.2 166.345 45.08C164.905 45.96 163.211 46.4 161.265 46.4ZM159.785 39.52C160.425 39.52 160.998 39.3733 161.505 39.08C162.011 38.7867 162.398 38.3867 162.665 37.88C162.958 37.3733 163.105 36.8 163.105 36.16C163.105 35.4933 162.958 34.92 162.665 34.44C162.398 33.9333 162.011 33.5333 161.505 33.24C161.025 32.9467 160.465 32.8 159.825 32.8C159.185 32.8 158.611 32.9467 158.105 33.24C157.625 33.5067 157.238 33.8933 156.945 34.4C156.678 34.9067 156.545 35.4933 156.545 36.16C156.545 36.8 156.678 37.3733 156.945 37.88C157.211 38.3867 157.585 38.7867 158.065 39.08C158.571 39.3733 159.145 39.52 159.785 39.52ZM149.145 54.4V26.32H156.985V31.16L155.705 35.92L156.785 40.72V54.4H149.145ZM173.559 46V16.72H181.399V46H173.559ZM193.36 46.4C191.52 46.4 189.894 45.96 188.48 45.08C187.067 44.2 185.96 43 185.16 41.48C184.36 39.9333 183.96 38.16 183.96 36.16C183.96 34.16 184.36 32.3867 185.16 30.84C185.96 29.2933 187.067 28.0933 188.48 27.24C189.894 26.36 191.52 25.92 193.36 25.92C194.507 25.92 195.56 26.12 196.52 26.52C197.507 26.8933 198.32 27.4267 198.96 28.12C199.627 28.8133 200.054 29.6133 200.24 30.52V41.8C200.054 42.7067 199.627 43.5067 198.96 44.2C198.32 44.8933 197.507 45.44 196.52 45.84C195.56 46.2133 194.507 46.4 193.36 46.4ZM195.12 39.52C196.107 39.52 196.894 39.2133 197.48 38.6C198.094 37.96 198.4 37.1467 198.4 36.16C198.4 35.4933 198.267 34.92 198 34.44C197.734 33.9333 197.347 33.5333 196.84 33.24C196.36 32.9467 195.8 32.8 195.16 32.8C194.52 32.8 193.947 32.9467 193.44 33.24C192.96 33.5333 192.574 33.9333 192.28 34.44C191.987 34.9467 191.84 35.52 191.84 36.16C191.84 36.8 191.974 37.3733 192.24 37.88C192.534 38.3867 192.934 38.7867 193.44 39.08C193.947 39.3733 194.507 39.52 195.12 39.52ZM198.16 46V40.72L199.24 35.92L198.16 31.16V26.32H205.8V46H198.16ZM222.094 46V34.96C222.094 34.1867 221.868 33.6 221.414 33.2C220.988 32.7733 220.441 32.56 219.774 32.56C219.321 32.56 218.908 32.6533 218.534 32.84C218.188 33.0267 217.908 33.3067 217.694 33.68C217.508 34.0267 217.414 34.4533 217.414 34.96L214.374 33.6C214.374 32 214.721 30.6267 215.414 29.48C216.134 28.3333 217.108 27.4533 218.334 26.84C219.588 26.2267 221.001 25.92 222.574 25.92C223.988 25.92 225.241 26.24 226.334 26.88C227.454 27.4933 228.334 28.3467 228.974 29.44C229.614 30.5067 229.934 31.7467 229.934 33.16V46H222.094ZM209.574 46V26.32H217.414V46H209.574ZM243.525 46.48C241.232 46.48 239.219 46.0533 237.485 45.2C235.752 44.32 234.392 43.1067 233.405 41.56C232.445 39.9867 231.965 38.1867 231.965 36.16C231.965 34.16 232.432 32.3867 233.365 30.84C234.325 29.2933 235.632 28.08 237.285 27.2C238.939 26.2933 240.805 25.84 242.885 25.84C244.939 25.84 246.752 26.2667 248.325 27.12C249.899 27.9467 251.125 29.1067 252.005 30.6C252.912 32.0933 253.365 33.8 253.365 35.72C253.365 36.12 253.339 36.5467 253.285 37C253.259 37.4267 253.179 37.9333 253.045 38.52L235.285 38.64V33.84L250.125 33.72L246.485 35.84C246.485 34.7733 246.352 33.9067 246.085 33.24C245.845 32.5467 245.472 32.0267 244.965 31.68C244.459 31.3333 243.819 31.16 243.045 31.16C242.245 31.16 241.552 31.36 240.965 31.76C240.379 32.16 239.925 32.7333 239.605 33.48C239.312 34.2267 239.165 35.1333 239.165 36.2C239.165 37.2933 239.325 38.2133 239.645 38.96C239.992 39.68 240.485 40.2267 241.125 40.6C241.765 40.9733 242.565 41.16 243.525 41.16C244.459 41.16 245.272 41.0133 245.965 40.72C246.685 40.4 247.339 39.9067 247.925 39.24L251.845 43.12C250.859 44.24 249.672 45.08 248.285 45.64C246.899 46.2 245.312 46.48 243.525 46.48ZM257.956 46V18.24H265.796V46H257.956ZM253.756 32.72V26.32H269.996V32.72H253.756Z" fill="#6282B2"/>
</svg>
