<svg width="65" height="64" viewBox="0 0 65 64" fill="#082553" xmlns="http://www.w3.org/2000/svg">
<path d="M45.2991 27.5098L45.299 27.5106C45.0875 28.9407 44.5923 29.961 43.9222 30.6799C43.2515 31.3993 42.3734 31.8515 41.338 32.0901L40.0165 32.3947L41.2194 33.0209C42.6888 33.7858 43.732 34.7214 44.2542 35.9142C44.7736 37.1003 44.8158 38.6284 44.1039 40.661L44.1038 40.6611C43.2328 43.1498 41.7942 44.4448 39.9163 45.0226C37.9932 45.6143 35.5538 45.4715 32.6705 44.9258L32.2067 44.8381L32.0924 45.2961L30.8057 50.4521L28.3744 49.8463L29.6426 44.7662L29.7639 44.2804L29.2778 44.1598C28.3752 43.936 27.475 43.7024 26.5774 43.4592L26.0849 43.3257L25.9615 43.8208L24.6883 48.9272L22.2607 48.3216L23.5477 43.155L23.6677 42.673L23.1865 42.5497C22.8728 42.4694 22.5537 42.3862 22.2311 42.3021C21.7461 42.1757 21.2533 42.0472 20.759 41.9234L20.7584 41.9232L16.9043 40.9626L18.1872 38.0048C18.4192 38.0659 18.7218 38.1451 19.0236 38.2229C19.3353 38.3032 19.6485 38.3827 19.8827 38.4392C19.9988 38.4672 20.1005 38.4908 20.1742 38.5061C20.2085 38.5131 20.2488 38.521 20.2846 38.5257L20.2857 38.5258C20.2908 38.5265 20.3017 38.528 20.3165 38.5292C20.9008 38.6574 21.3796 38.5384 21.7423 38.2762C22.0967 38.02 22.2919 37.6625 22.3946 37.4076L22.4076 37.3754L22.416 37.3418L24.6405 28.4245L24.5481 28.4015L24.5558 28.3776L24.6464 28.4002L26.2334 22.0346L26.2447 21.9892L26.2474 21.9425C26.272 21.5175 26.2141 20.9935 25.9102 20.5146C25.6087 20.0396 25.1036 19.6695 24.3533 19.4682C24.3426 19.4635 24.3346 19.4603 24.3305 19.4587L24.3294 19.4582C24.2924 19.4435 24.2504 19.4303 24.2165 19.4201C24.1427 19.3979 24.0406 19.3703 23.9249 19.3404C23.691 19.2799 23.3768 19.2034 23.064 19.1287C22.7935 19.0641 22.5219 19.0004 22.3007 18.9489L22.9618 16.2949L26.6954 17.2271L26.6914 17.2451L27.1643 17.3626C27.8749 17.5392 28.6059 17.7068 29.3459 17.8754L29.8235 17.9842L29.9421 17.509L31.2152 12.4082L33.6447 13.0139L32.3996 18.005L32.2761 18.5L32.7735 18.6135C33.6868 18.8219 34.6005 19.0309 35.4892 19.2524L35.9743 19.3733L36.0953 18.8882L37.3307 13.9328L39.762 14.5386L38.4897 19.6412L38.3789 20.0857L38.8121 20.2349C40.935 20.9661 42.7072 21.8596 43.8713 23.033C45.0105 24.1813 45.5832 25.6109 45.2991 27.5098ZM38.5067 38.6019C38.8204 37.3438 38.5238 36.2898 37.8592 35.4396C37.2127 34.6127 36.2356 33.9981 35.2041 33.53C33.5527 32.7806 31.6097 32.3454 30.3383 32.0606C30.0279 31.9911 29.7575 31.9305 29.5412 31.8765L29.056 31.7554L28.935 32.2406L27.067 39.728L26.9458 40.2136L27.4316 40.3343C27.6128 40.3792 27.8285 40.4363 28.0723 40.5008C29.3302 40.8334 31.3381 41.3644 33.2313 41.463C34.3634 41.5219 35.5129 41.4314 36.4663 41.0156C37.4457 40.5885 38.2029 39.8224 38.5067 38.6019ZM39.5587 27.6439L39.5588 27.6437C39.8436 26.5009 39.6168 25.5427 39.0612 24.7675C38.5214 24.0142 37.6956 23.4665 36.8289 23.0574C35.4454 22.4044 33.8069 22.0426 32.7478 21.8087C32.4897 21.7518 32.2661 21.7024 32.0889 21.6582L31.6038 21.5373L31.4829 22.0224L29.7894 28.8133L29.6684 29.2985L30.1536 29.4194C30.3034 29.4567 30.4828 29.5047 30.6865 29.5592C31.7328 29.8389 33.4193 30.2897 35.0161 30.3484C35.9741 30.3835 36.9578 30.282 37.7827 29.8811C38.6316 29.4686 39.282 28.7523 39.5587 27.6439ZM32.5 63.5C49.897 63.5 64 49.397 64 32C64 14.603 49.897 0.5 32.5 0.5C15.103 0.5 1 14.603 1 32C1 49.397 15.103 63.5 32.5 63.5Z" fill="#082553" stroke="none"/>
</svg>
