<svg width="320" height="91" viewBox="0 0 320 91" fill="none" xmlns="http://www.w3.org/2000/svg">
<path d="M0.166667 5.86914C0.166667 8.81466 2.55448 11.2025 5.5 11.2025C8.44552 11.2025 10.8333 8.81466 10.8333 5.86914C10.8333 2.92362 8.44552 0.535807 5.5 0.535807C2.55448 0.535807 0.166667 2.92362 0.166667 5.86914ZM309.167 5.86914C309.167 8.81466 311.554 11.2025 314.5 11.2025C317.446 11.2025 319.833 8.81466 319.833 5.86914C319.833 2.92362 317.446 0.535807 314.5 0.535807C311.554 0.535807 309.167 2.92362 309.167 5.86914ZM4.56083 6.2126C4.79235 6.84569 5.03011 7.47534 5.27402 8.10157L7.13765 7.37568C6.89876 6.76238 6.66591 6.14571 6.43917 5.52568L4.56083 6.2126ZM6.81085 11.8176C7.34738 13.0425 7.90797 14.2536 8.49203 15.4508L10.2895 14.5739C9.7174 13.4011 9.16831 12.2149 8.64281 11.0152L6.81085 11.8176ZM10.3259 19.0228C10.9616 20.2014 11.6206 21.3659 12.3023 22.5162L14.0229 21.4966C13.3548 20.3692 12.709 19.2281 12.0862 18.0734L10.3259 19.0228ZM14.4145 25.9244C15.1405 27.046 15.8887 28.1533 16.6582 29.2463L18.2936 28.095C17.5388 27.0229 16.8052 25.9371 16.0933 24.8375L14.4145 25.9244ZM19.0306 32.4828C19.8401 33.5443 20.6704 34.5917 21.5208 35.6248L23.065 34.3538C22.2301 33.3396 21.4153 32.3116 20.6209 31.27L19.0306 32.4828ZM24.1206 38.6689C25.0068 39.6695 25.9124 40.656 26.8367 41.6283L28.2862 40.2502C27.3779 39.2948 26.4882 38.3256 25.6178 37.3429L24.1206 38.6689ZM29.6418 44.4792C30.5915 45.4122 31.5589 46.3313 32.5436 47.2365L33.8972 45.7642C32.9286 44.8737 31.9771 43.9698 31.0435 43.0525L29.6418 44.4792ZM35.5488 49.9107C36.5528 50.7755 37.5729 51.6269 38.6087 52.4647L39.8665 50.9097C38.8465 50.0847 37.8423 49.2466 36.8542 48.3954L35.5488 49.9107ZM41.7602 54.9359C42.823 55.7438 43.9009 56.5384 44.9932 57.3194L46.1565 55.6925C45.0798 54.9227 44.0176 54.1397 42.9706 53.3437L41.7602 54.9359ZM48.2656 59.5901C49.3701 60.3339 50.4883 61.0647 51.6196 61.7823L52.6909 60.0934C51.5748 59.3855 50.4719 58.6647 49.3827 57.9312L48.2656 59.5901ZM55.032 63.8838C56.1685 64.5631 57.3171 65.2299 58.4775 65.8839L59.4595 64.1416C58.3138 63.4958 57.1799 62.8376 56.0582 62.1671L55.032 63.8838ZM61.9932 67.8079C63.1674 68.4317 64.3526 69.043 65.5485 69.6418L66.4439 67.8535C65.2623 67.2618 64.0914 66.6579 62.9316 66.0417L61.9932 67.8079ZM69.1321 71.384C70.3368 71.9524 71.5514 72.5085 72.7755 73.0524L73.5875 71.2246C72.3771 70.6869 71.1763 70.1371 69.9856 69.5752L69.1321 71.384ZM76.4449 74.6339C77.6673 75.1449 78.8984 75.6439 80.1378 76.1309L80.8693 74.2695C79.6431 73.7876 78.4252 73.294 77.2163 72.7886L76.4449 74.6339ZM83.8809 77.5562C85.1269 78.0158 86.3808 78.4636 87.642 78.8995L88.2954 77.0093C87.047 76.5777 85.806 76.1346 84.573 75.6798L83.8809 77.5562ZM91.4207 80.1634C92.6873 80.573 93.9608 80.971 95.2408 81.3573L95.8187 79.4426C94.5512 79.0601 93.2902 78.666 92.0362 78.2604L91.4207 80.1634ZM99.0752 82.4744C100.351 82.8329 101.633 83.18 102.921 83.5157L103.425 81.5804C102.15 81.2478 100.88 80.904 99.6162 80.5489L99.0752 82.4744ZM106.799 84.4885C108.092 84.8 109.389 85.1001 110.692 85.3889L111.125 83.4364C109.834 83.1502 108.549 82.8528 107.268 82.5442L106.799 84.4885ZM114.588 86.2165C115.892 86.4811 117.199 86.7345 118.511 86.9767L118.874 85.01C117.574 84.7699 116.278 84.5187 114.986 84.2565L114.588 86.2165ZM122.447 87.6678C123.755 87.8858 125.067 88.0927 126.382 88.2885L126.677 86.3103C125.373 86.1162 124.072 85.9111 122.775 85.695L122.447 87.6678ZM130.336 88.8427C131.656 89.0161 132.978 89.1784 134.303 89.3297L134.529 87.3426C133.216 87.1926 131.905 87.0317 130.597 86.8597L130.336 88.8427ZM138.266 89.7484C139.589 89.8769 140.914 89.9944 142.241 90.1009L142.401 88.1073C141.085 88.0017 139.771 87.8852 138.459 87.7577L138.266 89.7484ZM146.225 90.3872C147.551 90.4713 148.879 90.5445 150.207 90.6066L150.3 88.6088C148.983 88.5472 147.667 88.4746 146.352 88.3912L146.225 90.3872ZM154.194 90.76C155.524 90.8001 156.854 90.8291 158.184 90.8471L158.212 88.8473C156.892 88.8295 155.573 88.8006 154.254 88.7609L154.194 90.76ZM162.175 90.868C163.506 90.8639 164.836 90.8487 166.165 90.8225L166.126 88.8229C164.807 88.8489 163.488 88.8639 162.169 88.868L162.175 90.868ZM170.152 90.7105C171.483 90.6619 172.813 90.6023 174.142 90.5315L174.035 88.5343C172.718 88.6045 171.399 88.6637 170.08 88.7118L170.152 90.7105ZM178.126 90.2854C179.452 90.1921 180.777 90.0877 182.1 89.9721L181.926 87.9797C180.615 88.0943 179.301 88.1978 177.985 88.2903L178.126 90.2854ZM186.075 89.5903C187.401 89.4515 188.724 89.3013 190.044 89.1398L189.801 87.1546C188.492 87.3147 187.181 87.4635 185.867 87.6012L186.075 89.5903ZM193.997 88.6211C195.316 88.4361 196.632 88.2397 197.945 88.0319L197.632 86.0565C196.331 86.2625 195.027 86.4571 193.719 86.6404L193.997 88.6211ZM201.887 87.3711C203.198 87.1393 204.505 86.8959 205.807 86.6408L205.423 84.6781C204.132 84.9308 202.838 85.172 201.539 85.4017L201.887 87.3711ZM209.715 85.8379C211.021 85.5569 212.322 85.264 213.619 84.9592L213.161 83.0123C211.877 83.3141 210.588 83.6043 209.294 83.8826L209.715 85.8379ZM217.492 84.0092C218.782 83.6795 220.067 83.3379 221.346 82.9842L220.813 81.0565C219.546 81.4067 218.274 81.745 216.997 82.0715L217.492 84.0092ZM225.195 81.878C226.472 81.497 227.742 81.1038 229.006 80.6984L228.395 78.794C227.144 79.1952 225.887 79.5844 224.623 79.9615L225.195 81.878ZM232.789 79.4411C234.055 79.0054 235.314 78.5572 236.565 78.0963L235.873 76.2196C234.636 76.6755 233.391 77.1189 232.138 77.5499L232.789 79.4411ZM240.294 76.6758C241.534 76.1879 242.765 75.6873 243.988 75.174L243.213 73.3299C242.005 73.8374 240.787 74.3323 239.562 74.8147L240.294 76.6758ZM247.667 73.5786C248.885 73.0337 250.093 72.4758 251.292 71.9047L250.431 70.0992C249.247 70.6633 248.053 71.2146 246.85 71.7531L247.667 73.5786ZM254.872 70.145C256.068 69.539 257.253 68.9196 258.427 68.2866L257.479 66.526C256.319 67.1509 255.149 67.7626 253.968 68.361L254.872 70.145ZM261.918 66.3469C263.076 65.6835 264.222 65.0064 265.357 64.3155L264.317 62.6072C263.198 63.2887 262.066 63.9568 260.924 64.6115L261.918 66.3469ZM268.755 62.1827C269.875 61.4578 270.982 60.7188 272.077 59.9658L270.943 58.3181C269.864 59.0603 268.772 59.7888 267.668 60.5037L268.755 62.1827ZM275.34 57.6509C276.421 56.86 277.488 56.0547 278.54 55.2349L277.312 53.6569C276.275 54.4643 275.224 55.2575 274.159 56.0368L275.34 57.6509ZM281.655 52.7323C282.685 51.8785 283.699 51.0101 284.699 50.127L283.374 48.6284C282.391 49.4974 281.392 50.3522 280.378 51.1927L281.655 52.7323ZM287.659 47.4241C288.63 46.5083 289.584 45.5777 290.522 44.6322L289.102 43.2236C288.18 44.1533 287.241 45.0684 286.286 45.9692L287.659 47.4241ZM293.297 41.7389C294.206 40.7586 295.097 39.7632 295.971 38.7527L294.458 37.4448C293.599 38.4376 292.724 39.4158 291.83 40.3794L293.297 41.7389ZM298.537 35.6761C299.374 34.6361 300.192 33.5809 300.991 32.5107L299.389 31.3138C298.604 32.3647 297.8 33.4009 296.979 34.4225L298.537 35.6761ZM303.332 29.2548C304.092 28.1561 304.833 27.0423 305.553 25.9135L303.868 24.8374C303.16 25.9453 302.433 27.0386 301.688 28.1171L303.332 29.2548ZM307.643 22.5029C308.319 21.3512 308.975 20.1845 309.611 19.0029L307.849 18.0555C307.226 19.215 306.582 20.3598 305.918 21.4901L307.643 22.5029ZM311.444 15.435C312.029 14.2429 312.592 13.0364 313.135 11.8154L311.308 11.0028C310.775 12.2009 310.222 13.3848 309.648 14.5545L311.444 15.435ZM314.701 8.10915C314.951 7.48415 315.196 6.85552 315.435 6.22328L313.565 5.515C313.33 6.1355 313.09 6.75242 312.844 7.36578L314.701 8.10915Z" fill="#6282B2"/>
</svg>
