<svg width="56" height="56" viewBox="0 0 56 56" fill="#082553" xmlns="http://www.w3.org/2000/svg">
<path d="M23.9999 41.833H24.4999V41.333V33.833H31.5572C34.1652 33.833 36.6664 32.797 38.5105 30.9529C40.3546 29.1088 41.3906 26.6076 41.3906 23.9997C41.3906 21.3917 40.3546 18.8906 38.5105 17.0465C36.6664 15.2023 34.1652 14.1663 31.5572 14.1663H18.6666H18.1666V14.6663V41.333V41.833H18.6666H23.9999ZM0.833252 27.9997C0.833252 43.0038 12.9958 55.1663 27.9999 55.1663C43.0041 55.1663 55.1666 43.0038 55.1666 27.9997C55.1666 12.9955 43.0041 0.833008 27.9999 0.833008C12.9958 0.833008 0.833252 12.9955 0.833252 27.9997ZM42.7313 42.7311C38.8243 46.6381 33.5253 48.833 27.9999 48.833C22.4746 48.833 17.1755 46.6381 13.2685 42.7311C9.36152 38.8241 7.16658 33.525 7.16658 27.9997C7.16658 22.4743 9.36152 17.1753 13.2685 13.2683C17.1755 9.36128 22.4746 7.16634 27.9999 7.16634C33.5253 7.16634 38.8243 9.36128 42.7313 13.2683C46.6383 17.1753 48.8332 22.4743 48.8332 27.9997C48.8332 33.525 46.6383 38.8241 42.7313 42.7311ZM34.0321 26.4745C33.3757 27.1309 32.4855 27.4997 31.5572 27.4997H24.4999V20.4997H31.5572C32.4855 20.4997 33.3757 20.8684 34.0321 21.5248C34.6885 22.1812 35.0572 23.0714 35.0572 23.9997C35.0572 24.9279 34.6885 25.8182 34.0321 26.4745Z" fill="##082553" stroke="none"/>
</svg>
