<svg width="40" height="56" viewBox="0 0 40 56" fill="#082553" xmlns="http://www.w3.org/2000/svg">
<path d="M37.1 0.767578H2.9C2.26268 0.767578 1.65196 1.02204 1.20207 1.47417C0.752256 1.92623 0.5 2.53882 0.5 3.17705V14.6339C0.5 15.2721 0.752256 15.8847 1.20207 16.3367C1.65196 16.7889 2.26268 17.0433 2.9 17.0433H6.7C7.33732 17.0433 7.94804 16.7889 8.39793 16.3367C8.84774 15.8847 9.1 15.2721 9.1 14.6339V11.3149H14.75V46.5948H10.5C9.86268 46.5948 9.25196 46.8493 8.80207 47.3014C8.35226 47.7535 8.1 48.366 8.1 49.0043V52.8232C8.1 53.4614 8.35226 54.074 8.80206 54.5261C9.25196 54.9782 9.86268 55.2327 10.5 55.2327H29.5C30.1373 55.2327 30.748 54.9782 31.1979 54.5261C31.6477 54.074 31.9 53.4614 31.9 52.8232V49.0043C31.9 48.366 31.6477 47.7535 31.1979 47.3014C30.748 46.8493 30.1373 46.5948 29.5 46.5948H25.25V11.3149H30.9V14.6339C30.9 15.2721 31.1523 15.8847 31.6021 16.3367C32.052 16.7889 32.6627 17.0433 33.3 17.0433H37.1C37.7373 17.0433 38.348 16.7889 38.7979 16.3367C39.2477 15.8847 39.5 15.2721 39.5 14.6339V3.17705C39.5 2.53882 39.2477 1.92623 38.7979 1.47417C38.348 1.02204 37.7373 0.767578 37.1 0.767578Z" fill="#082553" stroke="none"/>
</svg>
