<svg width="446" height="429" viewBox="0 0 446 429" fill="none" xmlns="http://www.w3.org/2000/svg">
<path d="M106.143 152.089V159.394H113.448V152.089V144.793H106.143V152.089Z" fill="#EBEBEB"/>
<path d="M113.448 108.286H106.143V115.591H113.448V108.286Z" fill="#EBEBEB"/>
<path d="M158.567 188.675H151.262V195.98H158.567V188.675Z" fill="#EBEBEB"/>
<path d="M113.448 122.887V130.183H106.143V137.488H113.448V144.794H120.753H128.049V152.089H135.355V144.794H142.65V137.488V130.183H135.355V137.488H128.049H120.753V130.183V122.887V115.582H113.448V122.887Z" fill="#EBEBEB"/>
<path d="M128.051 108.286H120.755V115.582H128.051H135.356V108.286H128.051Z" fill="#EBEBEB"/>
<path d="M160.905 166.982H164.83V159.676H160.905H156.989V166.982H160.905Z" fill="#EBEBEB"/>
<path d="M142.661 115.582H135.355V122.887H142.661V115.582Z" fill="#EBEBEB"/>
<path d="M193.769 144.793H186.464V152.099H193.769V144.793Z" fill="#EBEBEB"/>
<path d="M201.075 64.4726H193.77V71.778H201.075V64.4726Z" fill="#EBEBEB"/>
<path d="M157.261 122.887V115.582H164.557V108.286H157.261V100.981H149.956V108.286H142.65V115.582H149.956V122.887V130.183V137.489V144.794H157.261V137.489V130.183H164.557V122.887H157.261Z" fill="#EBEBEB"/>
<path d="M193.769 195.903H201.065V188.597H193.769H186.464V195.903H193.769Z" fill="#EBEBEB"/>
<path d="M186.465 64.4726H179.159V71.778H186.465V64.4726Z" fill="#EBEBEB"/>
<path d="M184.642 122.887V115.582H177.336V108.286H170.031V115.582V122.887H162.735V130.183H170.031H177.336V122.887H184.642Z" fill="#EBEBEB"/>
<path d="M225.854 108.286H218.549V115.591H225.854V108.286Z" fill="#EBEBEB"/>
<path d="M150.171 144.793H142.865V152.099H150.171V144.793Z" fill="#EBEBEB"/>
<path d="M179.159 100.981V93.6754H186.464V86.3797H193.77H201.065V79.0743H193.77V71.7786H186.464V79.0743H179.159V86.3797H171.863V93.6754H164.558V100.981H171.863H179.159Z" fill="#EBEBEB"/>
<path d="M179.159 152.089V144.794H186.464V137.488H179.159H171.863V144.794H164.558V152.089H171.863H179.159Z" fill="#EBEBEB"/>
<path d="M201.066 181.292V173.996H193.77H186.465V166.691H179.159V173.996H171.864V181.292H164.558H157.263V188.597H164.558H171.864H179.159V181.292H186.465V188.597H193.77V181.292H201.066Z" fill="#EBEBEB"/>
<path d="M171.863 71.778V64.4726H164.557H157.261V71.778H149.956V79.0737H157.261H164.557V71.778H171.863Z" fill="#EBEBEB"/>
<path d="M171.863 79.0743H164.558V86.3797H171.863V79.0743Z" fill="#EBEBEB"/>
<path d="M190.117 108.287H182.812V115.583V122.888V130.184H190.117H197.422V122.888H190.117V115.583H197.422V108.287H204.718V100.981H197.422V93.676H190.117V100.981V108.287Z" fill="#EBEBEB"/>
<path d="M164.568 86.3793H157.263V93.6847H164.568V86.3793Z" fill="#EBEBEB"/>
<path d="M186.464 159.394V166.69H193.769H201.065V159.394H208.37H215.676V152.089H208.37H201.065H193.769V159.394H186.464Z" fill="#EBEBEB"/>
<path d="M225.854 130.182H218.549V137.488H225.854V130.182Z" fill="#EBEBEB"/>
<path d="M201.075 137.488H193.77V144.794H201.075V137.488Z" fill="#EBEBEB"/>
<path d="M219.319 115.582H212.023H204.718V122.887H212.023V130.183H219.319V122.887V115.582Z" fill="#EBEBEB"/>
<path d="M215.676 137.488H208.37V144.794H215.676V137.488Z" fill="#EBEBEB"/>
<path d="M135.356 181.437H157.272V152.079H127.914V159.394H120.755V166.689H127.914V173.995H120.755V181.3H127.914V181.437H128.051V188.596H120.755V203.207H128.051V195.901H135.356V181.437ZM151.642 157.709V175.962H133.388V157.709H151.642Z" fill="#EBEBEB"/>
<path d="M230.277 152.089H237.573V144.793H230.277H222.971H215.676V152.089H222.971H230.277Z" fill="#EBEBEB"/>
<path d="M230.277 122.887H237.573V115.582V108.286H230.277V115.582V122.887Z" fill="#EBEBEB"/>
<path d="M172.136 159.676H164.831V166.982V174.277H172.136V166.982V159.676Z" fill="#EBEBEB"/>
<path d="M244.878 152.089H237.572V159.394H244.878V152.089Z" fill="#EBEBEB"/>
<path d="M244.878 137.488V130.182H237.572V137.488V144.793H244.878V137.488Z" fill="#EBEBEB"/>
<path d="M113.448 188.597H106.143V195.903V203.208H113.448V195.903V188.597Z" fill="#EBEBEB"/>
<path d="M244.878 100.98V64.4726H208.37V100.98H244.878ZM213.844 95.506V69.9468H239.404V95.506H213.844Z" fill="#EBEBEB"/>
<path d="M233.919 75.4213H219.318V90.0224H233.919V75.4213Z" fill="#EBEBEB"/>
<path d="M244.878 166.691H208.37V203.208H244.878V166.691ZM213.844 197.724V172.175H239.404V197.724H213.844Z" fill="#EBEBEB"/>
<path d="M233.919 177.65H219.318V192.251H233.919V177.65Z" fill="#EBEBEB"/>
<path d="M106.056 64.4726V100.98H142.563V64.4726H106.056ZM137.089 69.9468V95.506H111.491V69.9468H137.089Z" fill="#EBEBEB"/>
<path d="M131.605 75.4213H117.004V90.0224H131.605V75.4213Z" fill="#EBEBEB"/>
<path d="M47.6885 208.302C48.1593 206.451 47.0405 204.569 45.1897 204.098C43.3389 203.628 41.4569 204.746 40.9861 206.597C40.5154 208.448 41.6342 210.33 43.485 210.801C45.3358 211.271 47.2178 210.153 47.6885 208.302Z" fill="#EBEBEB"/>
<path d="M37.4621 203.033C38.3445 202.084 39.41 201.324 40.5944 200.798C41.7788 200.273 43.0574 199.993 44.353 199.976C45.6485 199.959 46.9341 200.204 48.1321 200.698C49.3301 201.191 50.4156 201.923 51.3229 202.848C53.086 204.63 55.8426 201.874 54.0795 200.111C52.8104 198.828 51.2973 197.814 49.6296 197.126C47.9619 196.438 46.1733 196.091 44.3694 196.105C42.5655 196.12 40.7827 196.496 39.1263 197.21C37.4699 197.925 35.9734 198.964 34.725 200.266C33.001 202.078 35.6991 204.844 37.4621 203.033Z" fill="#EBEBEB"/>
<path d="M25.696 186.94C30.9462 182.401 37.2191 179.538 44.2031 179.518C51.2044 179.435 57.9736 182.027 63.129 186.765C64.9504 188.479 67.7168 185.742 65.8953 184.028C60.0159 178.59 52.2898 175.588 44.281 175.632C36.1963 175.632 29.0078 178.953 22.9687 184.184C21.0205 185.82 23.8161 188.567 25.7058 186.94H25.696Z" fill="#EBEBEB"/>
<path d="M30.3234 195.854C32.0769 193.9 34.2158 192.33 36.6054 191.244C38.9951 190.157 41.5839 189.576 44.2088 189.539C46.8337 189.501 49.438 190.008 51.8578 191.026C54.2775 192.044 56.4604 193.552 58.269 195.454C60.0223 197.256 62.7789 194.48 61.0353 192.727C58.8679 190.46 56.2579 188.663 53.3671 187.446C50.4764 186.23 47.3666 185.62 44.2305 185.654C41.0944 185.689 37.9988 186.368 35.1357 187.648C32.2726 188.928 29.703 190.783 27.5863 193.097C25.8914 194.928 28.6188 197.695 30.3234 195.854Z" fill="#EBEBEB"/>
<path d="M197.305 18.439C197.889 14.1726 191.86 10.6465 187.331 10.2861C185.168 10.1108 182.928 10.442 180.882 9.73091C176.441 8.18216 174.668 2.45471 170.343 0.63323C167.109 -0.730448 163.379 0.47738 160.242 2.05535C157.106 3.63332 154.008 5.62039 150.502 5.84443C147.453 6.03924 144.141 4.87037 141.472 6.39964C139.524 7.51006 138.443 9.79909 136.602 11.153C134.761 12.507 132.472 12.7602 130.251 12.8771C128.03 12.994 125.722 13.0232 123.705 13.9486C121.689 14.8739 120.004 17.0168 120.423 19.1987L197.305 18.439Z" fill="#EBEBEB"/>
<path d="M80.9443 90.6369C81.4703 86.8089 76.0741 83.653 72.0025 83.3315C70.0544 83.1757 68.1063 83.4679 66.2166 82.825C62.2425 81.4419 60.6548 76.3086 56.778 74.6722C53.8559 73.4449 50.5343 74.5358 47.7291 75.9482C44.9238 77.3606 42.138 79.1431 38.9626 79.3476C36.2255 79.523 33.2643 78.51 30.8682 79.8444C29.0856 80.8185 28.1603 82.8932 26.5141 84.101C24.868 85.3089 22.8127 85.5329 20.8159 85.6498C18.8244 85.6108 16.8428 85.9411 14.9716 86.6238C13.1598 87.4518 11.6598 89.3804 12.0494 91.3383L80.9443 90.6369Z" fill="#F5F5F5"/>
<path d="M445.962 87.9291C446.527 83.8283 440.741 80.4484 436.387 80.1367C434.312 79.9711 432.159 80.2925 430.192 79.6009C425.935 78.1204 424.231 72.617 420.081 70.8344C416.974 69.5292 413.399 70.6883 410.389 72.2078C407.379 73.7274 404.399 75.6268 401.038 75.8508C398.116 76.0359 394.931 74.945 392.369 76.3768C390.421 77.4385 389.447 79.6399 387.704 80.9354C385.96 82.2309 383.739 82.4744 381.606 82.5913C379.473 82.7082 377.262 82.7276 375.323 83.6238C373.385 84.5199 371.768 86.546 372.177 88.6597L445.962 87.9291Z" fill="#F5F5F5"/>
<path d="M437.273 428.155C437.273 428.291 339.38 428.408 218.646 428.408C97.912 428.408 0 428.291 0 428.155C0 428.019 97.8536 427.902 218.636 427.902C339.419 427.902 437.273 428.009 437.273 428.155Z" fill="#263238"/>
<path d="M384.907 385.307C385.868 385.766 386.726 386.414 387.43 387.213C388.135 388.011 388.671 388.943 389.008 389.953C389.671 391.984 389.857 394.14 389.553 396.255C389.096 400.346 386.768 404.476 384.264 407.739C380.826 404.739 380.027 399.489 379.793 396.81C379.423 392.564 381.332 384.674 384.907 385.307Z" fill="#8B8AE1"/>
<path d="M388.268 414.46C388.039 413.291 388.12 412.083 388.502 410.955C388.885 409.827 389.557 408.819 390.45 408.031C391.363 407.266 392.418 406.689 393.555 406.334C394.692 405.98 395.888 405.855 397.074 405.966C397.627 405.956 398.176 406.067 398.681 406.293C399.186 406.518 399.635 406.853 399.996 407.272C400.253 407.716 400.388 408.22 400.388 408.733C400.388 409.246 400.253 409.75 399.996 410.194C399.473 411.084 398.724 411.82 397.824 412.327C394.843 414.197 391.609 415.463 388.239 414.45" fill="#8B8AE1"/>
<path d="M383.855 427.026C383.874 426.744 383.913 426.464 383.972 426.188C384.089 425.594 384.226 424.834 384.391 423.918C384.775 421.388 385.567 418.937 386.739 416.662C387.952 414.389 389.747 412.48 391.94 411.129C392.607 410.722 393.32 410.395 394.064 410.155C394.265 410.09 394.47 410.038 394.677 409.999C394.748 409.986 394.821 409.986 394.892 409.999C393.902 410.338 392.949 410.775 392.047 411.304C389.923 412.677 388.184 414.568 386.992 416.798C385.847 419.051 385.04 421.46 384.596 423.948C384.391 424.922 384.226 425.672 384.089 426.198C384.042 426.482 383.964 426.759 383.855 427.026V427.026Z" fill="#263238"/>
<path d="M383.982 391.443C383.999 391.566 383.999 391.69 383.982 391.813C383.982 392.086 383.982 392.427 384.05 392.865C384.099 393.781 384.148 395.105 384.206 396.761C384.313 400.034 384.391 404.554 384.372 409.57C384.352 414.587 384.226 419.106 384.089 422.379C384.031 424.015 383.963 425.301 383.904 426.275C383.904 426.704 383.904 427.055 383.836 427.327C383.834 427.452 383.818 427.576 383.787 427.697C383.773 427.574 383.773 427.45 383.787 427.327C383.787 427.055 383.787 426.704 383.787 426.266C383.787 425.291 383.846 423.996 383.885 422.369C383.963 419.096 384.05 414.577 384.07 409.57C384.089 404.564 384.07 400.044 383.992 396.771C383.992 395.154 383.943 393.849 383.934 392.875C383.934 392.446 383.934 392.096 383.934 391.823C383.934 391.695 383.95 391.567 383.982 391.443V391.443Z" fill="#263238"/>
<path d="M382.278 416.984C381.861 414.505 380.86 412.16 379.358 410.145C377.855 408.129 375.895 406.5 373.638 405.392C372.489 404.847 370.989 404.487 370.034 405.344C369.079 406.201 369.303 407.73 369.771 408.928C370.788 411.41 372.52 413.532 374.748 415.026C376.975 416.519 379.596 417.316 382.278 417.315" fill="#8B8AE1"/>
<path d="M374.233 409.268C374.487 409.35 374.732 409.458 374.964 409.59C375.249 409.718 375.526 409.864 375.792 410.028C376.153 410.231 376.505 410.452 376.844 410.691C377.261 410.968 377.661 411.271 378.042 411.596C378.492 411.958 378.921 412.345 379.327 412.756C380.253 413.701 381.067 414.75 381.753 415.882C382.428 417.023 382.968 418.239 383.36 419.506C383.659 420.544 383.865 421.606 383.974 422.681C384.032 423.139 383.974 423.558 384.032 423.918C384.05 424.243 384.05 424.568 384.032 424.892C384.027 425.157 383.998 425.422 383.944 425.681C383.876 425.681 383.993 424.551 383.789 422.759C383.73 422.311 383.672 421.785 383.555 421.288C383.438 420.792 383.292 420.217 383.126 419.642C382.728 418.404 382.192 417.215 381.529 416.097C380.854 414.985 380.06 413.95 379.162 413.009C378.766 412.599 378.35 412.208 377.915 411.84C377.543 411.513 377.153 411.207 376.746 410.924C375.246 409.804 374.204 409.327 374.233 409.268Z" fill="#263238"/>
<path d="M123.238 428.165C122.95 427.256 122.726 426.329 122.565 425.389C121.557 420.942 120.051 416.622 118.075 412.512C117.623 411.673 117.219 410.807 116.867 409.921C117.467 410.667 117.977 411.481 118.387 412.347C120.568 416.421 122.096 420.812 122.916 425.36C123.123 426.281 123.231 427.221 123.238 428.165V428.165Z" fill="#263238"/>
<path d="M131.877 386.009C131.835 386.566 131.753 387.119 131.634 387.664C131.439 388.716 131.176 390.246 130.874 392.135C130.251 395.924 129.53 401.165 129.082 406.99C128.634 412.815 128.556 418.123 128.585 421.951C128.585 423.899 128.585 425.419 128.663 426.49C128.705 427.045 128.705 427.602 128.663 428.156C128.556 427.61 128.494 427.056 128.478 426.5C128.39 425.429 128.302 423.88 128.244 421.961C128.086 416.955 128.199 411.944 128.585 406.951C128.969 401.962 129.619 396.997 130.533 392.077C130.893 390.187 131.205 388.668 131.458 387.625C131.557 387.077 131.697 386.536 131.877 386.009Z" fill="#263238"/>
<path d="M145.748 410.271C145.247 411.087 144.704 411.877 144.122 412.638C142.838 414.54 141.724 416.551 140.79 418.648C139.876 420.753 139.156 422.938 138.638 425.174C138.469 426.116 138.251 427.05 137.985 427.969C137.969 427.003 138.07 426.038 138.287 425.096C139.141 420.506 141.037 416.174 143.829 412.433C144.373 411.632 145.018 410.905 145.748 410.271V410.271Z" fill="#263238"/>
<path d="M315.565 413.486C316.068 414.084 316.499 414.738 316.851 415.434C317.572 416.671 318.507 418.425 319.432 420.402C320.358 422.379 321.098 424.24 321.585 425.584C321.898 426.297 322.12 427.046 322.247 427.815C321.856 427.15 321.529 426.448 321.273 425.72C320.708 424.405 319.919 422.594 318.994 420.616C318.069 418.639 317.192 416.876 316.549 415.6C316.145 414.933 315.816 414.225 315.565 413.486Z" fill="#263238"/>
<path d="M333.488 395.699C333.445 396.129 333.36 396.553 333.235 396.966C333.03 397.871 332.767 399.011 332.446 400.375C331.803 403.297 331.014 407.252 330.42 411.713C329.826 416.174 329.553 420.255 329.446 423.197C329.397 424.599 329.358 425.768 329.329 426.694C329.343 427.125 329.311 427.556 329.231 427.979C329.157 427.555 329.122 427.125 329.124 426.694C329.124 425.866 329.075 424.668 329.124 423.187C329.184 419.33 329.467 415.479 329.972 411.654C330.476 407.826 331.204 404.03 332.154 400.287C332.524 398.855 332.855 397.706 333.128 396.917C333.201 396.498 333.322 396.09 333.488 395.699V395.699Z" fill="#263238"/>
<path d="M203.831 403.629C204.156 403.815 204.455 404.044 204.717 404.311C205.486 404.972 206.217 405.674 206.909 406.415C211.521 411.316 214.78 417.33 216.367 423.87C216.616 424.854 216.804 425.853 216.932 426.86C217.006 427.226 217.039 427.598 217.03 427.971C216.942 427.971 216.698 426.412 216.056 423.967C214.281 417.558 211.062 411.641 206.646 406.668C205 404.72 203.773 403.746 203.831 403.629Z" fill="#263238"/>
<path d="M220.711 393.266C220.753 393.726 220.753 394.189 220.711 394.649C220.711 395.623 220.711 396.899 220.711 398.409C220.711 401.584 220.838 405.968 221.257 410.799C221.676 415.63 222.318 419.965 222.864 423.092C223.127 424.582 223.351 425.829 223.526 426.793C223.637 427.243 223.702 427.703 223.721 428.166C223.557 427.732 223.426 427.286 223.331 426.832C223.107 425.975 222.825 424.718 222.513 423.16C220.886 415.014 220.161 406.714 220.351 398.409C220.351 396.811 220.448 395.487 220.526 394.639C220.542 394.177 220.604 393.716 220.711 393.266V393.266Z" fill="#263238"/>
<path d="M235.614 413.915C235.761 413.993 234.085 416.915 232.936 420.869C231.786 424.824 231.572 428.175 231.416 428.165C231.307 427.432 231.307 426.687 231.416 425.954C231.57 424.183 231.896 422.431 232.39 420.723C232.882 419.019 233.534 417.366 234.338 415.785C234.675 415.105 235.105 414.476 235.614 413.915V413.915Z" fill="#263238"/>
<path d="M36.4103 335.485H25.1016V425.264H36.4103V335.485Z" fill="#455A64"/>
<path d="M36.4204 425.254C36.4204 425.254 36.4204 425.098 36.4204 424.786V423.442C36.4204 422.244 36.4204 420.52 36.4204 418.279C36.4204 413.789 36.4204 407.302 36.3425 399.246C36.3425 383.126 36.2743 360.722 36.2353 335.485L36.4886 335.738H25.1019L25.3551 335.485C25.2967 374.807 25.248 408.86 25.2188 425.254L25.1019 425.146L33.4885 425.205H35.6704H36.4204C36.4204 425.205 36.1866 425.205 35.7094 425.205H33.5567L25.1019 425.263H24.9947V425.146C24.9947 408.753 24.9168 374.7 24.8486 335.377L25.1019 335.124H36.6737V335.377C36.6737 360.703 36.586 383.155 36.5665 399.324C36.5665 407.35 36.5081 413.818 36.4886 418.299C36.4886 420.5 36.4886 422.195 36.4886 423.403V424.718C36.4302 425.117 36.4204 425.254 36.4204 425.254Z" fill="#263238"/>
<g opacity="0.3">
<path d="M36.4103 337.668H25.1016V341.408H36.4103V337.668Z" fill="black"/>
</g>
<path d="M277.012 335.485H265.703V425.264H277.012V335.485Z" fill="#455A64"/>
<path d="M277.012 425.254C277.012 425.254 277.012 425.098 277.012 424.786V423.442C277.012 422.244 277.012 420.52 277.012 418.279C277.012 413.789 277.012 407.302 276.934 399.246C276.934 383.126 276.876 360.722 276.827 335.485L277.08 335.738H265.703L265.957 335.485C265.889 374.807 265.84 408.86 265.811 425.254L265.703 425.146L274.09 425.205H276.262H277.012C277.012 425.205 276.778 425.205 276.301 425.205H274.158L265.703 425.263H265.587V425.146C265.587 408.753 265.509 374.7 265.45 335.377L265.703 335.124H277.265V335.377C277.265 360.703 277.188 383.155 277.158 399.324C277.158 407.35 277.1 413.818 277.08 418.299C277.08 420.5 277.08 422.195 277.08 423.403V424.718C277.022 425.117 277.012 425.254 277.012 425.254Z" fill="#263238"/>
<path d="M259.284 256.838H247.976V331.675H259.284V256.838Z" fill="#455A64"/>
<path d="M259.294 331.667C259.28 331.535 259.28 331.401 259.294 331.268V330.148C259.294 329.174 259.294 327.703 259.294 325.862C259.294 322.112 259.245 316.725 259.216 310.014C259.216 296.592 259.148 277.929 259.109 256.831L259.362 257.084H247.985C248.482 256.577 248.121 256.957 248.228 256.85V268.724C248.228 272.62 248.228 276.409 248.228 280.111C248.228 287.513 248.228 294.507 248.228 300.946C248.18 313.803 248.151 324.43 248.131 331.667L248.004 331.541L256.372 331.609H258.563H259.323H258.602H256.449L248.004 331.677H247.858V331.667C247.858 324.43 247.81 313.803 247.771 300.946C247.771 294.507 247.771 287.513 247.771 280.111C247.771 276.409 247.771 272.614 247.771 268.724V256.86C247.888 256.743 247.517 257.094 248.034 256.587H259.547V256.84C259.547 278.007 259.469 296.777 259.44 310.209C259.44 316.891 259.381 322.258 259.372 325.989C259.372 327.81 259.372 329.232 259.372 330.226C259.372 330.683 259.372 331.054 259.372 331.317C259.372 331.58 259.294 331.667 259.294 331.667Z" fill="#263238"/>
<path d="M58.0637 256.838H46.7549V331.675H58.0637V256.838Z" fill="#455A64"/>
<path d="M58.0731 331.667C58.0651 331.534 58.0651 331.401 58.0731 331.268C58.0731 330.995 58.0731 330.625 58.0731 330.148C58.0731 329.174 58.0731 327.703 58.0731 325.862C58.0731 322.112 58.0731 316.725 57.9951 310.014C57.9951 296.592 57.927 277.929 57.888 256.831L58.1413 257.084H46.7643C47.2611 256.577 46.9007 256.957 47.0078 256.85V268.724C47.0078 272.62 47.0078 276.416 47.0078 280.111C47.0078 287.513 47.0078 294.507 47.0078 300.946C47.0078 313.803 46.9299 324.43 46.9104 331.667L46.7838 331.541L55.1509 331.609H57.3425H58.1023H57.3815H55.2288L46.7838 331.677H46.6669V331.667C46.6669 324.43 46.6084 313.803 46.5695 300.946C46.5695 294.507 46.5695 287.513 46.5695 280.111C46.5695 276.409 46.5695 272.614 46.5695 268.724V256.86C46.6864 256.743 46.3162 257.094 46.8325 256.587H58.3263V256.84C58.3263 278.007 58.2387 296.777 58.2094 310.209C58.2094 316.891 58.2094 322.258 58.1413 325.989C58.1413 327.81 58.1413 329.232 58.1413 330.226C58.1413 330.683 58.1413 331.054 58.1413 331.317C58.1413 331.58 58.0731 331.667 58.0731 331.667Z" fill="#263238"/>
<path d="M281.112 248.296H24.4385V260.277H281.112V248.296Z" fill="#455A64"/>
<path d="M281.112 260.276C281.112 260.276 281.112 260.032 281.112 259.545C281.112 259.058 281.112 258.328 281.112 257.344C281.112 255.396 281.112 252.386 281.112 248.295L281.18 248.373L24.5167 248.548L24.77 248.295V260.276L24.5167 260.023L206.373 260.13L261.125 260.208H275.989H279.885H281.21H279.914H276.076H261.28L206.587 260.286L24.4388 260.558H24.1855V248.042H24.4485L281.112 248.227H281.19V248.295C281.19 252.405 281.19 255.406 281.19 257.383C281.19 258.357 281.19 259.087 281.19 259.574C281.19 260.061 281.112 260.276 281.112 260.276Z" fill="#263238"/>
<path d="M281.775 266.266H25.1016V278.247H281.775V266.266Z" fill="#455A64"/>
<path d="M281.775 278.249C281.775 278.249 281.775 278.006 281.775 277.519C281.775 277.032 281.775 276.301 281.775 275.317C281.775 273.369 281.775 270.359 281.775 266.268L281.843 266.336L25.1896 266.521L25.4428 266.268V278.249L25.1896 277.996L206.948 278.093L261.7 278.161H276.564H280.46H281.785H280.499H276.661H261.856L207.163 278.239L25.1117 278.346H24.8584V266.015H25.1311L281.785 266.2H281.863V266.268C281.863 270.379 281.863 273.379 281.863 275.356C281.863 276.33 281.863 277.051 281.863 277.538C281.863 278.025 281.775 278.249 281.775 278.249Z" fill="#263238"/>
<path d="M281.775 284.902H25.1016V296.883H281.775V284.902Z" fill="#455A64"/>
<path d="M281.775 296.881C281.775 296.881 281.775 296.638 281.775 296.151C281.775 295.664 281.775 294.933 281.775 293.949C281.775 292.001 281.775 288.991 281.775 284.9L281.843 284.969L25.1889 285.154L25.4421 284.9V296.881L25.1889 296.628L207.055 296.735L261.806 296.813H276.671H280.567H281.892H280.606H276.768H261.962L207.269 296.891L25.2181 296.998H24.9648V284.647H25.2376L281.892 284.832H281.969V284.91C281.969 289.021 281.969 292.021 281.969 293.998C281.969 294.972 281.969 295.693 281.969 296.19C281.969 296.687 281.775 296.881 281.775 296.881Z" fill="#263238"/>
<path d="M281.775 303.536H25.1016V315.517H281.775V303.536Z" fill="#455A64"/>
<path d="M281.775 315.516C281.775 315.516 281.775 315.272 281.775 314.785C281.775 314.298 281.775 313.568 281.775 312.584C281.775 310.636 281.775 307.626 281.775 303.535L281.843 303.613L25.1889 303.788L25.4421 303.535V315.516L25.1889 315.263L207.055 315.37L261.806 315.448H276.671H280.567H281.892H280.606H276.768H261.962L207.269 315.526L25.2181 315.633H24.9648V303.282H25.2376L281.892 303.467H281.969V303.535C281.969 307.645 281.969 310.646 281.969 312.623C281.969 313.597 281.969 314.327 281.969 314.814C281.969 315.301 281.775 315.516 281.775 315.516Z" fill="#263238"/>
<path d="M286.451 325.686H13.959V337.667H286.451V325.686Z" fill="#455A64"/>
<path d="M286.45 337.666C286.45 337.666 286.45 337.422 286.45 336.935C286.45 336.448 286.45 335.717 286.45 334.734C286.45 332.786 286.45 329.776 286.45 325.685L286.528 325.753L14.0459 325.938L14.2992 325.685V337.666L14.0459 337.412L207.084 337.51L265.226 337.588H281.015H285.126C286.051 337.588 286.538 337.588 286.538 337.588H285.155H280.976H265.245L207.172 337.666L13.9388 337.773H13.6855V325.431H13.9485L286.431 325.616H286.499V325.685C286.499 329.795 286.499 332.795 286.499 334.773C286.499 335.747 286.499 336.467 286.499 336.954C286.499 337.441 286.45 337.666 286.45 337.666Z" fill="#263238"/>
<g opacity="0.3">
<path d="M277.012 337.668H265.703V341.408H277.012V337.668Z" fill="black"/>
</g>
<path d="M139.066 187.816L136.621 203.586L130.329 217.944L121.007 211.992L117.685 203.615L114.909 196.583C114.909 196.583 105.062 198.959 101.136 189.764C99.2464 185.323 96.0905 175.855 93.3436 167.244C91.9173 162.775 92.2281 157.933 94.2141 153.683C96.2 149.433 99.7151 146.088 104.058 144.315L104.945 143.945C114.812 140.545 123.208 147.023 126.325 156.968L139.124 187.836" fill="#A2675F"/>
<path d="M114.9 196.583C119.205 194.905 122.912 191.982 125.547 188.187C125.547 188.187 125.44 196.028 115.865 198.989L114.9 196.583Z" fill="#7A4A45"/>
<path d="M99.3537 174.289C99.4908 174.635 99.7585 174.914 100.099 175.065C100.44 175.216 100.826 175.228 101.175 175.097C101.349 175.041 101.509 174.951 101.647 174.832C101.785 174.713 101.898 174.567 101.979 174.404C102.06 174.24 102.107 174.062 102.118 173.88C102.129 173.698 102.103 173.516 102.042 173.344C101.905 172.997 101.637 172.718 101.297 172.567C100.956 172.416 100.57 172.404 100.221 172.535C100.047 172.591 99.8865 172.681 99.7484 172.801C99.6103 172.92 99.4975 173.065 99.4167 173.229C99.3358 173.392 99.2886 173.57 99.2778 173.752C99.267 173.934 99.2928 174.117 99.3537 174.289Z" fill="#263238"/>
<path d="M96.8801 170.5C97.1138 170.607 97.8541 169.458 99.2373 168.873C100.62 168.289 101.994 168.571 102.072 168.338C102.15 168.104 101.819 167.987 101.234 167.841C100.432 167.653 99.5919 167.718 98.8282 168.026C98.0881 168.331 97.4639 168.863 97.0456 169.545C96.7534 170.081 96.7339 170.461 96.8801 170.5Z" fill="#263238"/>
<path d="M111.754 168.755C111.891 169.102 112.159 169.381 112.5 169.532C112.84 169.683 113.227 169.694 113.576 169.564C113.75 169.509 113.912 169.419 114.051 169.3C114.19 169.182 114.304 169.036 114.386 168.873C114.467 168.709 114.515 168.531 114.527 168.348C114.538 168.166 114.513 167.983 114.452 167.81C114.313 167.465 114.045 167.188 113.705 167.037C113.365 166.886 112.98 166.874 112.631 167.002C112.456 167.057 112.295 167.146 112.156 167.265C112.016 167.384 111.903 167.529 111.821 167.693C111.739 167.856 111.691 168.035 111.679 168.217C111.668 168.4 111.693 168.583 111.754 168.755V168.755Z" fill="#263238"/>
<path d="M110.857 164.273C111.081 164.4 111.899 163.299 113.37 162.9C114.841 162.501 116.146 162.9 116.292 162.676C116.439 162.452 116.088 162.306 115.513 162.092C114.739 161.852 113.911 161.852 113.137 162.092C112.365 162.313 111.683 162.774 111.188 163.406C110.809 163.845 110.75 164.215 110.857 164.273Z" fill="#263238"/>
<path d="M110.448 178.116C109.604 178.187 108.772 178.367 107.974 178.651C107.594 178.759 107.224 178.827 107.058 178.651C106.87 178.293 106.799 177.884 106.854 177.483C106.854 176.463 106.834 175.392 106.795 174.268C106.659 169.719 106.406 166.037 106.23 166.047C106.055 166.057 105.997 169.749 106.133 174.297C106.133 175.418 106.211 176.479 106.24 177.502C106.196 178.033 106.337 178.563 106.639 179.002C106.744 179.111 106.872 179.194 107.014 179.244C107.156 179.295 107.308 179.312 107.458 179.294C107.682 179.264 107.901 179.205 108.11 179.119C108.928 178.881 109.713 178.544 110.448 178.116V178.116Z" fill="#263238"/>
<path d="M108.13 158.214C108.432 158.545 109.776 157.776 111.53 157.24C113.283 156.704 114.822 156.656 114.9 156.266C114.9 156.062 114.539 155.789 113.848 155.643C112.933 155.482 111.993 155.532 111.101 155.788C110.208 156.045 109.385 156.501 108.695 157.123C108.179 157.62 107.994 158.058 108.13 158.214Z" fill="#263238"/>
<path d="M94.8148 164.909C95.2044 165.123 96.0421 164.392 97.211 163.886C98.3799 163.379 99.4805 163.214 99.5682 162.775C99.5682 162.571 99.315 162.318 98.75 162.191C98.0154 162.048 97.2542 162.143 96.5779 162.464C95.8883 162.759 95.309 163.263 94.922 163.905C94.6395 164.402 94.6395 164.792 94.8148 164.909Z" fill="#263238"/>
<path d="M128.332 164.128C128.468 164.001 133.923 159.638 136.319 166.076C138.715 172.515 131.79 173.576 131.712 173.391C131.634 173.206 128.332 164.128 128.332 164.128Z" fill="#A2675F"/>
<path d="M132.764 170.187C132.764 170.187 132.9 170.187 133.124 170.236C133.43 170.245 133.728 170.141 133.962 169.944C134.274 169.531 134.47 169.043 134.532 168.53C134.593 168.016 134.518 167.496 134.312 167.021C134.123 166.465 133.81 165.959 133.397 165.541C133.264 165.361 133.088 165.218 132.886 165.122C132.684 165.027 132.461 164.984 132.238 164.995C132.096 165.009 131.963 165.072 131.864 165.173C131.764 165.275 131.703 165.409 131.692 165.551C131.692 165.765 131.76 165.872 131.692 165.901C131.624 165.93 131.517 165.843 131.468 165.56C131.446 165.387 131.484 165.212 131.575 165.064C131.7 164.862 131.9 164.719 132.131 164.664C132.413 164.619 132.702 164.647 132.971 164.744C133.241 164.841 133.481 165.004 133.67 165.219C134.147 165.676 134.507 166.241 134.722 166.866C135.17 168.171 134.955 169.632 134.127 170.246C133.974 170.359 133.798 170.437 133.611 170.474C133.424 170.511 133.231 170.506 133.046 170.46C132.832 170.333 132.744 170.207 132.764 170.187Z" fill="#7A4A45"/>
<path d="M87.8706 156.852C87.7201 156.187 87.7692 155.492 88.0118 154.854C88.2543 154.217 88.6796 153.665 89.2343 153.268C88.7228 152.781 88.3922 152.135 88.2971 151.436C88.2019 150.736 88.3478 150.025 88.7106 149.419C89.0735 148.814 89.6318 148.35 90.2935 148.104C90.9552 147.858 91.681 147.845 92.3512 148.066C92.1764 147.589 92.1177 147.077 92.1799 146.573C92.2421 146.068 92.4234 145.586 92.7089 145.165C92.9944 144.744 93.3759 144.398 93.8218 144.154C94.2677 143.909 94.7652 143.775 95.2734 143.761C95.0082 143.211 94.9377 142.587 95.0734 141.991C95.2091 141.395 95.543 140.863 96.0204 140.482C96.4979 140.1 97.0906 139.892 97.7016 139.892C98.3126 139.891 98.9058 140.098 99.3839 140.479C99.525 139.795 99.818 139.152 100.241 138.596C100.665 138.041 101.207 137.588 101.829 137.271C102.451 136.954 103.137 136.781 103.835 136.765C104.532 136.748 105.225 136.889 105.861 137.177C106.971 136.238 108.386 135.74 109.838 135.776C111.291 135.812 112.68 136.379 113.741 137.371C114.809 137.02 115.956 136.993 117.038 137.295C118.12 137.597 119.088 138.213 119.82 139.066C120.51 138.845 121.245 138.81 121.953 138.965C122.661 139.119 123.316 139.457 123.851 139.945C124.386 140.433 124.784 141.054 125.003 141.744C125.222 142.435 125.255 143.171 125.099 143.878C125.566 143.94 126.013 144.109 126.404 144.372C126.796 144.634 127.121 144.984 127.356 145.393C127.59 145.801 127.728 146.259 127.757 146.729C127.786 147.2 127.707 147.671 127.524 148.105C128.088 148.15 128.627 148.353 129.08 148.691C129.533 149.029 129.882 149.488 130.085 150.015C130.289 150.543 130.339 151.117 130.231 151.672C130.123 152.226 129.86 152.739 129.472 153.151C130.447 152.878 131.333 153.96 131.421 154.973C131.376 155.983 131.279 156.991 131.128 157.992C131.128 158.83 131.352 159.648 131.391 160.486C131.423 161.272 131.282 162.056 130.979 162.783C130.676 163.51 130.219 164.162 129.638 164.694L129.882 164.82C130.378 165.561 129.482 166.583 128.586 166.574C127.695 166.445 126.864 166.051 126.2 165.444C125.321 164.919 124.53 164.262 123.852 163.496C123.521 163.103 123.327 162.613 123.299 162.099C123.27 161.586 123.41 161.078 123.696 160.651C123.072 160.65 122.459 160.484 121.919 160.171C121.379 159.858 120.93 159.409 120.618 158.869C120.003 157.783 119.591 156.595 119.401 155.362L118.232 149.976C117.064 150.408 115.801 150.512 114.578 150.276C113.355 150.041 112.221 149.476 111.297 148.641C110.997 149.107 110.602 149.504 110.138 149.805C109.673 150.106 109.149 150.305 108.602 150.388C108.054 150.471 107.496 150.436 106.963 150.286C106.429 150.136 105.935 149.874 105.511 149.518C105.565 150.807 105.128 152.069 104.287 153.047C103.446 154.026 102.264 154.648 100.981 154.787C101.77 155.995 99.9196 158.177 98.7703 159.054C97.8249 159.6 96.7269 159.822 95.6435 159.687C95.6435 159.687 93.9682 161.908 92.5558 161.927C91.1434 161.947 88.9323 161.07 89.205 159.502C88.5576 158.736 88.1004 157.828 87.8706 156.852V156.852Z" fill="#263238"/>
<path d="M127.855 147.95C127.839 148.327 127.739 148.697 127.562 149.031C127.458 149.2 127.315 149.343 127.146 149.447C126.977 149.552 126.786 149.616 126.588 149.635C126.346 149.664 126.1 149.626 125.877 149.527C125.655 149.427 125.463 149.269 125.322 149.07L125.088 148.719L124.903 149.099C124.742 149.39 124.507 149.634 124.221 149.805C123.935 149.976 123.61 150.069 123.277 150.073C122.901 150.056 122.539 149.925 122.24 149.697C121.94 149.469 121.718 149.155 121.601 148.797L121.494 148.408L121.212 148.69C121.042 148.857 120.841 148.988 120.62 149.077C120.4 149.165 120.164 149.209 119.926 149.206C119.542 149.204 119.17 149.078 118.864 148.846C118.338 148.447 118.221 148.028 118.163 148.047C118.104 148.067 118.163 148.534 118.679 149.021C119.014 149.337 119.447 149.53 119.906 149.567C120.204 149.587 120.502 149.546 120.784 149.447C121.065 149.348 121.323 149.194 121.543 148.992L121.143 148.885C121.262 149.33 121.516 149.727 121.869 150.023C122.222 150.319 122.657 150.499 123.116 150.538C123.575 150.577 124.035 150.475 124.433 150.243C124.831 150.012 125.149 149.663 125.342 149.245H124.923C125.117 149.51 125.381 149.717 125.685 149.84C125.99 149.964 126.323 150.001 126.647 149.947C126.894 149.901 127.127 149.799 127.328 149.648C127.528 149.498 127.692 149.303 127.806 149.08C128.176 148.408 127.884 147.911 127.855 147.95Z" fill="#455A64"/>
<path d="M131.303 153.618C131.254 153.618 131.157 153.891 130.738 154.163C130.463 154.353 130.137 154.455 129.803 154.455C129.469 154.455 129.143 154.353 128.868 154.163L128.654 153.988L128.556 154.251C128.435 154.544 128.241 154.801 127.992 154.997C127.743 155.193 127.447 155.322 127.134 155.371C126.772 155.41 126.406 155.338 126.086 155.164C125.766 154.99 125.506 154.722 125.342 154.397L125.147 153.988L124.894 154.358C124.829 154.454 124.75 154.539 124.66 154.611C124.458 154.778 124.208 154.879 123.947 154.898C123.685 154.917 123.424 154.854 123.199 154.719C123 154.582 122.843 154.394 122.743 154.174C122.643 153.954 122.606 153.711 122.634 153.472L122.702 152.985L122.283 153.238C121.803 153.524 121.23 153.611 120.686 153.482C120.252 153.385 119.862 153.149 119.575 152.809C119.333 152.488 119.13 152.138 118.972 151.767C118.949 151.986 118.971 152.207 119.038 152.417C119.106 152.627 119.215 152.82 119.361 152.985C119.658 153.403 120.087 153.708 120.579 153.852C120.901 153.949 121.24 153.98 121.575 153.943C121.909 153.906 122.233 153.802 122.527 153.637L122.205 153.413C122.156 153.742 122.2 154.078 122.333 154.383C122.466 154.688 122.681 154.949 122.955 155.137C123.265 155.34 123.631 155.439 124.001 155.419C124.37 155.4 124.724 155.264 125.011 155.03C125.139 154.922 125.254 154.797 125.352 154.66H124.904C125.087 155.057 125.385 155.39 125.759 155.617C126.133 155.843 126.567 155.952 127.004 155.93C127.44 155.908 127.861 155.756 128.21 155.493C128.56 155.23 128.823 154.869 128.965 154.456L128.654 154.543C128.843 154.681 129.057 154.778 129.285 154.83C129.513 154.882 129.749 154.887 129.978 154.845C130.337 154.805 130.676 154.659 130.952 154.426C131.303 153.969 131.332 153.618 131.303 153.618Z" fill="#455A64"/>
<path d="M96.0513 143.234C96.1891 142.969 96.374 142.732 96.5968 142.533C96.7485 142.407 96.9247 142.313 97.1143 142.258C97.304 142.203 97.5029 142.188 97.6986 142.214C97.8944 142.239 98.0827 142.305 98.2518 142.407C98.4209 142.509 98.5671 142.645 98.6813 142.806L98.915 143.127L98.9735 142.728C99.0425 142.31 99.2164 141.917 99.4787 141.585C99.741 141.252 100.083 140.992 100.474 140.828C100.95 140.644 101.472 140.616 101.966 140.747C102.459 140.878 102.898 141.162 103.22 141.559L103.513 141.919L103.629 141.471C103.759 141.037 103.984 140.637 104.287 140.3C104.59 139.963 104.964 139.698 105.383 139.523C105.835 139.344 106.325 139.28 106.808 139.338C107.291 139.396 107.752 139.573 108.149 139.854C108.478 140.084 108.757 140.379 108.967 140.721L109.113 140.955L109.337 140.789C109.87 140.41 110.515 140.219 111.168 140.25C111.821 140.28 112.446 140.528 112.941 140.955C113.356 141.351 113.649 141.858 113.785 142.416C113.922 142.973 113.896 143.558 113.711 144.101L113.575 144.462L113.945 144.374C114.769 144.199 115.628 144.353 116.341 144.802C116.888 145.152 117.314 145.662 117.558 146.264C117.756 146.797 117.858 147.361 117.86 147.929C117.86 147.929 117.938 147.783 117.958 147.481C117.996 147.038 117.937 146.593 117.782 146.176C117.553 145.506 117.112 144.928 116.526 144.53C116.14 144.264 115.706 144.078 115.248 143.981C114.79 143.884 114.317 143.879 113.857 143.965L114.101 144.247C114.376 143.575 114.424 142.831 114.235 142.129C114.046 141.428 113.632 140.808 113.056 140.365C112.48 139.922 111.775 139.68 111.048 139.678C110.322 139.675 109.614 139.912 109.035 140.351L109.406 140.419C109.153 140.03 108.821 139.698 108.432 139.445C107.965 139.113 107.422 138.904 106.854 138.838C106.285 138.771 105.709 138.849 105.178 139.065C104.691 139.272 104.256 139.586 103.907 139.984C103.558 140.382 103.303 140.854 103.162 141.364L103.581 141.276C103.236 140.848 102.773 140.531 102.248 140.366C101.724 140.201 101.163 140.194 100.635 140.347C100.107 140.5 99.6356 140.806 99.2811 141.226C98.9266 141.646 98.7044 142.162 98.6423 142.708L98.9345 142.63C98.7677 142.419 98.5543 142.249 98.3109 142.135C98.0676 142.02 97.8009 141.963 97.5319 141.968C97.1351 141.983 96.7575 142.142 96.4702 142.416C96.294 142.579 96.1603 142.783 96.0805 143.01C96.0416 143.147 96.0416 143.234 96.0513 143.234Z" fill="#455A64"/>
<path d="M114.676 176.567C114.442 176.645 115.075 178.193 114.208 179.83C113.341 181.466 111.627 181.973 111.695 182.197C111.764 182.421 112.192 182.343 112.893 182.08C113.802 181.72 114.554 181.05 115.017 180.19C115.464 179.364 115.573 178.396 115.319 177.492C115.114 176.791 114.783 176.508 114.676 176.567Z" fill="#263238"/>
<path d="M105.188 204.619L97.4736 226.351L99.2562 250.118L104.126 291.174C104.126 291.174 122.215 285.067 123.033 285.68C123.851 286.294 115.026 244.059 115.026 244.059L121.406 209.694L120.997 199.574L105.188 204.619Z" fill="#8B8AE1"/>
<path d="M105.189 204.619L96.7046 224.1L79.1716 230.977L60.8398 236.656L63.4113 249.845C63.5385 250.485 63.7956 251.093 64.1669 251.63C64.5382 252.167 65.0157 252.622 65.5698 252.967C66.124 253.312 66.7431 253.54 67.3888 253.636C68.0345 253.732 68.6931 253.695 69.3239 253.527L84.8406 249.358L99.2956 248.695L106.815 231.221L105.189 204.619Z" fill="#8B8AE1"/>
<path d="M66.8303 231.231L68.1161 229.633C69.3813 229.622 70.6329 229.895 71.7785 230.432C73.4575 231.812 74.6882 233.659 75.3144 235.74C75.4552 237.237 75.4552 238.744 75.3144 240.241L66.5479 231.231" fill="#A2675F"/>
<path d="M49.7354 221.763C49.7354 222.026 66.2943 239.569 66.2943 239.569L69.4113 242.647H79.3466L60.0603 221.217L51.7419 219.795L49.7354 221.763Z" fill="#263238"/>
<path d="M116.896 260.736C116.749 260.545 116.621 260.34 116.516 260.123L115.542 258.311C114.705 256.733 113.516 254.415 112.133 251.492C110.488 248.115 109.025 244.652 107.75 241.119C107.386 240.089 107.083 239.038 106.844 237.972C106.72 237.414 106.632 236.848 106.581 236.278C106.581 235.713 106.581 235.138 106.581 234.563C106.581 232.255 106.581 229.868 106.698 227.423C106.815 224.326 106.971 221.336 107.156 218.491V218.345L107.292 218.287L112.425 216.027L112.484 216.475L108.588 215.959H108.256L108.422 215.676C110.955 211.332 113.059 207.699 114.568 205.098L116.312 202.176L116.789 201.416C116.838 201.323 116.9 201.237 116.974 201.163C116.944 201.262 116.902 201.357 116.848 201.445L116.429 202.244L114.783 205.244L108.802 215.91L108.636 215.589L112.533 216.076L113.36 216.173L112.601 216.514L107.487 218.793L107.633 218.579C107.458 221.423 107.302 224.423 107.185 227.501C107.097 229.937 107.039 232.313 107.058 234.612C107.058 235.187 107.058 235.752 107.058 236.317C107.101 236.861 107.182 237.401 107.302 237.934C107.532 238.982 107.821 240.016 108.169 241.031C109.542 245.015 111.091 248.492 112.445 251.405C113.799 254.317 114.909 256.635 115.698 258.223L116.594 260.074C116.711 260.287 116.812 260.508 116.896 260.736Z" fill="#263238"/>
<path d="M59.5048 231.23C59.5048 231.23 56.9918 233.042 57.06 234.074C57.0606 234.529 57.1718 234.977 57.3839 235.379C57.596 235.781 57.9027 236.126 58.2775 236.383C58.862 236.578 60.5958 237.474 60.5958 237.474C60.5958 237.474 59.047 238.954 59.5048 240.503C59.5894 240.917 59.7653 241.307 60.0198 241.644C60.2743 241.981 60.6008 242.257 60.9757 242.451C61.0113 243.529 61.2287 244.592 61.6185 245.597C62.2103 246.4 63.0835 246.95 64.0634 247.136C64.6098 248.246 65.2622 249.299 66.0115 250.283C66.7641 250.981 67.7 251.451 68.7097 251.637C68.7097 251.637 71.0279 251.9 72.2455 251.062C73.0724 250.646 73.7614 250 74.2298 249.202C74.6981 248.403 74.9257 247.487 74.8852 246.562C74.8852 246.562 80.4178 243.795 80.4763 242.383C80.5347 240.971 79.9016 240.523 79.9016 240.523L77.1352 241.029C77.1352 241.029 76.7456 239.558 75.9177 239.422C75.0897 239.286 64.9888 241.74 64.9888 241.74C64.9888 241.74 71.8656 240.649 72.0604 239.295C72.2552 237.941 72.3137 236.792 71.2812 236.529C70.2487 236.266 62.9335 237.065 62.9335 237.065L62.5439 235.76C62.5439 235.76 64.492 235.828 64.492 234.094C64.492 232.36 63.4011 231.97 63.4011 231.97L59.5048 231.23Z" fill="#A2675F"/>
<path d="M116.897 201.143L117.735 207.854L112.543 237.047L117.813 262.246L145.125 270.321L155.869 265.684L152.197 194.948L142.437 188.091L138.687 185.568L124.621 206.861L116.897 201.143Z" fill="#FAFAFA"/>
<path d="M141.686 187.554L148.505 190.593L172.681 193.847L185.723 262.44L187.36 270.32L212.364 307.733C212.635 308.139 212.82 308.597 212.906 309.078C212.993 309.558 212.98 310.052 212.867 310.527C212.755 311.002 212.546 311.449 212.253 311.84C211.96 312.231 211.59 312.557 211.166 312.799L190.711 324.487C189.95 324.877 189.074 324.973 188.247 324.757C187.421 324.541 186.703 324.029 186.23 323.318L160.193 284.113L147.297 267.602C147.297 267.602 139.573 244.225 138.53 234.28C137.719 225.561 137.719 216.786 138.53 208.068C139.134 202.117 141.686 187.554 141.686 187.554Z" fill="#8B8AE1"/>
<path d="M172.642 193.847C174.216 194.673 175.582 195.845 176.64 197.273C177.697 198.702 178.419 200.351 178.749 202.098C180.288 210.241 184.925 224.442 186.668 239.608C189.103 260.823 183.395 267.369 180.707 271.031C178.019 274.694 161.343 282.467 161.343 282.467L148.807 265.772L162.687 254.395L161.469 224.929C161.469 224.929 156.599 218.228 159.034 208.273C161.469 198.318 168.58 193.243 172.671 193.847H172.642Z" fill="#8B8AE1"/>
<g opacity="0.3">
<path d="M185.577 261.884C183.678 267.027 181.506 271.371 177.084 273.816C172.369 276.426 165.814 280.108 161.343 282.465L164.616 287.55C169.749 286.761 179.226 280.78 182.304 276.602C185.284 272.315 186.459 267.029 185.577 261.884Z" fill="black"/>
</g>
<path d="M161.168 226.469C161.209 226.612 161.238 226.759 161.255 226.907C161.314 227.228 161.382 227.657 161.479 228.202C161.655 229.381 161.918 231.056 162.249 233.209C162.911 237.592 163.856 243.924 165.015 251.716V251.813L164.937 251.882L148.972 265.947V265.645L161.518 282.331L161.206 282.262C165.375 280.158 169.691 277.879 173.957 275.356C175.174 274.626 176.373 273.895 177.532 273.106C178.683 272.365 179.763 271.517 180.756 270.574C182.447 268.476 183.786 266.117 184.72 263.59C186.44 258.762 187.237 253.653 187.068 248.531C186.951 243.885 186.505 239.253 185.733 234.67C185.061 230.355 184.282 226.361 183.512 222.728C181.983 215.452 180.503 209.617 179.47 205.595C178.944 203.646 178.496 202.049 178.252 200.968C178.116 200.452 178.009 200.052 177.941 199.76C177.892 199.625 177.859 199.484 177.843 199.341C177.843 199.341 177.902 199.477 177.989 199.74C178.077 200.003 178.194 200.432 178.35 200.939C178.662 201.981 179.11 203.539 179.665 205.546C180.756 209.559 182.285 215.384 183.863 222.65C184.662 226.283 185.46 230.287 186.152 234.612C186.944 239.209 187.403 243.858 187.525 248.521C187.713 253.708 186.92 258.883 185.188 263.775C184.23 266.36 182.859 268.771 181.126 270.915C180.111 271.892 179.002 272.766 177.814 273.525C176.645 274.314 175.437 275.054 174.22 275.785C169.924 278.327 165.619 280.607 161.431 282.701L161.245 282.798L161.119 282.633L148.602 265.918L148.476 265.742L148.631 265.606L164.655 251.599L164.596 251.765C163.496 243.972 162.648 237.66 161.995 233.258C161.703 231.105 161.469 229.362 161.314 228.241C161.245 227.686 161.187 227.267 161.148 226.936C161.145 226.78 161.151 226.624 161.168 226.469Z" fill="#263238"/>
<path d="M143.469 251.667C143.462 251.439 143.482 251.21 143.527 250.985C143.586 250.498 143.674 249.856 143.771 249.037C144.024 247.304 144.365 244.898 144.794 241.956C145.641 235.975 146.976 227.735 148.271 218.579C148.875 214.156 149.45 209.949 149.966 206.111L150.122 206.354L145.992 204.776L145.583 204.62L145.943 204.387L150.093 201.698L150.015 201.883C149.518 198.445 149.119 195.63 148.826 193.604C148.709 192.63 148.602 191.919 148.534 191.344C148.483 191.081 148.46 190.813 148.466 190.545C148.547 190.8 148.605 191.06 148.641 191.325C148.739 191.899 148.875 192.64 149.041 193.575C149.372 195.591 149.83 198.396 150.385 201.825V201.952L150.287 202.02L146.167 204.747L146.118 204.367L150.268 205.916L150.443 205.984V206.169C149.937 210.007 149.372 214.225 148.778 218.647C147.492 227.774 146.099 236.014 145.154 242.024C144.667 244.946 144.268 247.362 143.976 249.086L143.635 251.034C143.599 251.25 143.544 251.462 143.469 251.667V251.667Z" fill="#263238"/>
<path d="M168.96 194.771C169.018 194.849 167.781 195.746 166.116 197.431C165.148 198.446 164.269 199.54 163.486 200.703C161.547 203.556 160.22 206.78 159.589 210.171C159.335 211.55 159.198 212.948 159.18 214.35C159.18 216.756 159.443 218.246 159.346 218.246C159.215 217.915 159.13 217.568 159.093 217.214C159.01 216.812 158.951 216.405 158.917 215.996C158.857 215.449 158.824 214.9 158.82 214.35C158.783 212.921 158.884 211.493 159.122 210.084C159.436 208.362 159.919 206.675 160.564 205.048C161.242 203.432 162.081 201.889 163.067 200.44C163.883 199.267 164.809 198.174 165.833 197.177C166.22 196.793 166.627 196.429 167.051 196.086C167.361 195.815 167.686 195.561 168.025 195.327C168.311 195.101 168.625 194.915 168.96 194.771V194.771Z" fill="#263238"/>
<path d="M99.1485 248.714C99.0121 248.714 98.564 244 98.1744 238.155C97.7848 232.311 97.5413 227.577 97.6874 227.558C97.8335 227.538 98.2718 232.282 98.6614 238.116C99.0511 243.951 99.2848 248.704 99.1485 248.714Z" fill="#263238"/>
<path d="M181.496 291.72L185.246 299.376L202.614 288.262L196.604 281.454L181.496 291.72Z" fill="#8B8AE1"/>
<path d="M181.496 291.73C181.825 291.443 182.173 291.179 182.538 290.941L185.597 288.788L196.467 281.268L196.643 281.151L196.779 281.307L202.808 288.126L203.003 288.35L202.75 288.506L201.99 288.993L185.344 299.522L185.168 299.629L185.09 299.444L182.402 293.756C182.119 293.132 181.886 292.626 181.71 292.226C181.624 292.061 181.552 291.888 181.496 291.71C181.618 291.878 181.723 292.057 181.808 292.246C182.012 292.645 182.275 293.152 182.607 293.765L185.412 299.288L185.149 299.22L201.708 288.506L202.468 288.019V288.398C200.344 285.993 198.318 283.694 196.467 281.58H196.779L185.899 288.837L182.723 290.912L181.857 291.467L181.496 291.73Z" fill="#263238"/>
<g opacity="0.3">
<path d="M181.622 292.06C181.7 292.206 185.518 303.817 185.518 303.817L201.717 292.323L200.324 289.781L185.246 299.424L181.622 292.06Z" fill="black"/>
</g>
<g opacity="0.3">
<path d="M148.953 193.798L151.875 203.295L148.953 204.619L152.8 206.509C152.8 206.509 146.742 239.627 145.982 242.646C145.222 245.666 144.287 246.64 144.287 246.64L150.2 206.187L146.07 204.619L150.2 201.902L148.953 193.798Z" fill="black"/>
</g>
<path d="M84.8698 245.55C84.7931 243.272 84.4232 241.013 83.7691 238.829C82.9545 236.705 81.8744 234.692 80.5547 232.839C81.1093 233.238 81.585 233.737 81.9573 234.31C83.9401 236.977 85.0339 240.201 85.084 243.524C85.1349 244.207 85.0623 244.893 84.8698 245.55V245.55Z" fill="#263238"/>
<g opacity="0.3">
<path d="M97.5427 226.623C94.6206 233.831 95.7018 241.731 99.0817 248.715C98.5557 240.679 98.244 234.415 97.5427 226.623Z" fill="black"/>
</g>
<path d="M139.573 193.554C139.441 193.897 139.271 194.223 139.066 194.528L137.556 197.051C136.29 199.194 134.634 202.174 132.949 205.574C131.819 207.863 130.855 210.054 130.027 211.905L129.92 212.178L129.696 212.002C128.408 210.975 127.197 209.855 126.072 208.652C125.621 208.219 125.222 207.735 124.884 207.21C125.371 207.599 125.83 208.022 126.257 208.476C127.436 209.597 128.671 210.657 129.959 211.652L129.627 211.739C130.377 209.859 131.322 207.658 132.452 205.35C133.88 202.436 135.466 199.604 137.206 196.866C137.878 195.814 138.452 194.986 138.861 194.421C139.062 194.104 139.301 193.813 139.573 193.554V193.554Z" fill="#263238"/>
<path d="M123.579 206.987C123.196 208.688 122.651 210.348 121.952 211.945L121.826 212.286L121.553 212.053L121.426 211.936C120.009 210.808 118.791 209.452 117.822 207.923C117.929 207.825 119.537 209.617 121.718 211.556L121.845 211.663L121.446 211.77C122.002 210.111 122.716 208.51 123.579 206.987V206.987Z" fill="#263238"/>
<path d="M126.442 256.829C126.387 256.679 126.361 256.52 126.364 256.361C126.364 255.981 126.286 255.533 126.237 254.988C126.159 253.712 126.042 252.007 125.906 249.932C125.643 245.666 125.341 239.773 125.078 233.256C124.815 226.74 124.679 220.837 124.679 216.561C124.679 214.418 124.679 212.665 124.747 211.496C124.747 210.951 124.747 210.522 124.815 210.123C124.815 209.962 124.834 209.801 124.874 209.645C124.9 209.803 124.9 209.965 124.874 210.123C124.874 210.493 124.874 210.951 124.874 211.496C124.874 212.772 124.932 214.477 124.971 216.551C125.059 220.827 125.263 226.72 125.516 233.237C125.77 239.753 126.013 245.578 126.188 249.913C126.266 251.997 126.325 253.702 126.374 254.978C126.374 255.523 126.374 255.952 126.374 256.351C126.411 256.508 126.434 256.668 126.442 256.829Z" fill="#263238"/>
<path d="M69.4116 388.376L71.9344 412.152C71.9344 412.152 48.5571 422.711 48.6448 427.143L94.9319 423.919L92.526 386.69L69.4116 388.376Z" fill="#8B8AE1"/>
<path d="M86.1063 409.151C86.5558 409.265 86.9498 409.535 87.2176 409.914C87.4854 410.292 87.6095 410.754 87.5674 411.216C87.4795 411.674 87.2194 412.08 86.8407 412.352C86.462 412.624 85.9935 412.74 85.5316 412.677C85.0453 412.575 84.6162 412.292 84.3319 411.885C84.0477 411.477 83.9298 410.977 84.0024 410.485C84.1408 410.017 84.4561 409.621 84.8816 409.381C85.307 409.141 85.8091 409.076 86.2816 409.2" fill="#E0E0E0"/>
<path d="M95.0387 424.882L94.805 421.278L50.3101 424.667C50.3101 424.667 48.3035 425.71 48.6445 427.141L95.0387 424.882Z" fill="#E0E0E0"/>
<path d="M71.1649 411.978C71.1649 412.202 72.3241 412.221 73.4929 412.874C74.6618 413.526 75.3144 414.432 75.5092 414.325C75.704 414.218 75.2852 412.942 73.8631 412.182C72.441 411.422 71.1065 411.773 71.1649 411.978Z" fill="#263238"/>
<path d="M66.4502 414.325C66.4502 414.539 67.4243 414.861 68.2522 415.766C69.0802 416.672 69.3822 417.656 69.6062 417.637C69.8302 417.617 69.8887 416.322 68.8269 415.221C67.7652 414.12 66.4405 414.101 66.4502 414.325Z" fill="#263238"/>
<path d="M64.1033 420.306C64.3078 420.306 64.5416 419.186 63.8792 417.988C63.2169 416.789 62.1162 416.371 62.0383 416.565C61.9603 416.76 62.6519 417.384 63.1877 418.367C63.7234 419.351 63.8695 420.306 64.1033 420.306Z" fill="#263238"/>
<path d="M71.1943 406.493C71.3014 406.688 72.3144 406.308 73.6002 406.298C74.8859 406.288 75.9087 406.629 76.0158 406.434C76.123 406.24 75.1002 405.46 73.5904 405.509C72.0806 405.558 71.0676 406.317 71.1943 406.493Z" fill="#263238"/>
<path d="M61.1711 292.403L39.7419 303.001C39.7419 303.001 21.7608 284.767 17.6113 286.344L36.6639 328.648L70.7558 313.501L61.1711 292.403Z" fill="#8B8AE1"/>
<path d="M47.4562 315.252C47.5173 315.715 47.4048 316.184 47.1404 316.569C46.876 316.954 46.4784 317.227 46.0244 317.336C45.5645 317.415 45.0921 317.313 44.7056 317.051C44.3191 316.79 44.0483 316.39 43.9496 315.934C43.877 315.442 43.9949 314.942 44.2792 314.534C44.5635 314.127 44.9926 313.844 45.4789 313.742C45.958 313.725 46.4259 313.89 46.7876 314.205C47.1493 314.52 47.3779 314.96 47.427 315.437" fill="#E0E0E0"/>
<path d="M35.7871 329.086L39.0891 327.615L20.4944 287.045C20.4944 287.045 18.8288 285.536 17.5723 286.344L35.7871 329.086Z" fill="#E0E0E0"/>
<path d="M39.635 302.221C39.4304 302.318 39.8006 303.39 39.635 304.705C39.4694 306.02 38.8071 306.955 38.9726 307.111C39.1382 307.267 40.1999 306.419 40.4142 304.822C40.6285 303.224 39.8103 302.085 39.635 302.221Z" fill="#263238"/>
<path d="M35.7965 298.606C35.5823 298.606 35.631 299.707 35.0757 300.798C34.5205 301.889 33.6828 302.512 33.7803 302.746C33.8777 302.98 35.1147 302.551 35.7771 301.178C36.4394 299.804 36.0011 298.548 35.7965 298.606Z" fill="#263238"/>
<path d="M29.3587 298.481C29.3587 298.685 30.5568 298.481 31.4529 297.506C32.349 296.532 32.3588 295.295 32.1445 295.286C31.9302 295.276 31.599 296.153 30.849 296.99C30.099 297.828 29.2808 298.266 29.3587 298.481Z" fill="#263238"/>
<path d="M44.788 300.341C44.6419 300.517 45.353 301.315 45.7621 302.543C46.1712 303.77 46.2491 304.822 46.4731 304.841C46.6972 304.861 47.0478 303.663 46.4731 302.26C45.8984 300.858 44.9049 300.166 44.788 300.341Z" fill="#263238"/>
<path d="M71.6319 305.881C69.3145 306.459 67.2119 307.691 65.5748 309.43C63.9376 311.169 62.8349 313.342 62.3979 315.69C60.8297 323.94 66.5084 406.92 66.5084 406.92L95.6327 404.583L93.8501 348.672L93.1293 337.392L95.6327 335.444L146.819 326.434L139.027 305.278L130.465 290.375L91.2592 300.115L71.6319 305.881Z" fill="#263238"/>
<path d="M167.986 291.904C167.986 291.904 146.81 261.29 140.615 256.838C135.511 253.166 127.835 253.176 123.082 255.309C118.329 257.442 44.1836 294.223 44.1836 294.223L55.0638 321.496L125.644 297.038L136.164 313.597L145.963 326.571L173.47 326.785C174.765 326.785 180.678 315.097 180.678 315.097L167.986 291.904Z" fill="#263238"/>
<path d="M62.1252 322.09C62.1106 321.996 62.1106 321.901 62.1252 321.807C62.1252 321.583 62.1252 321.311 62.1252 320.97C62.1252 320.629 62.1252 320.132 62.1252 319.596C62.1252 319.06 62.2518 318.437 62.3298 317.736C62.4077 317.034 62.6317 316.284 62.7876 315.437C62.8752 315.018 63.0506 314.599 63.1869 314.161C63.3283 313.697 63.5041 313.245 63.7129 312.807C64.6146 310.695 66.0516 308.856 67.8819 307.469C68.9482 306.658 70.1624 306.062 71.4567 305.716L75.6743 304.995L84.9571 303.446L106.24 299.92L125.565 296.755H125.721L125.809 296.891C131.468 305.726 136.066 313.45 139.933 318.437C141.803 320.96 143.303 322.966 144.355 324.369C144.852 325.041 145.241 325.567 145.534 325.947L145.826 326.356L145.923 326.502C145.923 326.502 145.923 326.502 145.797 326.385L145.465 325.996L144.228 324.467C143.157 323.122 141.598 321.145 139.699 318.622C135.754 313.635 131.088 305.959 125.41 297.193L125.643 297.3L106.318 300.495L85.035 303.982L75.7425 305.492L71.5443 306.174C70.2971 306.501 69.1235 307.063 68.0864 307.83C66.2951 309.172 64.8795 310.954 63.9759 313.002C63.76 313.427 63.5808 313.871 63.4402 314.327C63.2773 314.737 63.1375 315.157 63.0213 315.583C62.8172 316.327 62.6546 317.081 62.5343 317.843L62.2713 319.684C62.2713 320.21 62.2129 320.658 62.1934 321.048C62.1739 321.437 62.1934 321.671 62.135 321.885C62.137 321.954 62.1337 322.022 62.1252 322.09Z" fill="#455A64"/>
<path d="M135.745 278.092C135.818 278.379 135.854 278.673 135.852 278.969C135.917 279.77 135.917 280.574 135.852 281.375C135.742 282.568 135.523 283.748 135.199 284.901C134.788 286.309 134.247 287.675 133.582 288.982C132.884 290.272 132.069 291.494 131.147 292.635C130.378 293.554 129.531 294.404 128.615 295.177C128.005 295.698 127.354 296.167 126.667 296.58C126.425 296.753 126.159 296.891 125.878 296.989C125.829 296.911 126.852 296.249 128.381 294.905C129.245 294.115 130.047 293.258 130.777 292.343C131.665 291.215 132.453 290.012 133.134 288.748C133.785 287.469 134.326 286.136 134.751 284.765C135.091 283.644 135.339 282.497 135.492 281.336C135.716 279.359 135.647 278.092 135.745 278.092Z" fill="#455A64"/>
<path d="M381.206 375.187L253.751 375.119C246.389 375.113 239.331 372.185 234.127 366.978C228.923 361.771 226 354.71 226 347.348L226.068 27.7606C226.068 24.1134 226.787 20.5019 228.183 17.1326C229.58 13.7632 231.626 10.7021 234.206 8.124C236.786 5.54594 239.848 3.50151 243.219 2.10756C246.589 0.713606 250.201 -0.00255261 253.848 6.83612e-06L381.303 0.116892C388.665 0.122057 395.724 3.05013 400.927 8.25752C406.131 13.4649 409.054 20.5254 409.054 27.8872L408.996 347.436C408.993 351.083 408.272 354.693 406.874 358.062C405.476 361.43 403.429 364.49 400.848 367.067C398.268 369.644 395.205 371.687 391.835 373.08C388.464 374.473 384.853 375.189 381.206 375.187V375.187Z" fill="#263238"/>
<path d="M381.167 11.4168H356.455C354.829 11.4551 353.283 12.137 352.159 13.3129C351.034 14.4888 350.421 16.0628 350.455 17.6897V22.1704C350.473 22.9763 350.333 23.7779 350.041 24.5293C349.749 25.2808 349.312 25.9674 348.755 26.5499C348.198 27.1325 347.531 27.5995 346.793 27.9244C346.056 28.2493 345.261 28.4256 344.455 28.4433H296.288C295.482 28.4256 294.688 28.2493 293.95 27.9244C293.212 27.5995 292.546 27.1325 291.988 26.5499C291.431 25.9674 290.994 25.2808 290.702 24.5293C290.411 23.7779 290.27 22.9763 290.288 22.1704V17.6313C290.322 16.0044 289.709 14.4304 288.584 13.2545C287.46 12.0786 285.914 11.3967 284.288 11.3584H275.589H253.965C248.799 11.3584 243.844 13.4108 240.19 17.0642C236.537 20.7177 234.484 25.6728 234.484 30.8395L234.426 342.742C234.426 347.9 236.472 352.848 240.114 356.5C243.757 360.152 248.7 362.21 253.858 362.223L381.07 362.291C386.237 362.291 391.192 360.239 394.845 356.585C398.498 352.932 400.551 347.977 400.551 342.81L400.619 30.9077C400.622 25.7443 398.574 20.7911 394.927 17.1364C391.28 13.4818 386.331 11.4245 381.167 11.4168V11.4168Z" fill="white"/>
<path d="M400.608 30.8687C400.608 25.702 398.556 20.7469 394.902 17.0935C391.249 13.44 386.294 11.3876 381.127 11.3876H356.415C354.789 11.4259 353.243 12.1078 352.119 13.2837C350.994 14.4596 350.381 16.0336 350.415 17.6605V22.1411C350.433 22.9471 350.292 23.7486 350.001 24.5001C349.709 25.2516 349.272 25.9382 348.715 26.5207C348.158 27.1033 347.491 27.5703 346.753 27.8952C346.015 28.22 345.221 28.3964 344.415 28.4141H296.248C295.442 28.3964 294.648 28.22 293.91 27.8952C293.172 27.5703 292.506 27.1033 291.948 26.5207C291.391 25.9382 290.954 25.2516 290.662 24.5001C290.371 23.7486 290.23 22.9471 290.248 22.1411V17.6313C290.282 16.0044 289.669 14.4304 288.544 13.2545C287.42 12.0786 285.874 11.3967 284.248 11.3584H275.549H253.925C248.759 11.3584 243.803 13.4108 240.15 17.0642C236.497 20.7177 234.444 25.6728 234.444 30.8395L234.386 60.665H400.599L400.608 30.8687Z" fill="#F5F5F5"/>
<path d="M387.09 41.826C387.09 41.9137 384.109 42.0208 380.437 42.05C378.219 42.1263 375.998 42.0873 373.784 41.9331C378.215 41.6702 382.656 41.6344 387.09 41.826V41.826Z" fill="#263238"/>
<path d="M387.147 45.2253C384.938 45.416 382.721 45.4907 380.504 45.4493C378.286 45.5257 376.066 45.4866 373.852 45.3325C373.852 45.2448 376.822 45.1474 380.504 45.1084C384.186 45.0695 387.147 45.1376 387.147 45.2253Z" fill="#263238"/>
<path d="M387.147 48.6355C387.147 48.7231 384.177 48.8205 380.504 48.8498C378.286 48.9261 376.066 48.8903 373.852 48.7426C378.279 48.4796 382.717 48.4438 387.147 48.6355V48.6355Z" fill="#263238"/>
<path d="M271.343 277.351L272.015 275.939C273.198 276.898 274.68 277.415 276.203 277.4C278.385 277.4 279.33 276.552 279.33 275.452C279.33 272.364 271.654 274.312 271.654 269.607C271.654 267.659 273.174 265.984 276.525 265.984C277.963 265.956 279.378 266.349 280.596 267.114L280.002 268.546C278.963 267.883 277.758 267.525 276.525 267.513C274.372 267.513 273.447 268.419 273.447 269.529C273.447 272.627 281.122 270.689 281.122 275.374C281.122 277.322 279.564 278.978 276.252 278.978C274.475 279.028 272.738 278.452 271.343 277.351V277.351Z" fill="#263238"/>
<path d="M282.602 274.002C282.592 273.342 282.717 272.687 282.971 272.077C283.225 271.468 283.602 270.918 284.078 270.461C284.555 270.004 285.12 269.65 285.739 269.421C286.358 269.192 287.018 269.094 287.677 269.131C288.451 269.086 289.222 269.253 289.909 269.613C290.595 269.973 291.171 270.514 291.573 271.177L290.258 272.024C289.977 271.591 289.589 271.238 289.132 270.997C288.675 270.757 288.164 270.637 287.648 270.651C286.784 270.697 285.971 271.073 285.376 271.701C284.781 272.329 284.449 273.161 284.449 274.026C284.449 274.891 284.781 275.723 285.376 276.351C285.971 276.979 286.784 277.355 287.648 277.401C288.164 277.417 288.676 277.299 289.134 277.059C289.591 276.818 289.979 276.463 290.258 276.028L291.573 276.865C291.17 277.528 290.594 278.069 289.908 278.43C289.222 278.792 288.451 278.962 287.677 278.921C287.014 278.957 286.351 278.856 285.729 278.624C285.107 278.391 284.54 278.033 284.063 277.571C283.587 277.109 283.211 276.553 282.959 275.939C282.708 275.325 282.586 274.665 282.602 274.002Z" fill="#263238"/>
<path d="M301.431 273.007V278.793H299.785V277.526C299.419 278.002 298.938 278.378 298.388 278.618C297.838 278.858 297.236 278.955 296.638 278.9C294.466 278.9 293.083 277.741 293.083 276.075C293.083 274.409 294.057 273.27 296.979 273.27H299.736V272.929C299.736 271.468 298.879 270.611 297.164 270.611C296.064 270.601 294.993 270.965 294.125 271.643L293.395 270.338C294.544 269.502 295.938 269.07 297.359 269.111C299.95 269.111 301.431 270.377 301.431 273.007ZM299.697 275.861V274.526H297.018C295.294 274.526 294.807 275.189 294.807 276.007C294.807 276.825 295.606 277.565 296.921 277.565C297.504 277.608 298.086 277.467 298.584 277.161C299.082 276.855 299.472 276.4 299.697 275.861Z" fill="#263238"/>
<path d="M313.763 273.271V278.794H312.019V273.476C312.019 271.596 311.045 270.67 309.438 270.67C309.018 270.639 308.595 270.7 308.202 270.851C307.808 271.002 307.453 271.238 307.161 271.543C306.87 271.847 306.649 272.213 306.516 272.613C306.382 273.012 306.339 273.437 306.389 273.856V278.794H304.655V269.2H306.301V270.651C306.713 270.137 307.242 269.729 307.843 269.461C308.445 269.193 309.102 269.073 309.759 269.112C312.146 269.112 313.763 270.456 313.763 273.271Z" fill="#263238"/>
<path d="M326.084 273.272V278.795H324.35V273.476C324.35 271.596 323.376 270.671 321.759 270.671C321.339 270.639 320.917 270.701 320.524 270.851C320.131 271.002 319.776 271.239 319.485 271.544C319.194 271.848 318.975 272.214 318.843 272.614C318.71 273.014 318.669 273.438 318.72 273.856V278.795H317.016V269.2H318.681V270.651C319.092 270.136 319.62 269.727 320.222 269.459C320.824 269.191 321.482 269.072 322.139 269.112C324.438 269.112 326.084 270.457 326.084 273.272Z" fill="#263238"/>
<path d="M329.006 266.23C328.996 265.995 329.057 265.762 329.181 265.562C329.305 265.361 329.486 265.203 329.701 265.106C329.916 265.01 330.155 264.98 330.387 265.02C330.619 265.061 330.833 265.17 331.003 265.334C331.172 265.498 331.288 265.708 331.337 265.939C331.385 266.169 331.364 266.409 331.275 266.627C331.185 266.845 331.033 267.032 330.837 267.162C330.641 267.293 330.41 267.362 330.175 267.36C330.023 267.364 329.873 267.338 329.732 267.283C329.591 267.228 329.462 267.145 329.353 267.04C329.245 266.935 329.158 266.809 329.098 266.67C329.039 266.531 329.007 266.381 329.006 266.23V266.23ZM329.308 269.201H331.051V278.795H329.308V269.201Z" fill="#263238"/>
<path d="M343.471 273.271V278.794H341.727V273.476C341.727 271.596 340.753 270.67 339.136 270.67C338.716 270.638 338.294 270.7 337.901 270.851C337.508 271.002 337.153 271.238 336.862 271.543C336.571 271.848 336.352 272.213 336.219 272.613C336.087 273.013 336.045 273.437 336.097 273.856V278.794H334.363V269.2H336.029V270.651C336.44 270.137 336.969 269.729 337.571 269.461C338.172 269.193 338.829 269.073 339.487 269.112C341.815 269.112 343.471 270.456 343.471 273.271Z" fill="#263238"/>
<path d="M355.919 269.2V277.499C355.919 280.879 354.204 282.418 350.941 282.418C349.295 282.487 347.677 281.981 346.363 280.987L347.191 279.652C348.243 280.478 349.546 280.918 350.883 280.899C353.152 280.899 354.185 279.847 354.185 277.675V276.915C353.754 277.402 353.22 277.787 352.622 278.043C352.024 278.299 351.377 278.42 350.727 278.396C350.1 278.424 349.473 278.326 348.885 278.105C348.297 277.885 347.759 277.548 347.305 277.114C346.851 276.68 346.489 276.159 346.242 275.581C345.995 275.004 345.868 274.382 345.868 273.754C345.868 273.126 345.995 272.505 346.242 271.927C346.489 271.35 346.851 270.828 347.305 270.394C347.759 269.961 348.297 269.623 348.885 269.403C349.473 269.183 350.1 269.084 350.727 269.113C351.4 269.086 352.069 269.214 352.684 269.488C353.299 269.762 353.842 270.173 354.273 270.691V269.2H355.919ZM354.214 273.749C354.251 273.087 354.089 272.429 353.747 271.86C353.405 271.291 352.901 270.838 352.299 270.559C351.697 270.28 351.025 270.189 350.37 270.296C349.715 270.404 349.108 270.706 348.627 271.163C348.146 271.62 347.813 272.211 347.672 272.859C347.53 273.507 347.587 274.183 347.834 274.799C348.082 275.414 348.508 275.942 349.059 276.312C349.609 276.682 350.258 276.879 350.922 276.876C351.349 276.909 351.777 276.852 352.181 276.709C352.584 276.565 352.953 276.339 353.263 276.044C353.573 275.75 353.818 275.393 353.982 274.998C354.146 274.602 354.225 274.177 354.214 273.749V273.749Z" fill="#263238"/>
<path d="M358.413 277.654C358.411 277.491 358.441 277.33 358.502 277.179C358.564 277.028 358.655 276.891 358.77 276.777C358.886 276.662 359.023 276.572 359.175 276.512C359.326 276.452 359.488 276.423 359.65 276.427C359.978 276.427 360.293 276.557 360.525 276.789C360.757 277.021 360.887 277.336 360.887 277.664C360.887 277.992 360.757 278.307 360.525 278.539C360.293 278.771 359.978 278.901 359.65 278.901C359.487 278.902 359.324 278.871 359.173 278.808C359.022 278.746 358.884 278.654 358.769 278.538C358.654 278.422 358.563 278.284 358.502 278.132C358.441 277.98 358.411 277.818 358.413 277.654V277.654Z" fill="#263238"/>
<path d="M362.524 277.654C362.521 277.491 362.551 277.33 362.613 277.179C362.674 277.028 362.765 276.891 362.881 276.777C362.996 276.662 363.134 276.572 363.285 276.512C363.436 276.452 363.598 276.423 363.761 276.427C364.089 276.427 364.403 276.557 364.635 276.789C364.867 277.021 364.998 277.336 364.998 277.664C364.998 277.992 364.867 278.307 364.635 278.539C364.403 278.771 364.089 278.901 363.761 278.901C363.597 278.902 363.435 278.871 363.283 278.808C363.132 278.746 362.995 278.654 362.88 278.538C362.764 278.422 362.673 278.284 362.612 278.132C362.551 277.98 362.521 277.818 362.524 277.654V277.654Z" fill="#263238"/>
<path d="M366.634 277.654C366.631 277.491 366.662 277.33 366.723 277.179C366.784 277.028 366.875 276.891 366.991 276.777C367.106 276.662 367.244 276.572 367.395 276.512C367.546 276.452 367.708 276.423 367.871 276.427C368.199 276.427 368.514 276.557 368.746 276.789C368.978 277.021 369.108 277.336 369.108 277.664C369.108 277.992 368.978 278.307 368.746 278.539C368.514 278.771 368.199 278.901 367.871 278.901C367.707 278.902 367.545 278.871 367.394 278.808C367.242 278.746 367.105 278.654 366.99 278.538C366.875 278.422 366.784 278.284 366.723 278.132C366.662 277.98 366.631 277.818 366.634 277.654V277.654Z" fill="#263238"/>
<path d="M368.836 319.607C368.836 319.744 345.858 319.861 317.532 319.861C289.206 319.861 266.219 319.744 266.219 319.607C266.219 319.471 289.187 319.354 317.532 319.354C345.877 319.354 368.836 319.461 368.836 319.607Z" fill="#263238"/>
<path d="M261.632 178.622V184.652H267.661V178.622V172.583H261.632V178.622Z" fill="#263238"/>
<path d="M267.661 142.436H261.632V148.466H267.661V142.436Z" fill="#263238"/>
<path d="M304.929 208.828H298.899V214.857H304.929V208.828Z" fill="#263238"/>
<path d="M267.661 154.494V160.524H261.632V166.553H267.661V172.582H273.691H279.73V178.622H285.759V172.582H291.789V166.553V160.524H285.759V166.553H279.73H273.691V160.524V154.494V148.465H267.661V154.494Z" fill="#263238"/>
<path d="M279.73 142.436H273.69V148.466H279.73H285.759V142.436H279.73Z" fill="#263238"/>
<path d="M306.867 190.915H310.101V184.885H306.867H303.623V190.915H306.867Z" fill="#263238"/>
<path d="M291.788 148.465H285.759V154.494H291.788V148.465Z" fill="#263238"/>
<path d="M334.003 172.583H327.974V178.613H334.003V172.583Z" fill="#263238"/>
<path d="M340.033 106.25H334.004V112.279H340.033V106.25Z" fill="#263238"/>
<path d="M303.847 154.495V148.466H309.876V142.436H303.847V136.407H297.817V142.436H291.788V148.466H297.817V154.495V160.525V166.554V172.583H303.847V166.554V160.525H309.876V154.495H303.847Z" fill="#263238"/>
<path d="M334.003 214.798H340.032V208.769H334.003H327.974V214.798H334.003Z" fill="#263238"/>
<path d="M327.974 106.25H321.944V112.279H327.974V106.25Z" fill="#263238"/>
<path d="M326.464 154.495V148.466H320.435V142.436H314.405V148.466V154.495H308.376V160.525H314.405H320.435V154.495H326.464Z" fill="#263238"/>
<path d="M360.498 142.436H354.469V148.466H360.498V142.436Z" fill="#263238"/>
<path d="M297.992 172.583H291.963V178.613H297.992V172.583Z" fill="#263238"/>
<path d="M321.945 136.406V130.376H327.975V124.337H334.004H340.034V118.308H334.004V112.278H327.975V118.308H321.945V124.337H315.906V130.376H309.877V136.406H315.906H321.945Z" fill="#263238"/>
<path d="M321.945 178.622V172.583H327.975V166.554H321.945H315.906V172.583H309.877V178.622H315.906H321.945Z" fill="#263238"/>
<path d="M340.034 202.74V196.701H334.004H327.975V190.671H321.946V196.701H315.906V202.74H309.877H303.848V208.769H309.877H315.906H321.946V202.74H327.975V208.769H334.004V202.74H340.034Z" fill="#263238"/>
<path d="M315.906 112.279V106.25H309.876H303.847V112.279H297.817V118.309H303.847H309.876V112.279H315.906Z" fill="#263238"/>
<path d="M315.906 118.311H309.877V124.34H315.906V118.311Z" fill="#263238"/>
<path d="M330.984 142.435H324.955V148.465V154.494V160.524H330.984H337.014V154.494H330.984V148.465H337.014V142.435H343.043V136.406H337.014V130.377H330.984V136.406V142.435Z" fill="#263238"/>
<path d="M309.877 124.339H303.848V130.368H309.877V124.339Z" fill="#263238"/>
<path d="M327.974 184.652V190.682H334.003H340.032V184.652H346.062H352.091V178.623H346.062H340.032H334.003V184.652H327.974Z" fill="#263238"/>
<path d="M360.498 160.526H354.469V166.555H360.498V160.526Z" fill="#263238"/>
<path d="M340.033 166.554H334.004V172.583H340.033V166.554Z" fill="#263238"/>
<path d="M355.112 148.465H349.082H343.043V154.494H349.082V160.524H355.112V154.494V148.465Z" fill="#263238"/>
<path d="M352.092 166.554H346.062V172.583H352.092V166.554Z" fill="#263238"/>
<path d="M285.759 202.856H303.857V178.612H279.613V184.651H273.7V190.68H279.613V196.71H273.7V202.739H279.613V202.856H279.73V208.768H273.7V220.827H279.73V214.778H285.759V202.856ZM299.211 183.248V198.327H284.132V183.248H299.211Z" fill="#263238"/>
<path d="M364.151 178.622H370.18V172.583H364.151H358.121H352.092V178.622H358.121H364.151Z" fill="#263238"/>
<path d="M364.15 154.495H370.18V148.466V142.436H364.15V148.466V154.495Z" fill="#263238"/>
<path d="M316.14 184.885H310.101V190.915V196.944H316.14V190.915V184.885Z" fill="#263238"/>
<path d="M376.21 178.623H370.181V184.652H376.21V178.623Z" fill="#263238"/>
<path d="M376.22 166.555V160.526H370.181V166.555V172.584H376.22V166.555Z" fill="#263238"/>
<path d="M267.661 208.769H261.632V214.798V220.828H267.661V214.798V208.769Z" fill="#263238"/>
<path d="M376.219 136.407V106.212H346.023V136.407H376.219ZM350.582 131.878V110.77H371.69V131.878H350.582Z" fill="#263238"/>
<path d="M367.17 115.3H355.111V127.359H367.17V115.3Z" fill="#263238"/>
<path d="M376.219 190.681H346.023V220.828H376.219V190.681ZM350.582 216.308V195.2H371.69V216.308H350.582Z" fill="#263238"/>
<path d="M367.17 199.721H355.111V211.779H367.17V199.721Z" fill="#263238"/>
<path d="M261.562 106.25V136.446H291.69V106.25H261.562ZM287.19 110.769V131.877H266.082V110.769H287.19Z" fill="#263238"/>
<path d="M282.661 115.3H270.603V127.359H282.661V115.3Z" fill="#263238"/>
<path d="M252.962 127.271V105.841C252.825 103.875 253.43 101.929 254.657 100.387C255.392 99.5754 256.296 98.9365 257.307 98.5156C258.317 98.0946 259.408 97.902 260.501 97.9515H283.021C283.2 97.9515 283.37 97.8807 283.497 97.7546C283.623 97.6286 283.693 97.4576 283.693 97.2794C283.693 97.1011 283.623 96.9302 283.497 96.8041C283.37 96.6781 283.2 96.6073 283.021 96.6073H260.774C258.89 96.5127 257.021 96.9842 255.407 97.9612C254.247 98.7336 253.294 99.7785 252.632 101.005C251.97 102.231 251.618 103.6 251.608 104.994C251.55 108.52 251.608 112.056 251.608 115.572V127.261C251.628 127.426 251.708 127.579 251.833 127.69C251.957 127.8 252.118 127.861 252.285 127.861C252.452 127.861 252.613 127.8 252.737 127.69C252.862 127.579 252.942 127.426 252.962 127.261V127.271Z" fill="#8B8AE1"/>
<path d="M281.073 231.018H259.644C257.678 231.151 255.734 230.546 254.189 229.323C253.379 228.588 252.741 227.683 252.32 226.673C251.899 225.663 251.706 224.572 251.754 223.479V200.93C251.754 200.751 251.683 200.581 251.557 200.454C251.431 200.328 251.26 200.258 251.082 200.258C250.904 200.258 250.733 200.328 250.607 200.454C250.481 200.581 250.41 200.751 250.41 200.93V223.206C250.317 225.09 250.788 226.959 251.764 228.573C252.536 229.733 253.581 230.684 254.808 231.345C256.034 232.006 257.404 232.355 258.797 232.362C262.323 232.421 265.849 232.362 269.375 232.362H281.064C281.242 232.362 281.413 232.292 281.539 232.166C281.665 232.04 281.736 231.869 281.736 231.69C281.736 231.512 281.665 231.341 281.539 231.215C281.413 231.089 281.242 231.018 281.064 231.018H281.073Z" fill="#8B8AE1"/>
<path d="M384.168 200.714V222.143C384.305 224.109 383.7 226.056 382.473 227.598C381.739 228.41 380.834 229.049 379.824 229.47C378.813 229.891 377.722 230.083 376.629 230.033H354.079C353.901 230.033 353.73 230.104 353.604 230.23C353.478 230.356 353.407 230.527 353.407 230.705C353.407 230.883 353.478 231.054 353.604 231.18C353.73 231.306 353.901 231.377 354.079 231.377H376.356C378.24 231.472 380.109 231 381.723 230.023C382.882 229.251 383.834 228.206 384.495 226.98C385.156 225.753 385.505 224.384 385.512 222.991C385.58 219.465 385.512 215.939 385.512 212.412V200.724C385.512 200.546 385.441 200.375 385.315 200.249C385.189 200.122 385.018 200.052 384.84 200.052C384.662 200.052 384.491 200.122 384.365 200.249C384.239 200.375 384.168 200.546 384.168 200.724V200.714Z" fill="#8B8AE1"/>
<path d="M354.469 97.9604H375.898C377.866 97.826 379.812 98.4342 381.353 99.665C382.167 100.398 382.808 101.302 383.229 102.313C383.65 103.324 383.841 104.416 383.788 105.509V128.088C383.788 128.266 383.859 128.437 383.985 128.563C384.111 128.689 384.282 128.76 384.46 128.76C384.638 128.76 384.809 128.689 384.935 128.563C385.061 128.437 385.132 128.266 385.132 128.088V105.782C385.227 103.895 384.756 102.022 383.778 100.405C383.006 99.246 381.961 98.2941 380.735 97.6334C379.508 96.9728 378.139 96.6234 376.746 96.6162C373.22 96.5577 369.693 96.6162 366.167 96.6162H354.479C354.3 96.6162 354.13 96.687 354.004 96.813C353.877 96.939 353.807 97.11 353.807 97.2883C353.807 97.4665 353.877 97.6375 354.004 97.7635C354.13 97.8895 354.3 97.9604 354.479 97.9604H354.469Z" fill="#8B8AE1"/>
</svg>
