<svg width="515" height="291" viewBox="0 0 515 291" fill="none" xmlns="http://www.w3.org/2000/svg">
<path d="M377.15 43.2393H144.8C136.779 43.2393 130.278 50.1818 130.278 58.7459V203.823H391.672V58.7459C391.672 50.1818 385.17 43.2393 377.15 43.2393Z" fill="white"/>
<g opacity="0.99901">
<path d="M398.232 214.687L123.168 214.793L123.111 62.8087C123.106 50.4833 132.658 40.4524 144.404 40.4478L376.864 40.3583C388.61 40.3537 398.17 50.3773 398.174 62.7027L398.232 214.687ZM136.71 201.111L384.68 201.015L384.627 62.708C384.625 57.924 381.145 54.0332 376.869 54.0348L144.409 54.1244C140.133 54.1261 136.656 58.0195 136.658 62.8035L136.71 201.111Z" fill="#6662D9"/>
</g>
<g opacity="0.99931">
<path d="M311.004 271.618C311.006 276.948 306.724 281.274 301.444 281.276L222.547 281.307C217.263 281.309 212.982 276.985 212.98 271.655C212.978 266.368 219.473 263.658 222.4 262.001C224.927 260.572 232.018 258.404 232.017 255.479C232.016 251.169 232.01 235.268 232.01 235.268L291.947 235.245C291.947 235.245 291.953 250.631 291.955 255.088C291.956 258.113 299.219 260.457 301.811 261.975C304.678 263.654 311.002 266.41 311.004 271.618Z" fill="#333366"/>
</g>
<g opacity="0.99901">
<path d="M123 201.692L123.008 223.412C123.012 232.837 130.612 240.475 139.985 240.472L381.408 240.379C390.78 240.375 398.376 232.731 398.372 223.306L398.364 201.586L123 201.692Z" fill="#3D3D8E"/>
<path d="M271.232 221.028C271.234 226.255 267.039 230.493 261.861 230.495C256.684 230.497 252.486 226.262 252.484 221.035C252.482 215.808 256.677 211.57 261.854 211.568C267.031 211.566 271.23 215.801 271.232 221.028Z" fill="#6662D9"/>
</g>
<g opacity="0.99931">
<path d="M66.2917 98.5073C65.563 100.656 66.1338 103.296 67.4019 105.141C68.9566 107.404 71.6805 108.472 73.5459 110.41C76.1443 113.11 77.4184 117.322 75.726 120.852C73.9771 124.5 70.4501 125.695 66.6877 125.838C66.2277 125.856 66.2402 126.579 66.7017 126.561C72.518 126.34 78.0056 122.678 77.1217 116.092C76.7439 113.277 75.1967 110.753 73.0384 108.966C69.8561 106.33 65.2814 103.711 66.9859 98.6856C67.1354 98.2448 66.4398 98.0698 66.2917 98.5073Z" fill="#1F1440"/>
<path d="M51.0186 93.52C52.5403 92.0434 54.5479 91.2117 55.9569 89.4853C57.3941 87.7239 58.8805 85.7474 59.0927 83.4052C59.6246 77.5298 54.2563 74.429 48.9108 75.0726C43.6138 75.7106 39.2616 78.3919 37.9353 83.8131C36.891 88.0811 36.7669 92.4188 34.3203 96.2959C32.6361 98.9648 29.9008 100.837 27.7942 103.175C25.8181 105.368 24.4382 107.825 23.1656 110.462C21.3686 114.187 20.8627 119.765 22.9805 123.449C24.3826 125.888 26.2846 127.936 28.6324 129.445C30.665 130.751 32.7236 132.749 35.1447 133.216C40.585 134.263 44.286 127.27 46.4598 123.308C48.6941 119.235 51.3267 113.886 51.0096 109.11C50.7203 104.757 48.3209 100.677 49.5514 96.1993C49.9034 94.9179 50.6298 94.2737 51.0186 93.52Z" fill="#1F1440"/>
<path d="M56.5486 83.1254C61.6231 81.3721 70.0402 85.1358 69.4483 91.3898C68.9391 96.7703 64.3184 101.71 68.153 106.925C69.8891 109.285 72.926 110.903 73.9056 113.807C74.8833 116.705 73.9855 120.431 70.8572 121.461C67.4257 122.59 62.9606 120.59 59.7988 119.233C56.8632 117.974 53.826 115.421 52.8123 112.282C51.6192 108.588 52.3091 105.277 53.0695 101.599C53.8645 97.7533 54.4486 93.274 56.5486 83.1254Z" fill="#1F1440"/>
<path d="M58.7382 118.577C57.601 122.003 52.2228 119.771 50.6562 118.032C48.5773 115.73 48.8099 113.666 48.428 110.713C48.2095 109.035 48.0502 107.731 47.9733 106.73C47.5876 101.592 49.3928 104.315 56.7198 104.34C55.8706 106.131 55.663 108.714 56.134 110.836C56.1454 110.918 56.1658 111.005 56.1865 111.086C56.6736 113.049 59.3745 116.655 58.7382 118.577Z" fill="#F8B7B1"/>
<path d="M56.1335 110.836C51.726 111.381 49.2515 108.851 47.9734 106.73C47.5876 101.593 49.3928 104.315 56.7198 104.34C55.8706 106.13 55.6625 108.714 56.1335 110.836Z" fill="#CC756D"/>
<path d="M62.0108 93.9701C62.0226 94.4591 62.0247 94.9753 62.0102 95.5073C62.1537 101.339 58.006 109.136 51.4994 107.037C50.9577 106.913 50.4267 106.74 49.9195 106.517C48.3983 105.848 47.0919 104.728 46.2954 103.127C45.9453 102.616 45.6398 102.07 45.3784 101.506C44.9601 100.608 44.6502 99.6641 44.4464 98.7424C44.1899 97.59 44.1792 96.5489 44.546 95.505C45.3205 93.3103 47.7951 91.1256 53.245 87.9324C54.7562 87.0444 56.4948 86.0797 58.4947 85.0178C59.8661 87.5128 61.1784 89.1789 61.7322 91.6466C61.8939 92.3474 61.9895 93.1075 62.0108 93.9701Z" fill="#F8B7B1"/>
<path d="M58.8554 84.2987C61.0719 79.6202 57.4373 75.1777 53.0687 73.6232C47.7838 71.7423 41.8497 73.9216 38.5937 78.4035C34.9981 83.3531 34.9971 89.8829 31.8414 95.0296C28.465 100.536 21.9324 103.042 20.1739 109.632C18.4834 115.966 21.6181 122.254 27.0969 125.485C27.4959 125.72 27.8445 125.088 27.4464 124.853C20.8557 120.966 18.3096 112.606 22.5687 105.957C24.3444 103.184 27.2109 101.569 29.462 99.2598C31.4463 97.2239 33.0264 94.8015 34.025 92.1291C36.1167 86.5316 36.7882 79.8055 41.9392 76.0162C44.9488 73.8025 49.0219 73.0485 52.588 74.2154C56.5836 75.5229 60.3035 79.5697 58.2302 83.9458C58.0318 84.3645 58.6565 84.7192 58.8554 84.2987Z" fill="#1F1440"/>
<path d="M21.6458 115.542C20.8776 121.185 20.9197 126.313 24.5475 131.006C27.7218 135.112 32.3888 137.452 37.5405 137.545C38.0015 137.553 37.9871 136.83 37.5266 136.822C32.6011 136.733 28.1335 134.481 25.1135 130.547C21.6471 126.031 21.6026 121.138 22.3401 115.721C22.4023 115.264 21.7084 115.081 21.6458 115.542Z" fill="#1F1440"/>
<path d="M44.0878 98.4897C38.9302 102.229 34.8773 109.057 33.8863 115.382C33.1553 120.045 35.1578 127.051 39.7474 129.255C40.1626 129.454 40.5131 128.823 40.0965 128.623C35.1927 126.269 33.7072 118.712 34.9105 113.966C36.3271 108.381 39.786 102.497 44.4614 99.1066C44.8334 98.8369 44.4634 98.2172 44.0878 98.4897Z" fill="#352364"/>
<path d="M30.7196 115.523C29.0657 122.93 32.8889 129.298 39.1814 132.962C39.5818 133.195 39.9299 132.564 39.5305 132.331C33.5212 128.831 29.8305 122.792 31.4138 115.702C31.5153 115.248 30.8211 115.069 30.7196 115.523Z" fill="#352364"/>
<path d="M61.7323 91.6466C60.8709 89.8314 59.8291 89.0564 58.7831 91.7627C56.7317 97.0782 48.3293 100.46 45.3789 101.506C44.9606 100.608 44.6507 99.6641 44.4468 98.7424C44.1904 97.59 44.1796 96.5489 44.5464 95.505L50.6742 92.2938L53.2455 87.9324C54.7566 87.0444 56.4953 86.0797 58.4952 85.0178C59.8665 87.5128 61.1784 89.1789 61.7323 91.6466Z" fill="#CC756D"/>
<path d="M42.0757 108.644C40.1185 105.338 43.0308 100.003 45.8146 97.9551C47.4998 96.7149 49.6104 96.1303 51.3278 94.9612C53.1236 93.7387 54.9662 92.3208 56.4691 90.7417C58.6293 88.4716 60.5527 83.0874 57.6975 80.4494C54.2756 77.2876 48.2503 82.1765 45.81 84.5621C43.6225 86.7006 41.7013 89.3463 40.5778 92.2018C39.4022 95.19 39.9407 97.883 42.0757 108.644Z" fill="#1F1440"/>
<path d="M57.6171 83.4072C59.1598 86.6405 59.1515 90.229 56.4446 92.8665C54.4152 94.8439 51.5526 95.6443 49.1427 97.0163C45.4273 99.132 41.3749 102.717 40.5478 107.151C40.4627 107.607 41.157 107.788 41.2421 107.33C41.9095 103.752 44.8721 100.775 47.7248 98.7636C50.2437 96.988 53.2652 96.1376 55.7625 94.3563C59.6378 91.5929 60.2067 87.1757 58.2286 83.0299C58.0289 82.6111 57.4184 82.9907 57.6171 83.4072Z" fill="#1F1440"/>
<path d="M49.7686 78.3186C52.0193 77.994 54.9966 78.5124 56.3412 80.5904C57.5605 82.4749 56.4862 84.7817 55.5081 86.5009C55.278 86.9056 55.9041 87.2575 56.1337 86.8538C57.2583 84.8773 58.3036 82.3499 56.9527 80.2131C55.4977 77.9118 52.2491 77.236 49.7547 77.5956C49.304 77.6606 49.3128 78.3842 49.7686 78.3186Z" fill="#352364"/>
</g>
<g opacity="0.9992">
<path d="M80.3979 184.82C79.2624 190.571 72.3898 192.833 67.2843 191.386C61.2182 189.668 60.1162 182.061 59.4727 176.697C59.0971 173.566 59.0367 170.441 59.0432 167.317C59.0507 163.497 59.163 159.686 58.927 155.866C58.6553 151.454 59.2316 147.417 59.6823 143.044C60.1493 138.55 60.0451 134.125 60.4065 129.609C60.4984 128.436 57.1045 127.808 57.0654 114.177C58.205 116.31 62.6554 117.211 62.6554 117.211C62.6554 117.211 71.0387 135.671 72.7274 140.965C72.7242 141.549 72.0881 155.482 72.0757 156.075C71.9751 161.001 73.7595 165.831 76.5168 169.847C77.3916 171.117 78.1664 172.413 78.8036 173.751C80.4409 177.157 81.1897 180.807 80.3979 184.82Z" fill="#ADB9CB"/>
<path d="M80.3984 184.818C79.263 190.569 72.3904 192.831 67.2848 191.384C61.2187 189.666 60.1168 182.059 59.4732 176.695C59.0977 173.563 59.0368 170.439 59.0433 167.314C59.684 165.619 60.1745 164.298 60.1899 164.104C60.2361 163.539 64.26 154.736 64.479 154.457C64.7026 154.178 66.3977 154.577 66.3977 154.577C66.3977 154.577 65.0321 169.723 70.6273 175.761C74.0959 179.502 77.0577 176.541 78.8042 173.749C80.4415 177.154 81.1902 180.804 80.3984 184.818Z" fill="#8A8B8E"/>
<path d="M98.9435 138.918C101.069 137.509 102.188 135.977 105.122 135.702C107.089 135.518 108.749 134.792 110.686 134.675C112.987 134.537 114.488 131.027 115.48 129.091C115.756 128.553 116.977 126.745 116.651 126.129C116.189 125.256 114.199 127.081 113.537 127.399C111.624 128.317 106.619 130.799 104.439 130.603C104.909 129.355 107.98 126.037 105.547 126.938C104.007 127.508 102.452 129.463 101.231 130.516C98.5468 132.829 95.1849 134.174 98.9435 138.918Z" fill="#F8B7B1"/>
<path d="M56.8389 114.31C60.7332 113.43 67.0625 117.493 69.7212 119.916C73.293 123.17 76.1822 126.486 78.3291 130.846C79.9789 134.195 80.9992 137.773 82.2303 141.274C82.4894 142.011 82.6778 143.34 83.1028 144.414C83.3156 144.951 83.587 145.424 83.956 145.727C84.5073 145.688 85.1783 145.873 85.5727 145.506C88.4852 142.797 90.1495 140.589 92.4416 137.873C93.5195 136.596 94.6632 134.512 95.8644 133.374C96.0554 133.193 97.9875 132.335 98.006 132.328C98.6734 132.079 100.81 134.557 101.206 135.249C103.779 138.717 100.73 142.662 98.2849 145.16C94.3545 149.177 91.0622 155.136 85.8968 157.364C84.3254 158.042 81.9061 157.753 80.3871 157.06C77.0134 155.519 76.5127 151.183 75.007 148.225C73.8759 146.004 73.0911 143.75 72.4082 141.356C70.522 134.744 65.1716 128.873 56.8389 114.31Z" fill="#ADB9CB"/>
<path d="M84.734 145.373C83.4104 145.819 81.8818 146.899 82.1451 148.499C82.2203 148.957 82.9308 148.864 82.8551 148.404C82.648 147.145 84.0074 146.378 85.0123 146.04C85.4493 145.893 85.17 145.226 84.734 145.373Z" fill="white"/>
</g>
<g opacity="0.9992">
<path d="M57.3076 190.2L79.8876 275.503L83.519 274.561C83.519 274.561 79.0302 192.325 69.5718 167.113C60.1134 141.9 47.9655 182.466 57.3076 190.2Z" fill="#333366"/>
<path d="M79.9019 275.581L80.6851 279.707C80.7923 280.271 81.2569 280.682 81.8031 280.695L94.3721 280.994C95.0857 281.011 95.5704 280.239 95.2767 279.553C95.2136 279.406 95.0867 279.3 94.9361 279.27L86.6692 277.592C86.1512 277.487 85.6815 277.201 85.3363 276.78L83.5182 274.562L79.9594 275.485C79.919 275.496 79.8936 275.537 79.9019 275.581Z" fill="#333366"/>
</g>
<g opacity="0.9992">
<path d="M491.417 284.136C491.417 284.136 491.416 284.136 491.416 284.136L38.5284 283.635C37.6755 283.634 36.9853 282.935 36.9863 282.075C36.9874 281.214 37.6786 280.518 38.5305 280.518C38.531 280.518 38.531 280.518 38.532 280.518L491.419 281.019C492.272 281.02 492.963 281.718 492.961 282.579C492.96 283.313 492.457 283.929 491.78 284.093" fill="#333366"/>
</g>
<g opacity="0.9992">
<path d="M41.0768 171.75L39.2802 272.605L42.9976 273.331C42.9976 273.331 65.2481 197.133 61.2863 173.534C57.3246 149.934 41.0768 171.75 41.0768 171.75Z" fill="#6662D9"/>
<path d="M39.2791 272.605L37.7867 276.31C37.2867 277.551 37.4795 278.967 38.2918 280.026L40.4107 282.789C41.2402 283.87 42.8425 283.916 43.7298 282.882L43.9478 282.628C45.1354 281.245 45.465 279.311 44.8029 277.607L43.0336 273.053L39.2791 272.605Z" fill="#333366"/>
</g>
<path d="M48.8618 113.771C48.8618 113.771 58.0041 125.035 57.4575 113.983C57.4575 113.983 70.8896 126.995 66.2727 161.493C65.9846 163.647 64.5672 165.493 62.5705 166.222C60.6939 166.908 57.9253 167.36 54.0231 166.79L48.8618 113.771Z" fill="white"/>
<g opacity="0.9992">
<path d="M14.4455 141.731C13.7185 140.9 13.9986 139.721 13.5769 138.797C13.2606 138.104 12.7704 138.132 12.2633 137.651C11.7209 137.136 11.5769 136.553 11.2506 135.896C10.8921 135.173 10.0146 132.602 8.97212 133.173C8.24226 133.572 8.66657 135.889 8.8404 136.515C8.01935 136.67 7.07003 135.872 6.26392 135.64C5.28577 135.358 4.62519 135.327 4.13456 134.416C3.68079 133.574 3.522 132.565 2.69045 131.936C1.90254 131.339 1.27173 131.64 0.362095 131.613C0.174359 132.855 1.17544 134.614 1.53939 135.791C2.02895 137.372 1.92018 138.104 3.40996 139.054C4.8245 139.956 6.35097 140.458 7.75551 141.423C8.91751 142.222 9.97595 143.079 11.1912 143.801C12.2432 144.426 14.4722 145.603 14.4455 141.731Z" fill="#F8B7B1"/>
<path d="M58.3183 176.71C58.1459 179.906 57.1967 182.428 55.8273 185.213C53.1613 190.614 48.7614 194.283 42.6313 194.432C39.3036 194.517 35.9945 194.285 33.3478 191.809C31.1109 189.716 30.1126 186.043 29.7534 183.036C29.1542 177.98 30.1863 172.322 32.121 167.635C32.5362 166.625 32.9799 165.618 33.4236 164.606C34.1919 162.835 34.9547 161.045 35.545 159.206C35.7521 158.556 35.931 157.892 36.0849 157.224C36.547 155.184 36.8169 153.091 37.3178 151.075C38.7273 145.406 38.2801 127.731 38.4454 121.942C38.4882 120.456 38.6776 118.118 48.394 113.485C49.6672 112.877 54.8021 126.731 55.3255 128.104C56.4376 131.034 57.1511 134.091 57.212 137.244C57.3154 142.835 57.7052 148.421 57.3067 153.994C56.2949 167.956 58.8066 168.066 58.3183 176.71Z" fill="#ADB9CB"/>
<path d="M49.1526 158.765C48.3189 160.417 46.7987 161.909 45.3281 162.994C44.5428 163.574 43.6926 164.055 42.799 164.375C42.0662 164.649 41.3333 164.84 40.6122 164.97C37.729 165.492 35.0417 165.027 33.4238 164.603C34.1921 162.833 34.9549 161.044 35.5453 159.204C35.7524 158.554 35.9307 157.89 36.086 157.216C36.7128 156.881 37.274 156.484 37.7853 156.044C38.297 155.604 38.7584 155.122 39.1868 154.606C40.1123 153.637 40.7873 152.41 41.321 151.074C41.5876 150.405 41.8191 149.711 42.0285 149.006C43.2547 145.054 40.3606 140.392 44.0438 137.488C44.9692 136.998 46.3709 136.97 47.3236 137.895C49.2204 139.737 50.0824 143.1 50.4566 145.63C50.9196 148.761 50.6489 151.954 50.1668 155.064C49.9728 156.317 49.7379 157.585 49.1751 158.719C49.1674 158.734 49.1602 158.749 49.1526 158.765Z" fill="#8A8B8E"/>
<path d="M57.3816 165.488C58.9477 176.627 58.6699 179.76 55.0437 186.41C50.8361 194.128 41.3872 196.397 33.7433 192.61C33.3298 192.406 32.9793 193.036 33.3937 193.241C39.9031 196.467 48.4543 195.708 53.4635 190.022C60.2163 182.358 58.8969 173.731 58.8415 172.966C58.6759 170.689 58.1251 167.46 57.8699 165.502C57.81 165.041 57.3816 165.488 57.3816 165.488Z" fill="white"/>
<path d="M45.8375 115.751C47.3493 118.104 44.1202 114.805 46.1709 116.555C48.8043 118.802 48.957 122.859 48.5488 126.069C47.7743 132.163 47.9659 138.061 46.4479 144.015C45.6723 147.056 44.7516 150.133 43.8175 153.148C42.7863 156.477 41.8822 158.601 38.1905 159.204C32.5852 160.119 26.1637 155.881 21.8179 152.87C19.1099 150.994 15.9112 149.434 13.4099 147.37C12.2091 146.379 10.897 145.24 11.1762 143.626C11.3906 142.387 12.2844 141.325 12.9166 140.206C13.1919 139.719 13.778 139.502 14.2974 139.702C19.5081 141.704 24.5339 144.273 29.735 146.291C32.0829 141.361 32.1775 136.197 33.8216 131.127C35.2358 126.766 37.1273 121.338 40.7176 118.368C41.9307 117.364 44.742 118.15 44.1024 116.375C43.7957 115.524 47.015 117.686 45.8375 115.751Z" fill="#ADB9CB"/>
<path d="M35.0437 150.991C33.651 147.495 30.0202 146.653 26.6322 145.122C25.3515 144.543 23.0003 143.426 20.4902 142.309C20.0744 142.124 20.42 141.529 20.8122 141.748C22.7253 142.814 24.8165 143.9 27.1043 144.665C30.661 145.855 34.3323 147.558 35.6679 150.687C35.8436 151.099 35.2107 151.41 35.0437 150.991Z" fill="white"/>
</g>
<path d="M196.962 290.763C196.961 290.763 196.961 290.763 196.961 290.763L127.646 290.685C127.13 290.685 126.712 290.263 126.713 289.742C126.713 289.222 127.131 288.8 127.647 288.8C127.647 288.8 127.648 288.8 127.648 288.8L196.963 288.877C197.479 288.878 197.896 289.3 197.896 289.821C197.895 290.331 197.493 290.747 196.991 290.762" fill="#333366"/>
<path d="M410.724 290.999L227.617 290.797C227.101 290.796 226.683 290.374 226.684 289.853C226.684 289.332 227.102 288.911 227.617 288.911C227.618 288.911 227.618 288.911 227.618 288.911L410.726 289.114C411.221 289.114 411.626 289.505 411.657 289.998" fill="#333366"/>
<g opacity="0.998104">
<path d="M50.2778 44.9704C49.3532 43.9772 48.0148 43.4531 46.2668 43.3987C44.6753 43.349 43.3892 43.791 42.4054 44.7245C41.0359 46.0239 40.3187 47.6936 40.2319 49.7287C40.2281 49.7635 40.2098 49.7924 40.2087 49.8282C40.1852 50.5967 40.7831 51.2394 41.5444 51.2631C42.3056 51.2868 42.9422 50.6832 42.9657 49.9146C42.9657 49.9118 42.9644 49.9094 42.9644 49.9066C43.0167 48.3107 43.4493 47.1244 44.2659 46.3495C44.7576 45.8828 45.3616 45.6604 46.0771 45.6828C46.9518 45.71 47.6205 45.9716 48.0829 46.4684C48.6208 47.0477 48.8746 47.8995 48.8401 49.0233C48.8131 49.9078 48.4718 50.6592 47.8158 51.2814C46.6667 52.3718 45.886 53.2298 45.4685 53.8596C44.8885 54.7212 44.5705 56.0285 44.5136 57.777C44.513 57.7879 44.5072 57.7962 44.507 57.8071C44.4888 58.4083 44.9562 58.9114 45.5518 58.9298C46.1473 58.9481 46.6447 58.4758 46.6633 57.8746C46.6634 57.8694 46.6612 57.8656 46.6613 57.8604C46.7079 56.4233 47.0968 55.3545 47.8317 54.6569C48.8155 53.7234 49.5941 52.9841 50.168 52.4396C51.1518 51.5061 51.6644 50.3585 51.7066 48.9925C51.7557 47.3871 51.2786 46.0461 50.2778 44.9704Z" fill="#FF2E57"/>
<path d="M45.479 61.3235C44.6837 61.2987 44.0186 61.9297 43.994 62.7326C43.9694 63.5355 44.5945 64.2069 45.3898 64.2318C46.1851 64.2566 46.8501 63.6256 46.8747 62.8227C46.8993 62.0198 46.2743 61.3484 45.479 61.3235Z" fill="#FF2E57"/>
</g>
<g opacity="0.98913">
<path d="M31.9209 57.6871C30.8832 57.3781 29.7472 57.5627 28.516 58.2396C27.3952 58.8559 26.6828 59.6875 26.3768 60.7352C25.9508 62.1941 26.1242 63.6419 26.8805 65.0853C26.8919 65.1109 26.891 65.1387 26.9043 65.164C27.1962 65.7052 27.8677 65.9047 28.4038 65.61C28.9398 65.3154 29.1379 64.6374 28.8461 64.0962C28.8448 64.0942 28.843 64.0936 28.8418 64.0916C28.2377 62.9664 28.0612 61.9687 28.3152 61.0987C28.468 60.5748 28.797 60.174 29.3011 59.8969C29.9172 59.5581 30.4844 59.4667 31.0033 59.6209C31.6081 59.8015 32.1253 60.2867 32.5522 61.0784C32.8882 61.7014 32.9532 62.3603 32.7491 63.059C32.3917 64.283 32.1958 65.1963 32.1598 65.8025C32.1043 66.6356 32.4086 67.6693 33.0705 68.9022C33.0745 68.9101 33.0738 68.9185 33.0779 68.926C33.3065 69.3496 33.8314 69.5058 34.2509 69.2754C34.6705 69.0451 34.8252 68.5148 34.5966 68.0911C34.5945 68.0876 34.5914 68.0855 34.5894 68.082C34.0453 67.0688 33.8852 66.1709 34.1141 65.3877C34.4202 64.3396 34.6625 63.5098 34.8409 62.8987C35.147 61.8506 35.0412 60.8471 34.5223 59.8853C33.9121 58.7548 33.0445 58.0224 31.9209 57.6871Z" fill="#FF2E57"/>
<path d="M35.1603 70.9604C34.6001 71.2686 34.3935 71.9762 34.6987 72.5416C35.004 73.1071 35.7053 73.3163 36.2654 73.0081C36.8255 72.6999 37.0322 71.9919 36.727 71.4264C36.4217 70.8609 35.7204 70.6523 35.1603 70.9604Z" fill="#FF2E57"/>
</g>
<g opacity="0.967023">
<path d="M495.795 136.967C495.328 135.981 494.433 135.253 493.11 134.782C491.907 134.353 490.818 134.375 489.842 134.847C488.483 135.503 487.533 136.602 486.977 138.135C486.965 138.161 486.944 138.179 486.935 138.206C486.732 138.787 487.034 139.424 487.609 139.63C488.185 139.835 488.817 139.529 489.02 138.948C489.021 138.946 489.02 138.945 489.021 138.942C489.445 137.736 490.061 136.936 490.872 136.545C491.36 136.309 491.874 136.288 492.415 136.48C493.077 136.716 493.525 137.08 493.758 137.573C494.03 138.147 494.018 138.86 493.721 139.71C493.488 140.378 493.046 140.869 492.395 141.183C491.255 141.734 490.452 142.198 489.981 142.576C489.33 143.092 488.774 144.012 488.309 145.334C488.306 145.342 488.299 145.347 488.296 145.355C488.137 145.81 488.374 146.309 488.824 146.469C489.274 146.629 489.768 146.391 489.927 145.936C489.928 145.932 489.927 145.929 489.929 145.925C490.311 144.838 490.865 144.118 491.594 143.765C492.57 143.293 493.343 142.92 493.913 142.645C494.889 142.173 495.557 141.423 495.918 140.39C496.342 139.175 496.3 138.034 495.795 136.967Z" fill="#FF2E57"/>
<path d="M488.191 148.281C487.589 148.067 486.93 148.386 486.717 148.993C486.505 149.601 486.821 150.266 487.422 150.48C488.024 150.695 488.683 150.376 488.896 149.769C489.108 149.162 488.792 148.496 488.191 148.281Z" fill="#FF2E57"/>
</g>
<g opacity="0.949171">
<path d="M479.671 122.563C478.768 121.96 477.628 121.8 476.255 122.082C475.004 122.339 474.082 122.923 473.485 123.834C472.654 125.102 472.398 126.539 472.702 128.142C472.705 128.17 472.696 128.196 472.702 128.224C472.824 128.828 473.407 129.218 474.006 129.095C474.604 128.972 474.99 128.383 474.868 127.779C474.868 127.777 474.866 127.775 474.866 127.773C474.615 126.519 474.737 125.512 475.233 124.756C475.531 124.301 475.962 124.015 476.524 123.899C477.211 123.758 477.781 123.838 478.232 124.14C478.758 124.491 479.111 125.108 479.289 125.991C479.429 126.686 479.299 127.337 478.901 127.944C478.204 129.008 477.751 129.822 477.54 130.391C477.245 131.171 477.236 132.25 477.51 133.625C477.512 133.633 477.508 133.641 477.51 133.649C477.606 134.122 478.063 134.427 478.531 134.331C478.998 134.235 479.3 133.774 479.205 133.301C479.204 133.298 479.201 133.294 479.201 133.291C478.975 132.161 479.083 131.255 479.53 130.574C480.127 129.663 480.6 128.942 480.948 128.41C481.545 127.499 481.736 126.508 481.519 125.435C481.265 124.173 480.648 123.216 479.671 122.563Z" fill="#FF2E57"/>
<path d="M478.91 136.211C478.285 136.339 477.882 136.956 478.009 137.586C478.136 138.218 478.746 138.625 479.371 138.496C479.996 138.368 480.399 137.752 480.272 137.121C480.145 136.49 479.535 136.083 478.91 136.211Z" fill="#FF2E57"/>
</g>
<path d="M412.627 241.112C414.255 235.981 421.656 235.514 425.478 236.379C428.083 236.969 430.322 238.057 432.696 239.266C435.253 240.568 437.994 241.489 440.494 242.971C446.596 246.589 453.468 248.736 460.648 248.97C466.93 249.175 473.766 247.209 479.705 245.192C484.741 243.481 489.86 241.791 494.857 239.887C497.168 239.006 500.107 237.684 502.565 237.58C505.539 237.454 512.439 238.701 512.222 241.862C511.617 250.671 496.745 257.858 490.171 261.74C486.018 264.192 481.812 266.566 477.671 269.032C474.737 270.779 471.59 272.105 468.232 272.456C461.716 273.14 454.872 270.228 449.413 267.035C442.69 263.103 436.933 257.805 430.614 253.214C428.076 251.37 425.387 250.128 412.627 241.112Z" fill="#333366"/>
<path d="M472.045 280.695C473.179 280.861 474.222 281.863 475.232 282.4C476.906 283.288 478.603 283.503 480.505 283.397C482.022 283.312 483.608 283.013 485.11 282.686C486.487 282.387 488.149 282.291 489.417 281.567C490.783 280.786 492.648 278.93 493.123 277.416C493.8 275.259 491.542 274.992 489.94 274.778C486.833 274.363 483.027 274.633 479.94 274.964C478.065 275.165 476.261 275.49 474.398 275.703C472.281 275.946 470.523 276.206 472.045 280.695Z" fill="#333366"/>
<path d="M462.32 271.918C460.59 270.641 458.868 269.601 457.242 268.153C455.247 266.377 452.842 265.066 451.015 263.084C447.476 259.245 443.238 256.2 439.612 252.453C435.334 248.031 430.621 242.835 425.326 239.703C421.149 237.233 414.043 235.224 412.929 242.216C412.291 246.216 415.378 251.208 417.221 254.562C419.863 259.369 424.315 262.091 428.736 264.986C436.304 269.942 444.872 273.572 453.557 276.291C458.029 277.691 462.642 278.735 467.131 280.072C468.089 280.357 469.033 280.7 469.993 280.987C470.35 281.093 470.843 281.402 471.213 281.4C472.23 281.394 471.862 281.272 472.418 280.695C474.27 278.777 474.041 275.972 471.627 274.888C470.179 274.239 468.479 274.163 462.32 271.918Z" fill="#6662D9"/>
<path d="M414.017 238.901C416.347 236.678 420.283 237.479 422.892 238.569C426.098 239.908 429.249 242.065 431.105 245.068C431.313 245.404 431.851 245.087 431.642 244.75C429.63 241.494 426.131 239.112 422.604 237.78C419.858 236.744 415.969 236.193 413.589 238.464C413.296 238.743 413.726 239.18 414.017 238.901Z" fill="white"/>
<path d="M457.189 276.111C454.099 277.128 451.246 276.295 448.158 275.628C446.25 275.216 444.484 274.374 442.53 274.288C440.348 274.192 439.141 274.989 437.412 276.322C435.651 277.679 434.688 278.668 435.75 280.697C435.931 281.042 436.11 281.337 436.292 281.587C437.724 282.92 439.762 283.193 441.842 283.299C442.258 283.32 442.675 283.335 443.09 283.35C447.079 283.378 450.915 283.349 455.005 282.436C455.36 282.293 455.71 282.118 456.051 281.901C456.393 281.684 456.725 281.425 457.048 281.115C457.33 280.867 457.575 280.6 457.773 280.314C458.563 279.174 458.593 277.783 457.189 276.111Z" fill="#333366"/>
<path d="M454.499 276.578C459.183 273.511 463.788 271.349 468.41 268.1C473.433 264.567 477.827 260.198 482.315 256.001C486.847 251.764 491.236 247.933 496.305 244.367C499.713 241.969 504.776 236.824 509.296 238.46C513.66 240.04 515.592 243.915 514.621 248.381C513.531 253.391 510.153 257.124 506.186 260.273C503.73 262.223 501.402 264.39 498.84 266.17C496.236 267.98 493.489 269.49 490.82 271.15C486.206 274.019 482.021 276.493 476.774 277.86C472.61 278.945 468.39 279.718 464.337 281.134C461.14 282.251 458.244 282.87 455.025 283.446C454.861 283.475 454.696 283.509 454.531 283.547C453.717 283.733 452.99 283.042 453.129 282.212C453.319 281.072 453.9 278.815 454.499 276.578Z" fill="#6662D9"/>
<path d="M454.265 283.623C453.541 283.058 453.404 282.27 453.633 281.205C453.836 280.262 454.08 279.278 454.407 278.367C455.261 275.995 458.12 275.114 460.132 273.974C462.635 272.556 465.077 271.034 467.379 269.293C469.426 267.743 471.649 266.417 473.474 264.587C473.759 264.301 473.33 263.864 473.045 264.15C471.804 265.394 470.382 266.386 468.951 267.388C467.552 268.369 466.213 269.436 464.798 270.394C461.964 272.31 458.902 273.768 456.003 275.558C454.2 276.672 453.763 278.257 453.25 280.219C452.847 281.759 452.763 282.944 453.651 283.927C454.002 284.314 454.533 283.831 454.265 283.623Z" fill="white"/>
<path d="M480.691 258.304C485.335 253.886 489.937 249.387 495.023 245.487C497.474 243.608 500.035 241.874 502.725 240.373C505.822 238.644 509.046 237.02 511.892 239.927C512.167 240.209 512.61 239.766 512.334 239.484C510.401 237.508 507.958 237.152 505.412 238.293C502.175 239.743 499.11 241.728 496.237 243.819C490.498 247.993 485.402 252.978 480.262 257.867C479.97 258.146 480.399 258.582 480.691 258.304Z" fill="white"/>
<path d="M443.124 242.733C442.873 244.086 442.501 245.402 442.241 246.749C442.13 247.333 442.04 247.926 441.993 248.529C441.992 248.56 441.987 248.592 441.986 248.623C441.962 248.603 441.941 248.58 441.918 248.557C439.626 246.389 434.26 238.196 432.83 235.509C431.815 233.603 430.085 230.229 430.435 227.996C431.633 228.43 432.619 229.191 433.587 229.833C434.128 230.194 434.666 230.513 435.231 230.723C436.487 231.184 439.206 231.339 439.992 232.482C440.715 233.532 443.338 241.57 443.124 242.733Z" fill="#CC756D"/>
<path d="M442.983 248.165C442.898 248.329 442.744 248.447 442.545 248.527C442.523 248.54 442.495 248.548 442.47 248.556C440.178 246.388 434.811 238.194 433.381 235.507C432.367 233.601 430.637 230.227 430.987 227.994C432.185 228.428 433.171 229.189 434.14 229.831C434.448 230.296 434.757 230.742 434.937 231.149C435.436 232.281 435.852 233.456 436.324 234.575C437.219 236.687 438.33 238.79 439.561 240.693C440.029 241.415 442.078 244.72 442.793 246.748C443.021 247.391 443.116 247.903 442.983 248.165Z" fill="#F8B7B1"/>
<path d="M484.611 245.26C483.574 245.987 482.453 246.956 481.285 247.645C480.853 247.899 480.415 248.116 479.971 248.265C479.981 248.016 480.18 247.469 480.496 246.73C481.001 245.561 481.808 243.916 482.656 242.235C484.189 239.181 485.854 236.001 486.066 235.293C486.487 233.902 486.709 232.635 486.857 231.193C487.138 228.45 488.62 226.196 490.624 223.882C491.433 222.942 492.329 221.995 493.261 221.001C493.431 223.411 494.514 225.748 494.754 228.154C495.136 231.994 487.494 243.247 484.611 245.26Z" fill="#CC756D"/>
<path d="M484.611 245.26C483.574 245.986 482.453 246.956 481.284 247.645C480.862 247.39 480.612 247.081 480.496 246.73C480.082 245.496 481.333 243.768 482.656 242.235C483.476 241.279 484.324 240.397 484.81 239.756C485.992 238.202 486.72 236.388 487.807 234.805C488.774 233.395 490.058 232.076 490.787 230.508C491.651 228.635 491.491 225.939 490.624 223.882C491.433 222.942 492.329 221.995 493.261 221C493.431 223.411 494.513 225.748 494.754 228.154C495.135 231.994 487.494 243.247 484.611 245.26Z" fill="#F8B7B1"/>
<path d="M494.001 222.715C493.034 223.569 491.706 225.173 490.422 225.481C489.168 225.784 488.227 224.798 486.988 224.703C481.496 224.279 475.799 227.239 470.536 228.632C463.589 230.472 456.168 232.153 448.996 232.19C445.748 232.207 442.524 232.694 439.389 231.744C437.172 231.075 433.607 229.831 431.901 228.173C429.005 225.359 431.979 221.544 433.317 218.541C435.667 213.267 436.686 207.808 438.37 202.353C439.559 198.503 441.127 193.521 445.075 191.654C452.031 188.366 459.904 185.919 467.576 186.2C473.204 186.406 478.933 188.309 483.101 192.131C486.322 195.083 487.714 199.314 489.243 203.313C490.019 205.341 490.799 207.424 491.966 209.254C493.21 211.204 494.946 212.771 495.842 214.972C497.031 217.898 496.356 220.631 494.001 222.715Z" fill="#D0DFF6"/>
<path d="M445.19 219.495C445.166 217.757 445.749 216.133 446.085 214.471C446.535 212.248 446.986 211.39 448.425 213.743C449.075 214.805 451.559 218.017 451.239 219.278C450.93 220.501 446.962 221.27 445.19 219.495Z" fill="#E9EFF8"/>
<path d="M477.947 217.855C477.927 216.448 478.411 215.183 478.694 213.835C478.84 213.138 479.109 210.059 479.707 209.661C481.435 208.511 483.568 216.138 483.57 217.345C483.573 218.767 483.083 218.531 481.59 218.833C480.654 219.022 479.463 219.406 477.947 217.855Z" fill="#E9EFF8"/>
<path d="M496.226 216.026C494.736 217.125 492.691 217.589 491.125 218.597C489.545 219.61 487.3 220.228 486.065 221.66C488.51 218.014 491.292 217.01 493.821 215.524C494.175 215.32 494.934 214.744 495.602 214.412C495.732 214.674 495.851 214.945 495.959 215.228C496.062 215.502 496.154 215.766 496.226 216.026Z" fill="#E9EFF8"/>
<path d="M440.689 227.17C440.038 226.033 438.7 225.218 437.707 224.402C436.42 223.35 435.15 222.043 433.737 221.323C433.035 220.966 432.607 221.061 432.101 221.143C432.348 220.576 432.595 220.013 432.84 219.447C433.98 219.767 435.125 220.295 435.59 220.54C437.695 221.652 440.061 223.299 440.689 227.17Z" fill="#E9EFF8"/>
<path d="M483.398 224.107C483.87 223.978 484.262 223.533 484.628 223.2C485.537 222.374 486.406 221.584 487.419 220.893C489.436 219.517 491.328 218.01 493.43 216.761C494.532 216.105 495.706 215.617 496.829 215.011C497.114 214.856 497.539 214.465 497.889 214.516C499.059 214.685 499.381 217.361 499.634 218.234C499.868 219.041 500.284 220.126 500.086 221.005C499.945 221.627 499.512 222.292 499.243 222.914C498.935 223.626 498.534 224.197 497.826 224.533C496.819 225.011 495.749 225.323 494.74 225.817C493.298 226.524 491.907 227.367 490.54 228.203C489.428 228.882 488.139 229.665 486.825 229.682C484.473 229.713 483.492 226.186 483.398 224.107Z" fill="#FDCB22"/>
<path d="M442.436 233.789C441.368 234.239 439.909 233.486 438.882 233.172C437.309 232.692 435.814 232.102 434.292 231.496C433.178 231.052 432.053 230.983 430.883 230.769C428.307 230.297 428.63 228.852 428.856 226.633C429.042 224.806 428.64 222.68 429.947 221.181C431.335 219.592 433.806 221.03 435.058 222.071C437.857 224.399 441.744 226.965 442.436 233.789Z" fill="#FDCB22"/>
<path d="M465.386 207.165C465.696 211.09 465.98 215.016 465.935 218.964C465.93 219.365 466.546 219.361 466.551 218.959C466.596 215.011 466.313 211.085 466.003 207.16C465.972 206.765 465.355 206.766 465.386 207.165Z" fill="white"/>
<path d="M472.361 187.046C473.859 188.507 475.322 189.986 476.281 191.882C476.632 192.577 476.96 193.289 477.238 194.018C477.407 194.458 477.954 195.562 477.652 196.033C477.434 196.374 477.962 196.682 478.18 196.343C478.85 195.296 477.59 193.192 477.158 192.267C476.113 190.028 474.553 188.309 472.803 186.602C472.522 186.327 472.078 186.77 472.361 187.046Z" fill="white"/>
<path d="M454.821 187.847C452.357 189.914 450.452 192.254 449.603 195.402C449.498 195.791 450.09 195.951 450.195 195.563C451.017 192.515 452.87 190.28 455.25 188.284C455.558 188.024 455.128 187.59 454.821 187.847Z" fill="white"/>
<path d="M479.465 208.78C480.267 210.35 481.543 211.676 482.112 213.368C482.356 214.093 482.424 214.86 482.593 215.604C482.799 216.512 483.17 217.363 483.396 218.265C483.493 218.651 484.09 218.482 483.993 218.095C483.767 217.193 483.392 216.343 483.19 215.434C482.989 214.533 482.891 213.624 482.548 212.763C481.927 211.203 480.76 209.947 480.002 208.462C479.822 208.109 479.285 208.427 479.465 208.78Z" fill="white"/>
<path d="M481.471 210.633C481.467 210.22 481.593 209.829 481.661 209.424C481.727 209.031 481.136 208.867 481.069 209.263C480.992 209.723 480.85 210.169 480.854 210.638C480.859 211.038 481.475 211.034 481.471 210.633Z" fill="white"/>
<path d="M445.174 219.769C445.423 217.634 445.739 215.649 446.528 213.633C447.168 211.999 447.748 210.331 447.253 208.605C447.143 208.224 446.545 208.391 446.656 208.775C447.244 210.824 446.147 212.729 445.49 214.637C444.92 216.292 444.759 218.052 444.558 219.774C444.512 220.172 445.128 220.165 445.174 219.769Z" fill="white"/>
<path d="M447.077 212.167C447.339 211.614 447.805 211.064 448.356 210.793C448.716 210.616 448.412 210.081 448.054 210.258C447.418 210.571 446.852 211.218 446.549 211.856C446.378 212.219 446.904 212.532 447.077 212.167Z" fill="white"/>
<path d="M487.824 220.998C489.841 219.906 491.701 218.569 493.6 217.283C495.061 216.292 496.642 215.579 498.204 214.777C498.561 214.593 498.257 214.059 497.901 214.242C496.339 215.043 494.758 215.757 493.297 216.747C491.398 218.034 489.537 219.371 487.521 220.463C487.168 220.654 487.471 221.189 487.824 220.998Z" fill="white"/>
<path d="M430.742 220.923C434.806 221.102 436.994 223.914 439.89 226.302C440.191 226.55 440.636 226.109 440.332 225.859C437.282 223.344 435.013 220.488 430.752 220.301C430.356 220.283 430.347 220.906 430.742 220.923Z" fill="white"/>
<path d="M452.489 189.408C453.203 187.555 457.245 186.597 458.937 186.281C461.814 185.746 464.895 186.095 467.748 186.478C470.562 186.855 474.188 188.047 473.167 191.741C472.42 194.445 470.581 197.13 469.178 199.549C468.262 201.131 467.275 202.61 466.225 204.102C465.907 204.553 465.625 205.084 465.341 205.621C464.722 206.789 463.095 206.918 462.382 205.838C460.934 203.648 458.903 201.709 457.267 199.746C454.781 196.763 452.615 194.483 452.489 189.408Z" fill="#CC756D"/>
<path d="M464.254 207.267C465.823 205.343 467.251 203.206 468.578 201.108C469.98 198.893 471.421 196.58 472.458 194.169C473.148 192.562 474.099 190.578 473.007 188.982C472.298 187.943 471.006 186.549 469.739 186.234C469.355 186.138 469.182 186.74 469.565 186.835C470.685 187.114 472.13 188.557 472.657 189.577C473.602 191.41 471.719 194.464 470.831 196.067C468.775 199.78 466.512 203.533 463.825 206.83C463.573 207.141 463.999 207.581 464.254 207.267Z" fill="white"/>
<path d="M454.793 186.862C453.176 187.659 451.928 188.891 452.043 190.801C452.172 192.948 453.163 195.112 454.377 196.822C455.745 198.751 457.2 200.675 458.738 202.469C459.617 203.495 460.573 204.492 461.557 205.415C462.221 206.038 463.27 206.463 463.656 207.321C463.818 207.682 464.355 207.363 464.193 207.003C463.967 206.499 463.52 206.172 463.099 205.841C462.292 205.208 461.593 204.547 460.866 203.818C459.277 202.222 457.908 200.477 456.559 198.671C455.315 197.007 454.036 195.454 453.302 193.471C452.941 192.496 452.524 191.254 452.648 190.19C452.813 188.782 453.916 187.979 455.095 187.397C455.455 187.22 455.151 186.685 454.793 186.862Z" fill="white"/>
<path d="M470.275 188.032C470.241 189.913 469.981 192.027 468.658 193.491C465.772 196.692 461.486 194.419 458.67 192.601C457.811 192.047 456.971 191.406 456.652 190.381C456.3 189.251 456.68 188.048 456.842 186.91C456.996 185.831 457.031 184.743 457.049 183.655C457.057 183.197 457.059 182.735 457.055 182.274C457.037 180.406 456.901 178.525 456.444 176.731C468.705 176.82 468.685 174.996 469.311 178.037C469.42 178.577 469.512 179.121 469.598 179.665C469.714 180.399 469.819 181.139 469.912 181.883C470.167 183.917 470.314 185.977 470.275 188.032Z" fill="#F8B7B1"/>
<path d="M469.912 181.883C469.793 182.025 469.663 182.155 469.522 182.279C467.153 184.364 463.383 184.386 460.563 183.81C459.144 183.521 458.035 182.997 457.055 182.276C457.037 180.408 456.9 178.526 456.443 176.732C468.704 176.821 468.685 174.998 469.311 178.038C469.42 178.578 469.511 179.122 469.597 179.666C469.713 180.4 469.818 181.14 469.912 181.883Z" fill="#CC756D"/>
<path d="M457.54 179.439C455.31 180.691 451.44 177.914 450.685 175.933C449.886 173.835 451.615 171.623 450.181 169.753C448.352 167.366 444.43 166.649 446.904 162.868C449 159.664 451.785 161.356 454.217 163.134C458.692 166.405 457.437 168.591 457.54 179.439Z" fill="#251B45"/>
<path d="M464.066 170.238C464.701 171.948 463.451 173.872 464.754 175.465C466.747 177.902 471.279 176.601 473.902 174.266C477.089 171.43 478.834 163.93 474.233 162.144C469.695 160.383 463.902 165.049 464.066 170.238Z" fill="#251B45"/>
<path d="M473.001 166.177C473.377 168.966 473.449 171.847 472.458 174.307C472.122 175.142 471.704 176.004 471.211 176.833C469.286 180.08 466.211 182.856 462.406 181.759C460.127 181.101 457.861 179.875 456.086 178.187C454.617 176.791 453.486 175.079 452.963 173.121C452.53 171.497 452.265 169.848 452.066 168.196C451.832 166.263 451.691 164.329 451.491 162.43C453.601 160.399 455.467 158.818 457.134 157.614C462.447 153.777 465.765 153.794 468.732 155.502C470.211 156.355 471.089 157.838 471.641 159.426C471.915 160.216 472.107 161.033 472.253 161.807C472.511 163.183 472.802 164.665 473.001 166.177Z" fill="#F8B7B1"/>
<path d="M473 166.174C472.204 165.56 471.251 165.178 470.183 165.212C468.089 165.283 466.839 167.271 465.023 167.937C463.46 168.508 461.648 168.791 460.007 168.528C457.943 168.204 456.262 167.314 454.15 167.579C453.54 167.657 452.806 167.944 452.065 168.193C451.831 166.261 451.69 164.326 451.49 162.427C453.601 160.397 455.466 158.816 457.133 157.612C458.726 157.147 460.391 156.867 462.097 156.728C464.704 156.518 467.392 156.375 469.755 157.756C470.414 158.141 471.055 158.698 471.64 159.424C471.914 160.214 472.106 161.03 472.252 161.805C472.51 163.18 472.801 164.662 473 166.174Z" fill="#CC756D"/>
<path d="M452.286 172.525C453.884 176.962 457.057 180.816 461.794 181.999C465.985 183.045 470.153 180.182 472.082 176.576C472.268 176.229 471.763 175.867 471.576 176.218C469.603 179.905 465.4 182.614 461.194 181.177C456.977 179.735 454.313 176.343 452.843 172.261C452.707 171.884 452.151 172.15 452.286 172.525Z" fill="white"/>
<path d="M472.907 164.358C473.146 161.551 469.896 159.873 467.605 160.453C464.081 161.345 462.153 165.929 458.105 163.704C457.32 163.272 456.577 162.748 455.736 162.441C451.871 161.028 450.518 164.73 447.492 165.977C443.607 167.579 439.548 164.142 438.879 160.308C438.469 157.952 439.311 155.437 441.063 153.836C443.384 151.716 446.201 152.248 449.028 152.867C451.917 153.5 454.329 153.167 456.615 151.222C458.791 149.371 460.774 147.123 463.919 147.811C465.406 148.136 466.622 149.221 468.011 149.713C470.999 150.771 475.279 149.309 476.978 152.866C478.361 155.762 478.141 160.826 477.109 163.779C476.905 164.362 476.635 164.94 476.186 165.361C475.02 166.455 473.674 165.586 472.931 164.452L472.907 164.358Z" fill="#251B45"/>
<path d="M476.739 163.488C478.52 159.71 479.743 153.66 476.29 150.331C474.579 148.68 472.19 148.754 470.001 148.451C467.493 148.105 465.799 145.836 463.272 145.717C460.952 145.607 458.962 146.749 457.132 148.044C454.674 149.783 452.62 151.282 449.463 150.931C447.269 150.686 445.066 150.082 442.922 150.907C441.273 151.541 439.95 152.848 439.23 154.462C437.591 158.136 438.978 162.863 442.276 165.131C442.715 165.433 443.186 164.756 442.746 164.454C439.87 162.476 438.593 158.436 439.837 155.161C440.551 153.282 442.124 151.835 444.102 151.424C446.112 151.007 448.13 151.71 450.136 151.823C454.513 152.07 456.867 148.397 460.64 146.976C461.811 146.535 463.213 146.327 464.419 146.774C465.46 147.16 466.317 147.921 467.282 148.453C469.115 149.464 471.157 149.244 473.138 149.666C479.237 150.965 477.899 159.096 475.967 163.197C475.739 163.678 476.514 163.965 476.739 163.488Z" fill="#251B45"/>
<path d="M474.584 164.044C475.082 161.775 472.498 161.208 470.793 161.247C469.758 161.271 468.625 161.432 467.695 161.913C466.473 162.545 465.592 163.806 464.642 164.77C463.111 166.323 461.563 166.928 459.424 166.059C457.934 165.453 456.682 164.391 455.202 163.772C451.753 162.329 449.465 165.697 446.23 166.061C443.798 166.335 440.698 164.215 440.193 161.747C439.751 159.595 440.945 157.316 441.743 155.397C441.947 154.904 441.174 154.616 440.97 155.105C439.818 157.88 438.241 161.217 440.358 163.963C441.416 165.335 443.123 166.518 444.829 166.834C446.384 167.122 447.861 166.584 449.225 165.883C450.951 164.998 452.604 163.71 454.636 164.436C456.115 164.964 457.359 166.035 458.79 166.683C460.185 167.315 461.748 167.626 463.177 166.955C464.553 166.309 465.508 165.014 466.549 163.954C467.709 162.772 468.761 162.211 470.424 162.091C471.684 161.999 474.172 162.107 473.764 163.963C473.65 164.482 474.471 164.557 474.584 164.044Z" fill="#251B45"/>
<path d="M438.475 161.17C439.447 165.748 444.372 169.103 448.58 166.301C449.818 165.476 450.596 164.208 451.777 163.355C452.557 162.792 453.7 162.441 454.661 162.445C455.761 162.449 456.523 163.101 457.433 163.623C459.856 165.014 462.419 164.191 464.381 162.435C464.676 162.171 464.277 161.693 463.98 161.959C462.786 163.028 461.292 163.881 459.63 163.728C458.271 163.603 457.337 162.696 456.153 162.145C454.367 161.314 452.027 162.144 450.716 163.484C448.827 165.415 446.721 167.507 443.777 166.547C441.384 165.766 439.598 163.494 439.082 161.065C438.999 160.674 438.392 160.778 438.475 161.17Z" fill="white"/>
<path d="M481.382 255.568L448.512 256.539C446.29 256.604 444.365 254.985 443.907 252.665L438.195 223.748C437.585 220.659 439.783 217.687 442.741 217.599L485.807 216.327C488.705 216.242 490.922 218.973 490.45 222.05L485.966 251.268C485.595 253.686 483.66 255.501 481.382 255.568Z" fill="#6282B2"/>
<path d="M482.038 254.492L447.751 255.505C445.314 255.577 443.18 253.86 442.679 251.422L436.728 222.512C436.405 220.94 436.792 219.309 437.792 218.038C438.766 216.8 440.205 216.064 441.738 216.019L486.66 214.692C488.163 214.648 489.59 215.276 490.577 216.416C491.589 217.586 492.025 219.156 491.774 220.723L487.09 249.948C486.679 252.507 484.555 254.418 482.038 254.492ZM441.742 216.572C440.373 216.612 439.088 217.27 438.218 218.376C437.322 219.515 436.974 220.978 437.265 222.388L443.215 251.298C443.665 253.479 445.571 255.016 447.748 254.952L482.035 253.939C484.283 253.873 486.182 252.162 486.549 249.872L491.233 220.648C491.458 219.242 491.067 217.835 490.16 216.786C489.279 215.767 488.004 215.205 486.663 215.245L441.742 216.572Z" fill="#6282B2"/>
<path d="M468.989 235.319C469.004 235.417 469.012 235.515 469.013 235.613C469.058 238.74 466.119 241.024 463.372 240.531C463.169 240.494 462.969 240.442 462.773 240.375C461.093 239.799 459.89 237.968 460.35 236.032C460.563 235.132 461.228 234.029 462.124 233.824C462.995 233.625 463.632 234.348 464.302 234.784C465.294 235.429 465.827 234.792 466.684 234.247C467.049 234.016 467.477 233.851 467.889 233.931C468.488 234.049 468.888 234.665 468.989 235.319Z" fill="#A6A3E8"/>
<g opacity="0.99902">
<path d="M325.943 27.6994L324.173 22.8668L322.402 18.0342L327.433 18.9024L332.464 19.7703L329.203 23.7351L325.943 27.6994Z" fill="#EA1A66"/>
</g>
<g opacity="0.805833" filter="url(#filter0_f_1293_33313)">
<path d="M387.947 71.727C389.018 76.1116 384.985 80.0224 380.688 78.7665L348.712 69.4206L316.735 60.0746C312.438 58.8187 311.1 53.3375 314.325 50.2087L338.331 26.9247L362.337 3.64015C365.563 0.51134 370.934 2.08131 372.005 6.466L379.975 39.0965L387.947 71.727Z" fill="#FF2E57"/>
<path d="M380.621 66.0774C381.424 69.5764 378.26 72.7326 374.927 71.7584L350.122 64.5079L325.316 57.2579C321.983 56.2838 320.979 51.9102 323.51 49.3853L342.34 30.5963L361.17 11.8077C363.701 9.28284 367.867 10.5008 368.67 13.9998L374.645 40.0389L380.621 66.0774Z" fill="white"/>
</g>
<g opacity="0.99999">
<path d="M356.32 57.9534C355.186 59.4551 353.061 59.7439 351.573 58.5988C350.086 57.4537 349.8 55.3086 350.934 53.8069C352.068 52.3053 354.193 52.0164 355.681 53.1616C357.168 54.3067 357.454 56.4517 356.32 57.9534Z" fill="#FF2E57"/>
<path d="M359.053 24.648L355.061 45.4855C354.932 46.1628 355.333 46.8289 355.988 47.0236H355.989C356.673 47.2274 357.394 46.8476 357.621 46.1643L364.291 26.0374C364.779 24.5656 363.959 22.9789 362.485 22.5404C360.949 22.0837 359.357 23.0613 359.053 24.648Z" fill="#FF2E57"/>
</g>
<g opacity="0.934289">
<path d="M382.578 203.572C382.925 203.572 383.268 203.731 383.489 204.036L395.77 220.898C396.14 221.404 396.032 222.119 395.531 222.488C395.025 222.861 394.322 222.752 393.952 222.247L381.671 205.385C381.301 204.879 381.409 204.168 381.915 203.795C382.113 203.645 382.348 203.572 382.578 203.572ZM385.037 197.373C385.213 197.373 385.393 197.414 385.56 197.5L423.327 217.336C423.878 217.628 424.094 218.316 423.806 218.876C423.521 219.432 422.84 219.65 422.285 219.359L384.518 199.523C383.963 199.231 383.751 198.543 384.035 197.988C384.238 197.596 384.631 197.373 385.037 197.373ZM387.365 190.928C387.414 190.928 387.464 190.932 387.514 190.937L412.089 194.162C412.707 194.239 413.14 194.813 413.059 195.437C412.982 196.061 412.414 196.498 411.795 196.416L387.22 193.196C386.602 193.114 386.169 192.545 386.25 191.921C386.322 191.347 386.81 190.928 387.365 190.928Z" stroke="white" stroke-width="2.81721" stroke-linecap="round" stroke-linejoin="round"/>
<path d="M382.58 203.575C382.927 203.575 383.269 203.736 383.49 204.039L395.77 220.9C396.14 221.407 396.032 222.12 395.53 222.492C395.028 222.865 394.322 222.757 393.953 222.25L381.672 205.389C381.303 204.882 381.411 204.169 381.913 203.797C382.114 203.647 382.348 203.575 382.58 203.575Z" fill="#EA1A66"/>
<path d="M385.038 197.372C385.214 197.372 385.391 197.413 385.558 197.501L423.327 217.338C423.88 217.628 424.094 218.315 423.807 218.873C423.52 219.431 422.838 219.648 422.286 219.358L384.517 199.521C383.964 199.231 383.749 198.543 384.037 197.985C384.237 197.596 384.631 197.372 385.038 197.372Z" fill="#EA1A66"/>
<path d="M387.364 190.928C387.413 190.928 387.462 190.931 387.511 190.938L412.086 194.161C412.703 194.242 413.139 194.814 413.058 195.437C412.978 196.061 412.41 196.498 411.795 196.42L387.22 193.196C386.602 193.115 386.167 192.544 386.247 191.92C386.321 191.346 386.806 190.928 387.364 190.928Z" fill="#EA1A66"/>
</g>
<g opacity="0.934289">
<path d="M138.666 54.7218C138.319 54.7401 137.969 54.599 137.732 54.306L124.594 38.116C124.198 37.6306 124.269 36.9108 124.75 36.5159C125.236 36.1162 125.944 36.1882 126.34 36.6735L139.478 52.8635C139.874 53.3488 139.802 54.0642 139.317 54.4638C139.127 54.6244 138.896 54.7096 138.666 54.7218ZM136.532 61.0423C136.356 61.0516 136.174 61.0202 136.003 60.9426L97.259 43.129C96.6943 42.867 96.4423 42.1916 96.7016 41.6169C96.9567 41.0469 97.6257 40.7926 98.195 41.0544L136.939 58.8679C137.508 59.1297 137.756 59.8054 137.501 60.3753C137.318 60.7772 136.938 61.0208 136.532 61.0423ZM134.541 67.6015C134.492 67.6041 134.442 67.6022 134.392 67.6003L109.684 65.6784C109.062 65.6337 108.6 65.0834 108.649 64.456C108.693 63.8288 109.238 63.3621 109.86 63.4113L134.568 65.3287C135.19 65.3779 135.652 65.9236 135.603 66.551C135.561 67.128 135.096 67.5722 134.541 67.6015Z" stroke="white" stroke-width="2.81721" stroke-linecap="round" stroke-linejoin="round"/>
<path d="M138.665 54.7193C138.319 54.7376 137.968 54.5956 137.732 54.3038L124.594 38.1148C124.199 37.6285 124.27 36.9109 124.752 36.5123C125.234 36.1137 125.945 36.1847 126.34 36.6714L139.477 52.8605C139.872 53.3468 139.801 54.0644 139.32 54.4629C139.126 54.6228 138.896 54.707 138.665 54.7193Z" fill="#EA1A66"/>
<path d="M136.531 61.0426C136.356 61.0519 136.176 61.0199 136.005 60.9413L97.2596 43.1274C96.6927 42.8669 96.4426 42.1918 96.7006 41.6195C96.9587 41.0471 97.6278 40.7946 98.1948 41.0551L136.94 58.869C137.507 59.1296 137.758 59.8046 137.499 60.377C137.319 60.777 136.938 61.0211 136.531 61.0426Z" fill="#EA1A66"/>
<path d="M134.54 67.6036C134.492 67.6061 134.443 67.6056 134.394 67.6018L109.685 65.6812C109.064 65.6329 108.6 65.0855 108.648 64.4585C108.696 63.8316 109.24 63.3645 109.859 63.4106L134.567 65.3312C135.188 65.3796 135.652 65.9269 135.605 66.5539C135.56 67.1309 135.098 67.5741 134.54 67.6036Z" fill="#EA1A66"/>
</g>
<path d="M154.774 126.531V116.997L183.639 78.1617H198.508L170.256 116.997L163.346 114.985H211.541V126.531H154.774ZM187.75 139.389V126.531L188.187 114.985V103.527H201.569V139.389H187.75Z" fill="#333131"/>
<path d="M260.208 140.438C255.193 140.438 250.703 139.214 246.738 136.765C242.773 134.257 239.653 130.642 237.379 125.919C235.105 121.196 233.968 115.481 233.968 108.775C233.968 102.069 235.105 96.3549 237.379 91.6317C239.653 86.9084 242.773 83.3223 246.738 80.8732C250.703 78.3658 255.193 77.1121 260.208 77.1121C265.281 77.1121 269.771 78.3658 273.678 80.8732C277.643 83.3223 280.763 86.9084 283.037 91.6317C285.311 96.3549 286.448 102.069 286.448 108.775C286.448 115.481 285.311 121.196 283.037 125.919C280.763 130.642 277.643 134.257 273.678 136.765C269.771 139.214 265.281 140.438 260.208 140.438ZM260.208 128.455C262.599 128.455 264.669 127.785 266.418 126.444C268.226 125.102 269.625 122.974 270.617 120.058C271.666 117.143 272.191 113.382 272.191 108.775C272.191 104.169 271.666 100.408 270.617 97.492C269.625 94.5764 268.226 92.448 266.418 91.1069C264.669 89.7657 262.599 89.0951 260.208 89.0951C257.876 89.0951 255.805 89.7657 253.998 91.1069C252.248 92.448 250.849 94.5764 249.799 97.492C248.808 100.408 248.312 104.169 248.312 108.775C248.312 113.382 248.808 117.143 249.799 120.058C250.849 122.974 252.248 125.102 253.998 126.444C255.805 127.785 257.876 128.455 260.208 128.455Z" fill="#333131"/>
<path d="M248.092 110.801V112.076H249.367V110.801V109.524H248.092V110.801Z" fill="#263238"/>
<path d="M249.367 103.149H248.092V104.424H249.367V103.149Z" fill="#263238"/>
<path d="M257.246 117.186H255.972V118.46H257.246V117.186Z" fill="#263238"/>
<path d="M249.367 105.698V106.972H248.092V108.247H249.367V109.522H250.641H251.918V110.799H253.193V109.522H254.468V108.247V106.972H253.193V108.247H251.918H250.641V106.972V105.698V104.423H249.367V105.698Z" fill="#263238"/>
<path d="M251.918 103.149H250.641V104.424H251.918H253.193V103.149H251.918Z" fill="#263238"/>
<path d="M257.655 113.399H258.339V112.124H257.655H256.97V113.399H257.655Z" fill="#263238"/>
<path d="M254.468 104.423H253.193V105.698H254.468V104.423Z" fill="#263238"/>
<path d="M263.393 109.524H262.119V110.799H263.393V109.524Z" fill="#263238"/>
<path d="M264.668 95.499H263.394V96.7738H264.668V95.499Z" fill="#263238"/>
<path d="M257.017 105.698V104.424H258.292V103.149H257.017V101.874H255.742V103.149H254.467V104.424H255.742V105.698V106.973V108.248V109.523H257.017V108.248V106.973H258.292V105.698H257.017Z" fill="#263238"/>
<path d="M263.393 118.448H264.668V117.173H263.393H262.119V118.448H263.393Z" fill="#263238"/>
<path d="M262.119 95.499H260.844V96.7738H262.119V95.499Z" fill="#263238"/>
<path d="M261.799 105.699V104.424H260.524V103.149H259.249V104.424V105.699H257.975V106.974H259.249H260.524V105.699H261.799Z" fill="#263238"/>
<path d="M268.995 103.149H267.72V104.424H268.995V103.149Z" fill="#263238"/>
<path d="M255.78 109.524H254.505V110.799H255.78V109.524Z" fill="#263238"/>
<path d="M260.844 101.876V100.601H262.119V99.3239H263.394H264.668V98.0492H263.394V96.7744H262.119V98.0492H260.844V99.3239H259.567V100.601H258.292V101.876H259.567H260.844Z" fill="#263238"/>
<path d="M260.844 110.799V109.522H262.119V108.247H260.844H259.567V109.522H258.292V110.799H259.567H260.844Z" fill="#263238"/>
<path d="M264.668 115.899V114.622H263.393H262.119V113.348H260.844V114.622H259.567V115.899H258.292H257.018V117.174H258.292H259.567H260.844V115.899H262.119V117.174H263.393V115.899H264.668Z" fill="#263238"/>
<path d="M259.567 96.7738V95.499H258.292H257.017V96.7738H255.743V98.0485H257.017H258.292V96.7738H259.567Z" fill="#263238"/>
<path d="M259.567 98.0469H258.292V99.3216H259.567V98.0469Z" fill="#263238"/>
<path d="M262.755 103.148H261.48V104.423V105.698V106.972H262.755H264.029V105.698H262.755V104.423H264.029V103.148H265.304V101.873H264.029V100.599H262.755V101.873V103.148Z" fill="#263238"/>
<path d="M258.292 99.3232H257.018V100.598H258.292V99.3232Z" fill="#263238"/>
<path d="M262.119 112.074V113.348H263.393H264.668V112.074H265.943H267.218V110.799H265.943H264.668H263.393V112.074H262.119Z" fill="#263238"/>
<path d="M268.995 106.974H267.72V108.248H268.995V106.974Z" fill="#263238"/>
<path d="M264.668 108.247H263.394V109.522H264.668V108.247Z" fill="#263238"/>
<path d="M267.856 104.423H266.581H265.304V105.698H266.581V106.972H267.856V105.698V104.423Z" fill="#263238"/>
<path d="M267.217 108.247H265.942V109.522H267.217V108.247Z" fill="#263238"/>
<path d="M253.193 115.923H257.019V110.797H251.893V112.074H250.643V113.348H251.893V114.623H250.643V115.898H251.893V115.923H251.918V117.173H250.643V119.722H251.918V118.443H253.193V115.923ZM256.037 111.777V114.965H252.849V111.777H256.037Z" fill="#263238"/>
<path d="M269.767 110.801H271.042V109.524H269.767H268.492H267.217V110.801H268.492H269.767Z" fill="#263238"/>
<path d="M269.767 105.699H271.042V104.424V103.149H269.767V104.424V105.699Z" fill="#263238"/>
<path d="M259.617 112.124H258.34V113.399V114.674H259.617V113.399V112.124Z" fill="#263238"/>
<path d="M272.316 110.799H271.042V112.074H272.316V110.799Z" fill="#263238"/>
<path d="M272.318 108.248V106.974H271.042V108.248V109.523H272.318V108.248Z" fill="#263238"/>
<path d="M249.367 117.173H248.092V118.448V119.722H249.367V118.448V117.173Z" fill="#263238"/>
<path d="M272.318 101.874V95.4902H265.934V101.874H272.318ZM266.898 100.917V96.454H271.361V100.917H266.898Z" fill="#263238"/>
<path d="M270.406 97.4111H267.856V99.9607H270.406V97.4111Z" fill="#263238"/>
<path d="M272.318 113.349H265.934V119.722H272.318V113.349ZM266.898 118.767V114.304H271.361V118.767H266.898Z" fill="#263238"/>
<path d="M270.406 115.261H267.856V117.81H270.406V115.261Z" fill="#263238"/>
<path d="M248.078 95.499V101.883H254.448V95.499H248.078ZM253.496 96.4546V100.917H249.034V96.4546H253.496Z" fill="#263238"/>
<path d="M252.538 97.4111H249.989V99.9607H252.538V97.4111Z" fill="#263238"/>
<path d="M310.761 126.531V116.997L339.625 78.1617H354.495L326.243 116.997L319.333 114.985H367.527V126.531H310.761ZM343.736 139.389V126.531L344.174 114.985V103.527H357.556V139.389H343.736Z" fill="#333131"/>
<path d="M158.468 194.22V176.26H165.857C167.448 176.26 168.808 176.516 169.937 177.03C171.083 177.543 171.963 178.278 172.579 179.236C173.195 180.194 173.503 181.331 173.503 182.648C173.503 183.965 173.195 185.103 172.579 186.061C171.963 187.019 171.083 187.754 169.937 188.267C168.808 188.78 167.448 189.037 165.857 189.037H160.315L161.803 187.472V194.22H158.468ZM161.803 187.831L160.315 186.215H165.703C167.174 186.215 168.277 185.907 169.013 185.291C169.766 184.658 170.142 183.777 170.142 182.648C170.142 181.502 169.766 180.622 169.013 180.006C168.277 179.39 167.174 179.082 165.703 179.082H160.315L161.803 177.44V187.831ZM184.842 194.22V191.449L184.662 190.859V186.009C184.662 185.069 184.38 184.342 183.815 183.829C183.251 183.298 182.396 183.033 181.25 183.033C180.48 183.033 179.719 183.153 178.966 183.392C178.231 183.632 177.606 183.965 177.093 184.393L175.836 182.058C176.572 181.494 177.444 181.075 178.453 180.801C179.479 180.51 180.54 180.365 181.635 180.365C183.619 180.365 185.15 180.844 186.227 181.802C187.322 182.742 187.869 184.205 187.869 186.189V194.22H184.842ZM180.531 194.399C179.505 194.399 178.607 194.228 177.837 193.886C177.068 193.527 176.469 193.04 176.041 192.424C175.631 191.791 175.426 191.081 175.426 190.294C175.426 189.524 175.605 188.832 175.964 188.216C176.341 187.6 176.948 187.113 177.786 186.754C178.624 186.394 179.736 186.215 181.121 186.215H185.098V188.344H181.352C180.258 188.344 179.522 188.524 179.146 188.883C178.77 189.225 178.581 189.653 178.581 190.166C178.581 190.747 178.812 191.209 179.274 191.551C179.736 191.893 180.377 192.065 181.198 192.065C181.985 192.065 182.687 191.885 183.302 191.526C183.935 191.167 184.388 190.636 184.662 189.935L185.201 191.859C184.893 192.663 184.337 193.288 183.533 193.732C182.746 194.177 181.746 194.399 180.531 194.399ZM198.219 199.377C196.953 199.377 195.713 199.206 194.499 198.864C193.302 198.539 192.318 198.06 191.548 197.427L192.985 195.015C193.584 195.511 194.336 195.905 195.243 196.195C196.167 196.503 197.099 196.657 198.04 196.657C199.545 196.657 200.648 196.306 201.349 195.605C202.051 194.921 202.401 193.886 202.401 192.501V190.063L202.658 186.959L202.555 183.854V180.519H205.608V192.142C205.608 194.622 204.976 196.443 203.71 197.606C202.444 198.787 200.614 199.377 198.219 199.377ZM197.809 193.604C196.509 193.604 195.329 193.33 194.268 192.783C193.225 192.218 192.395 191.44 191.779 190.448C191.181 189.456 190.881 188.293 190.881 186.959C190.881 185.642 191.181 184.487 191.779 183.495C192.395 182.503 193.225 181.733 194.268 181.186C195.329 180.639 196.509 180.365 197.809 180.365C198.972 180.365 200.015 180.596 200.939 181.058C201.863 181.52 202.598 182.238 203.145 183.213C203.71 184.188 203.992 185.436 203.992 186.959C203.992 188.481 203.71 189.738 203.145 190.73C202.598 191.705 201.863 192.432 200.939 192.911C200.015 193.373 198.972 193.604 197.809 193.604ZM198.296 190.884C199.1 190.884 199.819 190.722 200.451 190.397C201.084 190.055 201.572 189.593 201.914 189.011C202.273 188.413 202.453 187.729 202.453 186.959C202.453 186.189 202.273 185.513 201.914 184.932C201.572 184.333 201.084 183.88 200.451 183.572C199.819 183.247 199.1 183.085 198.296 183.085C197.492 183.085 196.765 183.247 196.115 183.572C195.482 183.88 194.986 184.333 194.627 184.932C194.285 185.513 194.114 186.189 194.114 186.959C194.114 187.729 194.285 188.413 194.627 189.011C194.986 189.593 195.482 190.055 196.115 190.397C196.765 190.722 197.492 190.884 198.296 190.884ZM216.265 194.399C214.742 194.399 213.408 194.1 212.262 193.501C211.133 192.886 210.252 192.047 209.62 190.987C209.004 189.926 208.696 188.721 208.696 187.369C208.696 186.001 208.995 184.795 209.594 183.752C210.21 182.691 211.048 181.862 212.108 181.263C213.186 180.664 214.409 180.365 215.777 180.365C217.111 180.365 218.3 180.656 219.344 181.237C220.387 181.819 221.208 182.64 221.807 183.7C222.405 184.761 222.705 186.009 222.705 187.446C222.705 187.583 222.696 187.737 222.679 187.908C222.679 188.079 222.67 188.242 222.653 188.396H211.236V186.266H220.96L219.703 186.933C219.72 186.146 219.557 185.454 219.215 184.855C218.873 184.256 218.403 183.786 217.804 183.444C217.223 183.102 216.547 182.931 215.777 182.931C214.99 182.931 214.298 183.102 213.699 183.444C213.117 183.786 212.656 184.265 212.314 184.881C211.989 185.479 211.826 186.189 211.826 187.01V187.523C211.826 188.344 212.014 189.071 212.391 189.704C212.767 190.337 213.297 190.824 213.981 191.167C214.665 191.509 215.452 191.68 216.342 191.68C217.111 191.68 217.804 191.56 218.42 191.32C219.036 191.081 219.583 190.705 220.062 190.192L221.781 192.167C221.165 192.886 220.387 193.441 219.446 193.835C218.523 194.211 217.462 194.399 216.265 194.399ZM233.184 194.22V176.26H235.929L247.193 190.089H245.833V176.26H249.143V194.22H246.397L235.134 180.391H236.494V194.22H233.184ZM259.805 194.399C258.402 194.399 257.154 194.1 256.059 193.501C254.964 192.886 254.1 192.047 253.468 190.987C252.835 189.926 252.518 188.721 252.518 187.369C252.518 186.001 252.835 184.795 253.468 183.752C254.1 182.691 254.964 181.862 256.059 181.263C257.154 180.664 258.402 180.365 259.805 180.365C261.225 180.365 262.482 180.664 263.576 181.263C264.688 181.862 265.552 182.683 266.168 183.726C266.801 184.769 267.117 185.984 267.117 187.369C267.117 188.721 266.801 189.926 266.168 190.987C265.552 192.047 264.688 192.886 263.576 193.501C262.482 194.1 261.225 194.399 259.805 194.399ZM259.805 191.654C260.592 191.654 261.293 191.483 261.909 191.141C262.524 190.799 263.003 190.303 263.346 189.653C263.705 189.003 263.884 188.242 263.884 187.369C263.884 186.48 263.705 185.719 263.346 185.086C263.003 184.436 262.524 183.94 261.909 183.598C261.293 183.256 260.6 183.085 259.83 183.085C259.044 183.085 258.342 183.256 257.727 183.598C257.128 183.94 256.649 184.436 256.29 185.086C255.931 185.719 255.751 186.48 255.751 187.369C255.751 188.242 255.931 189.003 256.29 189.653C256.649 190.303 257.128 190.799 257.727 191.141C258.342 191.483 259.035 191.654 259.805 191.654ZM275.341 194.399C273.836 194.399 272.673 194.014 271.852 193.245C271.031 192.458 270.62 191.303 270.62 189.781V177.491H273.827V189.704C273.827 190.354 273.99 190.859 274.315 191.218C274.657 191.577 275.127 191.757 275.726 191.757C276.444 191.757 277.043 191.569 277.522 191.192L278.42 193.476C278.043 193.784 277.582 194.014 277.034 194.168C276.487 194.322 275.923 194.399 275.341 194.399ZM268.362 183.187V180.622H277.496V183.187H268.362ZM288.585 194.22V179.749C288.585 178.312 289.004 177.166 289.842 176.311C290.697 175.439 291.912 175.003 293.485 175.003C294.05 175.003 294.58 175.063 295.076 175.182C295.589 175.302 296.017 175.49 296.359 175.747L295.487 178.158C295.247 177.97 294.974 177.833 294.666 177.748C294.358 177.645 294.041 177.594 293.716 177.594C293.049 177.594 292.545 177.782 292.203 178.158C291.861 178.518 291.689 179.065 291.689 179.8V181.34L291.792 182.777V194.22H288.585ZM286.327 183.187V180.622H295.461V183.187H286.327ZM303.577 194.399C302.174 194.399 300.926 194.1 299.831 193.501C298.736 192.886 297.873 192.047 297.24 190.987C296.607 189.926 296.29 188.721 296.29 187.369C296.29 186.001 296.607 184.795 297.24 183.752C297.873 182.691 298.736 181.862 299.831 181.263C300.926 180.664 302.174 180.365 303.577 180.365C304.997 180.365 306.254 180.664 307.349 181.263C308.46 181.862 309.324 182.683 309.94 183.726C310.573 184.769 310.889 185.984 310.889 187.369C310.889 188.721 310.573 189.926 309.94 190.987C309.324 192.047 308.46 192.886 307.349 193.501C306.254 194.1 304.997 194.399 303.577 194.399ZM303.577 191.654C304.364 191.654 305.065 191.483 305.681 191.141C306.297 190.799 306.776 190.303 307.118 189.653C307.477 189.003 307.657 188.242 307.657 187.369C307.657 186.48 307.477 185.719 307.118 185.086C306.776 184.436 306.297 183.94 305.681 183.598C305.065 183.256 304.372 183.085 303.603 183.085C302.816 183.085 302.115 183.256 301.499 183.598C300.9 183.94 300.421 184.436 300.062 185.086C299.703 185.719 299.523 186.48 299.523 187.369C299.523 188.242 299.703 189.003 300.062 189.653C300.421 190.303 300.9 190.799 301.499 191.141C302.115 191.483 302.807 191.654 303.577 191.654ZM319.755 194.399C318.592 194.399 317.565 194.186 316.676 193.758C315.786 193.313 315.094 192.646 314.598 191.757C314.102 190.85 313.854 189.713 313.854 188.344V180.519H317.061V187.908C317.061 189.14 317.334 190.063 317.882 190.679C318.446 191.278 319.241 191.577 320.268 191.577C321.02 191.577 321.67 191.423 322.218 191.115C322.782 190.807 323.218 190.346 323.526 189.73C323.851 189.114 324.014 188.353 324.014 187.446V180.519H327.221V194.22H324.168V190.525L324.706 191.654C324.245 192.543 323.569 193.228 322.68 193.707C321.79 194.168 320.815 194.399 319.755 194.399ZM339.194 180.365C340.289 180.365 341.264 180.579 342.119 181.006C342.991 181.434 343.675 182.093 344.171 182.982C344.667 183.854 344.916 184.983 344.916 186.369V194.22H341.708V186.779C341.708 185.565 341.418 184.658 340.836 184.06C340.272 183.461 339.476 183.162 338.45 183.162C337.697 183.162 337.03 183.316 336.449 183.623C335.867 183.931 335.414 184.393 335.089 185.009C334.781 185.608 334.627 186.369 334.627 187.292V194.22H331.42V180.519H334.473V184.213L333.934 183.085C334.413 182.212 335.106 181.545 336.013 181.083C336.936 180.604 337.997 180.365 339.194 180.365ZM354.807 194.399C353.49 194.399 352.302 194.109 351.241 193.527C350.198 192.928 349.377 192.107 348.778 191.064C348.179 190.021 347.88 188.789 347.88 187.369C347.88 185.95 348.179 184.718 348.778 183.675C349.377 182.631 350.198 181.819 351.241 181.237C352.302 180.656 353.49 180.365 354.807 180.365C355.954 180.365 356.98 180.622 357.886 181.135C358.793 181.631 359.511 182.392 360.042 183.418C360.572 184.444 360.837 185.761 360.837 187.369C360.837 188.96 360.58 190.277 360.067 191.32C359.554 192.347 358.844 193.116 357.938 193.63C357.031 194.143 355.988 194.399 354.807 194.399ZM355.192 191.654C355.962 191.654 356.646 191.483 357.245 191.141C357.861 190.799 358.348 190.303 358.707 189.653C359.084 189.003 359.272 188.242 359.272 187.369C359.272 186.48 359.084 185.719 358.707 185.086C358.348 184.436 357.861 183.94 357.245 183.598C356.646 183.256 355.962 183.085 355.192 183.085C354.423 183.085 353.73 183.256 353.114 183.598C352.515 183.94 352.028 184.436 351.652 185.086C351.292 185.719 351.113 186.48 351.113 187.369C351.113 188.242 351.292 189.003 351.652 189.653C352.028 190.303 352.515 190.799 353.114 191.141C353.73 191.483 354.423 191.654 355.192 191.654ZM359.349 194.22V190.987L359.477 187.344L359.22 183.7V175.182H362.402V194.22H359.349Z" fill="black"/>
<defs>
<filter id="filter0_f_1293_33313" x="310.66" y="0.122979" width="79.3385" height="80.7589" filterUnits="userSpaceOnUse" color-interpolation-filters="sRGB">
<feFlood flood-opacity="0" result="BackgroundImageFix"/>
<feBlend mode="normal" in="SourceGraphic" in2="BackgroundImageFix" result="shape"/>
<feGaussianBlur stdDeviation="0.938511" result="effect1_foregroundBlur_1293_33313"/>
</filter>
</defs>
</svg>
