<svg width="1920" height="1586" viewBox="0 0 1920 1586" fill="none" xmlns="http://www.w3.org/2000/svg">
<g clip-path="url(#clip0_1293_32976)">
<rect width="1920" height="1586" fill="#FFFCFF"/>
<g opacity="0.07">
<rect x="-324" y="207.592" width="457.629" height="455.629" rx="29.2103" transform="rotate(-45 -324 207.592)" fill="#87A1C9"/>
<rect x="-209.886" y="194.214" width="305.086" height="303.752" rx="29.2103" transform="rotate(-45 -209.886 194.214)" fill="white"/>
<rect x="-123.41" y="193.455" width="152.543" height="151.876" rx="29.2103" transform="rotate(-45 -123.41 193.455)" fill="#082553"/>
</g>
<g opacity="0.07">
<rect x="1424" y="1239.59" width="457.629" height="455.629" rx="29.2103" transform="rotate(-45 1424 1239.59)" fill="#87A1C9"/>
<rect x="1538.11" y="1226.21" width="305.086" height="303.752" rx="29.2103" transform="rotate(-45 1538.11 1226.21)" fill="white"/>
<rect x="1624.59" y="1225.45" width="152.543" height="151.876" rx="29.2103" transform="rotate(-45 1624.59 1225.45)" fill="#082553"/>
</g>
<g opacity="0.07">
<rect x="1556.07" y="-19.9291" width="457.629" height="455.629" rx="29.2103" fill="#87A1C9"/>
<rect x="1646.22" y="51.3019" width="305.086" height="303.752" rx="29.2103" fill="white"/>
<rect x="1707.91" y="111.913" width="152.543" height="151.876" rx="29.2103" fill="#082553"/>
</g>
<g opacity="0.07">
<rect x="79" y="681" width="137" height="159.185" rx="18.0756" fill="#87A1C9"/>
<rect x="103.659" y="708.592" width="91.3333" height="106.123" rx="18.0756" fill="white"/>
<rect x="124.666" y="735.123" width="45.6667" height="53.0615" rx="18.0756" fill="#082553"/>
</g>
<g opacity="0.07">
<rect x="1688" y="634" width="137" height="159.185" rx="18.0756" fill="#87A1C9"/>
<rect x="1712.66" y="661.592" width="91.3333" height="106.123" rx="18.0756" fill="white"/>
<rect x="1733.67" y="688.123" width="45.6667" height="53.0615" rx="18.0756" fill="#082553"/>
</g>
<g opacity="0.07">
<rect x="1355" y="536" width="97" height="112.707" rx="12.7981" fill="#87A1C9"/>
<rect x="1372.46" y="555.536" width="64.6667" height="75.1382" rx="12.7981" fill="white"/>
<rect x="1387.33" y="574.32" width="32.3333" height="37.5691" rx="12.7981" fill="#082553"/>
</g>
<g opacity="0.07">
<rect x="1342" y="118" width="97" height="112.707" rx="12.7981" fill="#87A1C9"/>
<rect x="1359.46" y="137.536" width="64.6667" height="75.1382" rx="12.7981" fill="white"/>
<rect x="1374.33" y="156.32" width="32.3333" height="37.5691" rx="12.7981" fill="#082553"/>
</g>
<g opacity="0.07">
<rect x="426" y="282" width="106" height="123.165" rx="13.9855" fill="#87A1C9"/>
<rect x="445.079" y="303.348" width="70.6667" height="82.1098" rx="13.9855" fill="white"/>
<rect x="461.333" y="323.876" width="35.3333" height="41.0549" rx="13.9855" fill="#082553"/>
</g>
<g opacity="0.07">
<rect x="407.783" y="812.749" width="137" height="159.185" rx="18.0756" transform="rotate(-45 407.783 812.749)" fill="#87A1C9"/>
<rect x="444.73" y="814.823" width="91.3333" height="106.123" rx="18.0756" transform="rotate(-45 444.73 814.823)" fill="white"/>
<rect x="478.345" y="818.729" width="45.6667" height="53.0615" rx="18.0756" transform="rotate(-45 478.345 818.729)" fill="#082553"/>
</g>
<g opacity="0.07">
<rect x="1380" y="803" width="137" height="159.185" rx="18.0756" fill="#87A1C9"/>
<rect x="1404.66" y="830.592" width="91.3333" height="106.123" rx="18.0756" fill="white"/>
<rect x="1425.67" y="857.123" width="45.6667" height="53.0615" rx="18.0756" fill="#082553"/>
</g>
<g opacity="0.07">
<rect x="-34" y="1084" width="137" height="159.185" rx="18.0756" fill="#87A1C9"/>
<rect x="-9.34082" y="1111.59" width="91.3333" height="106.123" rx="18.0756" fill="white"/>
<rect x="11.666" y="1138.12" width="45.6667" height="53.0615" rx="18.0756" fill="#082553"/>
</g>
</g>
<defs>
<clipPath id="clip0_1293_32976">
<rect width="1920" height="1586" fill="white"/>
</clipPath>
</defs>
</svg>
