<svg width="67" height="48" viewBox="0 0 67 48" fill="#082553" xmlns="http://www.w3.org/2000/svg">
<path d="M1.62176 16.5406L1.62174 16.5405C0.777928 15.7033 0.792267 14.3318 1.6694 13.5206C19.571 -3.03767 47.4217 -3.04374 65.3304 13.5205C66.2075 14.3318 66.2219 15.703 65.3794 16.5403L65.3791 16.5406L61.9551 19.9376L61.955 19.9376C61.1493 20.7368 59.8575 20.7524 59.0252 19.9893C44.6214 6.79346 22.3767 6.79636 7.97583 19.9891C7.14393 20.7519 5.85201 20.7383 5.04576 19.9376L1.62176 16.5406ZM1.62176 16.5406L5.04552 19.9373L1.62176 16.5406ZM16.2687 31.3105L16.2687 31.3105C17.0513 32.0826 18.3122 32.1382 19.1518 31.413L19.1519 31.4129C27.3589 24.3184 39.6594 24.334 47.8469 31.4128L47.8471 31.413C48.6862 32.1379 49.9474 32.0841 50.7304 31.3102L54.1737 27.9119C54.1738 27.9118 54.1739 27.9117 54.174 27.9116C55.0337 27.0647 55.0066 25.6691 54.098 24.866C42.3828 14.5057 24.6037 14.5169 12.9017 24.8661C11.992 25.6703 11.9663 27.0648 12.8247 27.9115C12.8247 27.9115 12.8248 27.9116 12.8248 27.9116L16.2687 31.3105ZM33.4999 33.0996C29.6888 33.0996 26.5999 36.1885 26.5999 39.9996C26.5999 43.8108 29.6888 46.8996 33.4999 46.8996C37.3111 46.8996 40.3999 43.8108 40.3999 39.9996C40.3999 36.1885 37.3111 33.0996 33.4999 33.0996Z" fill="#082553" stroke="none"/>
</svg>
