<svg width="22" height="20" viewBox="0 0 22 20" fill="none" xmlns="http://www.w3.org/2000/svg">
    <path d="M15 6.5a6 6 0 0 1 6 6v7h-4v-7a2 2 0 0 0-4 0v7H9v-7a6 6 0 0 1 6-6v0z" stroke="#6C6E71" stroke-linecap="round" stroke-linejoin="round"/>
    <path d="M15 6.5a6 6 0 0 1 6 6v7h-4v-7a2 2 0 0 0-4 0v7H9v-7a6 6 0 0 1 6-6v0zM5 7.5H1v12h4v-12z" stroke="#6C6E71" stroke-linecap="round" stroke-linejoin="round"/>
    <path d="M5 7.5H1v12h4v-12zM3 4.5a2 2 0 1 0 0-4 2 2 0 0 0 0 4z" stroke="#6C6E71" stroke-linecap="round" stroke-linejoin="round"/>
    <path d="M3 4.5a2 2 0 1 0 0-4 2 2 0 0 0 0 4z" stroke="#6C6E71" stroke-linecap="round" stroke-linejoin="round"/>
</svg>
