<svg width="26" height="20" viewBox="0 0 26 20" fill="none" xmlns="http://www.w3.org/2000/svg">
    <path d="M25 1.01a12.352 12.352 0 0 1-3.425 1.535 4.972 4.972 0 0 0-2.502-1.41 5.292 5.292 0 0 0-2.929.16 4.842 4.842 0 0 0-2.3 1.675A4.24 4.24 0 0 0 13 5.554v1.003A12.48 12.48 0 0 1 7.47 5.42c-1.713-.793-3.186-1.963-4.288-3.406 0 0-4.364 9.028 5.454 13.041C6.39 16.456 3.713 17.16 1 17.06c9.818 5.016 21.818 0 21.818-11.536a4.16 4.16 0 0 0-.087-.832C23.844 3.682 24.63 2.407 25 1.01v0z" stroke="#6C6E71" stroke-linecap="round" stroke-linejoin="round"/>
</svg>
