<svg width="1920" height="106" viewBox="0 0 1920 106" fill="none" xmlns="http://www.w3.org/2000/svg">
<rect width="1920" height="102" fill="white"/>
<g filter="url(#filter0_d_949_15597)">
<rect width="1920" height="102" fill="white"/>
<path d="M406.633 55.575V55.7277H407.057C406.921 55.6768 406.785 55.6259 406.633 55.575ZM406.633 55.575V55.7277H407.057C406.921 55.6768 406.785 55.6259 406.633 55.575ZM410.91 43.7768C410.775 43.7259 410.656 43.6919 410.52 43.641H410.045C409.739 43.641 409.502 43.8786 409.502 44.1842V44.7104C409.502 45.016 409.264 45.2537 408.958 45.2537H408.432C408.126 45.2537 407.889 45.016 407.889 44.7104V44.1502C407.889 43.8447 407.651 43.607 407.346 43.607H406.225V42.2829C405.937 42.198 405.631 42.0962 405.342 42.0113C405.308 41.9943 405.258 41.9943 405.224 41.9773C405.088 41.9434 404.969 41.8925 404.85 41.8585C404.833 41.8585 404.816 41.8415 404.799 41.8415C404.392 41.7227 403.984 41.6039 403.594 41.485C403.373 41.4171 403.17 41.3492 402.949 41.2983V44.4219C402.949 44.8972 402.575 45.2707 402.1 45.2707H401.387C401.421 45.2876 401.472 45.2876 401.506 45.3046C401.71 45.3725 401.93 45.4234 402.134 45.4913C402.355 45.5592 402.575 45.6271 402.796 45.695C403.22 45.8309 403.645 45.9497 404.069 46.0855C404.85 46.3231 405.631 46.5778 406.429 46.8154C406.497 46.8324 406.565 46.8494 406.616 46.8834C406.684 46.9003 406.751 46.9343 406.819 46.9513H408.941C409.247 46.9513 409.485 46.7136 409.485 46.408V45.8309C409.485 45.5253 409.722 45.2876 410.028 45.2876H410.554C410.86 45.2876 411.097 45.05 411.097 44.7444V44.2351C411.097 44.0314 411.029 43.8786 410.91 43.7768ZM406.225 44.7274C406.225 44.999 406.004 45.2197 405.733 45.2197H405.122C404.85 45.2197 404.629 44.999 404.629 44.7274V44.1163C404.629 43.8447 404.85 43.624 405.122 43.624H406.225V44.7274ZM435.322 53.3851C432.47 52.027 429.295 50.635 425.883 49.243V51.2461C425.883 51.5517 425.645 51.7894 425.34 51.7894H420.79C421.385 52.01 421.962 52.2477 422.556 52.4684C427.004 54.2169 431.095 55.9993 434.592 57.7139C434.609 57.7309 434.643 57.7309 434.66 57.7479C434.694 57.7648 434.728 57.7818 434.761 57.7988C435.135 56.3898 435.407 54.9468 435.542 53.453C435.457 53.453 435.39 53.419 435.322 53.3851ZM423.167 48.513H423.71C423.778 48.513 423.846 48.4961 423.914 48.4791C423.49 48.3093 423.065 48.1396 422.624 47.9698C422.624 48.2754 422.861 48.513 423.167 48.513ZM420.926 49.1072C420.926 48.8016 420.689 48.564 420.383 48.564H419.874C419.568 48.564 419.33 48.8016 419.33 49.1072V49.6334C419.33 49.939 419.093 50.1767 418.787 50.1767H418.244C417.972 50.1767 417.735 50.3804 417.701 50.652C418.125 50.8048 418.533 50.9575 418.957 51.1103C419.076 51.1613 419.195 51.1952 419.314 51.2461V50.7029C419.314 50.3973 419.551 50.1597 419.857 50.1597H420.383C420.689 50.1597 420.926 49.922 420.926 49.6165V49.1072ZM418.244 46.9343H419.874C419.721 46.8833 419.568 46.8154 419.415 46.7645C418.584 46.459 417.735 46.1534 416.869 45.8478C416.326 45.6441 415.783 45.4574 415.222 45.2707C415.053 45.2027 414.883 45.1518 414.713 45.1009C414.56 45.05 414.424 44.999 414.272 44.9481C413.864 44.8123 413.457 44.6595 413.049 44.5237C412.965 44.4898 412.863 44.4558 412.778 44.4388V46.3571C412.778 46.6627 413.015 46.9003 413.321 46.9003H413.864C414.17 46.9003 414.408 47.138 414.408 47.4436V49.4637C414.798 49.5995 415.188 49.7353 415.579 49.8881C415.681 49.922 415.766 49.956 415.867 49.9899C415.969 49.8881 416.037 49.7523 416.037 49.5995V49.0563C416.037 48.7507 416.275 48.513 416.58 48.513H417.124C417.429 48.513 417.667 48.2754 417.667 47.9698V47.4775C417.701 47.1719 417.955 46.9343 418.244 46.9343ZM399.639 40.3307V41.2134C399.639 41.6209 399.316 41.9434 398.909 41.9434H395.53C395.123 41.9434 394.8 41.6209 394.8 41.2134V39.0405C394.767 39.0405 394.733 39.0236 394.699 39.0066C394.172 38.8708 393.663 38.7519 393.154 38.6161V42.7243C393.154 42.8261 393.171 42.911 393.205 42.9959C393.935 43.1826 394.665 43.3694 395.412 43.5561H400.436C400.912 43.5561 401.285 43.1826 401.285 42.7073V40.7721C400.725 40.6363 400.182 40.4835 399.639 40.3307ZM385.532 36.9525C384.768 38.2087 384.123 39.5328 383.562 40.9079C383.8 40.9418 384.055 40.9928 384.292 41.0437C386.533 41.4681 388.927 41.9773 391.473 42.5885V38.2257C389.402 37.7504 387.416 37.309 385.532 36.9525ZM406.633 55.575V55.7277H407.057C406.921 55.6768 406.785 55.6259 406.633 55.575ZM406.633 55.575V55.7277H407.057C406.921 55.6768 406.785 55.6259 406.633 55.575Z" fill="#092C64"/>
<path d="M440.89 40.5853C442.812 40.5853 444.37 39.0273 444.37 37.1053C444.37 35.1833 442.812 33.6252 440.89 33.6252C438.968 33.6252 437.41 35.1833 437.41 37.1053C437.41 39.0273 438.968 40.5853 440.89 40.5853Z" fill="#092C64"/>
<path d="M406.225 65.7095C406.225 66.1509 406.582 66.5244 407.04 66.5244H407.074C407.515 66.5244 407.889 66.1679 407.889 65.7095V63.299C407.345 63.1292 406.785 62.9425 406.242 62.7727V65.7095H406.225Z" fill="#092C64"/>
<path d="M395.445 60.0396H398.297C398.009 59.9377 397.737 59.8359 397.449 59.734C397.007 59.5643 396.566 59.4115 396.141 59.2587C395.717 59.1059 395.31 58.9531 394.885 58.7834C394.546 58.6646 394.223 58.5287 393.901 58.4099C393.459 58.4948 393.137 58.8852 393.137 59.3436V65.5567C393.137 66.083 393.561 66.5243 394.087 66.5243H400.301C400.827 66.5243 401.268 66.0999 401.268 65.5567V61.0921C400.708 60.8884 400.148 60.7016 399.588 60.4979C399.604 60.5658 399.621 60.6337 399.621 60.7016V64.1987C399.621 64.5721 399.316 64.8777 398.942 64.8777H395.428C395.055 64.8777 394.749 64.5721 394.749 64.1987V60.7016C394.783 60.3452 395.089 60.0396 395.445 60.0396Z" fill="#092C64"/>
<path d="M422.607 67.509C422.607 67.8824 422.301 68.188 421.928 68.188H421.656C421.283 68.188 420.977 67.8824 420.977 67.509V67.2883C420.977 67.2204 420.977 67.1695 420.994 67.1185C418.855 66.5753 416.665 65.9642 414.407 65.3021C414.407 65.9981 414.407 66.6941 414.407 67.3732C414.407 67.8315 414.034 68.188 413.592 68.188C413.372 68.188 413.168 68.1031 413.015 67.9503C412.863 67.7976 412.778 67.5939 412.778 67.3732C412.778 66.8299 412.778 66.2867 412.778 65.7435C412.778 65.387 412.998 65.0984 413.304 64.9796C413.083 64.9117 412.846 64.8438 412.625 64.7759C412.523 64.8777 412.387 64.9287 412.251 64.9287H411.691C411.386 64.9287 411.148 64.691 411.148 64.3854V64.3345C410.622 64.1817 410.095 64.012 409.569 63.8422C409.535 63.9271 409.518 64.012 409.518 64.1138V67.4071C409.518 67.8485 409.162 68.222 408.703 68.222H405.41C404.969 68.222 404.595 67.8655 404.595 67.4071V62.4841C404.595 62.3993 404.612 62.3314 404.629 62.2635C404.069 62.0767 403.509 61.89 402.966 61.7033V67.2374C402.966 67.7636 402.541 68.188 402.015 68.188H392.475C391.948 68.188 391.507 67.7636 391.507 67.2374V57.697C391.507 57.6121 391.507 57.5442 391.541 57.4763C390.268 56.967 389.012 56.4577 387.806 55.9485C384.954 54.7602 382.085 57.5442 383.172 60.4301C383.376 60.9733 383.596 61.5165 383.834 62.0428C384.123 61.873 384.462 61.7712 384.819 61.7712C385.922 61.7712 386.805 62.6539 386.805 63.7573C386.805 64.5382 386.363 65.2003 385.718 65.5228C390.505 73.0261 398.908 78 408.466 78C416.495 78 423.71 74.486 428.667 68.918C426.698 68.4936 424.695 68.0352 422.607 67.509ZM417.684 67.6278C417.684 67.9334 417.429 68.188 417.123 68.188H416.614C416.309 68.188 416.054 67.9334 416.054 67.6278V67.1525C416.054 66.8469 416.309 66.5923 416.614 66.5923H417.123C417.429 66.5923 417.684 66.8469 417.684 67.1525V67.6278Z" fill="#092C64"/>
<path d="M419.347 58.3589C419.33 58.342 419.33 58.342 419.347 58.3589L416.665 58.342C416.326 58.342 416.054 58.0703 416.054 57.7308C416.054 57.3913 416.054 57.0688 416.054 56.7293H416.037V56.7123H414.967C414.662 56.7123 414.424 56.9499 414.424 57.2555V57.7818C414.424 57.9345 414.356 58.0703 414.271 58.1722C416.02 58.6984 417.735 59.1907 419.415 59.6491C419.381 59.5642 419.347 59.4793 419.347 59.3775C419.347 59.038 419.347 58.6984 419.347 58.3589Z" fill="#092C64"/>
<path d="M407.329 55.1166H406.785C406.497 55.1166 406.276 55.3373 406.242 55.6089C406.293 55.6258 406.361 55.6428 406.412 55.6598V55.8126H406.853C406.938 55.8465 407.04 55.8635 407.125 55.8975C407.38 55.9823 407.634 56.0672 407.872 56.1521V55.6598C407.872 55.3712 407.634 55.1166 407.329 55.1166Z" fill="#092C64"/>
<path d="M400.419 35.4586H393.968C393.493 35.4586 393.12 35.8321 393.12 36.3074V42.7582C393.12 42.8601 393.137 42.9449 393.171 43.0298C393.289 43.3693 393.595 43.59 393.968 43.59H400.419C400.895 43.59 401.268 43.2166 401.268 42.7412V36.2904C401.268 35.8321 400.895 35.4586 400.419 35.4586ZM399.638 41.2134C399.638 41.6208 399.316 41.9434 398.908 41.9434H395.53C395.123 41.9434 394.8 41.6208 394.8 41.2134V37.8352C394.8 37.4278 395.123 37.1053 395.53 37.1053H398.908C399.316 37.1053 399.638 37.4278 399.638 37.8352V41.2134Z" fill="#092C64"/>
<path d="M423.387 35.4756H416.903C416.444 35.4756 416.071 35.8491 416.071 36.3074V42.7922C416.071 43.2505 416.444 43.624 416.903 43.624H423.387C423.846 43.624 424.219 43.2505 424.219 42.7922V36.3074C424.202 35.8321 423.846 35.4756 423.387 35.4756ZM422.573 41.1964C422.573 41.6038 422.233 41.9434 421.826 41.9434H418.464C418.057 41.9434 417.717 41.6038 417.717 41.1964V37.8352C417.717 37.4278 418.057 37.0883 418.464 37.0883H421.826C422.233 37.0883 422.573 37.4278 422.573 37.8352V41.1964Z" fill="#092C64"/>
<path d="M427.682 32.0805C427.462 32.2163 427.19 32.2502 426.935 32.1484C426.477 31.9786 426.239 31.4693 426.392 31.011C426.409 30.9771 426.426 30.9261 426.443 30.8922C421.673 26.6143 415.358 24 408.432 24C399.621 24 391.796 28.227 386.856 34.7627C386.329 35.4587 385.837 36.1886 385.379 36.9356C385.362 36.9695 385.328 37.0204 385.311 37.0544C384.581 38.2766 383.936 39.5498 383.393 40.8739C383.376 40.9079 383.359 40.9588 383.342 40.9928C382.747 42.4697 382.289 44.0145 381.967 45.6102C381.95 45.6781 381.933 45.729 381.933 45.7969C382.102 45.8818 382.272 45.9667 382.442 46.0516C385.582 47.5964 389.215 49.1921 393.154 50.7878V50.5332C393.154 50.3125 393.323 50.1427 393.544 50.1427H394.376C394.597 50.1427 394.766 50.3125 394.766 50.5332V51.4159C394.766 51.4159 394.766 51.4159 394.766 51.4329C395.072 51.5517 395.377 51.6705 395.7 51.7894H395.836C395.921 51.7894 395.989 51.7724 396.056 51.7384C396.243 51.6536 396.379 51.4668 396.379 51.2461V50.7029C396.379 50.3974 396.141 50.1597 395.836 50.1597H395.31C395.004 50.1597 394.766 49.922 394.766 49.6165V49.0732C394.766 48.7677 394.529 48.53 394.223 48.53H392.05C391.745 48.53 391.507 48.2924 391.507 47.9868V47.4436C391.507 47.138 391.745 46.9003 392.05 46.9003H397.482C397.788 46.9003 398.026 47.138 398.026 47.4436V49.5995C398.026 49.9051 398.263 50.1427 398.569 50.1427H399.112C399.418 50.1427 399.655 50.3804 399.655 50.6859V51.2461C399.655 51.5517 399.418 51.7894 399.112 51.7894H398.637C398.331 51.7894 398.094 52.027 398.094 52.3326V52.7061C398.569 52.8758 399.044 53.0626 399.537 53.2323C399.706 53.3002 399.876 53.3511 400.046 53.419C400.487 53.5888 400.946 53.7416 401.404 53.9113C401.421 53.8604 401.438 53.8095 401.455 53.7586C401.557 53.5718 401.743 53.453 401.981 53.453H402.983V53.436H403C403 52.8928 403 52.3496 403 51.8233H402.983V51.8063H401.998C401.658 51.8063 401.387 51.5347 401.387 51.1952V50.8217C401.387 50.4822 401.658 50.2106 401.998 50.2106H402.371C402.711 50.2106 402.983 50.4822 402.983 50.8217V51.8063H403V51.8233H403.984C404.324 51.8233 404.612 52.0949 404.612 52.4514C404.612 52.7909 404.612 53.1305 404.612 53.47H404.629V53.4869H405.699C406.004 53.4869 406.242 53.2323 406.242 52.9437V50.7199C406.242 50.4143 406.497 50.1767 406.785 50.1767C406.972 50.1767 407.176 50.1767 407.362 50.1767C407.668 50.1767 407.906 50.4143 407.906 50.7199V51.2461C407.906 51.5517 408.143 51.7894 408.449 51.7894H408.958C409.264 51.7894 409.501 51.5517 409.501 51.2461V50.7369C409.501 50.4313 409.264 50.1936 408.958 50.1936H408.432C408.126 50.1936 407.889 49.956 407.889 49.6504V49.1242C407.889 48.8186 407.651 48.5809 407.345 48.5809H406.802C406.497 48.5809 406.259 48.8186 406.259 49.1242V49.6334C406.259 49.939 406.021 50.1767 405.716 50.1767H405.206C404.901 50.1767 404.663 49.939 404.663 49.6334V47.4775C404.663 47.172 404.901 46.9343 405.206 46.9343H408.941C409.247 46.9343 409.484 46.6966 409.484 46.3911V45.8139C409.484 45.5083 409.722 45.2707 410.028 45.2707H410.554C410.859 45.2707 411.097 45.033 411.097 44.7274V44.2182C411.097 44.0484 411.029 43.8956 410.91 43.8107C410.808 43.7259 410.69 43.6749 410.554 43.6749H410.045C409.739 43.6749 409.501 43.9126 409.501 44.2182V44.7444C409.501 45.05 409.264 45.2876 408.958 45.2876H408.432C408.126 45.2876 407.889 45.05 407.889 44.7444V44.1503C407.889 43.8447 407.651 43.607 407.345 43.607H406.225V43.624V44.7274C406.225 44.9991 406.004 45.2197 405.733 45.2197H405.122C404.85 45.2197 404.629 44.9991 404.629 44.7274V44.1163C404.629 43.8447 404.85 43.624 405.122 43.624H406.225V43.607H406.242V41.9943H406.225V41.9774H405.156C405.02 41.9774 404.901 41.9264 404.816 41.8416C404.697 41.7397 404.629 41.6039 404.629 41.4511V37.5976C404.629 37.309 404.867 37.0714 405.156 37.0714C406.055 37.0714 406.955 37.0714 407.855 37.0714V37.0544H407.872C407.872 36.1886 407.872 35.3229 407.872 34.4571C407.872 34.0836 408.16 33.795 408.534 33.795H412.116C412.489 33.795 412.778 34.1006 412.778 34.4571V34.7627C412.778 35.1191 412.489 35.4247 412.116 35.4247H411.81C411.454 35.4247 411.148 35.7303 411.148 36.0868V38.056C411.148 38.4294 410.859 38.718 410.486 38.718H410.146C409.79 38.718 409.484 38.4294 409.484 38.056V37.7164C409.484 37.3599 409.196 37.0544 408.822 37.0544H407.872V37.0714H407.855V39.8214C407.855 40.11 407.617 40.3477 407.328 40.3477H406.751C406.463 40.3477 406.225 40.5854 406.225 40.8739V41.9604H406.242V41.9774H408.975C409.281 41.9774 409.518 41.7397 409.518 41.4341V40.8739C409.518 40.5684 409.756 40.3307 410.062 40.3307H410.605C410.91 40.3307 411.148 40.5684 411.148 40.8739V41.4511C411.148 41.7567 411.386 41.9943 411.691 41.9943H412.251C412.557 41.9943 412.795 42.232 412.795 42.5376V46.3571C412.795 46.6627 413.032 46.9003 413.338 46.9003H413.881C414.187 46.9003 414.424 47.138 414.424 47.4436V49.5995C414.424 49.9051 414.662 50.1427 414.968 50.1427H415.511C415.664 50.1427 415.799 50.0748 415.884 49.9899C415.986 49.8881 416.054 49.7523 416.054 49.5995V49.0563C416.054 48.7507 416.292 48.513 416.597 48.513H417.14C417.446 48.513 417.684 48.2754 417.684 47.9698V47.4775C417.684 47.172 417.921 46.9343 418.227 46.9343H422.046C422.352 46.9343 422.59 47.172 422.59 47.4775V47.9698C422.59 48.2754 422.844 48.513 423.133 48.513H423.676C423.744 48.513 423.812 48.4961 423.88 48.4791C424.084 48.3942 424.219 48.2075 424.219 47.9698V47.4436C424.219 47.138 424.457 46.9003 424.763 46.9003H425.306C425.611 46.9003 425.849 47.138 425.849 47.4436V51.2631C425.849 51.5687 425.611 51.8063 425.306 51.8063H419.84C419.534 51.8063 419.296 51.5687 419.296 51.2631V50.7199C419.296 50.4143 419.534 50.1767 419.84 50.1767H420.366C420.671 50.1767 420.909 49.939 420.909 49.6334V49.1242C420.909 48.8186 420.671 48.5809 420.366 48.5809H419.857C419.551 48.5809 419.313 48.8186 419.313 49.1242V49.6504C419.313 49.956 419.076 50.1936 418.77 50.1936H418.227C417.955 50.1936 417.718 50.3974 417.684 50.669C417.684 50.6859 417.684 50.7199 417.684 50.7369V51.2461C417.684 51.5517 417.446 51.7894 417.14 51.7894H413.338C413.032 51.7894 412.795 51.5517 412.795 51.2461V50.7538C412.795 50.4483 412.557 50.2106 412.251 50.2106H411.708C411.403 50.2106 411.165 50.4483 411.165 50.7538V52.9268C411.165 53.2323 410.927 53.47 410.622 53.47H410.095C409.79 53.47 409.552 53.7076 409.552 54.0132V54.5225C409.552 54.828 409.79 55.0657 410.095 55.0657H410.605C410.91 55.0657 411.148 55.3034 411.148 55.6089V56.1352C411.148 56.4407 411.386 56.6784 411.691 56.6784H412.2C412.506 56.6784 412.744 56.4407 412.744 56.1352V55.6259C412.744 55.3203 412.506 55.0827 412.2 55.0827H411.691C411.386 55.0827 411.148 54.828 411.148 54.5394V53.9962C411.148 53.6907 411.403 53.453 411.691 53.453H415.494C415.799 53.453 416.037 53.6907 416.037 53.9962V56.7123H416.054V56.7293H417.056C417.395 56.7293 417.667 56.4577 417.667 56.1182V54.0811C417.667 53.7416 417.938 53.47 418.278 53.47H418.702C419.042 53.47 419.313 53.7416 419.313 54.0811V54.4546C419.313 54.7941 419.585 55.0657 419.924 55.0657H420.332C420.671 55.0657 420.943 55.3373 420.943 55.6768V56.1012C420.943 56.4407 420.671 56.7123 420.332 56.7123H419.958C419.619 56.7123 419.347 56.984 419.347 57.3235C419.347 57.663 419.347 58.0025 419.347 58.342H419.364V58.359H423.591C423.931 58.359 424.219 58.6306 424.219 58.9871V59.3606C424.219 59.7001 423.931 59.9887 423.591 59.9887H423.252C422.997 59.9887 422.776 60.1415 422.675 60.3791C422.658 60.43 422.641 60.464 422.641 60.5149C426.256 61.4486 429.652 62.2295 432.724 62.8067C432.741 62.7727 432.758 62.7218 432.775 62.6878C433.132 61.9579 433.454 61.194 433.743 60.4131C433.743 60.4131 433.743 60.4131 433.743 60.3961C434.048 59.5982 434.303 58.7834 434.524 57.9346C434.541 57.8667 434.558 57.8158 434.575 57.7479C434.931 56.3898 435.169 55.0148 435.305 53.5888C435.305 53.5209 435.321 53.453 435.321 53.4021C435.389 52.6042 435.423 51.8063 435.423 50.9915V50.8217C435.372 43.5222 432.436 36.9016 427.682 32.0805ZM392.322 45.2537C391.846 45.2537 391.473 44.8802 391.473 44.4049V34.6268C391.473 34.1515 391.846 33.7781 392.322 33.7781H402.1C402.575 33.7781 402.949 34.1515 402.949 34.6268V44.4049C402.949 44.8802 402.575 45.2537 402.1 45.2537H392.322ZM402.898 47.9868C402.898 48.2754 402.677 48.4961 402.388 48.4961H401.845C401.557 48.4961 401.336 48.2754 401.336 47.9868V47.4266C401.336 47.138 401.557 46.9173 401.845 46.9173H402.388C402.677 46.9173 402.898 47.138 402.898 47.4266V47.9868ZM406.225 35.0343C406.225 35.238 406.072 35.3908 405.868 35.3908H404.952C404.748 35.3908 404.595 35.221 404.595 35.0343V34.1515C404.595 33.9478 404.765 33.795 404.952 33.795H405.868C406.072 33.795 406.225 33.9478 406.225 34.1515V35.0343ZM412.744 39.9572C412.744 40.1779 412.574 40.3477 412.353 40.3477H411.538C411.318 40.3477 411.148 40.1779 411.148 39.9572V39.1085C411.148 38.8878 411.335 38.718 411.538 38.718H412.353C412.574 38.718 412.744 38.8878 412.744 39.1085V39.9572ZM423.608 56.7123H423.252C422.912 56.7123 422.658 56.4407 422.658 56.1182V55.7278C422.658 55.3882 422.929 55.1336 423.252 55.1336H423.608C423.948 55.1336 424.202 55.4052 424.202 55.7278V56.1182C424.202 56.4407 423.931 56.7123 423.608 56.7123ZM425.051 45.2537H415.239C415.052 45.2537 414.866 45.1858 414.73 45.0839C414.543 44.9312 414.407 44.6935 414.407 44.4389V34.6268C414.407 34.1685 414.781 33.795 415.239 33.795H425.051C425.509 33.795 425.883 34.1685 425.883 34.6268V44.4389C425.883 44.8802 425.509 45.2537 425.051 45.2537Z" fill="#092C64"/>
<path d="M404.561 53.47C404.561 53.47 404.578 53.453 404.561 53.47C404.578 53.453 404.561 53.47 404.561 53.47V53.453C404.018 53.453 403.492 53.436 402.949 53.436V53.453L402.932 53.436L402.949 53.453H402.932V54.4716C403.017 54.5055 403.101 54.5225 403.169 54.5564C403.39 54.6413 403.611 54.7092 403.848 54.7941C404.086 54.879 404.324 54.9639 404.561 55.0487C404.578 54.5225 404.578 53.9962 404.561 53.47Z" fill="#092C64"/>
<path d="M412.217 57.5441C411.98 57.4762 411.759 57.4083 411.521 57.3234C411.097 57.1876 410.673 57.0518 410.248 56.916C409.824 56.7802 409.382 56.6444 408.958 56.5086C408.602 56.3898 408.228 56.2709 407.872 56.1521V57.7818C407.872 58.0873 408.109 58.325 408.415 58.325H413.864C414.017 58.325 414.153 58.2571 414.254 58.1552C414 58.0704 413.745 58.0025 413.474 57.9176C413.066 57.8157 412.642 57.6799 412.217 57.5441Z" fill="#092C64"/>
<path d="M404.578 55.0487C404.578 55.4222 404.578 55.7787 404.578 56.1521C404.578 56.4577 404.816 56.6954 405.121 56.6954H405.682C405.987 56.6954 406.225 56.4577 406.225 56.1521V55.6768C406.225 55.6598 406.225 55.6429 406.225 55.6259C405.868 55.5071 405.512 55.3882 405.155 55.2694C404.969 55.1845 404.782 55.1166 404.578 55.0487Z" fill="#092C64"/>
<path d="M411.148 61.6353H411.131V61.6525H411.148V61.6353Z" fill="#092C64"/>
<path d="M422.624 61.6184C422.607 61.6184 422.607 61.6184 422.624 61.6184C422.607 61.6354 422.624 61.6184 422.624 61.6184Z" fill="#092C64"/>
<path d="M420.807 60.0396C420.349 59.9208 419.89 59.785 419.415 59.6661C419.517 59.8698 419.738 60.0226 419.975 60.0226H420.366C420.705 60.0226 420.994 60.3112 420.994 60.6507V60.9903C420.994 61.3298 421.282 61.6184 421.622 61.6184H422.623C422.623 61.2958 422.623 60.9563 422.623 60.6168C422.623 60.5828 422.623 60.5489 422.64 60.5149C422.488 60.481 422.335 60.4301 422.182 60.3961C421.707 60.2773 421.265 60.1584 420.807 60.0396Z" fill="#092C64"/>
<path d="M401.353 54.0471V54.5224C401.353 54.811 401.591 55.0486 401.879 55.0486H402.423C402.711 55.0486 402.949 54.811 402.949 54.5224V54.4715C402.423 54.2847 401.896 54.098 401.37 53.9113C401.353 53.9622 401.353 53.9961 401.353 54.0471Z" fill="#092C64"/>
<path d="M422.624 61.6184C422.624 61.6184 422.607 61.6354 422.624 61.6184C422.624 61.6354 422.624 61.6354 422.624 61.6184Z" fill="#092C64"/>
<path d="M424.202 63.2651C424.202 62.7049 424.202 62.1786 424.202 61.6184C423.659 61.6184 423.133 61.6184 422.623 61.6184C422.623 62.1616 422.606 62.7049 422.606 63.2651C423.15 63.2651 423.676 63.2651 424.202 63.2651Z" fill="#092C64"/>
<path d="M406.242 61.6353H406.225V61.6525H406.242V61.6353Z" fill="#092C64"/>
<path d="M407.872 61.6353H407.854V61.6525H407.872V61.6353Z" fill="#092C64"/>
<path d="M393.154 51.4329C393.154 51.6536 393.324 51.8234 393.544 51.8234H394.376C394.58 51.8234 394.75 51.6536 394.767 51.4499C394.223 51.2292 393.697 51.0255 393.154 50.8048V51.4329Z" fill="#092C64"/>
<path d="M434.744 57.8327C440.839 60.8375 443.351 62.7557 444.37 63.7573C442.961 63.944 439.752 63.978 432.996 62.7218C432.979 62.7218 432.945 62.7218 432.928 62.7048C432.877 62.6878 432.826 62.6878 432.775 62.6708C429.703 62.0937 426.29 61.3128 422.675 60.3791C422.59 60.3621 422.488 60.3282 422.386 60.3112C421.928 60.1924 421.486 60.0736 421.028 59.9547C420.485 59.8019 419.924 59.6492 419.364 59.4964C417.735 59.038 416.054 58.5627 414.373 58.0534C414.153 57.9855 413.949 57.9176 413.728 57.8497C413.304 57.7139 412.88 57.5951 412.455 57.4593C412.217 57.3914 411.997 57.3235 411.759 57.2386C411.335 57.1028 410.91 56.967 410.486 56.8312C410.062 56.6954 409.62 56.5596 409.196 56.4238C408.754 56.2879 408.33 56.1352 407.889 55.9994C407.702 55.9484 407.532 55.8805 407.345 55.8296C407.261 55.7956 407.159 55.7617 407.074 55.7447H406.632V55.5919C406.514 55.558 406.395 55.5071 406.276 55.4731C405.97 55.3713 405.682 55.2694 405.376 55.1675C405.105 55.0827 404.833 54.9808 404.561 54.8959C404.392 54.845 404.222 54.7771 404.052 54.7262C403.831 54.6413 403.611 54.5734 403.373 54.4885C403.22 54.4376 403.068 54.3867 402.915 54.3188C402.405 54.132 401.896 53.9623 401.387 53.7755C400.996 53.6397 400.589 53.4869 400.199 53.3511C400.029 53.2832 399.859 53.2323 399.689 53.1644C399.129 52.9607 398.586 52.757 398.026 52.5533C397.347 52.2986 396.668 52.044 395.989 51.7724C395.564 51.6026 395.14 51.4329 394.715 51.2801C394.172 51.0594 393.629 50.8557 393.103 50.635C389.249 49.0732 385.701 47.5115 382.612 45.9836C382.442 45.8988 382.272 45.8139 382.102 45.729C382.035 45.6951 381.984 45.6611 381.916 45.6441C376.246 42.8092 373.869 40.9758 372.885 40.0082C374.243 39.8384 377.213 39.7875 383.359 40.8909C383.41 40.8909 383.477 40.9079 383.528 40.9249C384.072 39.5498 384.734 38.2257 385.498 36.9695C385.447 36.9695 385.396 36.9525 385.345 36.9355C384.615 36.7997 383.902 36.6639 383.189 36.5451C379.335 35.9 376.212 35.5945 373.903 35.6624C372.579 35.6963 369.031 35.8151 368.165 38.4294C367.3 41.0437 370.067 43.2505 371.102 44.0824C372.919 45.5253 375.584 47.155 379.064 48.9374C379.879 49.3618 380.727 49.7862 381.61 50.2106C384.547 51.6366 387.857 53.0795 391.422 54.5225C391.897 54.7092 392.356 54.8959 392.831 55.0827C393.985 55.541 395.174 55.9994 396.379 56.4577C396.786 56.6105 397.211 56.7633 397.618 56.9161C397.686 56.95 397.754 56.967 397.839 57.0009C398.178 57.1367 398.535 57.2556 398.874 57.3744C400.555 57.9855 402.27 58.5967 404.018 59.1908C404.443 59.3266 404.867 59.4794 405.291 59.6152C405.512 59.6831 405.716 59.768 405.936 59.8359C406.581 60.0396 407.21 60.2603 407.855 60.464L408.975 60.8205C416.767 63.3159 424.236 65.2851 430.568 66.5583C431.757 66.796 432.911 67.0166 434.014 67.2034C437.494 67.7975 440.38 68.0861 442.604 68.0861C442.842 68.0861 443.062 68.0861 443.283 68.0691C444.607 68.0352 448.155 67.9164 449.021 65.3021C449.887 62.6878 447.12 60.481 446.084 59.6492C444.285 58.2062 441.603 56.5765 438.123 54.7941C437.274 54.3527 436.374 53.9113 435.457 53.47L434.744 57.8327Z" fill="#092C64"/>
<path d="M467.266 62.4C465.426 62.4 463.799 61.96 462.386 61.08C460.973 60.2 459.866 59 459.066 57.48C458.266 55.9333 457.866 54.16 457.866 52.16C457.866 50.16 458.266 48.3867 459.066 46.84C459.866 45.2933 460.973 44.0933 462.386 43.24C463.799 42.36 465.426 41.92 467.266 41.92C468.413 41.92 469.466 42.12 470.426 42.52C471.413 42.8933 472.226 43.4267 472.866 44.12C473.533 44.8133 473.959 45.6133 474.146 46.52V57.8C473.959 58.7067 473.533 59.5067 472.866 60.2C472.226 60.8933 471.413 61.44 470.426 61.84C469.466 62.2133 468.413 62.4 467.266 62.4ZM469.026 55.52C470.013 55.52 470.799 55.2133 471.386 54.6C471.999 53.96 472.306 53.1467 472.306 52.16C472.306 51.4933 472.173 50.92 471.906 50.44C471.639 49.9333 471.253 49.5333 470.746 49.24C470.266 48.9467 469.706 48.8 469.066 48.8C468.426 48.8 467.853 48.9467 467.346 49.24C466.866 49.5333 466.479 49.9333 466.186 50.44C465.893 50.9467 465.746 51.52 465.746 52.16C465.746 52.8 465.879 53.3733 466.146 53.88C466.439 54.3867 466.839 54.7867 467.346 55.08C467.853 55.3733 468.413 55.52 469.026 55.52ZM472.066 70.4V56.72L473.146 51.92L472.066 47.16V42.32H479.706V70.4H472.066ZM483.48 62V42.32H491.32V62H483.48ZM491.32 51.36L487.68 48.12C488.693 45.9867 489.867 44.4267 491.2 43.44C492.56 42.4267 494.253 41.92 496.28 41.92C497.187 41.92 497.96 42.0267 498.6 42.24C499.267 42.4533 499.8 42.76 500.2 43.16L495.8 49.4C495.613 49.1867 495.333 49.0133 494.96 48.88C494.613 48.72 494.2 48.64 493.72 48.64C492.92 48.64 492.32 48.88 491.92 49.36C491.52 49.8133 491.32 50.48 491.32 51.36Z" fill="#D0DFF6"/>
<path d="M521.264 62.4C520.091 62.4 518.984 62.2133 517.944 61.84C516.904 61.44 516.024 60.8933 515.304 60.2C514.584 59.5067 514.117 58.7067 513.904 57.8V46.92C514.117 46.0133 514.584 45.1867 515.304 44.44C516.024 43.6667 516.904 43.0533 517.944 42.6C518.984 42.1467 520.091 41.92 521.264 41.92C523.211 41.92 524.904 42.36 526.344 43.24C527.811 44.0933 528.944 45.2933 529.744 46.84C530.571 48.3867 530.984 50.16 530.984 52.16C530.984 54.16 530.571 55.9333 529.744 57.48C528.944 59 527.811 60.2 526.344 61.08C524.904 61.96 523.211 62.4 521.264 62.4ZM519.784 55.52C520.424 55.52 520.997 55.3733 521.504 55.08C522.011 54.7867 522.397 54.3867 522.664 53.88C522.957 53.3733 523.104 52.8 523.104 52.16C523.104 51.4933 522.957 50.92 522.664 50.44C522.397 49.9333 522.011 49.5333 521.504 49.24C521.024 48.9467 520.464 48.8 519.824 48.8C519.184 48.8 518.611 48.9467 518.104 49.24C517.624 49.5067 517.237 49.8933 516.944 50.4C516.677 50.9067 516.544 51.4933 516.544 52.16C516.544 52.8 516.677 53.3733 516.944 53.88C517.211 54.3867 517.584 54.7867 518.064 55.08C518.571 55.3733 519.144 55.52 519.784 55.52ZM509.144 70.4V42.32H516.984V47.16L515.704 51.92L516.784 56.72V70.4H509.144ZM533.558 62V32.72H541.398V62H533.558ZM553.36 62.4C551.52 62.4 549.893 61.96 548.48 61.08C547.066 60.2 545.96 59 545.16 57.48C544.36 55.9333 543.96 54.16 543.96 52.16C543.96 50.16 544.36 48.3867 545.16 46.84C545.96 45.2933 547.066 44.0933 548.48 43.24C549.893 42.36 551.52 41.92 553.36 41.92C554.506 41.92 555.56 42.12 556.52 42.52C557.506 42.8933 558.32 43.4267 558.96 44.12C559.626 44.8133 560.053 45.6133 560.24 46.52V57.8C560.053 58.7067 559.626 59.5067 558.96 60.2C558.32 60.8933 557.506 61.44 556.52 61.84C555.56 62.2133 554.506 62.4 553.36 62.4ZM555.12 55.52C556.106 55.52 556.893 55.2133 557.48 54.6C558.093 53.96 558.4 53.1467 558.4 52.16C558.4 51.4933 558.266 50.92 558 50.44C557.733 49.9333 557.346 49.5333 556.84 49.24C556.36 48.9467 555.8 48.8 555.16 48.8C554.52 48.8 553.946 48.9467 553.44 49.24C552.96 49.5333 552.573 49.9333 552.28 50.44C551.986 50.9467 551.84 51.52 551.84 52.16C551.84 52.8 551.973 53.3733 552.24 53.88C552.533 54.3867 552.933 54.7867 553.44 55.08C553.946 55.3733 554.506 55.52 555.12 55.52ZM558.16 62V56.72L559.24 51.92L558.16 47.16V42.32H565.8V62H558.16ZM582.094 62V50.96C582.094 50.1867 581.867 49.6 581.414 49.2C580.987 48.7733 580.441 48.56 579.774 48.56C579.321 48.56 578.907 48.6533 578.534 48.84C578.187 49.0267 577.907 49.3067 577.694 49.68C577.507 50.0267 577.414 50.4533 577.414 50.96L574.374 49.6C574.374 48 574.721 46.6267 575.414 45.48C576.134 44.3333 577.107 43.4533 578.334 42.84C579.587 42.2267 581.001 41.92 582.574 41.92C583.987 41.92 585.241 42.24 586.334 42.88C587.454 43.4933 588.334 44.3467 588.974 45.44C589.614 46.5067 589.934 47.7467 589.934 49.16V62H582.094ZM569.574 62V42.32H577.414V62H569.574ZM603.525 62.48C601.231 62.48 599.218 62.0533 597.485 61.2C595.751 60.32 594.391 59.1067 593.405 57.56C592.445 55.9867 591.965 54.1867 591.965 52.16C591.965 50.16 592.431 48.3867 593.365 46.84C594.325 45.2933 595.631 44.08 597.285 43.2C598.938 42.2933 600.805 41.84 602.885 41.84C604.938 41.84 606.751 42.2667 608.325 43.12C609.898 43.9467 611.125 45.1067 612.005 46.6C612.911 48.0933 613.365 49.8 613.365 51.72C613.365 52.12 613.338 52.5467 613.285 53C613.258 53.4267 613.178 53.9333 613.045 54.52L595.285 54.64V49.84L610.125 49.72L606.485 51.84C606.485 50.7733 606.351 49.9067 606.085 49.24C605.845 48.5467 605.471 48.0267 604.965 47.68C604.458 47.3333 603.818 47.16 603.045 47.16C602.245 47.16 601.551 47.36 600.965 47.76C600.378 48.16 599.925 48.7333 599.605 49.48C599.311 50.2267 599.165 51.1333 599.165 52.2C599.165 53.2933 599.325 54.2133 599.645 54.96C599.991 55.68 600.485 56.2267 601.125 56.6C601.765 56.9733 602.565 57.16 603.525 57.16C604.458 57.16 605.271 57.0133 605.965 56.72C606.685 56.4 607.338 55.9067 607.925 55.24L611.845 59.12C610.858 60.24 609.671 61.08 608.285 61.64C606.898 62.2 605.311 62.48 603.525 62.48ZM617.955 62V34.24H625.795V62H617.955ZM613.755 48.72V42.32H629.995V48.72H613.755Z" fill="#6282B2"/>
<path d="M831.5 57V45.896H833.004V57H831.5ZM838.668 57V45.896H840.172V57H838.668ZM832.524 51.944V50.568H839.036V51.944H832.524ZM846.012 57.16C845.266 57.16 844.594 56.984 843.996 56.632C843.399 56.28 842.924 55.8053 842.572 55.208C842.22 54.6 842.044 53.9227 842.044 53.176C842.044 52.44 842.22 51.7787 842.572 51.192C842.924 50.5947 843.399 50.12 843.996 49.768C844.594 49.416 845.266 49.24 846.012 49.24C846.748 49.24 847.415 49.416 848.012 49.768C848.62 50.1093 849.1 50.5787 849.452 51.176C849.804 51.7733 849.98 52.44 849.98 53.176C849.98 53.9227 849.804 54.6 849.452 55.208C849.1 55.8053 848.62 56.28 848.012 56.632C847.415 56.984 846.748 57.16 846.012 57.16ZM846.012 55.768C846.492 55.768 846.919 55.656 847.292 55.432C847.666 55.208 847.959 54.904 848.172 54.52C848.386 54.1253 848.492 53.6773 848.492 53.176C848.492 52.6853 848.38 52.248 848.156 51.864C847.943 51.48 847.65 51.1813 847.276 50.968C846.914 50.744 846.492 50.632 846.012 50.632C845.532 50.632 845.106 50.744 844.732 50.968C844.359 51.1813 844.066 51.48 843.852 51.864C843.639 52.248 843.532 52.6853 843.532 53.176C843.532 53.6773 843.639 54.1253 843.852 54.52C844.066 54.904 844.359 55.208 844.732 55.432C845.106 55.656 845.532 55.768 846.012 55.768ZM851.603 57V49.4H853.043V57H851.603ZM856.739 57V52.408C856.739 51.8427 856.563 51.4 856.211 51.08C855.87 50.7493 855.438 50.584 854.915 50.584C854.563 50.584 854.248 50.6587 853.971 50.808C853.694 50.9573 853.47 51.1653 853.299 51.432C853.128 51.6987 853.043 52.0187 853.043 52.392L852.451 52.104C852.451 51.528 852.574 51.0267 852.819 50.6C853.075 50.1733 853.422 49.8427 853.859 49.608C854.296 49.3627 854.787 49.24 855.331 49.24C855.864 49.24 856.344 49.3573 856.771 49.592C857.208 49.8267 857.55 50.1573 857.795 50.584C858.051 51.0107 858.179 51.5173 858.179 52.104V57H856.739ZM861.875 57V52.408C861.875 51.8427 861.699 51.4 861.347 51.08C861.006 50.7493 860.579 50.584 860.067 50.584C859.715 50.584 859.395 50.6587 859.107 50.808C858.83 50.9573 858.606 51.1653 858.435 51.432C858.264 51.6987 858.179 52.0187 858.179 52.392L857.363 52.104C857.395 51.5173 857.55 51.016 857.827 50.6C858.115 50.1733 858.483 49.8427 858.931 49.608C859.379 49.3627 859.87 49.24 860.403 49.24C860.958 49.24 861.454 49.3573 861.891 49.592C862.328 49.8267 862.675 50.1573 862.931 50.584C863.198 51.0107 863.331 51.5227 863.331 52.12V57H861.875ZM868.81 57.16C868.053 57.16 867.37 56.9893 866.762 56.648C866.154 56.296 865.674 55.8213 865.322 55.224C864.97 54.6267 864.794 53.9493 864.794 53.192C864.794 52.4453 864.965 51.7733 865.306 51.176C865.658 50.5787 866.128 50.1093 866.714 49.768C867.312 49.416 867.978 49.24 868.714 49.24C869.418 49.24 870.037 49.4 870.57 49.72C871.114 50.04 871.536 50.4827 871.834 51.048C872.144 51.6133 872.298 52.2533 872.298 52.968C872.298 53.0747 872.293 53.192 872.282 53.32C872.272 53.4373 872.25 53.576 872.218 53.736H865.802V52.536H871.45L870.922 53C870.922 52.488 870.832 52.056 870.65 51.704C870.469 51.3413 870.213 51.064 869.882 50.872C869.552 50.6693 869.152 50.568 868.682 50.568C868.192 50.568 867.76 50.6747 867.386 50.888C867.013 51.1013 866.725 51.4 866.522 51.784C866.32 52.168 866.218 52.6213 866.218 53.144C866.218 53.6773 866.325 54.1467 866.538 54.552C866.752 54.9467 867.056 55.256 867.45 55.48C867.845 55.6933 868.298 55.8 868.81 55.8C869.237 55.8 869.626 55.7253 869.978 55.576C870.341 55.4267 870.65 55.2027 870.906 54.904L871.834 55.848C871.472 56.2747 871.024 56.6 870.49 56.824C869.968 57.048 869.408 57.16 868.81 57.16Z" fill="#092C64"/>
<path d="M881 70H822V72H881V70Z" fill="#6282B2" mask="url(#path-25-outside-1_949_15597)"/>
<path d="M911.79 57.16C911.001 57.16 910.265 57.016 909.582 56.728C908.9 56.4293 908.302 56.0187 907.79 55.496C907.278 54.9627 906.878 54.3493 906.59 53.656C906.302 52.9627 906.158 52.2213 906.158 51.432C906.158 50.632 906.302 49.8907 906.59 49.208C906.878 48.5147 907.273 47.9067 907.774 47.384C908.286 46.8613 908.878 46.456 909.55 46.168C910.233 45.88 910.969 45.736 911.758 45.736C912.548 45.736 913.278 45.88 913.95 46.168C914.633 46.456 915.23 46.8613 915.742 47.384C916.254 47.9067 916.649 48.5147 916.926 49.208C917.214 49.9013 917.358 50.648 917.358 51.448C917.358 52.2373 917.214 52.9787 916.926 53.672C916.649 54.3653 916.254 54.9733 915.742 55.496C915.241 56.0187 914.649 56.4293 913.966 56.728C913.294 57.016 912.569 57.16 911.79 57.16ZM911.758 55.72C912.548 55.72 913.246 55.5387 913.854 55.176C914.462 54.8027 914.937 54.296 915.278 53.656C915.63 53.0053 915.806 52.264 915.806 51.432C915.806 50.8133 915.705 50.248 915.502 49.736C915.31 49.2133 915.033 48.76 914.67 48.376C914.308 47.992 913.881 47.6987 913.39 47.496C912.9 47.2827 912.356 47.176 911.758 47.176C910.969 47.176 910.27 47.3573 909.662 47.72C909.054 48.0827 908.574 48.584 908.222 49.224C907.881 49.864 907.71 50.6 907.71 51.432C907.71 52.0507 907.812 52.6267 908.014 53.16C908.217 53.6827 908.494 54.136 908.846 54.52C909.209 54.8933 909.636 55.1867 910.126 55.4C910.628 55.6133 911.172 55.72 911.758 55.72ZM917.102 57.784L911.902 52.584L912.878 51.608L918.062 56.808L917.102 57.784ZM920.804 52.168V50.904H923.812C924.463 50.904 924.964 50.7387 925.316 50.408C925.668 50.0773 925.844 49.6293 925.844 49.064C925.844 48.5307 925.668 48.088 925.316 47.736C924.975 47.384 924.479 47.208 923.828 47.208H920.804V45.896H923.876C924.58 45.896 925.194 46.0347 925.716 46.312C926.239 46.5787 926.639 46.9467 926.916 47.416C927.204 47.8853 927.348 48.424 927.348 49.032C927.348 49.6613 927.204 50.2107 926.916 50.68C926.639 51.1493 926.239 51.5173 925.716 51.784C925.194 52.04 924.58 52.168 923.876 52.168H920.804ZM919.796 57V45.896H921.3V57H919.796ZM926.196 57L922.164 52.024L923.588 51.528L928.1 57H926.196ZM938.243 57.16C937.443 57.16 936.701 57.016 936.019 56.728C935.336 56.4293 934.739 56.0187 934.227 55.496C933.725 54.9733 933.336 54.3653 933.059 53.672C932.781 52.9787 932.643 52.2373 932.643 51.448C932.643 50.648 932.781 49.9013 933.059 49.208C933.336 48.5147 933.725 47.912 934.227 47.4C934.739 46.8773 935.331 46.472 936.003 46.184C936.685 45.8853 937.427 45.736 938.227 45.736C939.101 45.736 939.869 45.8853 940.531 46.184C941.192 46.4827 941.779 46.888 942.291 47.4L941.251 48.44C940.899 48.0453 940.467 47.736 939.955 47.512C939.453 47.288 938.877 47.176 938.227 47.176C937.64 47.176 937.101 47.2827 936.611 47.496C936.12 47.6987 935.693 47.992 935.331 48.376C934.968 48.76 934.685 49.2133 934.483 49.736C934.291 50.2587 934.195 50.8293 934.195 51.448C934.195 52.0667 934.291 52.6373 934.483 53.16C934.685 53.6827 934.968 54.136 935.331 54.52C935.693 54.904 936.12 55.2027 936.611 55.416C937.101 55.6187 937.64 55.72 938.227 55.72C938.92 55.72 939.523 55.608 940.035 55.384C940.547 55.1493 940.979 54.8347 941.331 54.44L942.371 55.464C941.859 55.9973 941.256 56.4133 940.563 56.712C939.88 57.0107 939.107 57.16 938.243 57.16ZM947.169 57.16C946.422 57.16 945.75 56.984 945.153 56.632C944.555 56.28 944.081 55.8053 943.729 55.208C943.377 54.6 943.201 53.9227 943.201 53.176C943.201 52.44 943.377 51.7787 943.729 51.192C944.081 50.5947 944.555 50.12 945.153 49.768C945.75 49.416 946.422 49.24 947.169 49.24C947.905 49.24 948.571 49.416 949.169 49.768C949.777 50.1093 950.257 50.5787 950.609 51.176C950.961 51.7733 951.137 52.44 951.137 53.176C951.137 53.9227 950.961 54.6 950.609 55.208C950.257 55.8053 949.777 56.28 949.169 56.632C948.571 56.984 947.905 57.16 947.169 57.16ZM947.169 55.768C947.649 55.768 948.075 55.656 948.449 55.432C948.822 55.208 949.115 54.904 949.329 54.52C949.542 54.1253 949.649 53.6773 949.649 53.176C949.649 52.6853 949.537 52.248 949.313 51.864C949.099 51.48 948.806 51.1813 948.433 50.968C948.07 50.744 947.649 50.632 947.169 50.632C946.689 50.632 946.262 50.744 945.889 50.968C945.515 51.1813 945.222 51.48 945.009 51.864C944.795 52.248 944.689 52.6853 944.689 53.176C944.689 53.6773 944.795 54.1253 945.009 54.52C945.222 54.904 945.515 55.208 945.889 55.432C946.262 55.656 946.689 55.768 947.169 55.768ZM955.975 57.16C955.271 57.16 954.642 56.9893 954.087 56.648C953.532 56.296 953.09 55.8213 952.759 55.224C952.439 54.6267 952.279 53.9547 952.279 53.208C952.279 52.4613 952.439 51.7893 952.759 51.192C953.09 50.5947 953.532 50.12 954.087 49.768C954.642 49.416 955.271 49.24 955.975 49.24C956.54 49.24 957.052 49.3627 957.511 49.608C957.97 49.8427 958.338 50.1733 958.615 50.6C958.903 51.016 959.063 51.5013 959.095 52.056V54.344C959.063 54.888 958.908 55.3733 958.631 55.8C958.354 56.2267 957.986 56.5627 957.527 56.808C957.068 57.0427 956.551 57.16 955.975 57.16ZM956.215 55.8C956.695 55.8 957.111 55.688 957.463 55.464C957.826 55.24 958.108 54.936 958.311 54.552C958.514 54.1573 958.615 53.7093 958.615 53.208C958.615 52.6853 958.508 52.232 958.295 51.848C958.092 51.464 957.81 51.16 957.447 50.936C957.095 50.712 956.679 50.6 956.199 50.6C955.719 50.6 955.298 50.712 954.935 50.936C954.572 51.16 954.284 51.4693 954.071 51.864C953.868 52.248 953.767 52.6907 953.767 53.192C953.767 53.704 953.868 54.1573 954.071 54.552C954.284 54.936 954.572 55.24 954.935 55.464C955.308 55.688 955.735 55.8 956.215 55.8ZM959.975 57H958.519V54.952L958.791 53.096L958.519 51.256V45.576H959.975V57ZM965.592 57.16C964.834 57.16 964.152 56.9893 963.544 56.648C962.936 56.296 962.456 55.8213 962.104 55.224C961.752 54.6267 961.576 53.9493 961.576 53.192C961.576 52.4453 961.746 51.7733 962.088 51.176C962.44 50.5787 962.909 50.1093 963.496 49.768C964.093 49.416 964.76 49.24 965.496 49.24C966.2 49.24 966.818 49.4 967.352 49.72C967.896 50.04 968.317 50.4827 968.616 51.048C968.925 51.6133 969.08 52.2533 969.08 52.968C969.08 53.0747 969.074 53.192 969.064 53.32C969.053 53.4373 969.032 53.576 969 53.736H962.584V52.536H968.232L967.704 53C967.704 52.488 967.613 52.056 967.432 51.704C967.25 51.3413 966.994 51.064 966.664 50.872C966.333 50.6693 965.933 50.568 965.464 50.568C964.973 50.568 964.541 50.6747 964.168 50.888C963.794 51.1013 963.506 51.4 963.304 51.784C963.101 52.168 963 52.6213 963 53.144C963 53.6773 963.106 54.1467 963.32 54.552C963.533 54.9467 963.837 55.256 964.232 55.48C964.626 55.6933 965.08 55.8 965.592 55.8C966.018 55.8 966.408 55.7253 966.76 55.576C967.122 55.4267 967.432 55.2027 967.688 54.904L968.616 55.848C968.253 56.2747 967.805 56.6 967.272 56.824C966.749 57.048 966.189 57.16 965.592 57.16Z" fill="#082553"/>
<path d="M1006.22 57L1002.59 45.896H1004.09L1006.97 54.952H1006.54L1009.37 45.896H1010.46L1013.29 54.952H1012.88L1015.76 45.896H1017.25L1013.63 57H1012.56L1009.71 47.96H1010.13L1007.29 57H1006.22ZM1024.21 57V52.568C1024.21 51.992 1024.03 51.5173 1023.67 51.144C1023.31 50.7707 1022.84 50.584 1022.26 50.584C1021.88 50.584 1021.54 50.6693 1021.24 50.84C1020.94 51.0107 1020.7 51.2453 1020.53 51.544C1020.36 51.8427 1020.28 52.184 1020.28 52.568L1019.69 52.232C1019.69 51.656 1019.81 51.144 1020.07 50.696C1020.33 50.248 1020.68 49.896 1021.14 49.64C1021.6 49.3733 1022.12 49.24 1022.69 49.24C1023.27 49.24 1023.78 49.368 1024.21 49.624C1024.66 49.88 1025.01 50.2373 1025.27 50.696C1025.53 51.1547 1025.65 51.6827 1025.65 52.28V57H1024.21ZM1018.84 57V45.576H1020.28V57H1018.84ZM1030.1 57.064L1026.8 49.4H1028.4L1030.85 55.4H1030.34L1032.91 49.4H1034.51L1030.96 57.064H1030.1ZM1027.92 60.184L1030.16 55.592L1030.96 57.064L1029.52 60.184H1027.92ZM1043.57 57.16C1042.74 57.16 1042.01 56.9787 1041.36 56.616C1040.72 56.2427 1040.21 55.736 1039.84 55.096C1039.46 54.4453 1039.28 53.7093 1039.28 52.888V45.896H1040.78V52.856C1040.78 53.4427 1040.9 53.9493 1041.15 54.376C1041.4 54.8027 1041.73 55.1333 1042.14 55.368C1042.57 55.6027 1043.04 55.72 1043.57 55.72C1044.11 55.72 1044.58 55.6027 1044.99 55.368C1045.41 55.1333 1045.73 54.8027 1045.97 54.376C1046.21 53.9493 1046.33 53.448 1046.33 52.872V45.896H1047.85V52.904C1047.85 53.7253 1047.67 54.456 1047.29 55.096C1046.92 55.736 1046.41 56.2427 1045.77 56.616C1045.13 56.9787 1044.4 57.16 1043.57 57.16ZM1052.49 57.16C1052.06 57.16 1051.66 57.1067 1051.27 57C1050.9 56.8827 1050.55 56.7227 1050.23 56.52C1049.91 56.3067 1049.63 56.056 1049.4 55.768L1050.33 54.84C1050.6 55.1813 1050.92 55.4373 1051.29 55.608C1051.65 55.768 1052.06 55.848 1052.5 55.848C1052.95 55.848 1053.3 55.7733 1053.54 55.624C1053.79 55.464 1053.91 55.2453 1053.91 54.968C1053.91 54.6907 1053.81 54.4773 1053.61 54.328C1053.42 54.168 1053.16 54.04 1052.86 53.944C1052.55 53.8373 1052.22 53.736 1051.86 53.64C1051.52 53.5333 1051.2 53.4 1050.89 53.24C1050.58 53.08 1050.32 52.8613 1050.12 52.584C1049.93 52.3067 1049.83 51.9387 1049.83 51.48C1049.83 51.0213 1049.94 50.6267 1050.17 50.296C1050.39 49.9547 1050.7 49.6933 1051.1 49.512C1051.5 49.3307 1051.99 49.24 1052.55 49.24C1053.15 49.24 1053.68 49.3467 1054.14 49.56C1054.6 49.7627 1054.99 50.072 1055.29 50.488L1054.36 51.416C1054.15 51.1387 1053.88 50.9253 1053.56 50.776C1053.25 50.6267 1052.9 50.552 1052.5 50.552C1052.09 50.552 1051.77 50.6267 1051.54 50.776C1051.33 50.9147 1051.22 51.112 1051.22 51.368C1051.22 51.624 1051.32 51.8213 1051.51 51.96C1051.7 52.0987 1051.95 52.216 1052.26 52.312C1052.58 52.408 1052.91 52.5093 1053.26 52.616C1053.6 52.712 1053.92 52.8453 1054.23 53.016C1054.54 53.1867 1054.79 53.416 1054.98 53.704C1055.19 53.992 1055.29 54.3707 1055.29 54.84C1055.29 55.5547 1055.03 56.12 1054.52 56.536C1054.02 56.952 1053.34 57.16 1052.49 57.16ZM1059.35 53.48L1059.33 50.44L1059.76 50.424C1060.14 50.424 1060.46 50.344 1060.74 50.184C1061.03 50.024 1061.25 49.8053 1061.41 49.528C1061.57 49.2507 1061.65 48.9413 1061.65 48.6C1061.65 48.248 1061.57 47.9387 1061.41 47.672C1061.26 47.4053 1061.04 47.1973 1060.76 47.048C1060.48 46.8987 1060.15 46.824 1059.76 46.824C1059.25 46.824 1058.81 46.952 1058.44 47.208C1058.06 47.464 1057.76 47.8267 1057.54 48.296L1056.48 47.416C1056.79 46.7867 1057.24 46.296 1057.81 45.944C1058.4 45.592 1059.07 45.416 1059.83 45.416C1060.48 45.416 1061.05 45.5493 1061.56 45.816C1062.06 46.072 1062.45 46.4347 1062.72 46.904C1063 47.3627 1063.14 47.896 1063.14 48.504C1063.14 49.0587 1063.01 49.5653 1062.76 50.024C1062.51 50.472 1062.16 50.8453 1061.7 51.144C1061.25 51.432 1060.72 51.6187 1060.1 51.704L1060.72 51.064L1060.6 53.48H1059.35ZM1059.96 57.16C1059.66 57.16 1059.41 57.0587 1059.2 56.856C1059.01 56.6533 1058.92 56.4027 1058.92 56.104C1058.92 55.8053 1059.01 55.56 1059.2 55.368C1059.41 55.1653 1059.66 55.064 1059.96 55.064C1060.25 55.064 1060.5 55.1653 1060.69 55.368C1060.89 55.56 1061 55.8053 1061 56.104C1061 56.4027 1060.89 56.6533 1060.69 56.856C1060.5 57.0587 1060.25 57.16 1059.96 57.16Z" fill="#082553"/>
<path d="M1096.64 57L1101.18 45.896H1102.27L1106.8 57H1105.16L1101.44 47.608H1102L1098.24 57H1096.64ZM1098.8 54.488V53.176H1104.64V54.488H1098.8ZM1109.48 52.68V51.368H1112.5C1112.92 51.368 1113.28 51.2827 1113.6 51.112C1113.93 50.9413 1114.19 50.7013 1114.37 50.392C1114.56 50.0827 1114.66 49.7147 1114.66 49.288C1114.66 48.8613 1114.56 48.4933 1114.37 48.184C1114.19 47.8747 1113.93 47.6347 1113.6 47.464C1113.28 47.2933 1112.92 47.208 1112.5 47.208H1109.48V45.896H1112.6C1113.28 45.896 1113.89 46.0347 1114.42 46.312C1114.96 46.5893 1115.39 46.984 1115.7 47.496C1116.02 47.9973 1116.18 48.5947 1116.18 49.288C1116.18 49.9707 1116.02 50.568 1115.7 51.08C1115.39 51.5813 1114.96 51.976 1114.42 52.264C1113.89 52.5413 1113.28 52.68 1112.6 52.68H1109.48ZM1108.47 57V45.896H1109.97V57H1108.47ZM1118.05 57V45.896H1119.55V57H1118.05Z" fill="#082553"/>
<path d="M1159.81 57.16C1159.01 57.16 1158.27 57.016 1157.59 56.728C1156.91 56.4293 1156.31 56.0187 1155.8 55.496C1155.3 54.9733 1154.91 54.3653 1154.63 53.672C1154.35 52.9787 1154.21 52.2373 1154.21 51.448C1154.21 50.648 1154.35 49.9013 1154.63 49.208C1154.91 48.5147 1155.3 47.912 1155.8 47.4C1156.31 46.8773 1156.9 46.472 1157.57 46.184C1158.26 45.8853 1159 45.736 1159.8 45.736C1160.67 45.736 1161.44 45.8853 1162.1 46.184C1162.76 46.4827 1163.35 46.888 1163.86 47.4L1162.82 48.44C1162.47 48.0453 1162.04 47.736 1161.52 47.512C1161.02 47.288 1160.45 47.176 1159.8 47.176C1159.21 47.176 1158.67 47.2827 1158.18 47.496C1157.69 47.6987 1157.26 47.992 1156.9 48.376C1156.54 48.76 1156.26 49.2133 1156.05 49.736C1155.86 50.2587 1155.76 50.8293 1155.76 51.448C1155.76 52.0667 1155.86 52.6373 1156.05 53.16C1156.26 53.6827 1156.54 54.136 1156.9 54.52C1157.26 54.904 1157.69 55.2027 1158.18 55.416C1158.67 55.6187 1159.21 55.72 1159.8 55.72C1160.49 55.72 1161.09 55.608 1161.6 55.384C1162.12 55.1493 1162.55 54.8347 1162.9 54.44L1163.94 55.464C1163.43 55.9973 1162.83 56.4133 1162.13 56.712C1161.45 57.0107 1160.68 57.16 1159.81 57.16ZM1168.74 57.16C1167.99 57.16 1167.32 56.984 1166.72 56.632C1166.13 56.28 1165.65 55.8053 1165.3 55.208C1164.95 54.6 1164.77 53.9227 1164.77 53.176C1164.77 52.44 1164.95 51.7787 1165.3 51.192C1165.65 50.5947 1166.13 50.12 1166.72 49.768C1167.32 49.416 1167.99 49.24 1168.74 49.24C1169.47 49.24 1170.14 49.416 1170.74 49.768C1171.35 50.1093 1171.83 50.5787 1172.18 51.176C1172.53 51.7733 1172.71 52.44 1172.71 53.176C1172.71 53.9227 1172.53 54.6 1172.18 55.208C1171.83 55.8053 1171.35 56.28 1170.74 56.632C1170.14 56.984 1169.47 57.16 1168.74 57.16ZM1168.74 55.768C1169.22 55.768 1169.65 55.656 1170.02 55.432C1170.39 55.208 1170.69 54.904 1170.9 54.52C1171.11 54.1253 1171.22 53.6773 1171.22 53.176C1171.22 52.6853 1171.11 52.248 1170.88 51.864C1170.67 51.48 1170.38 51.1813 1170 50.968C1169.64 50.744 1169.22 50.632 1168.74 50.632C1168.26 50.632 1167.83 50.744 1167.46 50.968C1167.09 51.1813 1166.79 51.48 1166.58 51.864C1166.37 52.248 1166.26 52.6853 1166.26 53.176C1166.26 53.6773 1166.37 54.1253 1166.58 54.52C1166.79 54.904 1167.09 55.208 1167.46 55.432C1167.83 55.656 1168.26 55.768 1168.74 55.768ZM1179.71 57V52.568C1179.71 51.992 1179.52 51.5173 1179.16 51.144C1178.8 50.7707 1178.33 50.584 1177.75 50.584C1177.37 50.584 1177.03 50.6693 1176.73 50.84C1176.43 51.0107 1176.2 51.2453 1176.03 51.544C1175.85 51.8427 1175.77 52.184 1175.77 52.568L1175.18 52.232C1175.18 51.656 1175.31 51.144 1175.56 50.696C1175.82 50.248 1176.17 49.896 1176.63 49.64C1177.09 49.3733 1177.61 49.24 1178.19 49.24C1178.76 49.24 1179.27 49.384 1179.71 49.672C1180.15 49.96 1180.51 50.3387 1180.76 50.808C1181.02 51.2667 1181.15 51.7573 1181.15 52.28V57H1179.71ZM1174.33 57V49.4H1175.77V57H1174.33ZM1184.17 57V46.216H1185.61V57H1184.17ZM1182.3 50.712V49.4H1187.48V50.712H1182.3ZM1191.89 57.16C1191.2 57.16 1190.57 56.9893 1190 56.648C1189.44 56.296 1188.99 55.8213 1188.66 55.224C1188.34 54.6267 1188.18 53.9547 1188.18 53.208C1188.18 52.4613 1188.34 51.7893 1188.66 51.192C1188.99 50.5947 1189.43 50.12 1189.99 49.768C1190.55 49.416 1191.19 49.24 1191.89 49.24C1192.47 49.24 1192.98 49.3627 1193.43 49.608C1193.88 49.8427 1194.25 50.1733 1194.53 50.6C1194.81 51.016 1194.96 51.5013 1194.99 52.056V54.344C1194.96 54.888 1194.81 55.3733 1194.53 55.8C1194.26 56.2267 1193.9 56.5627 1193.44 56.808C1192.99 57.0427 1192.48 57.16 1191.89 57.16ZM1192.13 55.8C1192.84 55.8 1193.42 55.56 1193.86 55.08C1194.29 54.5893 1194.51 53.9653 1194.51 53.208C1194.51 52.6853 1194.41 52.232 1194.21 51.848C1194.02 51.4533 1193.74 51.1493 1193.38 50.936C1193.01 50.712 1192.59 50.6 1192.11 50.6C1191.63 50.6 1191.21 50.712 1190.83 50.936C1190.47 51.16 1190.18 51.4693 1189.97 51.864C1189.77 52.248 1189.67 52.6907 1189.67 53.192C1189.67 53.704 1189.77 54.1573 1189.97 54.552C1190.18 54.936 1190.48 55.24 1190.85 55.464C1191.22 55.688 1191.65 55.8 1192.13 55.8ZM1194.42 57V54.952L1194.69 53.096L1194.42 51.256V49.4H1195.87V57H1194.42ZM1201.44 57.16C1200.7 57.16 1200.02 56.984 1199.41 56.632C1198.81 56.28 1198.34 55.8053 1197.99 55.208C1197.64 54.6 1197.47 53.928 1197.47 53.192C1197.47 52.4453 1197.64 51.7733 1197.99 51.176C1198.34 50.5787 1198.81 50.1093 1199.41 49.768C1200.02 49.416 1200.7 49.24 1201.44 49.24C1202.03 49.24 1202.57 49.352 1203.07 49.576C1203.58 49.7893 1204.01 50.104 1204.37 50.52L1203.41 51.48C1203.18 51.2027 1202.89 50.9947 1202.55 50.856C1202.22 50.7067 1201.85 50.632 1201.44 50.632C1200.96 50.632 1200.54 50.744 1200.16 50.968C1199.79 51.1813 1199.5 51.48 1199.28 51.864C1199.07 52.248 1198.96 52.6907 1198.96 53.192C1198.96 53.6933 1199.07 54.136 1199.28 54.52C1199.5 54.904 1199.79 55.208 1200.16 55.432C1200.54 55.656 1200.96 55.768 1201.44 55.768C1201.85 55.768 1202.22 55.6987 1202.55 55.56C1202.89 55.4107 1203.18 55.1973 1203.43 54.92L1204.37 55.88C1204.02 56.2853 1203.59 56.6 1203.07 56.824C1202.57 57.048 1202.03 57.16 1201.44 57.16ZM1206.87 57V46.216H1208.31V57H1206.87ZM1205 50.712V49.4H1210.18V50.712H1205Z" fill="#082553"/>
<rect x="1290.5" y="30.5" width="106" height="41" rx="8.5" fill="#FCFFFF"/>
<path d="M1324.15 57V45.752H1326.33V57H1324.15ZM1325.75 57V55.064H1331.48V57H1325.75ZM1336.25 57.16C1335.47 57.16 1334.76 56.984 1334.14 56.632C1333.52 56.2693 1333.02 55.784 1332.65 55.176C1332.28 54.5573 1332.1 53.8693 1332.1 53.112C1332.1 52.3547 1332.28 51.6773 1332.65 51.08C1333.01 50.472 1333.51 49.992 1334.14 49.64C1334.76 49.2773 1335.46 49.096 1336.23 49.096C1337.02 49.096 1337.72 49.2773 1338.34 49.64C1338.97 49.992 1339.47 50.472 1339.83 51.08C1340.19 51.6773 1340.38 52.3547 1340.38 53.112C1340.38 53.8693 1340.19 54.5573 1339.83 55.176C1339.47 55.784 1338.97 56.2693 1338.34 56.632C1337.72 56.984 1337.03 57.16 1336.25 57.16ZM1336.23 55.208C1336.63 55.208 1336.97 55.1227 1337.27 54.952C1337.58 54.7707 1337.82 54.5253 1337.98 54.216C1338.15 53.896 1338.23 53.5333 1338.23 53.128C1338.23 52.7227 1338.15 52.3653 1337.98 52.056C1337.8 51.7467 1337.57 51.5067 1337.27 51.336C1336.97 51.1547 1336.63 51.064 1336.23 51.064C1335.85 51.064 1335.51 51.1547 1335.21 51.336C1334.91 51.5067 1334.67 51.7467 1334.5 52.056C1334.33 52.3653 1334.25 52.7227 1334.25 53.128C1334.25 53.5333 1334.33 53.896 1334.5 54.216C1334.67 54.5253 1334.91 54.7707 1335.21 54.952C1335.51 55.1227 1335.85 55.208 1336.23 55.208ZM1344.96 60.424C1344.14 60.424 1343.41 60.2747 1342.78 59.976C1342.15 59.688 1341.65 59.2773 1341.28 58.744L1342.6 57.416C1342.9 57.768 1343.23 58.0347 1343.6 58.216C1343.97 58.408 1344.42 58.504 1344.94 58.504C1345.59 58.504 1346.1 58.3387 1346.48 58.008C1346.86 57.6773 1347.05 57.2187 1347.05 56.632V54.696L1347.4 53L1347.07 51.304V49.272H1349.15V56.6C1349.15 57.368 1348.97 58.0347 1348.6 58.6C1348.25 59.176 1347.76 59.624 1347.13 59.944C1346.5 60.264 1345.78 60.424 1344.96 60.424ZM1344.86 56.792C1344.17 56.792 1343.54 56.6267 1342.99 56.296C1342.43 55.9547 1342 55.4907 1341.68 54.904C1341.37 54.3173 1341.21 53.6613 1341.21 52.936C1341.21 52.2107 1341.37 51.56 1341.68 50.984C1342 50.408 1342.43 49.9547 1342.99 49.624C1343.54 49.2827 1344.17 49.112 1344.86 49.112C1345.44 49.112 1345.94 49.224 1346.38 49.448C1346.83 49.672 1347.18 49.9813 1347.44 50.376C1347.69 50.76 1347.83 51.2133 1347.85 51.736V54.168C1347.83 54.68 1347.69 55.1387 1347.42 55.544C1347.16 55.9387 1346.81 56.248 1346.36 56.472C1345.93 56.6853 1345.43 56.792 1344.86 56.792ZM1345.28 54.888C1345.66 54.888 1345.99 54.808 1346.27 54.648C1346.56 54.4773 1346.78 54.248 1346.94 53.96C1347.1 53.6613 1347.18 53.3253 1347.18 52.952C1347.18 52.568 1347.1 52.232 1346.94 51.944C1346.78 51.656 1346.56 51.432 1346.27 51.272C1345.99 51.1013 1345.66 51.016 1345.28 51.016C1344.89 51.016 1344.56 51.1013 1344.27 51.272C1343.98 51.432 1343.76 51.6613 1343.6 51.96C1343.44 52.248 1343.36 52.5787 1343.36 52.952C1343.36 53.3147 1343.44 53.6453 1343.6 53.944C1343.76 54.232 1343.98 54.4613 1344.27 54.632C1344.56 54.8027 1344.89 54.888 1345.28 54.888ZM1350.99 57V49.272H1353.1V57H1350.99ZM1352.05 48.024C1351.71 48.024 1351.42 47.912 1351.2 47.688C1350.97 47.4533 1350.86 47.1653 1350.86 46.824C1350.86 46.4933 1350.97 46.2107 1351.2 45.976C1351.42 45.7413 1351.71 45.624 1352.05 45.624C1352.4 45.624 1352.68 45.7413 1352.89 45.976C1353.12 46.2107 1353.23 46.4933 1353.23 46.824C1353.23 47.1653 1353.12 47.4533 1352.89 47.688C1352.68 47.912 1352.4 48.024 1352.05 48.024ZM1360.16 57V52.568C1360.16 52.1093 1360.02 51.736 1359.73 51.448C1359.44 51.16 1359.07 51.016 1358.61 51.016C1358.31 51.016 1358.04 51.08 1357.81 51.208C1357.57 51.336 1357.39 51.5173 1357.25 51.752C1357.12 51.9867 1357.06 52.2587 1357.06 52.568L1356.24 52.152C1356.24 51.544 1356.37 51.016 1356.62 50.568C1356.89 50.1093 1357.25 49.752 1357.71 49.496C1358.18 49.24 1358.71 49.112 1359.3 49.112C1359.86 49.112 1360.37 49.256 1360.82 49.544C1361.26 49.8213 1361.62 50.1893 1361.87 50.648C1362.13 51.096 1362.26 51.5813 1362.26 52.104V57H1360.16ZM1354.96 57V49.272H1357.06V57H1354.96Z" fill="#4F5155"/>
<rect x="1290.5" y="30.5" width="106" height="41" rx="8.5" stroke="#4F5155"/>
<rect x="1412" y="31" width="148" height="40" rx="8" fill="#092C64"/>
<path d="M1450.35 57.16C1449.55 57.16 1448.8 57.016 1448.1 56.728C1447.4 56.4293 1446.79 56.0133 1446.26 55.48C1445.73 54.9467 1445.32 54.3333 1445.02 53.64C1444.74 52.936 1444.59 52.1787 1444.59 51.368C1444.59 50.5467 1444.74 49.7893 1445.04 49.096C1445.34 48.392 1445.75 47.7787 1446.29 47.256C1446.82 46.7227 1447.45 46.312 1448.16 46.024C1448.87 45.7253 1449.65 45.576 1450.48 45.576C1451.41 45.576 1452.26 45.752 1453.04 46.104C1453.82 46.4453 1454.46 46.9307 1454.98 47.56L1453.5 49.032C1453.15 48.5733 1452.71 48.2213 1452.19 47.976C1451.67 47.7307 1451.09 47.608 1450.46 47.608C1449.75 47.608 1449.11 47.768 1448.56 48.088C1448.02 48.3973 1447.59 48.8347 1447.28 49.4C1446.97 49.9547 1446.82 50.6053 1446.82 51.352C1446.82 52.0987 1446.97 52.76 1447.26 53.336C1447.57 53.9013 1447.99 54.344 1448.51 54.664C1449.05 54.984 1449.65 55.144 1450.34 55.144C1451.04 55.144 1451.64 55.016 1452.14 54.76C1452.65 54.4933 1453.03 54.1093 1453.3 53.608C1453.56 53.096 1453.7 52.472 1453.7 51.736L1455.12 52.712L1450.21 52.664V50.776H1455.94V51.08C1455.94 52.424 1455.7 53.5493 1455.22 54.456C1454.74 55.352 1454.07 56.0293 1453.23 56.488C1452.4 56.936 1451.44 57.16 1450.35 57.16ZM1461.08 57.16C1460.27 57.16 1459.55 56.9893 1458.92 56.648C1458.29 56.296 1457.79 55.816 1457.41 55.208C1457.05 54.6 1456.87 53.9067 1456.87 53.128C1456.87 52.36 1457.05 51.6773 1457.4 51.08C1457.76 50.472 1458.25 49.992 1458.87 49.64C1459.49 49.2773 1460.18 49.096 1460.93 49.096C1461.68 49.096 1462.34 49.2667 1462.9 49.608C1463.48 49.9387 1463.93 50.3973 1464.25 50.984C1464.58 51.56 1464.74 52.216 1464.74 52.952C1464.74 53.0907 1464.73 53.2347 1464.71 53.384C1464.7 53.5227 1464.67 53.6827 1464.63 53.864L1458.13 53.88V52.312L1463.65 52.296L1462.81 52.952C1462.78 52.4933 1462.7 52.1093 1462.55 51.8C1462.41 51.4907 1462.2 51.256 1461.93 51.096C1461.66 50.9253 1461.33 50.84 1460.93 50.84C1460.52 50.84 1460.15 50.936 1459.85 51.128C1459.54 51.3093 1459.3 51.5707 1459.13 51.912C1458.97 52.2427 1458.89 52.6373 1458.89 53.096C1458.89 53.5653 1458.97 53.976 1459.14 54.328C1459.32 54.6693 1459.58 54.936 1459.91 55.128C1460.24 55.3093 1460.62 55.4 1461.06 55.4C1461.46 55.4 1461.81 55.336 1462.13 55.208C1462.45 55.0693 1462.73 54.8667 1462.97 54.6L1464.2 55.832C1463.82 56.2693 1463.37 56.6 1462.82 56.824C1462.29 57.048 1461.71 57.16 1461.08 57.16ZM1466.99 57V46.056H1469.08V57H1466.99ZM1465.18 51.112V49.272H1470.89V51.112H1465.18ZM1477.85 57.176C1477.41 57.176 1476.98 57.1173 1476.55 57C1476.14 56.8827 1475.75 56.7227 1475.4 56.52C1475.05 56.3067 1474.75 56.0507 1474.49 55.752L1475.74 54.488C1476 54.7867 1476.31 55.0107 1476.67 55.16C1477.02 55.3093 1477.41 55.384 1477.83 55.384C1478.17 55.384 1478.43 55.336 1478.6 55.24C1478.78 55.144 1478.87 55 1478.87 54.808C1478.87 54.5947 1478.78 54.4293 1478.59 54.312C1478.4 54.1947 1478.16 54.0987 1477.87 54.024C1477.57 53.9387 1477.25 53.848 1476.92 53.752C1476.6 53.6453 1476.29 53.512 1475.99 53.352C1475.69 53.1813 1475.45 52.952 1475.26 52.664C1475.08 52.3653 1474.99 51.9813 1474.99 51.512C1474.99 51.0213 1475.1 50.5947 1475.34 50.232C1475.58 49.8693 1475.93 49.5867 1476.38 49.384C1476.83 49.1813 1477.35 49.08 1477.96 49.08C1478.6 49.08 1479.18 49.192 1479.69 49.416C1480.21 49.64 1480.64 49.976 1480.99 50.424L1479.72 51.688C1479.49 51.4 1479.22 51.192 1478.92 51.064C1478.63 50.936 1478.32 50.872 1477.98 50.872C1477.67 50.872 1477.43 50.92 1477.26 51.016C1477.1 51.112 1477.02 51.2453 1477.02 51.416C1477.02 51.608 1477.11 51.7573 1477.29 51.864C1477.48 51.9707 1477.73 52.0667 1478.03 52.152C1478.32 52.2267 1478.63 52.3173 1478.95 52.424C1479.28 52.52 1479.59 52.6587 1479.88 52.84C1480.18 53.0213 1480.42 53.2613 1480.6 53.56C1480.79 53.8587 1480.89 54.2427 1480.89 54.712C1480.89 55.4693 1480.62 56.072 1480.07 56.52C1479.53 56.9573 1478.79 57.176 1477.85 57.176ZM1483.44 57V46.056H1485.54V57H1483.44ZM1481.63 51.112V49.272H1487.34V51.112H1481.63ZM1491.57 57.16C1490.86 57.16 1490.23 56.984 1489.66 56.632C1489.1 56.28 1488.65 55.8 1488.33 55.192C1488.01 54.584 1487.85 53.9013 1487.85 53.144C1487.85 52.376 1488.01 51.688 1488.33 51.08C1488.65 50.472 1489.1 49.992 1489.66 49.64C1490.23 49.288 1490.86 49.112 1491.57 49.112C1492.12 49.112 1492.62 49.224 1493.05 49.448C1493.49 49.672 1493.84 49.9867 1494.09 50.392C1494.36 50.7867 1494.5 51.2347 1494.53 51.736V54.52C1494.5 55.032 1494.36 55.4853 1494.09 55.88C1493.84 56.2747 1493.49 56.5893 1493.05 56.824C1492.62 57.048 1492.12 57.16 1491.57 57.16ZM1491.95 55.224C1492.54 55.224 1493.01 55.032 1493.37 54.648C1493.74 54.2533 1493.92 53.7467 1493.92 53.128C1493.92 52.7227 1493.83 52.3653 1493.66 52.056C1493.5 51.736 1493.27 51.4907 1492.97 51.32C1492.69 51.1387 1492.34 51.048 1491.95 51.048C1491.57 51.048 1491.22 51.1387 1490.93 51.32C1490.64 51.4907 1490.41 51.736 1490.24 52.056C1490.08 52.3653 1490 52.7227 1490 53.128C1490 53.544 1490.08 53.912 1490.24 54.232C1490.41 54.5413 1490.64 54.7867 1490.93 54.968C1491.22 55.1387 1491.57 55.224 1491.95 55.224ZM1493.81 57V54.92L1494.14 53.032L1493.81 51.176V49.272H1495.89V57H1493.81ZM1497.74 57V49.272H1499.84V57H1497.74ZM1499.84 52.728L1499.02 52.184C1499.12 51.2347 1499.39 50.488 1499.85 49.944C1500.31 49.3893 1500.97 49.112 1501.84 49.112C1502.21 49.112 1502.55 49.176 1502.84 49.304C1503.14 49.4213 1503.42 49.6187 1503.66 49.896L1502.35 51.4C1502.23 51.272 1502.09 51.176 1501.92 51.112C1501.76 51.048 1501.57 51.016 1501.36 51.016C1500.91 51.016 1500.54 51.16 1500.25 51.448C1499.98 51.7253 1499.84 52.152 1499.84 52.728ZM1505.58 57V46.056H1507.68V57H1505.58ZM1503.77 51.112V49.272H1509.48V51.112H1503.77ZM1514.17 57.16C1513.36 57.16 1512.64 56.9893 1512.01 56.648C1511.38 56.296 1510.88 55.816 1510.51 55.208C1510.14 54.6 1509.96 53.9067 1509.96 53.128C1509.96 52.36 1510.14 51.6773 1510.49 51.08C1510.85 50.472 1511.34 49.992 1511.96 49.64C1512.58 49.2773 1513.27 49.096 1514.03 49.096C1514.77 49.096 1515.43 49.2667 1515.99 49.608C1516.57 49.9387 1517.02 50.3973 1517.34 50.984C1517.67 51.56 1517.83 52.216 1517.83 52.952C1517.83 53.0907 1517.82 53.2347 1517.8 53.384C1517.79 53.5227 1517.77 53.6827 1517.72 53.864L1511.23 53.88V52.312L1516.75 52.296L1515.9 52.952C1515.88 52.4933 1515.79 52.1093 1515.64 51.8C1515.5 51.4907 1515.3 51.256 1515.02 51.096C1514.75 50.9253 1514.42 50.84 1514.03 50.84C1513.61 50.84 1513.25 50.936 1512.94 51.128C1512.63 51.3093 1512.39 51.5707 1512.22 51.912C1512.06 52.2427 1511.98 52.6373 1511.98 53.096C1511.98 53.5653 1512.06 53.976 1512.23 54.328C1512.42 54.6693 1512.67 54.936 1513 55.128C1513.33 55.3093 1513.72 55.4 1514.15 55.4C1514.55 55.4 1514.91 55.336 1515.23 55.208C1515.55 55.0693 1515.82 54.8667 1516.06 54.6L1517.29 55.832C1516.92 56.2693 1516.46 56.6 1515.91 56.824C1515.38 57.048 1514.8 57.16 1514.17 57.16ZM1522.4 57.16C1521.68 57.16 1521.04 56.984 1520.48 56.632C1519.91 56.28 1519.46 55.8 1519.13 55.192C1518.81 54.584 1518.65 53.9013 1518.65 53.144C1518.65 52.376 1518.81 51.688 1519.13 51.08C1519.46 50.472 1519.9 49.992 1520.46 49.64C1521.02 49.288 1521.67 49.112 1522.4 49.112C1522.95 49.112 1523.45 49.224 1523.88 49.448C1524.33 49.672 1524.69 49.9867 1524.96 50.392C1525.23 50.7867 1525.38 51.2347 1525.4 51.736V54.488C1525.38 54.9893 1525.24 55.4427 1524.97 55.848C1524.7 56.2533 1524.35 56.5733 1523.9 56.808C1523.45 57.0427 1522.95 57.16 1522.4 57.16ZM1522.75 55.224C1523.14 55.224 1523.48 55.1387 1523.77 54.968C1524.07 54.7867 1524.3 54.5413 1524.46 54.232C1524.63 53.912 1524.72 53.544 1524.72 53.128C1524.72 52.7227 1524.63 52.3653 1524.46 52.056C1524.3 51.736 1524.07 51.4907 1523.77 51.32C1523.48 51.1387 1523.15 51.048 1522.76 51.048C1522.37 51.048 1522.02 51.1387 1521.72 51.32C1521.44 51.5013 1521.21 51.7467 1521.04 52.056C1520.88 52.3653 1520.8 52.7227 1520.8 53.128C1520.8 53.544 1520.88 53.912 1521.04 54.232C1521.21 54.5413 1521.44 54.7867 1521.74 54.968C1522.04 55.1387 1522.37 55.224 1522.75 55.224ZM1526.68 57H1524.6V54.92L1524.94 53.032L1524.59 51.176V45.432H1526.68V57Z" fill="#FCFFFF"/>
</g>
<defs>
<filter id="filter0_d_949_15597" x="-2" y="0" width="1924" height="106" filterUnits="userSpaceOnUse" color-interpolation-filters="sRGB">
<feFlood flood-opacity="0" result="BackgroundImageFix"/>
<feColorMatrix in="SourceAlpha" type="matrix" values="0 0 0 0 0 0 0 0 0 0 0 0 0 0 0 0 0 0 127 0" result="hardAlpha"/>
<feOffset dy="2"/>
<feGaussianBlur stdDeviation="1"/>
<feComposite in2="hardAlpha" operator="out"/>
<feColorMatrix type="matrix" values="0 0 0 0 0 0 0 0 0 0 0 0 0 0 0 0 0 0 0.25 0"/>
<feBlend mode="normal" in2="BackgroundImageFix" result="effect1_dropShadow_949_15597"/>
<feBlend mode="normal" in="SourceGraphic" in2="effect1_dropShadow_949_15597" result="shape"/>
</filter>
</defs>
</svg>
