<svg width="66" height="52" viewBox="0 0 66 52" fill="#082553" xmlns="http://www.w3.org/2000/svg">
<path d="M59.6667 0.611328H6.33333C3.11275 0.611328 0.5 3.22407 0.5 6.44466V45.5558C0.5 48.7764 3.11275 51.3891 6.33333 51.3891H59.6667C62.8873 51.3891 65.5 48.7764 65.5 45.5558V6.44466C65.5 3.22407 62.8873 0.611328 59.6667 0.611328ZM59.1667 45.0558H6.83333V6.94466H59.1667V45.0558ZM24.1111 26.5002C28.3095 26.5002 31.7222 23.0875 31.7222 18.8891C31.7222 14.6907 28.3095 11.278 24.1111 11.278C19.9127 11.278 16.5 14.6907 16.5 18.8891C16.5 23.0875 19.9127 26.5002 24.1111 26.5002ZM14.1556 40.7224H34.0667C35.646 40.7224 37.0556 39.6121 37.0556 38.0891V35.9558C37.0556 32.0768 33.4122 29.0558 29.0889 29.0558C28.5322 29.0558 28.0149 29.2242 27.4921 29.3945C27.3594 29.4377 27.2264 29.4811 27.0922 29.5218C26.3973 29.7328 25.5023 29.9447 24.1111 29.9447C22.6746 29.9447 21.7972 29.7325 21.1253 29.5229C20.9976 29.4831 20.8713 29.4408 20.7451 29.3985C20.2326 29.2268 19.7219 29.0558 19.1333 29.0558C14.8101 29.0558 11.1667 32.0768 11.1667 35.9558V38.0891C11.1667 39.6121 12.5762 40.7224 14.1556 40.7224ZM41 33.6113H53.4444C54.2095 33.6113 54.8333 32.9875 54.8333 32.2224V30.4447C54.8333 29.6796 54.2095 29.0558 53.4444 29.0558H41C40.235 29.0558 39.6111 29.6796 39.6111 30.4447V32.2224C39.6111 32.9875 40.235 33.6113 41 33.6113ZM41 26.5002H53.4444C54.2095 26.5002 54.8333 25.8764 54.8333 25.1113V23.3336C54.8333 22.5685 54.2095 21.9447 53.4444 21.9447H41C40.235 21.9447 39.6111 22.5685 39.6111 23.3336V25.1113C39.6111 25.8764 40.235 26.5002 41 26.5002ZM41 19.3891H53.4444C54.2095 19.3891 54.8333 18.7652 54.8333 18.0002V16.2224C54.8333 15.4574 54.2095 14.8336 53.4444 14.8336H41C40.235 14.8336 39.6111 15.4574 39.6111 16.2224V18.0002C39.6111 18.7652 40.235 19.3891 41 19.3891Z" fill="#082553" stroke="none"/>
</svg>
