<svg width="446" height="430" viewBox="0 0 446 430" fill="none" xmlns="http://www.w3.org/2000/svg">
<rect width="446" height="428.408" transform="translate(0 0.795776)" fill="#D0DFF6"/>
<path d="M106.143 152.885V160.19H113.448V152.885V145.589H106.143V152.885Z" fill="#EBEBEB"/>
<path d="M113.448 109.082H106.143V116.387H113.448V109.082Z" fill="#EBEBEB"/>
<path d="M158.567 189.471H151.262V196.776H158.567V189.471Z" fill="#EBEBEB"/>
<path d="M113.448 123.683V130.979H106.143V138.284H113.448V145.589H120.753H128.049V152.885H135.355V145.589H142.65V138.284V130.979H135.355V138.284H128.049H120.753V130.979V123.683V116.378H113.448V123.683Z" fill="#EBEBEB"/>
<path d="M128.051 109.082H120.755V116.378H128.051H135.356V109.082H128.051Z" fill="#EBEBEB"/>
<path d="M160.905 167.778H164.83V160.472H160.905H156.989V167.778H160.905Z" fill="#EBEBEB"/>
<path d="M142.661 116.378H135.355V123.683H142.661V116.378Z" fill="#EBEBEB"/>
<path d="M193.769 145.589H186.464V152.895H193.769V145.589Z" fill="#EBEBEB"/>
<path d="M201.075 65.2686H193.77V72.574H201.075V65.2686Z" fill="#EBEBEB"/>
<path d="M157.261 123.683V116.378H164.557V109.082H157.261V101.777H149.956V109.082H142.65V116.378H149.956V123.683V130.979V138.284V145.59H157.261V138.284V130.979H164.557V123.683H157.261Z" fill="#EBEBEB"/>
<path d="M193.769 196.699H201.065V189.393H193.769H186.464V196.699H193.769Z" fill="#EBEBEB"/>
<path d="M186.465 65.2686H179.159V72.574H186.465V65.2686Z" fill="#EBEBEB"/>
<path d="M184.642 123.683V116.378H177.336V109.082H170.031V116.378V123.683H162.735V130.979H170.031H177.336V123.683H184.642Z" fill="#EBEBEB"/>
<path d="M225.854 109.082H218.549V116.387H225.854V109.082Z" fill="#EBEBEB"/>
<path d="M150.171 145.589H142.865V152.895H150.171V145.589Z" fill="#EBEBEB"/>
<path d="M179.159 101.777V94.4713H186.464V87.1757H193.77H201.065V79.8703H193.77V72.5746H186.464V79.8703H179.159V87.1757H171.863V94.4713H164.558V101.777H171.863H179.159Z" fill="#EBEBEB"/>
<path d="M179.159 152.885V145.59H186.464V138.284H179.159H171.863V145.59H164.558V152.885H171.863H179.159Z" fill="#EBEBEB"/>
<path d="M201.066 182.088V174.792H193.77H186.465V167.487H179.159V174.792H171.864V182.088H164.558H157.263V189.393H164.558H171.864H179.159V182.088H186.465V189.393H193.77V182.088H201.066Z" fill="#EBEBEB"/>
<path d="M171.863 72.574V65.2686H164.557H157.261V72.574H149.956V79.8696H157.261H164.557V72.574H171.863Z" fill="#EBEBEB"/>
<path d="M171.863 79.8702H164.558V87.1757H171.863V79.8702Z" fill="#EBEBEB"/>
<path d="M190.117 109.083H182.812V116.378V123.684V130.98H190.117H197.422V123.684H190.117V116.378H197.422V109.083H204.718V101.777H197.422V94.4719H190.117V101.777V109.083Z" fill="#EBEBEB"/>
<path d="M164.568 87.1753H157.263V94.4807H164.568V87.1753Z" fill="#EBEBEB"/>
<path d="M186.464 160.19V167.486H193.769H201.065V160.19H208.37H215.676V152.885H208.37H201.065H193.769V160.19H186.464Z" fill="#EBEBEB"/>
<path d="M225.854 130.978H218.549V138.284H225.854V130.978Z" fill="#EBEBEB"/>
<path d="M201.075 138.284H193.77V145.59H201.075V138.284Z" fill="#EBEBEB"/>
<path d="M219.319 116.378H212.023H204.718V123.683H212.023V130.979H219.319V123.683V116.378Z" fill="#EBEBEB"/>
<path d="M215.676 138.284H208.37V145.59H215.676V138.284Z" fill="#EBEBEB"/>
<path d="M135.356 182.233H157.272V152.875H127.914V160.19H120.755V167.485H127.914V174.791H120.755V182.096H127.914V182.233H128.051V189.392H120.755V204.003H128.051V196.697H135.356V182.233ZM151.642 158.505V176.758H133.388V158.505H151.642Z" fill="#EBEBEB"/>
<path d="M230.277 152.885H237.573V145.589H230.277H222.971H215.676V152.885H222.971H230.277Z" fill="#EBEBEB"/>
<path d="M230.277 123.683H237.573V116.378V109.082H230.277V116.378V123.683Z" fill="#EBEBEB"/>
<path d="M172.136 160.472H164.831V167.778V175.073H172.136V167.778V160.472Z" fill="#EBEBEB"/>
<path d="M244.878 152.885H237.572V160.19H244.878V152.885Z" fill="#EBEBEB"/>
<path d="M244.878 138.284V130.978H237.572V138.284V145.589H244.878V138.284Z" fill="#EBEBEB"/>
<path d="M113.448 189.393H106.143V196.699V204.004H113.448V196.699V189.393Z" fill="#EBEBEB"/>
<path d="M244.878 101.776V65.2686H208.37V101.776H244.878ZM213.844 96.302V70.7427H239.404V96.302H213.844Z" fill="#EBEBEB"/>
<path d="M233.919 76.2173H219.318V90.8184H233.919V76.2173Z" fill="#EBEBEB"/>
<path d="M244.878 167.487H208.37V204.004H244.878V167.487ZM213.844 198.52V172.97H239.404V198.52H213.844Z" fill="#EBEBEB"/>
<path d="M233.919 178.446H219.318V193.047H233.919V178.446Z" fill="#EBEBEB"/>
<path d="M106.056 65.2686V101.776H142.563V65.2686H106.056ZM137.089 70.7427V96.302H111.491V70.7427H137.089Z" fill="#EBEBEB"/>
<path d="M131.605 76.2173H117.004V90.8184H131.605V76.2173Z" fill="#EBEBEB"/>
<path d="M47.6885 209.098C48.1593 207.247 47.0405 205.365 45.1897 204.894C43.3389 204.424 41.4569 205.542 40.9861 207.393C40.5154 209.244 41.6342 211.126 43.485 211.597C45.3358 212.067 47.2178 210.949 47.6885 209.098Z" fill="#EBEBEB"/>
<path d="M37.4621 203.829C38.3445 202.88 39.41 202.12 40.5944 201.594C41.7788 201.069 43.0574 200.789 44.353 200.772C45.6485 200.755 46.9341 201 48.1321 201.494C49.3301 201.987 50.4156 202.719 51.3229 203.644C53.086 205.426 55.8426 202.67 54.0795 200.907C52.8104 199.624 51.2973 198.61 49.6296 197.922C47.9619 197.234 46.1733 196.887 44.3694 196.901C42.5655 196.916 40.7827 197.292 39.1263 198.006C37.4699 198.721 35.9734 199.76 34.725 201.062C33.001 202.874 35.6991 205.64 37.4621 203.829Z" fill="#EBEBEB"/>
<path d="M25.696 187.736C30.9462 183.197 37.2191 180.334 44.2031 180.314C51.2044 180.231 57.9736 182.823 63.129 187.561C64.9504 189.275 67.7168 186.538 65.8953 184.824C60.0159 179.386 52.2898 176.384 44.281 176.428C36.1963 176.428 29.0078 179.749 22.9687 184.98C21.0205 186.616 23.8161 189.363 25.7058 187.736H25.696Z" fill="#EBEBEB"/>
<path d="M30.3234 196.65C32.0769 194.696 34.2158 193.126 36.6054 192.04C38.9951 190.953 41.5839 190.372 44.2088 190.335C46.8337 190.297 49.438 190.804 51.8578 191.822C54.2775 192.84 56.4604 194.347 58.269 196.25C60.0223 198.052 62.7789 195.276 61.0353 193.523C58.8679 191.256 56.2579 189.459 53.3671 188.242C50.4764 187.025 47.3666 186.416 44.2305 186.45C41.0944 186.485 37.9988 187.163 35.1357 188.444C32.2726 189.724 29.703 191.579 27.5863 193.893C25.8914 195.724 28.6188 198.491 30.3234 196.65Z" fill="#EBEBEB"/>
<path d="M197.305 19.2349C197.889 14.9685 191.86 11.4424 187.331 11.082C185.168 10.9067 182.928 11.2379 180.882 10.5268C176.441 8.97806 174.668 3.25061 170.343 1.42913C167.109 0.0654508 163.379 1.27328 160.242 2.85125C157.106 4.42922 154.008 6.41629 150.502 6.64032C147.453 6.83513 144.141 5.66627 141.472 7.19553C139.524 8.30596 138.443 10.595 136.602 11.9489C134.761 13.3029 132.472 13.5561 130.251 13.673C128.03 13.7899 125.722 13.8191 123.705 14.7445C121.689 15.6698 120.004 17.8127 120.423 19.9946L197.305 19.2349Z" fill="#EBEBEB"/>
<path d="M80.9443 91.4329C81.4703 87.6048 76.0741 84.4489 72.0025 84.1275C70.0544 83.9716 68.1063 84.2638 66.2166 83.6209C62.2425 82.2378 60.6548 77.1045 56.778 75.4681C53.8559 74.2408 50.5343 75.3317 47.7291 76.7441C44.9238 78.1565 42.138 79.939 38.9626 80.1436C36.2255 80.3189 33.2643 79.3059 30.8682 80.6403C29.0856 81.6144 28.1603 83.6891 26.5141 84.897C24.868 86.1048 22.8127 86.3288 20.8159 86.4457C18.8244 86.4068 16.8428 86.737 14.9716 87.4198C13.1598 88.2477 11.6598 90.1763 12.0494 92.1342L80.9443 91.4329Z" fill="#F5F5F5"/>
<path d="M445.962 88.725C446.527 84.6242 440.741 81.2443 436.387 80.9326C434.312 80.767 432.159 81.0884 430.192 80.3968C425.935 78.9163 424.231 73.4129 420.081 71.6303C416.974 70.3251 413.399 71.4842 410.389 73.0037C407.379 74.5233 404.399 76.4227 401.038 76.6467C398.116 76.8318 394.931 75.7408 392.369 77.1727C390.421 78.2344 389.447 80.4358 387.704 81.7313C385.96 83.0268 383.739 83.2703 381.606 83.3872C379.473 83.5041 377.262 83.5235 375.323 84.4197C373.385 85.3158 371.768 87.3419 372.177 89.4556L445.962 88.725Z" fill="#F5F5F5"/>
<path d="M437.273 428.951C437.273 429.087 339.38 429.204 218.646 429.204C97.912 429.204 0 429.087 0 428.951C0 428.815 97.8536 428.698 218.636 428.698C339.419 428.698 437.273 428.805 437.273 428.951Z" fill="#263238"/>
<path d="M384.907 386.103C385.868 386.562 386.726 387.21 387.43 388.009C388.135 388.807 388.671 389.739 389.008 390.749C389.671 392.78 389.857 394.936 389.553 397.051C389.096 401.142 386.768 405.272 384.264 408.535C380.826 405.535 380.027 400.285 379.793 397.606C379.423 393.359 381.332 385.47 384.907 386.103Z" fill="#8B8AE1"/>
<path d="M388.268 415.256C388.039 414.087 388.12 412.879 388.502 411.751C388.885 410.623 389.557 409.615 390.45 408.827C391.363 408.061 392.418 407.485 393.555 407.13C394.692 406.776 395.888 406.651 397.074 406.762C397.627 406.751 398.176 406.863 398.681 407.088C399.186 407.314 399.635 407.648 399.996 408.068C400.253 408.512 400.388 409.016 400.388 409.529C400.388 410.042 400.253 410.545 399.996 410.99C399.473 411.88 398.724 412.616 397.824 413.123C394.843 414.993 391.609 416.259 388.239 415.246" fill="#8B8AE1"/>
<path d="M383.855 427.822C383.874 427.54 383.913 427.26 383.972 426.984C384.089 426.39 384.226 425.63 384.391 424.714C384.775 422.184 385.567 419.733 386.739 417.458C387.952 415.185 389.747 413.276 391.94 411.925C392.607 411.518 393.32 411.191 394.064 410.951C394.265 410.886 394.47 410.834 394.677 410.795C394.748 410.782 394.821 410.782 394.892 410.795C393.902 411.134 392.949 411.571 392.047 412.1C389.923 413.473 388.184 415.364 386.992 417.594C385.847 419.847 385.04 422.256 384.596 424.744C384.391 425.718 384.226 426.468 384.089 426.994C384.042 427.277 383.964 427.555 383.855 427.822V427.822Z" fill="#263238"/>
<path d="M383.982 392.239C383.999 392.362 383.999 392.486 383.982 392.609C383.982 392.882 383.982 393.223 384.05 393.661C384.099 394.577 384.148 395.901 384.206 397.557C384.313 400.83 384.391 405.35 384.372 410.366C384.352 415.383 384.226 419.902 384.089 423.175C384.031 424.811 383.963 426.097 383.904 427.071C383.904 427.5 383.904 427.85 383.836 428.123C383.834 428.248 383.818 428.372 383.787 428.493C383.773 428.37 383.773 428.246 383.787 428.123C383.787 427.85 383.787 427.5 383.787 427.061C383.787 426.087 383.846 424.792 383.885 423.165C383.963 419.892 384.05 415.373 384.07 410.366C384.089 405.36 384.07 400.84 383.992 397.567C383.992 395.95 383.943 394.645 383.934 393.671C383.934 393.242 383.934 392.892 383.934 392.619C383.934 392.491 383.95 392.363 383.982 392.239V392.239Z" fill="#263238"/>
<path d="M382.278 417.779C381.861 415.3 380.86 412.956 379.358 410.941C377.855 408.925 375.895 407.296 373.638 406.188C372.489 405.643 370.989 405.282 370.034 406.14C369.079 406.997 369.303 408.526 369.771 409.724C370.788 412.205 372.52 414.328 374.748 415.821C376.975 417.315 379.596 418.112 382.278 418.111" fill="#8B8AE1"/>
<path d="M374.233 410.064C374.487 410.146 374.732 410.254 374.964 410.386C375.249 410.513 375.526 410.66 375.792 410.824C376.153 411.026 376.505 411.248 376.844 411.486C377.261 411.764 377.661 412.067 378.042 412.392C378.492 412.754 378.921 413.141 379.327 413.551C380.253 414.497 381.067 415.546 381.753 416.678C382.428 417.819 382.968 419.035 383.36 420.302C383.659 421.34 383.865 422.402 383.974 423.477C384.032 423.935 383.974 424.354 384.032 424.714C384.05 425.039 384.05 425.364 384.032 425.688C384.027 425.953 383.998 426.217 383.944 426.477C383.876 426.477 383.993 425.347 383.789 423.555C383.73 423.107 383.672 422.581 383.555 422.084C383.438 421.587 383.292 421.013 383.126 420.438C382.728 419.2 382.192 418.011 381.529 416.892C380.854 415.781 380.06 414.745 379.162 413.805C378.766 413.394 378.35 413.004 377.915 412.636C377.543 412.308 377.153 412.003 376.746 411.72C375.246 410.6 374.204 410.123 374.233 410.064Z" fill="#263238"/>
<path d="M123.238 428.961C122.95 428.052 122.726 427.125 122.565 426.185C121.557 421.738 120.051 417.418 118.075 413.308C117.623 412.469 117.219 411.603 116.867 410.717C117.467 411.463 117.977 412.277 118.387 413.143C120.568 417.217 122.096 421.608 122.916 426.156C123.123 427.077 123.231 428.017 123.238 428.961V428.961Z" fill="#263238"/>
<path d="M131.877 386.804C131.835 387.361 131.753 387.915 131.634 388.46C131.439 389.512 131.176 391.042 130.874 392.931C130.251 396.72 129.53 401.961 129.082 407.786C128.634 413.61 128.556 418.919 128.585 422.747C128.585 424.695 128.585 426.215 128.663 427.286C128.705 427.841 128.705 428.397 128.663 428.952C128.556 428.406 128.494 427.852 128.478 427.296C128.39 426.224 128.302 424.676 128.244 422.757C128.086 417.751 128.199 412.74 128.585 407.747C128.969 402.758 129.619 397.792 130.533 392.873C130.893 390.983 131.205 389.464 131.458 388.421C131.557 387.873 131.697 387.332 131.877 386.804Z" fill="#263238"/>
<path d="M145.748 411.067C145.247 411.883 144.704 412.673 144.122 413.434C142.838 415.336 141.724 417.347 140.79 419.444C139.876 421.549 139.156 423.734 138.638 425.97C138.469 426.912 138.251 427.845 137.985 428.765C137.969 427.799 138.07 426.834 138.287 425.892C139.141 421.302 141.037 416.97 143.829 413.229C144.373 412.428 145.018 411.701 145.748 411.067V411.067Z" fill="#263238"/>
<path d="M315.565 414.282C316.068 414.88 316.499 415.534 316.851 416.23C317.572 417.467 318.507 419.221 319.432 421.198C320.358 423.175 321.098 425.036 321.585 426.38C321.898 427.093 322.12 427.842 322.247 428.611C321.856 427.946 321.529 427.244 321.273 426.516C320.708 425.201 319.919 423.39 318.994 421.412C318.069 419.435 317.192 417.672 316.549 416.396C316.145 415.729 315.816 415.02 315.565 414.282Z" fill="#263238"/>
<path d="M333.488 396.495C333.445 396.924 333.36 397.349 333.235 397.761C333.03 398.667 332.767 399.807 332.446 401.171C331.803 404.093 331.014 408.047 330.42 412.509C329.826 416.97 329.553 421.051 329.446 423.993C329.397 425.395 329.358 426.564 329.329 427.49C329.343 427.92 329.311 428.352 329.231 428.775C329.157 428.351 329.122 427.92 329.124 427.49C329.124 426.662 329.075 425.464 329.124 423.983C329.184 420.126 329.467 416.275 329.972 412.45C330.476 408.622 331.204 404.826 332.154 401.083C332.524 399.651 332.855 398.502 333.128 397.713C333.201 397.294 333.322 396.886 333.488 396.495V396.495Z" fill="#263238"/>
<path d="M203.831 404.425C204.156 404.611 204.455 404.84 204.717 405.107C205.486 405.768 206.217 406.47 206.909 407.211C211.521 412.111 214.78 418.126 216.367 424.666C216.616 425.65 216.804 426.649 216.932 427.656C217.006 428.021 217.039 428.394 217.03 428.767C216.942 428.767 216.698 427.208 216.056 424.763C214.281 418.354 211.062 412.437 206.646 407.464C205 405.516 203.773 404.542 203.831 404.425Z" fill="#263238"/>
<path d="M220.711 394.062C220.753 394.522 220.753 394.985 220.711 395.445C220.711 396.419 220.711 397.695 220.711 399.205C220.711 402.38 220.838 406.764 221.257 411.595C221.676 416.426 222.318 420.761 222.864 423.887C223.127 425.378 223.351 426.625 223.526 427.589C223.637 428.039 223.702 428.499 223.721 428.962C223.557 428.528 223.426 428.082 223.331 427.628C223.107 426.771 222.825 425.514 222.513 423.956C220.886 415.81 220.161 407.51 220.351 399.205C220.351 397.607 220.448 396.283 220.526 395.435C220.542 394.972 220.604 394.512 220.711 394.062V394.062Z" fill="#263238"/>
<path d="M235.614 414.71C235.761 414.788 234.085 417.711 232.936 421.665C231.786 425.62 231.572 428.971 231.416 428.961C231.307 428.228 231.307 427.483 231.416 426.75C231.57 424.979 231.896 423.227 232.39 421.519C232.882 419.815 233.534 418.161 234.338 416.581C234.675 415.901 235.105 415.272 235.614 414.71V414.71Z" fill="#263238"/>
<path d="M36.4103 336.281H25.1016V426.06H36.4103V336.281Z" fill="#455A64"/>
<path d="M36.4204 426.049C36.4204 426.049 36.4204 425.893 36.4204 425.582V424.238C36.4204 423.039 36.4204 421.315 36.4204 419.075C36.4204 414.585 36.4204 408.097 36.3425 400.042C36.3425 383.921 36.2743 361.518 36.2353 336.28L36.4886 336.534H25.1019L25.3551 336.28C25.2967 375.603 25.248 409.656 25.2188 426.049L25.1019 425.942L33.4885 426.001H35.6704H36.4204C36.4204 426.001 36.1866 426.001 35.7094 426.001H33.5567L25.1019 426.059H24.9947V425.942C24.9947 409.549 24.9168 375.496 24.8486 336.173L25.1019 335.92H36.6737V336.173C36.6737 361.499 36.586 383.951 36.5665 400.12C36.5665 408.146 36.5081 414.614 36.4886 419.095C36.4886 421.296 36.4886 422.991 36.4886 424.199V425.514C36.4302 425.913 36.4204 426.049 36.4204 426.049Z" fill="#263238"/>
<g opacity="0.3">
<path d="M36.4103 338.463H25.1016V342.204H36.4103V338.463Z" fill="black"/>
</g>
<path d="M277.012 336.281H265.703V426.06H277.012V336.281Z" fill="#455A64"/>
<path d="M277.012 426.049C277.012 426.049 277.012 425.893 277.012 425.582V424.238C277.012 423.039 277.012 421.315 277.012 419.075C277.012 414.585 277.012 408.097 276.934 400.042C276.934 383.921 276.876 361.518 276.827 336.28L277.08 336.534H265.703L265.957 336.28C265.889 375.603 265.84 409.656 265.811 426.049L265.703 425.942L274.09 426.001H276.262H277.012C277.012 426.001 276.778 426.001 276.301 426.001H274.158L265.703 426.059H265.587V425.942C265.587 409.549 265.509 375.496 265.45 336.173L265.703 335.92H277.265V336.173C277.265 361.499 277.188 383.951 277.158 400.12C277.158 408.146 277.1 414.614 277.08 419.095C277.08 421.296 277.08 422.991 277.08 424.199V425.514C277.022 425.913 277.012 426.049 277.012 426.049Z" fill="#263238"/>
<path d="M259.284 257.634H247.976V332.471H259.284V257.634Z" fill="#455A64"/>
<path d="M259.294 332.463C259.28 332.33 259.28 332.196 259.294 332.064V330.944C259.294 329.97 259.294 328.499 259.294 326.658C259.294 322.908 259.245 317.521 259.216 310.81C259.216 297.387 259.148 278.724 259.109 257.626L259.362 257.88H247.985C248.482 257.373 248.121 257.753 248.228 257.646V269.52C248.228 273.416 248.228 277.205 248.228 280.906C248.228 288.309 248.228 295.303 248.228 301.741C248.18 314.599 248.151 325.226 248.131 332.463L248.004 332.336L256.372 332.405H258.563H259.323H258.602H256.449L248.004 332.473H247.858V332.463C247.858 325.226 247.81 314.599 247.771 301.741C247.771 295.303 247.771 288.309 247.771 280.906C247.771 277.205 247.771 273.409 247.771 269.52V257.656C247.888 257.539 247.517 257.889 248.034 257.383H259.547V257.636C259.547 278.802 259.469 297.572 259.44 311.005C259.44 317.687 259.381 323.054 259.372 326.784C259.372 328.606 259.372 330.028 259.372 331.022C259.372 331.479 259.372 331.849 259.372 332.112C259.372 332.375 259.294 332.463 259.294 332.463Z" fill="#263238"/>
<path d="M58.0637 257.634H46.7549V332.471H58.0637V257.634Z" fill="#455A64"/>
<path d="M58.0731 332.463C58.0651 332.33 58.0651 332.197 58.0731 332.064C58.0731 331.791 58.0731 331.421 58.0731 330.944C58.0731 329.97 58.0731 328.499 58.0731 326.658C58.0731 322.908 58.0731 317.521 57.9951 310.81C57.9951 297.387 57.927 278.724 57.888 257.626L58.1413 257.88H46.7643C47.2611 257.373 46.9007 257.753 47.0078 257.646V269.52C47.0078 273.416 47.0078 277.211 47.0078 280.906C47.0078 288.309 47.0078 295.303 47.0078 301.741C47.0078 314.599 46.9299 325.226 46.9104 332.463L46.7838 332.336L55.1509 332.405H57.3425H58.1023H57.3815H55.2288L46.7838 332.473H46.6669V332.463C46.6669 325.226 46.6084 314.599 46.5695 301.741C46.5695 295.303 46.5695 288.309 46.5695 280.906C46.5695 277.205 46.5695 273.409 46.5695 269.52V257.656C46.6864 257.539 46.3162 257.889 46.8325 257.383H58.3263V257.636C58.3263 278.802 58.2387 297.572 58.2094 311.005C58.2094 317.687 58.2094 323.054 58.1413 326.784C58.1413 328.606 58.1413 330.028 58.1413 331.022C58.1413 331.479 58.1413 331.849 58.1413 332.112C58.1413 332.375 58.0731 332.463 58.0731 332.463Z" fill="#263238"/>
<path d="M281.112 249.092H24.4385V261.073H281.112V249.092Z" fill="#455A64"/>
<path d="M281.112 261.072C281.112 261.072 281.112 260.828 281.112 260.341C281.112 259.854 281.112 259.124 281.112 258.14C281.112 256.192 281.112 253.182 281.112 249.091L281.18 249.169L24.5167 249.344L24.77 249.091V261.072L24.5167 260.818L206.373 260.926L261.125 261.003H275.989H279.885H281.21H279.914H276.076H261.28L206.587 261.081L24.4388 261.354H24.1855V248.838H24.4485L281.112 249.023H281.19V249.091C281.19 253.201 281.19 256.201 281.19 258.179C281.19 259.153 281.19 259.883 281.19 260.37C281.19 260.857 281.112 261.072 281.112 261.072Z" fill="#263238"/>
<path d="M281.775 267.062H25.1016V279.043H281.775V267.062Z" fill="#455A64"/>
<path d="M281.775 279.045C281.775 279.045 281.775 278.801 281.775 278.314C281.775 277.827 281.775 277.097 281.775 276.113C281.775 274.165 281.775 271.155 281.775 267.064L281.843 267.132L25.1896 267.317L25.4428 267.064V279.045L25.1896 278.792L206.948 278.889L261.7 278.957H276.564H280.46H281.785H280.499H276.661H261.856L207.163 279.035L25.1117 279.142H24.8584V266.811H25.1311L281.785 266.996H281.863V267.064C281.863 271.175 281.863 274.175 281.863 276.152C281.863 277.126 281.863 277.847 281.863 278.334C281.863 278.821 281.775 279.045 281.775 279.045Z" fill="#263238"/>
<path d="M281.775 285.698H25.1016V297.679H281.775V285.698Z" fill="#455A64"/>
<path d="M281.775 297.677C281.775 297.677 281.775 297.434 281.775 296.947C281.775 296.46 281.775 295.729 281.775 294.745C281.775 292.797 281.775 289.787 281.775 285.696L281.843 285.765L25.1889 285.95L25.4421 285.696V297.677L25.1889 297.424L207.055 297.531L261.806 297.609H276.671H280.567H281.892H280.606H276.768H261.962L207.269 297.687L25.2181 297.794H24.9648V285.443H25.2376L281.892 285.628H281.969V285.706C281.969 289.817 281.969 292.817 281.969 294.794C281.969 295.768 281.969 296.489 281.969 296.986C281.969 297.482 281.775 297.677 281.775 297.677Z" fill="#263238"/>
<path d="M281.775 304.332H25.1016V316.313H281.775V304.332Z" fill="#455A64"/>
<path d="M281.775 316.312C281.775 316.312 281.775 316.068 281.775 315.581C281.775 315.094 281.775 314.363 281.775 313.38C281.775 311.432 281.775 308.422 281.775 304.331L281.843 304.409L25.1889 304.584L25.4421 304.331V316.312L25.1889 316.058L207.055 316.165L261.806 316.243H276.671H280.567H281.892H280.606H276.768H261.962L207.269 316.321L25.2181 316.428H24.9648V304.077H25.2376L281.892 304.262H281.969V304.331C281.969 308.441 281.969 311.441 281.969 313.419C281.969 314.393 281.969 315.123 281.969 315.61C281.969 316.097 281.775 316.312 281.775 316.312Z" fill="#263238"/>
<path d="M286.451 326.482H13.959V338.463H286.451V326.482Z" fill="#455A64"/>
<path d="M286.45 338.461C286.45 338.461 286.45 338.218 286.45 337.731C286.45 337.244 286.45 336.513 286.45 335.53C286.45 333.581 286.45 330.572 286.45 326.481L286.528 326.549L14.0459 326.734L14.2992 326.481V338.461L14.0459 338.208L207.084 338.306L265.226 338.383H281.015H285.126C286.051 338.383 286.538 338.383 286.538 338.383H285.155H280.976H265.245L207.172 338.461L13.9388 338.569H13.6855V326.227H13.9485L286.431 326.412H286.499V326.481C286.499 330.591 286.499 333.591 286.499 335.568C286.499 336.543 286.499 337.263 286.499 337.75C286.499 338.237 286.45 338.461 286.45 338.461Z" fill="#263238"/>
<g opacity="0.3">
<path d="M277.012 338.463H265.703V342.204H277.012V338.463Z" fill="black"/>
</g>
<path d="M139.066 188.612L136.621 204.382L130.329 218.74L121.007 212.788L117.685 204.411L114.909 197.379C114.909 197.379 105.062 199.755 101.136 190.56C99.2464 186.118 96.0905 176.651 93.3436 168.04C91.9173 163.571 92.2281 158.729 94.2141 154.479C96.2 150.229 99.7151 146.884 104.058 145.111L104.945 144.741C114.812 141.341 123.208 147.819 126.325 157.764L139.124 188.631" fill="#A2675F"/>
<path d="M114.9 197.379C119.205 195.701 122.912 192.778 125.547 188.982C125.547 188.982 125.44 196.824 115.865 199.785L114.9 197.379Z" fill="#7A4A45"/>
<path d="M99.3537 175.084C99.4908 175.431 99.7585 175.71 100.099 175.861C100.44 176.012 100.826 176.024 101.175 175.893C101.349 175.837 101.509 175.747 101.647 175.628C101.785 175.508 101.898 175.363 101.979 175.199C102.06 175.036 102.107 174.858 102.118 174.676C102.129 174.494 102.103 174.311 102.042 174.14C101.905 173.793 101.637 173.514 101.297 173.363C100.956 173.212 100.57 173.2 100.221 173.331C100.047 173.387 99.8865 173.477 99.7484 173.596C99.6103 173.715 99.4975 173.861 99.4167 174.025C99.3358 174.188 99.2886 174.366 99.2778 174.548C99.267 174.73 99.2928 174.912 99.3537 175.084Z" fill="#263238"/>
<path d="M96.8801 171.296C97.1138 171.403 97.8541 170.254 99.2373 169.669C100.62 169.085 101.994 169.367 102.072 169.133C102.15 168.9 101.819 168.783 101.234 168.637C100.432 168.449 99.5919 168.513 98.8282 168.822C98.0881 169.127 97.4639 169.659 97.0456 170.341C96.7534 170.877 96.7339 171.257 96.8801 171.296Z" fill="#263238"/>
<path d="M111.754 169.551C111.891 169.898 112.159 170.176 112.5 170.328C112.84 170.479 113.227 170.49 113.576 170.359C113.75 170.305 113.912 170.215 114.051 170.096C114.19 169.978 114.304 169.832 114.386 169.669C114.467 169.505 114.515 169.327 114.527 169.144C114.538 168.962 114.513 168.779 114.452 168.606C114.313 168.261 114.045 167.984 113.705 167.833C113.365 167.682 112.98 167.67 112.631 167.798C112.456 167.853 112.295 167.942 112.156 168.061C112.016 168.18 111.903 168.325 111.821 168.489C111.739 168.652 111.691 168.83 111.679 169.013C111.668 169.196 111.693 169.379 111.754 169.551V169.551Z" fill="#263238"/>
<path d="M110.857 165.069C111.081 165.196 111.899 164.095 113.37 163.696C114.841 163.297 116.146 163.696 116.292 163.472C116.439 163.248 116.088 163.102 115.513 162.887C114.739 162.648 113.911 162.648 113.137 162.887C112.365 163.109 111.683 163.57 111.188 164.202C110.809 164.641 110.75 165.011 110.857 165.069Z" fill="#263238"/>
<path d="M110.448 178.911C109.604 178.983 108.772 179.163 107.974 179.447C107.594 179.554 107.224 179.623 107.058 179.447C106.87 179.088 106.799 178.68 106.854 178.278C106.854 177.259 106.834 176.187 106.795 175.064C106.659 170.515 106.406 166.833 106.23 166.843C106.055 166.853 105.997 170.544 106.133 175.093C106.133 176.213 106.211 177.275 106.24 178.298C106.196 178.829 106.337 179.359 106.639 179.798C106.744 179.907 106.872 179.99 107.014 180.04C107.156 180.091 107.308 180.108 107.458 180.09C107.682 180.06 107.901 180.001 108.11 179.915C108.928 179.677 109.713 179.34 110.448 178.911V178.911Z" fill="#263238"/>
<path d="M108.13 159.01C108.432 159.341 109.776 158.572 111.53 158.036C113.283 157.5 114.822 157.452 114.9 157.062C114.9 156.857 114.539 156.585 113.848 156.438C112.933 156.278 111.993 156.328 111.101 156.584C110.208 156.841 109.385 157.297 108.695 157.919C108.179 158.416 107.994 158.854 108.13 159.01Z" fill="#263238"/>
<path d="M94.8148 165.704C95.2044 165.919 96.0421 165.188 97.211 164.682C98.3799 164.175 99.4805 164.01 99.5682 163.571C99.5682 163.367 99.315 163.113 98.75 162.987C98.0154 162.844 97.2542 162.939 96.5779 163.26C95.8883 163.554 95.309 164.059 94.922 164.701C94.6395 165.198 94.6395 165.588 94.8148 165.704Z" fill="#263238"/>
<path d="M128.332 164.924C128.468 164.797 133.923 160.433 136.319 166.872C138.715 173.31 131.79 174.372 131.712 174.187C131.634 174.002 128.332 164.924 128.332 164.924Z" fill="#A2675F"/>
<path d="M132.764 170.983C132.764 170.983 132.9 170.983 133.124 171.032C133.43 171.041 133.728 170.937 133.962 170.739C134.274 170.327 134.47 169.839 134.532 169.326C134.593 168.812 134.518 168.292 134.312 167.817C134.123 167.261 133.81 166.755 133.397 166.337C133.264 166.157 133.088 166.013 132.886 165.918C132.684 165.823 132.461 165.779 132.238 165.791C132.096 165.805 131.963 165.868 131.864 165.969C131.764 166.071 131.703 166.204 131.692 166.346C131.692 166.561 131.76 166.668 131.692 166.697C131.624 166.726 131.517 166.639 131.468 166.356C131.446 166.183 131.484 166.008 131.575 165.859C131.7 165.658 131.9 165.515 132.131 165.46C132.413 165.415 132.702 165.443 132.971 165.54C133.241 165.637 133.481 165.8 133.67 166.015C134.147 166.472 134.507 167.037 134.722 167.661C135.17 168.967 134.955 170.428 134.127 171.041C133.974 171.155 133.798 171.233 133.611 171.27C133.424 171.307 133.231 171.302 133.046 171.256C132.832 171.129 132.744 171.002 132.764 170.983Z" fill="#7A4A45"/>
<path d="M87.8706 157.648C87.7201 156.983 87.7692 156.288 88.0118 155.65C88.2543 155.013 88.6796 154.461 89.2343 154.064C88.7228 153.577 88.3922 152.931 88.2971 152.231C88.2019 151.532 88.3478 150.821 88.7106 150.215C89.0735 149.61 89.6318 149.146 90.2935 148.9C90.9552 148.654 91.681 148.641 92.3512 148.862C92.1764 148.385 92.1177 147.873 92.1799 147.368C92.2421 146.864 92.4234 146.381 92.7089 145.961C92.9944 145.54 93.3759 145.193 93.8218 144.949C94.2677 144.705 94.7652 144.571 95.2734 144.557C95.0082 144.007 94.9377 143.382 95.0734 142.787C95.2091 142.191 95.543 141.659 96.0204 141.278C96.4979 140.896 97.0906 140.688 97.7016 140.688C98.3126 140.687 98.9058 140.894 99.3839 141.274C99.525 140.591 99.818 139.947 100.241 139.392C100.665 138.837 101.207 138.384 101.829 138.067C102.451 137.75 103.137 137.577 103.835 137.56C104.532 137.544 105.225 137.685 105.861 137.972C106.971 137.034 108.386 136.536 109.838 136.572C111.291 136.608 112.68 137.175 113.741 138.167C114.809 137.816 115.956 137.789 117.038 138.091C118.12 138.393 119.088 139.009 119.82 139.862C120.51 139.641 121.245 139.606 121.953 139.761C122.661 139.915 123.316 140.253 123.851 140.741C124.386 141.229 124.784 141.85 125.003 142.54C125.222 143.23 125.255 143.966 125.099 144.674C125.566 144.736 126.013 144.905 126.404 145.168C126.796 145.43 127.121 145.78 127.356 146.188C127.59 146.597 127.728 147.055 127.757 147.525C127.786 147.996 127.707 148.467 127.524 148.901C128.088 148.946 128.627 149.149 129.08 149.487C129.533 149.825 129.882 150.284 130.085 150.811C130.289 151.339 130.339 151.913 130.231 152.467C130.123 153.022 129.86 153.535 129.472 153.947C130.447 153.674 131.333 154.755 131.421 155.768C131.376 156.779 131.279 157.787 131.128 158.788C131.128 159.626 131.352 160.444 131.391 161.282C131.423 162.068 131.282 162.852 130.979 163.579C130.676 164.306 130.219 164.958 129.638 165.489L129.882 165.616C130.378 166.356 129.482 167.379 128.586 167.369C127.695 167.24 126.864 166.847 126.2 166.239C125.321 165.715 124.53 165.058 123.852 164.291C123.521 163.898 123.327 163.408 123.299 162.895C123.27 162.382 123.41 161.874 123.696 161.447C123.072 161.445 122.459 161.28 121.919 160.967C121.379 160.654 120.93 160.205 120.618 159.665C120.003 158.579 119.591 157.391 119.401 156.158L118.232 150.771C117.064 151.203 115.801 151.307 114.578 151.072C113.355 150.837 112.221 150.271 111.297 149.437C110.997 149.903 110.602 150.3 110.138 150.601C109.673 150.902 109.149 151.101 108.602 151.184C108.054 151.267 107.496 151.232 106.963 151.082C106.429 150.932 105.935 150.67 105.511 150.314C105.565 151.603 105.128 152.864 104.287 153.843C103.446 154.821 102.264 155.444 100.981 155.583C101.77 156.791 99.9196 158.973 98.7703 159.85C97.8249 160.396 96.7269 160.618 95.6435 160.483C95.6435 160.483 93.9682 162.704 92.5558 162.723C91.1434 162.743 88.9323 161.866 89.205 160.298C88.5576 159.532 88.1004 158.624 87.8706 157.648V157.648Z" fill="#263238"/>
<path d="M127.855 148.746C127.839 149.123 127.739 149.493 127.562 149.827C127.458 149.996 127.315 150.138 127.146 150.243C126.977 150.348 126.786 150.412 126.588 150.431C126.346 150.459 126.1 150.422 125.877 150.323C125.655 150.223 125.463 150.065 125.322 149.866L125.088 149.515L124.903 149.895C124.742 150.186 124.507 150.43 124.221 150.601C123.935 150.772 123.61 150.864 123.277 150.869C122.901 150.852 122.539 150.72 122.24 150.493C121.94 150.265 121.718 149.951 121.601 149.593L121.494 149.203L121.212 149.486C121.042 149.652 120.841 149.784 120.62 149.872C120.4 149.961 120.164 150.005 119.926 150.002C119.542 150 119.17 149.874 118.864 149.642C118.338 149.242 118.221 148.823 118.163 148.843C118.104 148.862 118.163 149.33 118.679 149.817C119.014 150.133 119.447 150.325 119.906 150.362C120.204 150.382 120.502 150.342 120.784 150.243C121.065 150.144 121.323 149.989 121.543 149.788L121.143 149.681C121.262 150.126 121.516 150.523 121.869 150.819C122.222 151.115 122.657 151.295 123.116 151.334C123.575 151.373 124.035 151.27 124.433 151.039C124.831 150.808 125.149 150.459 125.342 150.041H124.923C125.117 150.306 125.381 150.512 125.685 150.636C125.99 150.76 126.323 150.797 126.647 150.742C126.894 150.696 127.127 150.594 127.328 150.444C127.528 150.294 127.692 150.099 127.806 149.875C128.176 149.203 127.884 148.707 127.855 148.746Z" fill="#455A64"/>
<path d="M131.303 154.414C131.254 154.414 131.157 154.686 130.738 154.959C130.463 155.149 130.137 155.251 129.803 155.251C129.469 155.251 129.143 155.149 128.868 154.959L128.654 154.784L128.556 155.047C128.435 155.34 128.241 155.597 127.992 155.793C127.743 155.989 127.447 156.118 127.134 156.167C126.772 156.206 126.406 156.134 126.086 155.96C125.766 155.786 125.506 155.518 125.342 155.193L125.147 154.784L124.894 155.154C124.829 155.249 124.75 155.335 124.66 155.407C124.458 155.574 124.208 155.674 123.947 155.694C123.685 155.713 123.424 155.65 123.199 155.514C123 155.378 122.843 155.189 122.743 154.97C122.643 154.75 122.606 154.507 122.634 154.268L122.702 153.781L122.283 154.034C121.803 154.319 121.23 154.407 120.686 154.277C120.252 154.18 119.862 153.944 119.575 153.605C119.333 153.283 119.13 152.934 118.972 152.563C118.949 152.782 118.971 153.003 119.038 153.213C119.106 153.422 119.215 153.616 119.361 153.781C119.658 154.199 120.087 154.504 120.579 154.647C120.901 154.745 121.24 154.776 121.575 154.739C121.909 154.702 122.233 154.598 122.527 154.433L122.205 154.209C122.156 154.538 122.2 154.874 122.333 155.179C122.466 155.484 122.681 155.745 122.955 155.933C123.265 156.136 123.631 156.234 124.001 156.215C124.37 156.196 124.724 156.06 125.011 155.826C125.139 155.717 125.254 155.593 125.352 155.456H124.904C125.087 155.853 125.385 156.186 125.759 156.413C126.133 156.639 126.567 156.748 127.004 156.726C127.44 156.704 127.861 156.552 128.21 156.289C128.56 156.026 128.823 155.665 128.965 155.251L128.654 155.339C128.843 155.476 129.057 155.574 129.285 155.626C129.513 155.678 129.749 155.683 129.978 155.641C130.337 155.601 130.676 155.455 130.952 155.222C131.303 154.764 131.332 154.414 131.303 154.414Z" fill="#455A64"/>
<path d="M96.0513 144.03C96.1891 143.765 96.374 143.527 96.5968 143.329C96.7485 143.202 96.9247 143.109 97.1143 143.054C97.304 142.999 97.5029 142.984 97.6986 143.009C97.8944 143.035 98.0827 143.101 98.2518 143.203C98.4209 143.305 98.5671 143.44 98.6813 143.601L98.915 143.923L98.9735 143.523C99.0425 143.106 99.2164 142.713 99.4787 142.38C99.741 142.048 100.083 141.788 100.474 141.624C100.95 141.44 101.472 141.411 101.966 141.543C102.459 141.674 102.898 141.958 103.22 142.355L103.513 142.715L103.629 142.267C103.759 141.833 103.984 141.432 104.287 141.096C104.59 140.759 104.964 140.493 105.383 140.319C105.835 140.139 106.325 140.076 106.808 140.134C107.291 140.191 107.752 140.369 108.149 140.65C108.478 140.88 108.757 141.175 108.967 141.517L109.113 141.751L109.337 141.585C109.87 141.205 110.515 141.015 111.168 141.045C111.821 141.075 112.446 141.324 112.941 141.751C113.356 142.147 113.649 142.654 113.785 143.211C113.922 143.769 113.896 144.354 113.711 144.897L113.575 145.257L113.945 145.17C114.769 144.995 115.628 145.149 116.341 145.598C116.888 145.947 117.314 146.458 117.558 147.059C117.756 147.593 117.858 148.156 117.86 148.725C117.86 148.725 117.938 148.579 117.958 148.277C117.996 147.834 117.937 147.388 117.782 146.972C117.553 146.301 117.112 145.724 116.526 145.325C116.14 145.06 115.706 144.874 115.248 144.777C114.79 144.68 114.317 144.674 113.857 144.761L114.101 145.043C114.376 144.371 114.424 143.627 114.235 142.925C114.046 142.223 113.632 141.603 113.056 141.16C112.48 140.717 111.775 140.476 111.048 140.474C110.322 140.471 109.614 140.708 109.035 141.147L109.406 141.215C109.153 140.825 108.821 140.493 108.432 140.241C107.965 139.909 107.422 139.7 106.854 139.633C106.285 139.567 105.709 139.645 105.178 139.861C104.691 140.068 104.256 140.382 103.907 140.78C103.558 141.178 103.303 141.65 103.162 142.16L103.581 142.072C103.236 141.644 102.773 141.327 102.248 141.162C101.724 140.996 101.163 140.99 100.635 141.143C100.107 141.296 99.6356 141.602 99.2811 142.022C98.9266 142.442 98.7044 142.958 98.6423 143.504L98.9345 143.426C98.7677 143.215 98.5543 143.045 98.3109 142.93C98.0676 142.815 97.8009 142.758 97.5319 142.764C97.1351 142.778 96.7575 142.938 96.4702 143.212C96.294 143.375 96.1603 143.579 96.0805 143.806C96.0416 143.942 96.0416 144.03 96.0513 144.03Z" fill="#455A64"/>
<path d="M114.676 177.362C114.442 177.44 115.075 178.989 114.208 180.626C113.341 182.262 111.627 182.768 111.695 182.992C111.764 183.217 112.192 183.139 112.893 182.876C113.802 182.515 114.554 181.846 115.017 180.986C115.464 180.16 115.573 179.192 115.319 178.288C115.114 177.586 114.783 177.304 114.676 177.362Z" fill="#263238"/>
<path d="M105.188 205.415L97.4736 227.147L99.2562 250.913L104.126 291.97C104.126 291.97 122.215 285.863 123.033 286.476C123.851 287.09 115.026 244.855 115.026 244.855L121.406 210.49L120.997 200.37L105.188 205.415Z" fill="#8B8AE1"/>
<path d="M105.189 205.415L96.7046 224.896L79.1716 231.773L60.8398 237.452L63.4113 250.641C63.5385 251.281 63.7956 251.888 64.1669 252.426C64.5382 252.963 65.0157 253.418 65.5698 253.763C66.124 254.108 66.7431 254.336 67.3888 254.432C68.0345 254.528 68.6931 254.491 69.3239 254.323L84.8406 250.154L99.2956 249.491L106.815 232.017L105.189 205.415Z" fill="#8B8AE1"/>
<path d="M66.8303 232.027L68.1161 230.429C69.3813 230.418 70.6329 230.691 71.7785 231.228C73.4575 232.608 74.6882 234.455 75.3144 236.536C75.4552 238.033 75.4552 239.54 75.3144 241.037L66.5479 232.027" fill="#A2675F"/>
<path d="M49.7354 222.559C49.7354 222.822 66.2943 240.364 66.2943 240.364L69.4113 243.442H79.3466L60.0603 222.013L51.7419 220.591L49.7354 222.559Z" fill="#263238"/>
<path d="M116.896 261.532C116.749 261.341 116.621 261.135 116.516 260.918L115.542 259.107C114.705 257.529 113.516 255.21 112.133 252.288C110.488 248.911 109.025 245.448 107.75 241.915C107.386 240.885 107.083 239.834 106.844 238.768C106.72 238.21 106.632 237.643 106.581 237.073C106.581 236.508 106.581 235.934 106.581 235.359C106.581 233.051 106.581 230.664 106.698 228.219C106.815 225.122 106.971 222.131 107.156 219.287V219.141L107.292 219.083L112.425 216.823L112.484 217.271L108.588 216.755H108.256L108.422 216.472C110.955 212.128 113.059 208.495 114.568 205.894L116.312 202.972L116.789 202.212C116.838 202.119 116.9 202.033 116.974 201.959C116.944 202.058 116.902 202.153 116.848 202.241L116.429 203.04L114.783 206.04L108.802 216.706L108.636 216.384L112.533 216.872L113.36 216.969L112.601 217.31L107.487 219.589L107.633 219.375C107.458 222.219 107.302 225.219 107.185 228.297C107.097 230.732 107.039 233.109 107.058 235.408C107.058 235.982 107.058 236.547 107.058 237.112C107.101 237.657 107.182 238.197 107.302 238.729C107.532 239.777 107.821 240.812 108.169 241.827C109.542 245.811 111.091 249.288 112.445 252.201C113.799 255.113 114.909 257.431 115.698 259.019L116.594 260.87C116.711 261.083 116.812 261.304 116.896 261.532Z" fill="#263238"/>
<path d="M59.5048 232.026C59.5048 232.026 56.9918 233.838 57.06 234.87C57.0606 235.325 57.1718 235.773 57.3839 236.175C57.596 236.577 57.9027 236.921 58.2775 237.179C58.862 237.374 60.5958 238.27 60.5958 238.27C60.5958 238.27 59.047 239.75 59.5048 241.299C59.5894 241.713 59.7653 242.102 60.0198 242.439C60.2743 242.777 60.6008 243.052 60.9757 243.247C61.0113 244.325 61.2287 245.388 61.6185 246.393C62.2103 247.196 63.0835 247.746 64.0634 247.932C64.6098 249.041 65.2622 250.095 66.0115 251.079C66.7641 251.777 67.7 252.246 68.7097 252.432C68.7097 252.432 71.0279 252.695 72.2455 251.858C73.0724 251.442 73.7614 250.796 74.2298 249.997C74.6981 249.199 74.9257 248.282 74.8852 247.358C74.8852 247.358 80.4178 244.591 80.4763 243.179C80.5347 241.767 79.9016 241.318 79.9016 241.318L77.1352 241.825C77.1352 241.825 76.7456 240.354 75.9177 240.218C75.0897 240.081 64.9888 242.536 64.9888 242.536C64.9888 242.536 71.8656 241.445 72.0604 240.091C72.2552 238.737 72.3137 237.588 71.2812 237.325C70.2487 237.062 62.9335 237.861 62.9335 237.861L62.5439 236.555C62.5439 236.555 64.492 236.624 64.492 234.89C64.492 233.156 63.4011 232.766 63.4011 232.766L59.5048 232.026Z" fill="#A2675F"/>
<path d="M116.897 201.939L117.735 208.65L112.543 237.843L117.813 263.042L145.125 271.116L155.869 266.48L152.197 195.744L142.437 188.887L138.687 186.364L124.621 207.657L116.897 201.939Z" fill="#FAFAFA"/>
<path d="M141.686 188.35L148.505 191.389L172.681 194.643L185.723 263.236L187.36 271.116L212.364 308.529C212.635 308.935 212.82 309.393 212.906 309.873C212.993 310.354 212.98 310.847 212.867 311.323C212.755 311.798 212.546 312.245 212.253 312.636C211.96 313.026 211.59 313.353 211.166 313.594L190.711 325.283C189.95 325.672 189.074 325.768 188.247 325.553C187.421 325.337 186.703 324.825 186.23 324.114L160.193 284.908L147.297 268.398C147.297 268.398 139.573 245.021 138.53 235.076C137.719 226.357 137.719 217.582 138.53 208.864C139.134 202.912 141.686 188.35 141.686 188.35Z" fill="#8B8AE1"/>
<path d="M172.642 194.643C174.216 195.469 175.582 196.64 176.64 198.069C177.697 199.498 178.419 201.147 178.749 202.893C180.288 211.036 184.925 225.238 186.668 240.404C189.103 261.619 183.395 268.165 180.707 271.827C178.019 275.49 161.343 283.263 161.343 283.263L148.807 266.567L162.687 255.19L161.469 225.725C161.469 225.725 156.599 219.024 159.034 209.069C161.469 199.114 168.58 194.039 172.671 194.643H172.642Z" fill="#8B8AE1"/>
<g opacity="0.3">
<path d="M185.577 262.679C183.678 267.822 181.506 272.167 177.084 274.612C172.369 277.222 165.814 280.904 161.343 283.261L164.616 288.346C169.749 287.557 179.226 281.576 182.304 277.397C185.284 273.111 186.459 267.825 185.577 262.679Z" fill="black"/>
</g>
<path d="M161.168 227.264C161.209 227.408 161.238 227.554 161.255 227.703C161.314 228.024 161.382 228.453 161.479 228.998C161.655 230.177 161.918 231.852 162.249 234.005C162.911 238.388 163.856 244.72 165.015 252.512V252.609L164.937 252.678L148.972 266.743V266.441L161.518 283.127L161.206 283.058C165.375 280.954 169.691 278.675 173.957 276.152C175.174 275.422 176.373 274.691 177.532 273.902C178.683 273.161 179.763 272.313 180.756 271.37C182.447 269.272 183.786 266.913 184.72 264.386C186.44 259.558 187.237 254.449 187.068 249.327C186.951 244.681 186.505 240.049 185.733 235.466C185.061 231.151 184.282 227.157 183.512 223.524C181.983 216.248 180.503 210.413 179.47 206.39C178.944 204.442 178.496 202.845 178.252 201.764C178.116 201.247 178.009 200.848 177.941 200.556C177.892 200.42 177.859 200.28 177.843 200.137C177.843 200.137 177.902 200.273 177.989 200.536C178.077 200.799 178.194 201.228 178.35 201.734C178.662 202.777 179.11 204.335 179.665 206.342C180.756 210.355 182.285 216.18 183.863 223.446C184.662 227.079 185.46 231.083 186.152 235.408C186.944 240.005 187.403 244.654 187.525 249.317C187.713 254.503 186.92 259.679 185.188 264.571C184.23 267.155 182.859 269.567 181.126 271.711C180.111 272.688 179.002 273.562 177.814 274.321C176.645 275.11 175.437 275.85 174.22 276.581C169.924 279.123 165.619 281.402 161.431 283.497L161.245 283.594L161.119 283.428L148.602 266.714L148.476 266.538L148.631 266.402L164.655 252.395L164.596 252.561C163.496 244.768 162.648 238.456 161.995 234.054C161.703 231.901 161.469 230.157 161.314 229.037C161.245 228.482 161.187 228.063 161.148 227.732C161.145 227.576 161.151 227.42 161.168 227.264Z" fill="#263238"/>
<path d="M143.469 252.463C143.462 252.234 143.482 252.006 143.527 251.781C143.586 251.294 143.674 250.651 143.771 249.833C144.024 248.099 144.365 245.693 144.794 242.752C145.641 236.771 146.976 228.531 148.271 219.375C148.875 214.952 149.45 210.744 149.966 206.907L150.122 207.15L145.992 205.572L145.583 205.416L145.943 205.183L150.093 202.494L150.015 202.679C149.518 199.241 149.119 196.426 148.826 194.4C148.709 193.426 148.602 192.715 148.534 192.14C148.483 191.877 148.46 191.609 148.466 191.341C148.547 191.595 148.605 191.856 148.641 192.12C148.739 192.695 148.875 193.435 149.041 194.37C149.372 196.387 149.83 199.192 150.385 202.621V202.747L150.287 202.816L146.167 205.543L146.118 205.163L150.268 206.712L150.443 206.78V206.965C149.937 210.803 149.372 215.02 148.778 219.443C147.492 228.57 146.099 236.81 145.154 242.82C144.667 245.742 144.268 248.158 143.976 249.882L143.635 251.83C143.599 252.046 143.544 252.258 143.469 252.463V252.463Z" fill="#263238"/>
<path d="M168.96 195.567C169.018 195.645 167.781 196.541 166.116 198.226C165.148 199.241 164.269 200.336 163.486 201.499C161.547 204.352 160.22 207.576 159.589 210.967C159.335 212.346 159.198 213.744 159.18 215.146C159.18 217.552 159.443 219.042 159.346 219.042C159.215 218.711 159.13 218.364 159.093 218.009C159.01 217.608 158.951 217.201 158.917 216.792C158.857 216.245 158.824 215.696 158.82 215.146C158.783 213.717 158.884 212.288 159.122 210.879C159.436 209.157 159.919 207.471 160.564 205.844C161.242 204.228 162.081 202.685 163.067 201.236C163.883 200.063 164.809 198.97 165.833 197.973C166.22 197.589 166.627 197.225 167.051 196.882C167.361 196.611 167.686 196.357 168.025 196.122C168.311 195.897 168.625 195.71 168.96 195.567V195.567Z" fill="#263238"/>
<path d="M99.1485 249.51C99.0121 249.51 98.564 244.795 98.1744 238.951C97.7848 233.107 97.5413 228.373 97.6874 228.353C97.8335 228.334 98.2718 233.077 98.6614 238.912C99.0511 244.747 99.2848 249.5 99.1485 249.51Z" fill="#263238"/>
<path d="M181.496 292.516L185.246 300.172L202.614 289.058L196.604 282.249L181.496 292.516Z" fill="#8B8AE1"/>
<path d="M181.496 292.525C181.825 292.239 182.173 291.975 182.538 291.737L185.597 289.584L196.467 282.064L196.643 281.947L196.779 282.103L202.808 288.921L203.003 289.146L202.75 289.301L201.99 289.788L185.344 300.318L185.168 300.425L185.09 300.24L182.402 294.552C182.119 293.928 181.886 293.422 181.71 293.022C181.624 292.857 181.552 292.684 181.496 292.506C181.618 292.673 181.723 292.853 181.808 293.042C182.012 293.441 182.275 293.948 182.607 294.561L185.412 300.084L185.149 300.016L201.708 289.301L202.468 288.814V289.194C200.344 286.788 198.318 284.49 196.467 282.376H196.779L185.899 289.633L182.723 291.707L181.857 292.263L181.496 292.525Z" fill="#263238"/>
<g opacity="0.3">
<path d="M181.622 292.856C181.7 293.002 185.518 304.613 185.518 304.613L201.717 293.119L200.324 290.577L185.246 300.22L181.622 292.856Z" fill="black"/>
</g>
<g opacity="0.3">
<path d="M148.953 194.593L151.875 204.09L148.953 205.415L152.8 207.305C152.8 207.305 146.742 240.423 145.982 243.442C145.222 246.462 144.287 247.436 144.287 247.436L150.2 206.983L146.07 205.415L150.2 202.698L148.953 194.593Z" fill="black"/>
</g>
<path d="M84.8698 246.346C84.7931 244.068 84.4232 241.809 83.7691 239.625C82.9545 237.501 81.8744 235.488 80.5547 233.635C81.1093 234.034 81.585 234.533 81.9573 235.106C83.9401 237.773 85.0339 240.997 85.084 244.32C85.1349 245.003 85.0623 245.689 84.8698 246.346V246.346Z" fill="#263238"/>
<g opacity="0.3">
<path d="M97.5427 227.419C94.6206 234.627 95.7018 242.526 99.0817 249.51C98.5557 241.474 98.244 235.211 97.5427 227.419Z" fill="black"/>
</g>
<path d="M139.573 194.35C139.441 194.692 139.271 195.019 139.066 195.324L137.556 197.846C136.29 199.989 134.634 202.97 132.949 206.369C131.819 208.658 130.855 210.85 130.027 212.701L129.92 212.974L129.696 212.798C128.408 211.771 127.197 210.651 126.072 209.447C125.621 209.015 125.222 208.531 124.884 208.006C125.371 208.395 125.83 208.818 126.257 209.272C127.436 210.393 128.671 211.453 129.959 212.448L129.627 212.535C130.377 210.655 131.322 208.454 132.452 206.145C133.88 203.232 135.466 200.4 137.206 197.661C137.878 196.609 138.452 195.781 138.861 195.217C139.062 194.9 139.301 194.608 139.573 194.35V194.35Z" fill="#263238"/>
<path d="M123.579 207.783C123.196 209.484 122.651 211.144 121.952 212.741L121.826 213.082L121.553 212.848L121.426 212.732C120.009 211.604 118.791 210.248 117.822 208.718C117.929 208.621 119.537 210.413 121.718 212.352L121.845 212.459L121.446 212.566C122.002 210.907 122.716 209.306 123.579 207.783V207.783Z" fill="#263238"/>
<path d="M126.442 257.624C126.387 257.475 126.361 257.316 126.364 257.157C126.364 256.777 126.286 256.329 126.237 255.783C126.159 254.507 126.042 252.803 125.906 250.728C125.643 246.462 125.341 240.569 125.078 234.052C124.815 227.536 124.679 221.633 124.679 217.357C124.679 215.214 124.679 213.461 124.747 212.292C124.747 211.746 124.747 211.318 124.815 210.918C124.815 210.757 124.834 210.597 124.874 210.441C124.9 210.599 124.9 210.76 124.874 210.918C124.874 211.288 124.874 211.746 124.874 212.292C124.874 213.568 124.932 215.272 124.971 217.347C125.059 221.623 125.263 227.516 125.516 234.033C125.77 240.549 126.013 246.374 126.188 250.709C126.266 252.793 126.325 254.498 126.374 255.774C126.374 256.319 126.374 256.748 126.374 257.147C126.411 257.304 126.434 257.463 126.442 257.624Z" fill="#263238"/>
<path d="M69.4116 389.171L71.9344 412.948C71.9344 412.948 48.5571 423.507 48.6448 427.939L94.9319 424.715L92.526 387.486L69.4116 389.171Z" fill="#8B8AE1"/>
<path d="M86.1063 409.947C86.5558 410.061 86.9498 410.331 87.2176 410.71C87.4854 411.088 87.6095 411.55 87.5674 412.012C87.4795 412.469 87.2194 412.876 86.8407 413.148C86.462 413.42 85.9935 413.536 85.5316 413.473C85.0453 413.371 84.6162 413.088 84.3319 412.68C84.0477 412.273 83.9298 411.773 84.0024 411.281C84.1408 410.813 84.4561 410.417 84.8816 410.177C85.307 409.937 85.8091 409.872 86.2816 409.995" fill="#E0E0E0"/>
<path d="M95.0387 425.678L94.805 422.073L50.3101 425.463C50.3101 425.463 48.3035 426.505 48.6445 427.937L95.0387 425.678Z" fill="#E0E0E0"/>
<path d="M71.1649 412.773C71.1649 412.997 72.3241 413.017 73.4929 413.67C74.6618 414.322 75.3144 415.228 75.5092 415.121C75.704 415.014 75.2852 413.738 73.8631 412.978C72.441 412.218 71.1065 412.569 71.1649 412.773Z" fill="#263238"/>
<path d="M66.4502 415.121C66.4502 415.335 67.4243 415.656 68.2522 416.562C69.0802 417.468 69.3822 418.452 69.6062 418.433C69.8302 418.413 69.8887 417.118 68.8269 416.017C67.7652 414.916 66.4405 414.897 66.4502 415.121Z" fill="#263238"/>
<path d="M64.1033 421.102C64.3078 421.102 64.5416 419.981 63.8792 418.783C63.2169 417.585 62.1162 417.166 62.0383 417.361C61.9603 417.556 62.6519 418.179 63.1877 419.163C63.7234 420.147 63.8695 421.102 64.1033 421.102Z" fill="#263238"/>
<path d="M71.1943 407.289C71.3014 407.484 72.3144 407.104 73.6002 407.094C74.8859 407.084 75.9087 407.425 76.0158 407.23C76.123 407.035 75.1002 406.256 73.5904 406.305C72.0806 406.354 71.0676 407.113 71.1943 407.289Z" fill="#263238"/>
<path d="M61.1711 293.199L39.7419 303.797C39.7419 303.797 21.7608 285.562 17.6113 287.14L36.6639 329.444L70.7558 314.297L61.1711 293.199Z" fill="#8B8AE1"/>
<path d="M47.4562 316.048C47.5173 316.511 47.4048 316.98 47.1404 317.365C46.876 317.75 46.4784 318.023 46.0244 318.132C45.5645 318.211 45.0921 318.108 44.7056 317.847C44.3191 317.586 44.0483 317.186 43.9496 316.73C43.877 316.238 43.9949 315.738 44.2792 315.33C44.5635 314.923 44.9926 314.639 45.4789 314.538C45.958 314.521 46.4259 314.686 46.7876 315.001C47.1493 315.315 47.3779 315.756 47.427 316.233" fill="#E0E0E0"/>
<path d="M35.7871 329.882L39.0891 328.411L20.4944 287.841C20.4944 287.841 18.8288 286.331 17.5723 287.14L35.7871 329.882Z" fill="#E0E0E0"/>
<path d="M39.635 303.017C39.4304 303.114 39.8006 304.186 39.635 305.501C39.4694 306.816 38.8071 307.751 38.9726 307.906C39.1382 308.062 40.1999 307.215 40.4142 305.617C40.6285 304.02 39.8103 302.88 39.635 303.017Z" fill="#263238"/>
<path d="M35.7965 299.402C35.5823 299.402 35.631 300.503 35.0757 301.594C34.5205 302.685 33.6828 303.308 33.7803 303.542C33.8777 303.776 35.1147 303.347 35.7771 301.974C36.4394 300.6 36.0011 299.344 35.7965 299.402Z" fill="#263238"/>
<path d="M29.3587 299.276C29.3587 299.481 30.5568 299.276 31.4529 298.302C32.349 297.328 32.3588 296.091 32.1445 296.082C31.9302 296.072 31.599 296.948 30.849 297.786C30.099 298.624 29.2808 299.062 29.3587 299.276Z" fill="#263238"/>
<path d="M44.788 301.137C44.6419 301.312 45.353 302.111 45.7621 303.338C46.1712 304.566 46.2491 305.618 46.4731 305.637C46.6972 305.657 47.0478 304.459 46.4731 303.056C45.8984 301.653 44.9049 300.962 44.788 301.137Z" fill="#263238"/>
<path d="M71.6319 306.677C69.3145 307.255 67.2119 308.487 65.5748 310.226C63.9376 311.965 62.8349 314.138 62.3979 316.486C60.8297 324.736 66.5084 407.716 66.5084 407.716L95.6327 405.378L93.8501 349.468L93.1293 338.188L95.6327 336.24L146.819 327.23L139.027 306.073L130.465 291.17L91.2592 300.911L71.6319 306.677Z" fill="#263238"/>
<path d="M167.986 292.7C167.986 292.7 146.81 262.086 140.615 257.634C135.511 253.962 127.835 253.972 123.082 256.105C118.329 258.238 44.1836 295.018 44.1836 295.018L55.0638 322.292L125.644 297.833L136.164 314.392L145.963 327.367L173.47 327.581C174.765 327.581 180.678 315.892 180.678 315.892L167.986 292.7Z" fill="#263238"/>
<path d="M62.1252 322.886C62.1106 322.792 62.1106 322.697 62.1252 322.603C62.1252 322.379 62.1252 322.106 62.1252 321.765C62.1252 321.425 62.1252 320.928 62.1252 320.392C62.1252 319.856 62.2518 319.233 62.3298 318.532C62.4077 317.83 62.6317 317.08 62.7876 316.233C62.8752 315.814 63.0506 315.395 63.1869 314.957C63.3283 314.493 63.5041 314.04 63.7129 313.603C64.6146 311.491 66.0516 309.651 67.8819 308.265C68.9482 307.454 70.1624 306.858 71.4567 306.512L75.6743 305.791L84.9571 304.242L106.24 300.716L125.565 297.55H125.721L125.809 297.687C131.468 306.521 136.066 314.246 139.933 319.233C141.803 321.756 143.303 323.762 144.355 325.165C144.852 325.837 145.241 326.363 145.534 326.743L145.826 327.152L145.923 327.298C145.923 327.298 145.923 327.298 145.797 327.181L145.465 326.792L144.228 325.262C143.157 323.918 141.598 321.941 139.699 319.418C135.754 314.431 131.088 306.755 125.41 297.989L125.643 298.096L106.318 301.291L85.035 304.778L75.7425 306.288L71.5443 306.97C70.2971 307.297 69.1235 307.859 68.0864 308.625C66.2951 309.968 64.8795 311.749 63.9759 313.798C63.76 314.223 63.5808 314.666 63.4402 315.122C63.2773 315.533 63.1375 315.953 63.0213 316.379C62.8172 317.123 62.6546 317.877 62.5343 318.639L62.2713 320.48C62.2713 321.006 62.2129 321.454 62.1934 321.843C62.1739 322.233 62.1934 322.467 62.135 322.681C62.137 322.749 62.1337 322.818 62.1252 322.886Z" fill="#455A64"/>
<path d="M135.745 278.888C135.818 279.175 135.854 279.469 135.852 279.765C135.917 280.565 135.917 281.37 135.852 282.171C135.742 283.363 135.523 284.544 135.199 285.697C134.788 287.104 134.247 288.471 133.582 289.778C132.884 291.067 132.069 292.29 131.147 293.431C130.378 294.35 129.531 295.2 128.615 295.973C128.005 296.494 127.354 296.963 126.667 297.376C126.425 297.549 126.159 297.687 125.878 297.785C125.829 297.707 126.852 297.045 128.381 295.7C129.245 294.91 130.047 294.054 130.777 293.139C131.665 292.011 132.453 290.808 133.134 289.544C133.785 288.265 134.326 286.932 134.751 285.56C135.091 284.44 135.339 283.293 135.492 282.132C135.716 280.154 135.647 278.888 135.745 278.888Z" fill="#455A64"/>
<path d="M381.206 375.983L253.751 375.914C246.389 375.909 239.331 372.981 234.127 367.774C228.923 362.566 226 355.506 226 348.144L226.068 28.5565C226.068 24.9093 226.787 21.2978 228.183 17.9285C229.58 14.5591 231.626 11.498 234.206 8.9199C236.786 6.34184 239.848 4.29741 243.219 2.90346C246.589 1.5095 250.201 0.793346 253.848 0.795905L381.303 0.912791C388.665 0.917955 395.724 3.84603 400.927 9.05342C406.131 14.2608 409.054 21.3213 409.054 28.6831L408.996 348.232C408.993 351.879 408.272 355.489 406.874 358.858C405.476 362.226 403.429 365.286 400.848 367.863C398.268 370.44 395.205 372.483 391.835 373.876C388.464 375.269 384.853 375.985 381.206 375.983V375.983Z" fill="#263238"/>
<path d="M381.167 12.2127H356.455C354.829 12.2511 353.283 12.933 352.159 14.1089C351.034 15.2848 350.421 16.8588 350.455 18.4857V22.9663C350.473 23.7722 350.333 24.5738 350.041 25.3253C349.749 26.0767 349.312 26.7634 348.755 27.3459C348.198 27.9284 347.531 28.3955 346.793 28.7203C346.056 29.0452 345.261 29.2215 344.455 29.2392H296.288C295.482 29.2215 294.688 29.0452 293.95 28.7203C293.212 28.3955 292.546 27.9284 291.988 27.3459C291.431 26.7634 290.994 26.0767 290.702 25.3253C290.411 24.5738 290.27 23.7722 290.288 22.9663V18.4272C290.322 16.8003 289.709 15.2263 288.584 14.0504C287.46 12.8745 285.914 12.1926 284.288 12.1543H275.589H253.965C248.799 12.1543 243.844 14.2068 240.19 17.8602C236.537 21.5136 234.484 26.4687 234.484 31.6354L234.426 343.538C234.426 348.696 236.472 353.644 240.114 357.296C243.757 360.948 248.7 363.006 253.858 363.019L381.07 363.087C386.237 363.087 391.192 361.035 394.845 357.381C398.498 353.728 400.551 348.773 400.551 343.606L400.619 31.7036C400.622 26.5403 398.574 21.5871 394.927 17.9324C391.28 14.2777 386.331 12.2205 381.167 12.2127V12.2127Z" fill="white"/>
<path d="M400.608 31.6646C400.608 26.4979 398.556 21.5428 394.902 17.8894C391.249 14.236 386.294 12.1835 381.127 12.1835H356.415C354.789 12.2218 353.243 12.9037 352.119 14.0796C350.994 15.2556 350.381 16.8295 350.415 18.4564V22.9371C350.433 23.743 350.292 24.5446 350.001 25.2961C349.709 26.0475 349.272 26.7341 348.715 27.3167C348.158 27.8992 347.491 28.3662 346.753 28.6911C346.015 29.016 345.221 29.1923 344.415 29.21H296.248C295.442 29.1923 294.648 29.016 293.91 28.6911C293.172 28.3662 292.506 27.8992 291.948 27.3167C291.391 26.7341 290.954 26.0475 290.662 25.2961C290.371 24.5446 290.23 23.743 290.248 22.9371V18.4272C290.282 16.8003 289.669 15.2263 288.544 14.0504C287.42 12.8745 285.874 12.1926 284.248 12.1543H275.549H253.925C248.759 12.1543 243.803 14.2068 240.15 17.8602C236.497 21.5136 234.444 26.4687 234.444 31.6354L234.386 61.461H400.599L400.608 31.6646Z" fill="#F5F5F5"/>
<path d="M387.09 42.6219C387.09 42.7096 384.109 42.8168 380.437 42.846C378.219 42.9223 375.998 42.8833 373.784 42.7291C378.215 42.4661 382.656 42.4304 387.09 42.6219V42.6219Z" fill="#263238"/>
<path d="M387.147 46.0212C384.938 46.2118 382.721 46.2866 380.504 46.2452C378.286 46.3215 376.066 46.2825 373.852 46.1283C373.852 46.0407 376.822 45.9433 380.504 45.9043C384.186 45.8653 387.147 45.9335 387.147 46.0212Z" fill="#263238"/>
<path d="M387.147 49.4313C387.147 49.519 384.177 49.6164 380.504 49.6456C378.286 49.7219 376.066 49.6862 373.852 49.5384C378.279 49.2754 382.717 49.2397 387.147 49.4313V49.4313Z" fill="#263238"/>
<path d="M271.343 278.147L272.015 276.735C273.198 277.694 274.68 278.211 276.203 278.196C278.385 278.196 279.33 277.348 279.33 276.248C279.33 273.16 271.654 275.108 271.654 270.403C271.654 268.455 273.174 266.78 276.525 266.78C277.963 266.752 279.378 267.145 280.596 267.91L280.002 269.342C278.963 268.679 277.758 268.321 276.525 268.309C274.372 268.309 273.447 269.215 273.447 270.325C273.447 273.423 281.122 271.484 281.122 276.17C281.122 278.118 279.564 279.774 276.252 279.774C274.475 279.824 272.738 279.248 271.343 278.147V278.147Z" fill="#263238"/>
<path d="M282.602 274.797C282.592 274.138 282.717 273.483 282.971 272.873C283.225 272.264 283.602 271.714 284.078 271.257C284.555 270.8 285.12 270.446 285.739 270.217C286.358 269.988 287.018 269.89 287.677 269.927C288.451 269.882 289.222 270.048 289.909 270.409C290.595 270.769 291.171 271.31 291.573 271.973L290.258 272.82C289.977 272.387 289.589 272.033 289.132 271.793C288.675 271.553 288.164 271.433 287.648 271.447C286.784 271.493 285.971 271.869 285.376 272.497C284.781 273.125 284.449 273.957 284.449 274.822C284.449 275.687 284.781 276.519 285.376 277.147C285.971 277.775 286.784 278.151 287.648 278.197C288.164 278.213 288.676 278.095 289.134 277.855C289.591 277.614 289.979 277.259 290.258 276.824L291.573 277.661C291.17 278.324 290.594 278.864 289.908 279.226C289.222 279.588 288.451 279.758 287.677 279.716C287.014 279.753 286.351 279.652 285.729 279.42C285.107 279.187 284.54 278.829 284.063 278.367C283.587 277.905 283.211 277.349 282.959 276.735C282.708 276.121 282.586 275.461 282.602 274.797Z" fill="#263238"/>
<path d="M301.431 273.803V279.589H299.785V278.322C299.419 278.798 298.938 279.174 298.388 279.414C297.838 279.654 297.236 279.751 296.638 279.696C294.466 279.696 293.083 278.537 293.083 276.871C293.083 275.205 294.057 274.066 296.979 274.066H299.736V273.725C299.736 272.264 298.879 271.406 297.164 271.406C296.064 271.397 294.993 271.761 294.125 272.439L293.395 271.134C294.544 270.298 295.938 269.866 297.359 269.906C299.95 269.906 301.431 271.173 301.431 273.803ZM299.697 276.657V275.322H297.018C295.294 275.322 294.807 275.985 294.807 276.803C294.807 277.621 295.606 278.361 296.921 278.361C297.504 278.404 298.086 278.263 298.584 277.957C299.082 277.651 299.472 277.196 299.697 276.657Z" fill="#263238"/>
<path d="M313.763 274.067V279.59H312.019V274.272C312.019 272.392 311.045 271.466 309.438 271.466C309.018 271.435 308.595 271.496 308.202 271.647C307.808 271.798 307.453 272.034 307.161 272.339C306.87 272.643 306.649 273.009 306.516 273.408C306.382 273.808 306.339 274.233 306.389 274.651V279.59H304.655V269.995H306.301V271.447C306.713 270.933 307.242 270.525 307.843 270.257C308.445 269.989 309.102 269.869 309.759 269.908C312.146 269.908 313.763 271.252 313.763 274.067Z" fill="#263238"/>
<path d="M326.084 274.068V279.59H324.35V274.272C324.35 272.392 323.376 271.467 321.759 271.467C321.339 271.435 320.917 271.496 320.524 271.647C320.131 271.798 319.776 272.035 319.485 272.339C319.194 272.644 318.975 273.01 318.843 273.41C318.71 273.81 318.669 274.234 318.72 274.652V279.59H317.016V269.996H318.681V271.447C319.092 270.932 319.62 270.523 320.222 270.255C320.824 269.987 321.482 269.868 322.139 269.908C324.438 269.908 326.084 271.253 326.084 274.068Z" fill="#263238"/>
<path d="M329.006 267.026C328.996 266.791 329.057 266.558 329.181 266.357C329.305 266.157 329.486 265.998 329.701 265.902C329.916 265.806 330.155 265.776 330.387 265.816C330.619 265.857 330.833 265.966 331.003 266.13C331.172 266.294 331.288 266.504 331.337 266.735C331.385 266.965 331.364 267.205 331.275 267.423C331.185 267.641 331.033 267.828 330.837 267.958C330.641 268.089 330.41 268.158 330.175 268.156C330.023 268.16 329.873 268.134 329.732 268.079C329.591 268.024 329.462 267.941 329.353 267.836C329.245 267.731 329.158 267.605 329.098 267.466C329.039 267.327 329.007 267.177 329.006 267.026V267.026ZM329.308 269.997H331.051V279.591H329.308V269.997Z" fill="#263238"/>
<path d="M343.471 274.067V279.59H341.727V274.272C341.727 272.392 340.753 271.466 339.136 271.466C338.716 271.434 338.294 271.496 337.901 271.647C337.508 271.798 337.153 272.034 336.862 272.339C336.571 272.644 336.352 273.009 336.219 273.409C336.087 273.809 336.045 274.233 336.097 274.651V279.59H334.363V269.995H336.029V271.447C336.44 270.933 336.969 270.525 337.571 270.257C338.172 269.989 338.829 269.869 339.487 269.908C341.815 269.908 343.471 271.252 343.471 274.067Z" fill="#263238"/>
<path d="M355.919 269.996V278.295C355.919 281.675 354.204 283.214 350.941 283.214C349.295 283.283 347.677 282.777 346.363 281.782L347.191 280.448C348.243 281.274 349.546 281.714 350.883 281.695C353.152 281.695 354.185 280.643 354.185 278.471V277.711C353.754 278.198 353.22 278.583 352.622 278.839C352.024 279.095 351.377 279.215 350.727 279.191C350.1 279.22 349.473 279.121 348.885 278.901C348.297 278.681 347.759 278.344 347.305 277.91C346.851 277.476 346.489 276.955 346.242 276.377C345.995 275.8 345.868 275.178 345.868 274.55C345.868 273.922 345.995 273.3 346.242 272.723C346.489 272.146 346.851 271.624 347.305 271.19C347.759 270.756 348.297 270.419 348.885 270.199C349.473 269.979 350.1 269.88 350.727 269.909C351.4 269.882 352.069 270.01 352.684 270.284C353.299 270.558 353.842 270.969 354.273 271.487V269.996H355.919ZM354.214 274.545C354.251 273.883 354.089 273.224 353.747 272.656C353.405 272.087 352.901 271.633 352.299 271.355C351.697 271.076 351.025 270.985 350.37 271.092C349.715 271.2 349.108 271.502 348.627 271.959C348.146 272.416 347.813 273.007 347.672 273.655C347.53 274.303 347.587 274.979 347.834 275.595C348.082 276.21 348.508 276.737 349.059 277.108C349.609 277.478 350.258 277.675 350.922 277.672C351.349 277.705 351.777 277.648 352.181 277.504C352.584 277.361 352.953 277.135 353.263 276.84C353.573 276.545 353.818 276.189 353.982 275.794C354.146 275.398 354.225 274.973 354.214 274.545V274.545Z" fill="#263238"/>
<path d="M358.413 278.45C358.411 278.287 358.441 278.126 358.502 277.975C358.564 277.824 358.655 277.687 358.77 277.573C358.886 277.458 359.023 277.368 359.175 277.308C359.326 277.248 359.488 277.219 359.65 277.223C359.978 277.223 360.293 277.353 360.525 277.585C360.757 277.817 360.887 278.132 360.887 278.46C360.887 278.788 360.757 279.102 360.525 279.334C360.293 279.566 359.978 279.697 359.65 279.697C359.487 279.698 359.324 279.667 359.173 279.604C359.022 279.542 358.884 279.45 358.769 279.334C358.654 279.218 358.563 279.08 358.502 278.928C358.441 278.776 358.411 278.614 358.413 278.45V278.45Z" fill="#263238"/>
<path d="M362.524 278.45C362.521 278.287 362.551 278.126 362.613 277.975C362.674 277.824 362.765 277.687 362.881 277.573C362.996 277.458 363.134 277.368 363.285 277.308C363.436 277.248 363.598 277.219 363.761 277.223C364.089 277.223 364.403 277.353 364.635 277.585C364.867 277.817 364.998 278.132 364.998 278.46C364.998 278.788 364.867 279.102 364.635 279.334C364.403 279.566 364.089 279.697 363.761 279.697C363.597 279.698 363.435 279.667 363.283 279.604C363.132 279.542 362.995 279.45 362.88 279.334C362.764 279.218 362.673 279.08 362.612 278.928C362.551 278.776 362.521 278.614 362.524 278.45V278.45Z" fill="#263238"/>
<path d="M366.634 278.45C366.631 278.287 366.662 278.126 366.723 277.975C366.784 277.824 366.875 277.687 366.991 277.573C367.106 277.458 367.244 277.368 367.395 277.308C367.546 277.248 367.708 277.219 367.871 277.223C368.199 277.223 368.514 277.353 368.746 277.585C368.978 277.817 369.108 278.132 369.108 278.46C369.108 278.788 368.978 279.102 368.746 279.334C368.514 279.566 368.199 279.697 367.871 279.697C367.707 279.698 367.545 279.667 367.394 279.604C367.242 279.542 367.105 279.45 366.99 279.334C366.875 279.218 366.784 279.08 366.723 278.928C366.662 278.776 366.631 278.614 366.634 278.45V278.45Z" fill="#263238"/>
<path d="M368.836 320.403C368.836 320.54 345.858 320.657 317.532 320.657C289.206 320.657 266.219 320.54 266.219 320.403C266.219 320.267 289.187 320.15 317.532 320.15C345.877 320.15 368.836 320.257 368.836 320.403Z" fill="#263238"/>
<path d="M261.632 179.418V185.448H267.661V179.418V173.379H261.632V179.418Z" fill="#263238"/>
<path d="M267.661 143.232H261.632V149.262H267.661V143.232Z" fill="#263238"/>
<path d="M304.929 209.624H298.899V215.653H304.929V209.624Z" fill="#263238"/>
<path d="M267.661 155.29V161.32H261.632V167.349H267.661V173.378H273.691H279.73V179.418H285.759V173.378H291.789V167.349V161.32H285.759V167.349H279.73H273.691V161.32V155.29V149.261H267.661V155.29Z" fill="#263238"/>
<path d="M279.73 143.232H273.69V149.262H279.73H285.759V143.232H279.73Z" fill="#263238"/>
<path d="M306.867 191.711H310.101V185.681H306.867H303.623V191.711H306.867Z" fill="#263238"/>
<path d="M291.788 149.261H285.759V155.29H291.788V149.261Z" fill="#263238"/>
<path d="M334.003 173.379H327.974V179.409H334.003V173.379Z" fill="#263238"/>
<path d="M340.033 107.046H334.004V113.075H340.033V107.046Z" fill="#263238"/>
<path d="M303.847 155.291V149.262H309.876V143.232H303.847V137.203H297.817V143.232H291.788V149.262H297.817V155.291V161.321V167.35V173.379H303.847V167.35V161.321H309.876V155.291H303.847Z" fill="#263238"/>
<path d="M334.003 215.594H340.032V209.565H334.003H327.974V215.594H334.003Z" fill="#263238"/>
<path d="M327.974 107.046H321.944V113.075H327.974V107.046Z" fill="#263238"/>
<path d="M326.464 155.291V149.262H320.435V143.232H314.405V149.262V155.291H308.376V161.321H314.405H320.435V155.291H326.464Z" fill="#263238"/>
<path d="M360.498 143.232H354.469V149.262H360.498V143.232Z" fill="#263238"/>
<path d="M297.992 173.379H291.963V179.409H297.992V173.379Z" fill="#263238"/>
<path d="M321.945 137.201V131.172H327.975V125.133H334.004H340.034V119.104H334.004V113.074H327.975V119.104H321.945V125.133H315.906V131.172H309.877V137.201H315.906H321.945Z" fill="#263238"/>
<path d="M321.945 179.418V173.379H327.975V167.35H321.945H315.906V173.379H309.877V179.418H315.906H321.945Z" fill="#263238"/>
<path d="M340.034 203.536V197.497H334.004H327.975V191.467H321.946V197.497H315.906V203.536H309.877H303.848V209.565H309.877H315.906H321.946V203.536H327.975V209.565H334.004V203.536H340.034Z" fill="#263238"/>
<path d="M315.906 113.075V107.046H309.876H303.847V113.075H297.817V119.105H303.847H309.876V113.075H315.906Z" fill="#263238"/>
<path d="M315.906 119.107H309.877V125.136H315.906V119.107Z" fill="#263238"/>
<path d="M330.984 143.231H324.955V149.261V155.29V161.32H330.984H337.014V155.29H330.984V149.261H337.014V143.231H343.043V137.202H337.014V131.173H330.984V137.202V143.231Z" fill="#263238"/>
<path d="M309.877 125.135H303.848V131.164H309.877V125.135Z" fill="#263238"/>
<path d="M327.974 185.448V191.478H334.003H340.032V185.448H346.062H352.091V179.419H346.062H340.032H334.003V185.448H327.974Z" fill="#263238"/>
<path d="M360.498 161.322H354.469V167.351H360.498V161.322Z" fill="#263238"/>
<path d="M340.033 167.35H334.004V173.379H340.033V167.35Z" fill="#263238"/>
<path d="M355.112 149.261H349.082H343.043V155.29H349.082V161.32H355.112V155.29V149.261Z" fill="#263238"/>
<path d="M352.092 167.35H346.062V173.379H352.092V167.35Z" fill="#263238"/>
<path d="M285.759 203.652H303.857V179.408H279.613V185.447H273.7V191.476H279.613V197.506H273.7V203.535H279.613V203.652H279.73V209.564H273.7V221.623H279.73V215.574H285.759V203.652ZM299.211 184.044V199.122H284.132V184.044H299.211Z" fill="#263238"/>
<path d="M364.151 179.418H370.18V173.379H364.151H358.121H352.092V179.418H358.121H364.151Z" fill="#263238"/>
<path d="M364.15 155.291H370.18V149.262V143.232H364.15V149.262V155.291Z" fill="#263238"/>
<path d="M316.14 185.681H310.101V191.711V197.74H316.14V191.711V185.681Z" fill="#263238"/>
<path d="M376.21 179.419H370.181V185.448H376.21V179.419Z" fill="#263238"/>
<path d="M376.22 167.351V161.322H370.181V167.351V173.38H376.22V167.351Z" fill="#263238"/>
<path d="M267.661 209.565H261.632V215.594V221.624H267.661V215.594V209.565Z" fill="#263238"/>
<path d="M376.219 137.203V107.007H346.023V137.203H376.219ZM350.582 132.674V111.566H371.69V132.674H350.582Z" fill="#263238"/>
<path d="M367.17 116.096H355.111V128.155H367.17V116.096Z" fill="#263238"/>
<path d="M376.219 191.477H346.023V221.624H376.219V191.477ZM350.582 217.104V195.996H371.69V217.104H350.582Z" fill="#263238"/>
<path d="M367.17 200.517H355.111V212.575H367.17V200.517Z" fill="#263238"/>
<path d="M261.562 107.046V137.241H291.69V107.046H261.562ZM287.19 111.565V132.673H266.082V111.565H287.19Z" fill="#263238"/>
<path d="M282.661 116.096H270.603V128.155H282.661V116.096Z" fill="#263238"/>
<path d="M252.962 128.067V106.637C252.825 104.671 253.43 102.725 254.657 101.183C255.392 100.371 256.296 99.7325 257.307 99.3116C258.317 98.8906 259.408 98.698 260.501 98.7474H283.021C283.2 98.7474 283.37 98.6766 283.497 98.5506C283.623 98.4246 283.693 98.2536 283.693 98.0753C283.693 97.8971 283.623 97.7261 283.497 97.6001C283.37 97.4741 283.2 97.4032 283.021 97.4032H260.774C258.89 97.3087 257.021 97.7802 255.407 98.7572C254.247 99.5296 253.294 100.575 252.632 101.801C251.97 103.027 251.618 104.396 251.608 105.79C251.55 109.316 251.608 112.852 251.608 116.368V128.057C251.628 128.222 251.708 128.375 251.833 128.486C251.957 128.596 252.118 128.657 252.285 128.657C252.452 128.657 252.613 128.596 252.737 128.486C252.862 128.375 252.942 128.222 252.962 128.057V128.067Z" fill="#8B8AE1"/>
<path d="M281.073 231.814H259.644C257.678 231.947 255.734 231.342 254.189 230.119C253.379 229.384 252.741 228.479 252.32 227.469C251.899 226.459 251.706 225.368 251.754 224.275V201.726C251.754 201.547 251.683 201.376 251.557 201.25C251.431 201.124 251.26 201.054 251.082 201.054C250.904 201.054 250.733 201.124 250.607 201.25C250.481 201.376 250.41 201.547 250.41 201.726V224.002C250.317 225.886 250.788 227.755 251.764 229.369C252.536 230.529 253.581 231.48 254.808 232.141C256.034 232.802 257.404 233.151 258.797 233.158C262.323 233.217 265.849 233.158 269.375 233.158H281.064C281.242 233.158 281.413 233.088 281.539 232.962C281.665 232.836 281.736 232.665 281.736 232.486C281.736 232.308 281.665 232.137 281.539 232.011C281.413 231.885 281.242 231.814 281.064 231.814H281.073Z" fill="#8B8AE1"/>
<path d="M384.168 201.51V222.939C384.305 224.905 383.7 226.852 382.473 228.394C381.739 229.206 380.834 229.845 379.824 230.266C378.813 230.687 377.722 230.879 376.629 230.829H354.079C353.901 230.829 353.73 230.9 353.604 231.026C353.478 231.152 353.407 231.323 353.407 231.501C353.407 231.679 353.478 231.85 353.604 231.976C353.73 232.102 353.901 232.173 354.079 232.173H376.356C378.24 232.268 380.109 231.796 381.723 230.819C382.882 230.047 383.834 229.002 384.495 227.776C385.156 226.549 385.505 225.18 385.512 223.787C385.58 220.261 385.512 216.735 385.512 213.208V201.52C385.512 201.342 385.441 201.171 385.315 201.045C385.189 200.918 385.018 200.848 384.84 200.848C384.662 200.848 384.491 200.918 384.365 201.045C384.239 201.171 384.168 201.342 384.168 201.52V201.51Z" fill="#8B8AE1"/>
<path d="M354.469 98.7563H375.898C377.866 98.6219 379.812 99.2302 381.353 100.461C382.167 101.193 382.808 102.098 383.229 103.109C383.65 104.12 383.841 105.211 383.788 106.305V128.884C383.788 129.062 383.859 129.233 383.985 129.359C384.111 129.485 384.282 129.556 384.46 129.556C384.638 129.556 384.809 129.485 384.935 129.359C385.061 129.233 385.132 129.062 385.132 128.884V106.578C385.227 104.691 384.756 102.818 383.778 101.201C383.006 100.042 381.961 99.0901 380.735 98.4294C379.508 97.7687 378.139 97.4194 376.746 97.4121C373.22 97.3536 369.693 97.4121 366.167 97.4121H354.479C354.3 97.4121 354.13 97.4829 354.004 97.6089C353.877 97.735 353.807 97.9059 353.807 98.0842C353.807 98.2624 353.877 98.4334 354.004 98.5594C354.13 98.6855 354.3 98.7563 354.479 98.7563H354.469Z" fill="#8B8AE1"/>
<path d="M366.703 295.759H265.118C256.178 295.759 248.93 303.007 248.93 311.948V315.386C248.93 324.327 256.178 331.575 265.118 331.575H366.703C375.644 331.575 382.892 324.327 382.892 315.386V311.948C382.892 303.007 375.644 295.759 366.703 295.759Z" fill="#EBEBEB"/>
<path d="M274.95 316L273.01 310.62H274.48L276.09 315.25H275.39L277.07 310.62H278.39L280.02 315.25H279.32L280.98 310.62H282.36L280.41 316H278.9L277.47 312.03H277.93L276.45 316H274.95ZM284.179 316L282.239 310.62H283.709L285.319 315.25H284.619L286.299 310.62H287.619L289.249 315.25H288.549L290.209 310.62H291.589L289.639 316H288.129L286.699 312.03H287.159L285.679 316H284.179ZM293.407 316L291.467 310.62H292.937L294.547 315.25H293.847L295.527 310.62H296.847L298.477 315.25H297.777L299.437 310.62H300.817L298.867 316H297.357L295.927 312.03H296.387L294.907 316H293.407ZM301.81 316.08C301.543 316.08 301.313 315.99 301.12 315.81C300.933 315.623 300.84 315.387 300.84 315.1C300.84 314.813 300.933 314.583 301.12 314.41C301.313 314.23 301.543 314.14 301.81 314.14C302.083 314.14 302.313 314.23 302.5 314.41C302.687 314.583 302.78 314.813 302.78 315.1C302.78 315.387 302.687 315.623 302.5 315.81C302.313 315.99 302.083 316.08 301.81 316.08ZM306.069 316.08C305.562 316.08 305.105 315.967 304.699 315.74C304.292 315.513 303.969 315.193 303.729 314.78C303.495 314.367 303.379 313.877 303.379 313.31C303.379 312.75 303.495 312.263 303.729 311.85C303.969 311.437 304.292 311.117 304.699 310.89C305.105 310.657 305.562 310.54 306.069 310.54C306.542 310.54 306.945 310.64 307.279 310.84C307.619 311.04 307.879 311.343 308.059 311.75C308.239 312.157 308.329 312.677 308.329 313.31C308.329 313.937 308.235 314.457 308.049 314.87C307.862 315.277 307.599 315.58 307.259 315.78C306.919 315.98 306.522 316.08 306.069 316.08ZM306.339 314.8C306.592 314.8 306.822 314.74 307.029 314.62C307.235 314.5 307.399 314.33 307.519 314.11C307.645 313.883 307.709 313.617 307.709 313.31C307.709 312.997 307.645 312.73 307.519 312.51C307.399 312.29 307.235 312.12 307.029 312C306.822 311.88 306.592 311.82 306.339 311.82C306.079 311.82 305.845 311.88 305.639 312C305.432 312.12 305.265 312.29 305.139 312.51C305.019 312.73 304.959 312.997 304.959 313.31C304.959 313.617 305.019 313.883 305.139 314.11C305.265 314.33 305.432 314.5 305.639 314.62C305.845 314.74 306.079 314.8 306.339 314.8ZM307.679 317.94V314.91L307.779 313.32L307.749 311.72V310.62H309.239V317.94H307.679ZM310.683 316V310.62H312.173V312.14L311.963 311.7C312.123 311.32 312.38 311.033 312.733 310.84C313.086 310.64 313.516 310.54 314.023 310.54V311.98C313.956 311.973 313.896 311.97 313.843 311.97C313.79 311.963 313.733 311.96 313.673 311.96C313.246 311.96 312.9 312.083 312.633 312.33C312.373 312.57 312.243 312.947 312.243 313.46V316H310.683ZM318.14 316.08C317.687 316.08 317.29 315.98 316.95 315.78C316.61 315.58 316.344 315.277 316.15 314.87C315.964 314.457 315.87 313.937 315.87 313.31C315.87 312.677 315.96 312.157 316.14 311.75C316.32 311.343 316.58 311.04 316.92 310.84C317.26 310.64 317.667 310.54 318.14 310.54C318.647 310.54 319.1 310.657 319.5 310.89C319.907 311.117 320.227 311.437 320.46 311.85C320.7 312.263 320.82 312.75 320.82 313.31C320.82 313.877 320.7 314.367 320.46 314.78C320.227 315.193 319.907 315.513 319.5 315.74C319.1 315.967 318.647 316.08 318.14 316.08ZM314.96 317.94V310.62H316.45V311.72L316.42 313.32L316.52 314.91V317.94H314.96ZM317.87 314.8C318.13 314.8 318.36 314.74 318.56 314.62C318.767 314.5 318.93 314.33 319.05 314.11C319.177 313.883 319.24 313.617 319.24 313.31C319.24 312.997 319.177 312.73 319.05 312.51C318.93 312.29 318.767 312.12 318.56 312C318.36 311.88 318.13 311.82 317.87 311.82C317.61 311.82 317.377 311.88 317.17 312C316.964 312.12 316.8 312.29 316.68 312.51C316.56 312.73 316.5 312.997 316.5 313.31C316.5 313.617 316.56 313.883 316.68 314.11C316.8 314.33 316.964 314.5 317.17 314.62C317.377 314.74 317.61 314.8 317.87 314.8ZM321.865 316V308.58H323.425V316H321.865ZM328.172 316V314.95L328.072 314.72V312.84C328.072 312.507 327.969 312.247 327.762 312.06C327.562 311.873 327.252 311.78 326.832 311.78C326.546 311.78 326.262 311.827 325.982 311.92C325.709 312.007 325.476 312.127 325.282 312.28L324.722 311.19C325.016 310.983 325.369 310.823 325.782 310.71C326.196 310.597 326.616 310.54 327.042 310.54C327.862 310.54 328.499 310.733 328.952 311.12C329.406 311.507 329.632 312.11 329.632 312.93V316H328.172ZM326.532 316.08C326.112 316.08 325.752 316.01 325.452 315.87C325.152 315.723 324.922 315.527 324.762 315.28C324.602 315.033 324.522 314.757 324.522 314.45C324.522 314.13 324.599 313.85 324.752 313.61C324.912 313.37 325.162 313.183 325.502 313.05C325.842 312.91 326.286 312.84 326.832 312.84H328.262V313.75H327.002C326.636 313.75 326.382 313.81 326.242 313.93C326.109 314.05 326.042 314.2 326.042 314.38C326.042 314.58 326.119 314.74 326.272 314.86C326.432 314.973 326.649 315.03 326.922 315.03C327.182 315.03 327.416 314.97 327.622 314.85C327.829 314.723 327.979 314.54 328.072 314.3L328.312 315.02C328.199 315.367 327.992 315.63 327.692 315.81C327.392 315.99 327.006 316.08 326.532 316.08ZM334.314 310.54C334.741 310.54 335.121 310.627 335.454 310.8C335.794 310.967 336.061 311.227 336.254 311.58C336.448 311.927 336.544 312.373 336.544 312.92V316H334.984V313.16C334.984 312.727 334.888 312.407 334.694 312.2C334.508 311.993 334.241 311.89 333.894 311.89C333.648 311.89 333.424 311.943 333.224 312.05C333.031 312.15 332.878 312.307 332.764 312.52C332.658 312.733 332.604 313.007 332.604 313.34V316H331.044V310.62H332.534V312.11L332.254 311.66C332.448 311.3 332.724 311.023 333.084 310.83C333.444 310.637 333.854 310.54 334.314 310.54ZM340.667 316.08C340.054 316.08 339.514 315.96 339.047 315.72C338.587 315.48 338.231 315.153 337.977 314.74C337.724 314.32 337.597 313.843 337.597 313.31C337.597 312.77 337.721 312.293 337.967 311.88C338.221 311.46 338.564 311.133 338.997 310.9C339.431 310.66 339.921 310.54 340.467 310.54C340.994 310.54 341.467 310.653 341.887 310.88C342.314 311.1 342.651 311.42 342.897 311.84C343.144 312.253 343.267 312.75 343.267 313.33C343.267 313.39 343.264 313.46 343.257 313.54C343.251 313.613 343.244 313.683 343.237 313.75H338.867V312.84H342.417L341.817 313.11C341.817 312.83 341.761 312.587 341.647 312.38C341.534 312.173 341.377 312.013 341.177 311.9C340.977 311.78 340.744 311.72 340.477 311.72C340.211 311.72 339.974 311.78 339.767 311.9C339.567 312.013 339.411 312.177 339.297 312.39C339.184 312.597 339.127 312.843 339.127 313.13V313.37C339.127 313.663 339.191 313.923 339.317 314.15C339.451 314.37 339.634 314.54 339.867 314.66C340.107 314.773 340.387 314.83 340.707 314.83C340.994 314.83 341.244 314.787 341.457 314.7C341.677 314.613 341.877 314.483 342.057 314.31L342.887 315.21C342.641 315.49 342.331 315.707 341.957 315.86C341.584 316.007 341.154 316.08 340.667 316.08ZM346.506 316.08C345.873 316.08 345.379 315.92 345.026 315.6C344.673 315.273 344.496 314.79 344.496 314.15V309.43H346.056V314.13C346.056 314.357 346.116 314.533 346.236 314.66C346.356 314.78 346.519 314.84 346.726 314.84C346.973 314.84 347.183 314.773 347.356 314.64L347.776 315.74C347.616 315.853 347.423 315.94 347.196 316C346.976 316.053 346.746 316.08 346.506 316.08ZM343.666 311.94V310.74H347.396V311.94H343.666ZM349.339 316.08C349.073 316.08 348.843 315.99 348.649 315.81C348.463 315.623 348.369 315.387 348.369 315.1C348.369 314.813 348.463 314.583 348.649 314.41C348.843 314.23 349.073 314.14 349.339 314.14C349.613 314.14 349.843 314.23 350.029 314.41C350.216 314.583 350.309 314.813 350.309 315.1C350.309 315.387 350.216 315.623 350.029 315.81C349.843 315.99 349.613 316.08 349.339 316.08ZM351.366 316V310.62H352.926V316H351.366ZM352.146 309.87C351.86 309.87 351.626 309.787 351.446 309.62C351.266 309.453 351.176 309.247 351.176 309C351.176 308.753 351.266 308.547 351.446 308.38C351.626 308.213 351.86 308.13 352.146 308.13C352.433 308.13 352.666 308.21 352.846 308.37C353.026 308.523 353.116 308.723 353.116 308.97C353.116 309.23 353.026 309.447 352.846 309.62C352.673 309.787 352.44 309.87 352.146 309.87ZM356.934 316.08C356.361 316.08 355.851 315.96 355.404 315.72C354.964 315.48 354.614 315.153 354.354 314.74C354.101 314.32 353.974 313.843 353.974 313.31C353.974 312.77 354.101 312.293 354.354 311.88C354.614 311.46 354.964 311.133 355.404 310.9C355.851 310.66 356.361 310.54 356.934 310.54C357.501 310.54 358.008 310.66 358.454 310.9C358.901 311.133 359.251 311.457 359.504 311.87C359.758 312.283 359.884 312.763 359.884 313.31C359.884 313.843 359.758 314.32 359.504 314.74C359.251 315.153 358.901 315.48 358.454 315.72C358.008 315.96 357.501 316.08 356.934 316.08ZM356.934 314.8C357.194 314.8 357.428 314.74 357.634 314.62C357.841 314.5 358.004 314.33 358.124 314.11C358.244 313.883 358.304 313.617 358.304 313.31C358.304 312.997 358.244 312.73 358.124 312.51C358.004 312.29 357.841 312.12 357.634 312C357.428 311.88 357.194 311.82 356.934 311.82C356.674 311.82 356.441 311.88 356.234 312C356.028 312.12 355.861 312.29 355.734 312.51C355.614 312.73 355.554 312.997 355.554 313.31C355.554 313.617 355.614 313.883 355.734 314.11C355.861 314.33 356.028 314.5 356.234 314.62C356.441 314.74 356.674 314.8 356.934 314.8Z" fill="#8A8B8E"/>
</svg>
