<svg width="25" height="24" viewBox="0 0 25 24" fill="none" xmlns="http://www.w3.org/2000/svg">
    <path d="M12.5 15a3 3 0 1 0 0-6 3 3 0 0 0 0 6z" stroke="#8A8B8E" stroke-linecap="round" stroke-linejoin="round"/>
    <path d="M19.9 15a1.65 1.65 0 0 0 .33 1.82l.06.06a1.998 1.998 0 0 1 0 2.83 1.998 1.998 0 0 1-2.83 0l-.06-.06a1.65 1.65 0 0 0-1.82-.33 1.65 1.65 0 0 0-1 1.51V21a2 2 0 0 1-4 0v-.09A1.65 1.65 0 0 0 9.5 19.4a1.65 1.65 0 0 0-1.82.33l-.06.06a1.998 1.998 0 0 1-2.83 0 2 2 0 0 1 0-2.83l.06-.06a1.65 1.65 0 0 0 .33-1.82 1.65 1.65 0 0 0-1.51-1H3.5a2 2 0 1 1 0-4h.09A1.65 1.65 0 0 0 5.1 9a1.65 1.65 0 0 0-.33-1.82l-.06-.06a2 2 0 1 1 2.83-2.83l.06.06a1.65 1.65 0 0 0 1.82.33h.08a1.65 1.65 0 0 0 1-1.51V3a2 2 0 1 1 4 0v.09a1.65 1.65 0 0 0 1 1.51 1.65 1.65 0 0 0 1.82-.33l.06-.06a2 2 0 0 1 3.417 1.415 2 2 0 0 1-.587 1.415l-.06.06a1.65 1.65 0 0 0-.33 1.82V9a1.65 1.65 0 0 0 1.51 1h.17a2 2 0 0 1 0 4h-.09a1.65 1.65 0 0 0-1.51 1v0z" stroke="#8A8B8E" stroke-linecap="round" stroke-linejoin="round"/>
</svg>
