<svg width="321" height="92" viewBox="0 0 321 92" fill="none" xmlns="http://www.w3.org/2000/svg">
<path d="M0.666667 84.3691C0.666667 81.4236 3.05448 79.0358 6 79.0358C8.94552 79.0358 11.3333 81.4236 11.3333 84.3691C11.3333 87.3147 8.94552 89.7025 6 89.7025C3.05448 89.7025 0.666667 87.3147 0.666667 84.3691ZM309.667 85.8691C309.667 82.9236 312.054 80.5358 315 80.5358C317.946 80.5358 320.333 82.9236 320.333 85.8691C320.333 88.8147 317.946 91.2025 315 91.2025C312.054 91.2025 309.667 88.8147 309.667 85.8691ZM5.06083 84.0257C5.29244 83.3924 5.53028 82.7625 5.7743 82.1362L7.63787 82.8622C7.39891 83.4756 7.16599 84.0924 6.93917 84.7126L5.06083 84.0257ZM7.31175 78.42C7.84851 77.1952 8.40935 75.9845 8.99368 74.7878L10.7909 75.6653C10.2185 76.8375 9.66924 78.0233 9.14356 79.2228L7.31175 78.42ZM10.8294 71.2161C11.4659 70.0377 12.1257 68.8736 12.8082 67.7239L14.528 68.7448C13.8592 69.8715 13.2127 71.0121 12.5891 72.1665L10.8294 71.2161ZM14.9231 64.3179C15.6505 63.1968 16.4 62.0902 17.171 60.998L18.8049 62.1514C18.0488 63.2225 17.314 64.3075 16.6009 65.4065L14.9231 64.3179ZM19.5479 57.7648C20.3591 56.7044 21.1911 55.6585 22.0433 54.627L23.5851 55.9008C22.7487 56.9133 21.9323 57.9397 21.1364 58.98L19.5479 57.7648ZM24.6493 51.5875C25.5376 50.5887 26.4454 49.6042 27.372 48.6341L28.8183 50.0155C27.9078 50.9687 27.0161 51.9358 26.1437 52.9167L24.6493 51.5875ZM30.1841 45.7902C31.1363 44.8596 32.1064 43.943 33.0938 43.0405L34.4431 44.5168C33.4719 45.4044 32.518 46.3057 31.5819 47.2206L30.1841 45.7902ZM36.1073 40.3752C37.1139 39.5137 38.1367 38.6657 39.1752 37.8315L40.4277 39.3908C39.4052 40.2121 38.3984 41.0468 37.4079 41.8946L36.1073 40.3752ZM42.3359 35.3711C43.4014 34.5672 44.4819 33.7769 45.577 33.0003L46.734 34.6317C45.6547 35.3971 44.59 36.1758 43.5405 36.9676L42.3359 35.3711ZM48.859 30.7422C49.9668 30.0028 51.0883 29.2766 52.2229 28.5637L53.2869 30.2572C52.1677 30.9604 51.0617 31.6766 49.9693 32.4057L48.859 30.7422ZM55.6434 26.478C56.7832 25.8036 57.9351 25.1421 59.0988 24.4933L60.0726 26.2402C58.9238 26.8807 57.7867 27.5337 56.6619 28.1993L55.6434 26.478ZM62.6246 22.5856C63.8013 21.9678 64.989 21.3627 66.1874 20.7701L67.0739 22.5629C65.8898 23.1484 64.7165 23.7462 63.5543 24.3564L62.6246 22.5856ZM69.7807 19.0459C70.9886 18.4836 72.2064 17.9337 73.4338 17.3963L74.236 19.2283C73.0225 19.7597 71.8186 20.3033 70.6248 20.8591L69.7807 19.0459ZM77.11 15.8353C78.3354 15.331 79.5695 14.8387 80.812 14.3584L81.533 16.2239C80.3038 16.699 79.0831 17.186 77.8713 17.6848L77.11 15.8353ZM84.5641 12.9539C85.8121 12.5017 87.0679 12.0614 88.3311 11.633L88.9735 13.527C87.7232 13.951 86.4804 14.3868 85.2454 14.8343L84.5641 12.9539ZM92.1179 10.3911C93.3872 9.98883 94.6634 9.59834 95.9461 9.21961L96.5124 11.1377C95.2423 11.5128 93.9787 11.8994 92.7221 12.2976L92.1179 10.3911ZM99.7854 8.12634C101.064 7.77558 102.348 7.43629 103.638 7.10848L104.13 9.04686C102.853 9.37158 101.581 9.70766 100.315 10.055L99.7854 8.12634ZM107.524 6.15951C108.817 5.85628 110.116 5.56441 111.42 5.28394L111.84 7.2392C110.549 7.51712 109.262 7.8063 107.98 8.10674L107.524 6.15951ZM115.322 4.48101C116.627 4.22463 117.937 3.97954 119.25 3.74573L119.601 5.71478C118.299 5.94652 117.001 6.18943 115.707 6.44351L115.322 4.48101ZM123.189 3.08027C124.499 2.87075 125.812 2.67236 127.129 2.48508L127.41 4.46516C126.105 4.6508 124.803 4.84748 123.505 5.05516L123.189 3.08027ZM131.087 1.9567C132.407 1.79197 133.73 1.63835 135.056 1.49586L135.269 3.48441C133.955 3.62569 132.644 3.77799 131.335 3.94131L131.087 1.9567ZM139.021 1.10334C140.346 0.983543 141.672 0.874786 142.999 0.7771L143.146 2.77171C141.83 2.86858 140.515 2.97642 139.202 3.0952L139.021 1.10334ZM146.985 0.517342C148.312 0.442024 149.639 0.377724 150.968 0.324448L151.048 2.32284C149.731 2.37567 148.414 2.43944 147.099 2.51412L146.985 0.517342ZM154.956 0.197693C156.286 0.166473 157.617 0.146301 158.947 0.137177L158.961 2.13713C157.641 2.14618 156.322 2.16618 155.003 2.19714L154.956 0.197693ZM162.938 0.142975C164.268 0.15596 165.598 0.180008 166.927 0.215126L166.874 2.21443C165.556 2.1796 164.237 2.15576 162.918 2.14288L162.938 0.142975ZM170.914 0.353729C172.244 0.411118 173.573 0.47963 174.901 0.559288L174.782 2.5557C173.465 2.47672 172.146 2.40878 170.827 2.35188L170.914 0.353729ZM178.883 0.831825C180.209 0.933838 181.533 1.04702 182.856 1.17139L182.668 3.16261C181.357 3.0393 180.044 2.92708 178.73 2.82594L178.883 0.831825ZM186.829 1.57944C188.153 1.72695 189.474 1.88577 190.794 2.05591L190.538 4.03947C189.23 3.87082 187.92 3.71339 186.607 3.56715L186.829 1.57944ZM194.742 2.60033C196.061 2.79386 197.376 2.99883 198.688 3.21526L198.362 5.18858C197.062 4.9741 195.759 4.77094 194.452 4.57911L194.742 2.60033ZM202.625 3.90117C203.934 4.14134 205.238 4.39306 206.539 4.65633L206.142 6.61658C204.854 6.35573 203.561 6.10631 202.264 5.86832L202.625 3.90117ZM210.443 5.48425C211.747 5.77339 213.046 6.07433 214.34 6.38708L213.87 8.33111C212.589 8.02134 211.302 7.72324 210.01 7.43681L210.443 5.48425ZM218.207 7.36079C219.495 7.69849 220.779 8.04812 222.056 8.4097L221.511 10.3341C220.246 9.97607 218.976 9.62988 217.7 9.29545L218.207 7.36079ZM225.897 9.53867C227.171 9.92713 228.439 10.3277 229.7 10.7405L229.078 12.6413C227.83 12.2328 226.575 11.8363 225.314 11.4517L225.897 9.53867ZM233.477 12.0203C234.741 12.4631 235.996 12.9183 237.244 13.3861L236.542 15.2589C235.308 14.7962 234.066 14.3458 232.816 13.9077L233.477 12.0203ZM240.965 14.8271C242.202 15.3219 243.431 15.8294 244.652 16.3495L243.867 18.1894C242.661 17.6752 241.446 17.1734 240.222 16.6841L240.965 14.8271ZM248.322 17.964C249.536 18.5151 250.741 19.0791 251.936 19.6561L251.067 21.4572C249.886 20.8872 248.695 20.3298 247.495 19.7852L248.322 17.964ZM255.509 21.4342C256.701 22.0459 257.883 22.6709 259.055 23.3093L258.097 25.0653C256.941 24.435 255.774 23.8178 254.596 23.2137L255.509 21.4342ZM262.535 25.2647C263.69 25.9335 264.834 26.6158 265.966 27.3118L264.919 29.0156C263.802 28.3289 262.673 27.6556 261.533 26.9955L262.535 25.2647ZM269.354 29.4585C270.471 30.1879 271.575 30.9312 272.666 31.6883L271.526 33.3316C270.45 32.5852 269.362 31.8524 268.26 31.133L269.354 29.4585ZM275.921 34.016C276.999 34.8107 278.063 35.6196 279.112 36.4429L277.878 38.0166C276.844 37.2058 275.796 36.4088 274.734 35.6257L275.921 34.016ZM282.218 38.9554C283.245 39.8125 284.257 40.6841 285.254 41.5702L283.925 43.0649C282.944 42.1928 281.948 41.3348 280.937 40.4909L282.218 38.9554ZM288.206 44.2811C289.174 45.1994 290.126 46.1322 291.062 47.0798L289.639 48.4849C288.719 47.5532 287.782 46.6356 286.83 45.7323L288.206 44.2811ZM293.83 49.9795C294.737 50.9617 295.626 51.9589 296.498 52.9708L294.982 54.2759C294.126 53.2815 293.252 52.3015 292.361 51.3359L293.83 49.9795ZM299.058 56.0513C299.893 57.0928 300.71 58.1492 301.508 59.2205L299.904 60.4152C299.12 59.3632 298.318 58.3256 297.498 57.3024L299.058 56.0513ZM303.844 62.4791C304.603 63.5786 305.342 64.6929 306.062 65.8221L304.375 66.8967C303.669 65.7883 302.943 64.6944 302.198 63.6149L303.844 62.4791ZM308.148 69.2346C308.824 70.3868 309.479 71.5537 310.114 72.7353L308.352 73.6818C307.729 72.5222 307.086 71.377 306.423 70.2462L308.148 69.2346ZM311.946 76.3036C312.53 77.4961 313.094 78.7028 313.636 79.9238L311.809 80.7361C311.276 79.5379 310.723 78.3537 310.15 77.1835L311.946 76.3036ZM315.201 83.6297C315.451 84.2546 315.696 84.883 315.935 85.515L314.065 86.2233C313.83 85.603 313.59 84.9862 313.344 84.373L315.201 83.6297Z" fill="#6282B2"/>
</svg>
