<svg width="67" height="66" viewBox="0 0 67 66" fill="#082553" xmlns="http://www.w3.org/2000/svg">
<path d="M42.6801 23.8204L42.6803 23.8206C50.343 31.4913 50.2396 43.7885 42.7322 51.3441C42.7122 51.3655 42.6918 51.3858 42.6801 51.3975L34.2801 59.7975C26.6761 67.4015 14.3059 67.4005 6.70304 59.7975C-0.901004 52.1948 -0.901014 39.8232 6.70301 32.2204C6.70302 32.2204 6.70303 32.2204 6.70304 32.2204L11.3413 27.5821C12.8745 26.0489 15.5265 27.0607 15.6062 29.2432M42.6801 23.8204L15.1066 29.2614M42.6801 23.8204C41.869 23.0093 40.9881 22.2711 40.0476 21.6144L40.0475 21.6143C39.0527 20.92 37.6998 21.0221 36.8348 21.8871L37.1883 22.2407M42.6801 23.8204L39.7613 22.0243C38.9611 21.4658 37.8784 21.5506 37.1883 22.2407M15.6062 29.2432L15.1066 29.2614M15.6062 29.2432C15.6062 29.2432 15.6062 29.2432 15.6062 29.2432L15.1066 29.2614M15.6062 29.2432C15.6855 31.4111 16.0743 33.5884 16.7911 35.6902C17.0992 36.5936 16.8806 37.5995 16.1985 38.2816L14.5626 39.9175C11.2474 43.2328 11.1507 48.6231 14.4217 51.9589C17.7298 55.3325 23.1683 55.3526 26.5018 52.0191L26.5018 52.0191L34.9018 43.6204L35.2553 43.9739M15.1066 29.2614C15.1876 31.4767 15.5848 33.7023 16.3178 35.8516C16.5661 36.5793 16.3887 37.3843 15.8449 37.9281L14.2091 39.5639C10.7058 43.0672 10.5959 48.7715 14.0647 52.3089C17.5677 55.8813 23.3254 55.9026 26.8553 52.3727L35.2553 43.9739M35.2553 43.9739L34.9018 43.6204C38.2298 40.2923 38.2162 34.9131 34.9018 31.5987M35.2553 43.9739C38.7792 40.4501 38.7644 34.7543 35.2553 31.2452M33.9627 30.1741C33.7052 29.9972 33.4926 29.7627 33.3418 29.4891C33.191 29.2155 33.1063 28.9105 33.0943 28.5983C33.0448 27.2774 33.5128 25.9163 34.5566 24.8726L37.1883 22.2407M33.9627 30.1741L33.6791 30.5859M33.9627 30.1741L33.6796 30.5862C33.6795 30.5861 33.6793 30.586 33.6791 30.5859M33.9627 30.1741C34.3267 30.4247 34.7927 30.7834 35.2553 31.2452M33.6791 30.5859C33.3576 30.365 33.0922 30.0721 32.9039 29.7304C32.7155 29.3886 32.6096 29.0075 32.5947 28.6175L32.5947 28.617C32.5403 27.1655 33.0552 25.6669 34.203 24.519L36.8348 21.8871L37.1883 22.2407M33.6791 30.5859C34.0246 30.8237 34.4656 31.1635 34.9018 31.5987M34.9018 31.5987L35.2553 31.2452M34.9018 31.5987C34.9019 31.5989 34.902 31.599 34.9021 31.5991L35.2553 31.2452M50.2088 30.3098C50.9256 32.4116 51.3144 34.5889 51.3937 36.7568C51.4735 38.9393 54.1253 39.9512 55.6586 38.4179L60.2968 33.7797C60.2969 33.7796 60.2969 33.7796 60.2969 33.7796C67.901 26.177 67.901 13.8054 60.297 6.20264C52.6941 -1.40036 40.3239 -1.40139 32.7199 6.20264L24.3199 14.6026L24.3199 14.6026C24.3083 14.6143 24.2879 14.6346 24.2678 14.6561C16.7606 22.2117 16.657 34.5089 24.3197 42.1796L24.3199 42.1798C25.131 42.9908 26.0119 43.729 26.9523 44.3857L26.9524 44.3857C27.9472 45.08 29.3002 44.9778 30.1651 44.1129L29.8116 43.7593L30.1651 44.1129L32.7969 41.481C33.9447 40.3331 34.4596 38.8345 34.4052 37.383L34.4052 37.3825C34.3903 36.9925 34.2844 36.6114 34.096 36.2696C33.9077 35.928 33.6423 35.635 33.3207 35.4141C32.9752 35.1762 32.5341 34.8364 32.0978 34.4009C28.7837 31.0865 28.7702 25.7076 32.0981 22.3796C32.0981 22.3796 32.0981 22.3796 32.0981 22.3796L40.4981 13.9809L40.4981 13.9809C43.8316 10.6474 49.27 10.6675 52.5782 14.0411C55.8491 17.3769 55.7526 22.7673 52.4373 26.0825L52.7908 26.4361L52.4373 26.0825L50.8014 27.7184C50.1193 28.4005 49.9007 29.4064 50.2088 30.3098ZM50.2088 30.3098L50.6821 30.1484M50.2088 30.3098C50.2088 30.3099 50.2088 30.3099 50.2088 30.3099L50.6821 30.1484M50.6821 30.1484C51.4151 32.2977 51.8123 34.5233 51.8933 36.7386C51.9569 38.4768 54.0751 39.2943 55.3051 38.0643L59.9433 33.4261L50.6821 30.1484Z" fill="#082553" stroke="none"/>
</svg>
