<svg width="57" height="56" viewBox="0 0 57 56" fill="#082553" xmlns="http://www.w3.org/2000/svg">
<path d="M48.7465 32.833H40.6889C40.8699 31.2476 40.9999 29.6475 40.9999 27.9997C40.9999 26.3519 40.8699 24.7518 40.6889 23.1663H48.7465C49.1111 24.725 49.3332 26.3426 49.3332 27.9997C49.3332 29.6568 49.1111 31.2743 48.7465 32.833ZM39.473 39.1663H46.0633C43.7589 42.7761 40.4027 45.5891 36.4532 47.2282C37.7236 44.6773 38.7299 41.969 39.473 39.1663ZM34.6666 27.9997C34.6666 29.6331 34.5123 31.228 34.3023 32.833H22.692C22.466 31.235 22.3333 29.638 22.3333 27.9997C22.3333 26.3625 22.4658 24.7448 22.6912 23.1663H34.303C34.5125 24.7518 34.6666 26.3676 34.6666 27.9997ZM28.4999 48.3358C26.6246 45.5171 25.0919 42.4426 24.0774 39.1663H32.9224C31.908 42.4426 30.3752 45.5171 28.4999 48.3358ZM20.5239 8.76523C19.2542 11.3216 18.2581 14.0327 17.4552 16.833H10.9308C13.2157 13.2113 16.5702 10.3928 20.5239 8.76523ZM17.4552 39.1663C18.2574 41.9642 19.2525 44.6731 20.5206 47.2275C16.5783 45.5876 13.2301 42.7746 10.9348 39.1663H17.4552ZM16.3109 32.833H8.25334C7.88871 31.2743 7.66658 29.6568 7.66658 27.9997C7.66658 26.3426 7.88871 24.725 8.25334 23.1663H16.3109C16.13 24.7518 15.9999 26.3519 15.9999 27.9997C15.9999 29.6475 16.13 31.2476 16.3109 32.833ZM24.0773 16.833C25.092 13.5535 26.625 10.458 28.4999 7.63719C30.3748 10.458 31.9078 13.5535 32.9225 16.833H24.0773ZM39.4741 16.833C38.7427 14.0472 37.7285 11.3444 36.4477 8.76644C40.4296 10.4099 43.7771 13.235 46.0652 16.833H39.4741ZM28.4999 0.833008C13.4761 0.833008 1.33325 13.0578 1.33325 27.9997C1.33325 35.2047 4.19545 42.1147 9.29018 47.2094C11.8128 49.7321 14.8077 51.7332 18.1037 53.0984C21.3997 54.4637 24.9323 55.1663 28.4999 55.1663C35.705 55.1663 42.6149 52.3041 47.7097 47.2094C52.8044 42.1147 55.6666 35.2047 55.6666 27.9997C55.6666 24.4321 54.9639 20.8995 53.5986 17.6034C52.2334 14.3074 50.2323 11.3126 47.7097 8.78994C45.187 6.26728 42.1922 4.2662 38.8961 2.90095C35.6001 1.53569 32.0675 0.833008 28.4999 0.833008Z" fill="#082553" stroke="#none"/>
</svg>
