<svg width="1920" height="3125" viewBox="0 0 1920 3125" fill="none" xmlns="http://www.w3.org/2000/svg">
<g clip-path="url(#clip0_1271_32805)">
<rect width="1920" height="3125" fill="#FFFCFF"/>
<g opacity="0.07">
<rect x="1596" y="1001.59" width="457.629" height="457.629" rx="29.2103" transform="rotate(-45 1596 1001.59)" fill="#87A1C9"/>
<rect x="1710.33" y="988.435" width="305.086" height="305.086" rx="29.2103" transform="rotate(-45 1710.33 988.435)" fill="white"/>
<rect x="1797" y="987.864" width="152.543" height="152.543" rx="29.2103" transform="rotate(-45 1797 987.864)" fill="#082553"/>
</g>
<g opacity="0.07">
<rect x="137" y="1752" width="205" height="217.185" rx="18.0756" fill="#87A1C9"/>
<rect x="171" y="1789" width="136.667" height="144.79" rx="18.0756" fill="white"/>
<rect x="205" y="1825" width="68.3333" height="72.3949" rx="18.0756" fill="#082553"/>
</g>
<g opacity="0.07">
<rect x="223" y="2188" width="137" height="159.185" rx="18.0756" fill="#87A1C9"/>
<rect x="247.659" y="2215.59" width="91.3333" height="106.123" rx="18.0756" fill="white"/>
<rect x="270" y="2237" width="45.6667" height="53.0615" rx="18.0756" fill="#082553"/>
</g>
<g opacity="0.07">
<rect x="1673" y="2033" width="137" height="159.185" rx="18.0756" fill="#87A1C9"/>
<rect x="1697.66" y="2060.59" width="91.3333" height="106.123" rx="18.0756" fill="white"/>
<rect x="1718.67" y="2087.12" width="45.6667" height="53.0615" rx="18.0756" fill="#082553"/>
</g>
<g opacity="0.05">
<rect x="-398.028" y="2725.21" width="565.149" height="565.149" rx="36.0734" transform="rotate(-45 -398.028 2725.21)" fill="#87A1C9"/>
<rect x="-256.83" y="2652.55" width="376.766" height="376.766" rx="36.0734" transform="rotate(-45 -256.83 2652.55)" fill="white"/>
<rect x="-128.951" y="2646.88" width="188.383" height="188.383" rx="36.0734" transform="rotate(-45 -128.951 2646.88)" fill="#082553"/>
</g>
<g opacity="0.17">
<rect x="1706" y="2485" width="322.013" height="322.013" rx="20.554" fill="#D0DFF6"/>
<rect x="1763.96" y="2470.82" width="214.675" height="214.675" rx="20.554" fill="white"/>
<rect x="1813.34" y="2524.48" width="107.338" height="107.338" rx="20.554" fill="#6282B2"/>
</g>
<g opacity="0.06">
<rect x="1548.01" y="2965.99" width="223.446" height="223.446" rx="14.2625" transform="rotate(-45 1548.01 2965.99)" fill="#D0DFF6"/>
<rect x="1603.83" y="2894.94" width="148.964" height="148.964" rx="14.2625" transform="rotate(-45 1603.83 2894.94)" fill="white"/>
<rect x="1654.39" y="2897.05" width="74.4819" height="74.4819" rx="14.2625" transform="rotate(-45 1654.39 2897.05)" fill="#6282B2"/>
</g>
<rect width="1200" height="376" transform="translate(360 666)" fill="#FFFCFF"/>
<g opacity="0.07">
<rect x="402" y="708" width="137" height="159.185" rx="18.0756" fill="#87A1C9"/>
<rect x="426.659" y="735.592" width="91.3333" height="106.123" rx="18.0756" fill="white"/>
<rect x="449" y="757" width="45.6667" height="53.0615" rx="18.0756" fill="#082553"/>
</g>
<rect opacity="0.03" x="1421.67" y="812.667" width="108.333" height="108.333" rx="20.7447" fill="#6282B2"/>
<rect width="1200" height="816" transform="translate(360 1042)" fill="#FFFCFF"/>
<rect opacity="0.1" x="610.5" y="1584" width="62.6667" height="62.6667" rx="12" fill="#6282B2"/>
<rect opacity="0.1" x="931.5" y="1401" width="62.6667" height="62.6667" rx="12" fill="#6282B2"/>
<rect opacity="0.1" x="1237.5" y="1553" width="62.6667" height="62.6667" rx="12" fill="#6282B2"/>
<g opacity="0.07">
<rect x="-77" y="466.242" width="283.185" height="283.185" rx="18.0756" transform="rotate(-45 -77 466.242)" fill="#87A1C9"/>
<rect x="-6.24902" y="464.907" width="188.79" height="188.79" rx="18.0756" transform="rotate(-45 -6.24902 464.907)" fill="white"/>
<rect x="57.8291" y="467.577" width="94.3949" height="94.3949" rx="18.0756" transform="rotate(-45 57.8291 467.577)" fill="#082553"/>
</g>
<g opacity="0.05">
<rect x="-92" y="-17" width="283.185" height="283.185" rx="18.0756" fill="#87A1C9"/>
<rect x="-41.0273" y="32.085" width="188.79" height="188.79" rx="18.0756" fill="white"/>
<rect x="2.39453" y="79.2825" width="94.3949" height="94.3949" rx="18.0756" fill="#082553"/>
</g>
<g opacity="0.03">
<rect x="665" y="-17" width="238.185" height="238.185" rx="15.2033" fill="#87A1C9"/>
<rect x="707.873" y="24.2849" width="158.79" height="158.79" rx="15.2033" fill="white"/>
<rect x="744.395" y="63.9824" width="79.3949" height="79.3949" rx="15.2033" fill="#082553"/>
</g>
<g opacity="0.03">
<rect x="868" y="212" width="238.185" height="238.185" rx="15.2033" fill="#87A1C9"/>
<rect x="910.873" y="253.285" width="158.79" height="158.79" rx="15.2033" fill="white"/>
<rect x="947.395" y="292.982" width="79.3949" height="79.3949" rx="15.2033" fill="#082553"/>
</g>
<g opacity="0.07">
<rect x="1552" y="281" width="368.185" height="368.185" rx="23.5011" fill="#87A1C9"/>
<rect x="1618.27" y="344.818" width="245.456" height="245.456" rx="23.5011" fill="white"/>
<rect x="1674.73" y="406.182" width="122.728" height="122.728" rx="23.5011" fill="#082553"/>
</g>
<g opacity="0.03">
<rect x="1521" y="-26" width="238.185" height="238.185" rx="15.2033" fill="#87A1C9"/>
<rect x="1563.87" y="15.2849" width="158.79" height="158.79" rx="15.2033" fill="white"/>
<rect x="1600.39" y="54.9824" width="79.3949" height="79.3949" rx="15.2033" fill="#082553"/>
</g>
<g opacity="0.03">
<rect x="-7" y="1100" width="287" height="353" rx="28.5107" fill="#87A1C9"/>
<rect x="44.6592" y="1161.19" width="191.333" height="235.333" rx="28.5107" fill="white"/>
<rect x="88.666" y="1220.02" width="95.6667" height="117.667" rx="28.5107" fill="#082553"/>
</g>
</g>
<defs>
<clipPath id="clip0_1271_32805">
<rect width="1920" height="3125" fill="white"/>
</clipPath>
</defs>
</svg>
